<?xml version="1.0" encoding="UTF-8" standalone="no"?>
<svg
   xmlns:dc="http://purl.org/dc/elements/1.1/"
   xmlns:cc="http://creativecommons.org/ns#"
   xmlns:rdf="http://www.w3.org/1999/02/22-rdf-syntax-ns#"
   xmlns:svg="http://www.w3.org/2000/svg"
   xmlns="http://www.w3.org/2000/svg"
   xmlns:xlink="http://www.w3.org/1999/xlink"
   xml:space="preserve"
   style="enable-background:new 0 0 300 300;"
   viewBox="0 0 300 300"
   y="0px"
   x="0px"
   id="Countryflags.com"
   version="1.1"><metadata
   id="metadata30"><rdf:RDF><cc:Work
       rdf:about=""><dc:format>image/svg+xml</dc:format><dc:type
         rdf:resource="http://purl.org/dc/dcmitype/StillImage" /><dc:title></dc:title></cc:Work></rdf:RDF></metadata><defs
   id="defs28" />
<style
   id="style2"
   type="text/css">
	.st0{clip-path:url(#SVGID_2_);}
	.st1{fill:#EC2227;}
	.st2{fill:#005EA5;}
	.st3{fill:#FFFFFF;}
	.st4{fill:#FDDB00;}
</style>
<g
   id="g23">
	<defs
   id="defs5">
		<circle
   r="150"
   cy="150"
   cx="150"
   id="SVGID_1_" />
	</defs>
	<clipPath
   id="SVGID_2_">
		<use
   height="100%"
   width="100%"
   y="0"
   x="0"
   id="use7"
   style="overflow:visible"
   xlink:href="#SVGID_1_" />
	</clipPath>
	<g
   id="g21"
   clip-path="url(#SVGID_2_)"
   class="st0">
		<rect
   style="fill:#ec2227;stroke-width:0.57735026"
   y="200"
   height="100"
   width="600"
   class="st1"
   x="-50"
   id="_x31_1" />
		<rect
   style="fill:#005ea5;stroke-width:0.70710677"
   y="100"
   height="100"
   width="600"
   class="st2"
   x="-50"
   id="_x31_0" />
		<rect
   style="fill:#ffffff"
   y="0"
   height="100"
   width="600"
   class="st3"
   x="-50"
   id="_x39_" />
		<path
   style="fill:#005ea5"
   d="M 135.8,105.2 139,58.7 C 114.4,47.1 85.9,47.1 61.4,58.7 l 3.1,46.5 c 1.4,20.9 15.6,38.7 35.7,44.8 20,-6.1 34.2,-23.9 35.6,-44.8"
   class="st2"
   id="_x38_" />
		<path
   style="fill:#ffffff"
   d="m 71,111.5 c 3.4,15.2 14.4,27.5 29.1,32.6 14.7,-5.1 25.7,-17.4 29.1,-32.6 L 114.6,92.1 108.8,99.9 100.1,82.4 91.4,99.9 85.6,92.1 71,111.5"
   class="st3"
   id="_x37_" />
		<path
   style="fill:#005ea5"
   d="m 72.3,116.4 c 2.7,4.6 8.6,6.2 13.3,3.6 v 0 c 3,-1.7 6.7,-1.7 9.7,0 3,1.7 6.7,1.7 9.7,0 3,-1.7 6.7,-1.7 9.7,0 4.6,2.7 10.6,1.1 13.3,-3.6 v 0 2.8 c -2.7,4.6 -8.6,6.2 -13.3,3.6 v 0 c -3,-1.7 -6.7,-1.7 -9.7,0 -3,1.7 -6.7,1.7 -9.7,0 -3,-1.7 -6.7,-1.7 -9.7,0 -4.6,2.7 -10.6,1.1 -13.3,-3.6 v 0 z"
   class="st2"
   id="_x36_" />
		<path
   style="fill:#005ea5"
   d="m 72.3,122 c 2.7,4.6 8.6,6.2 13.3,3.6 v 0 c 3,-1.7 6.7,-1.7 9.7,0 3,1.7 6.7,1.7 9.7,0 3,-1.7 6.7,-1.7 9.7,0 4.6,2.7 10.6,1.1 13.3,-3.6 v 0 2.8 c -2.7,4.6 -8.6,6.2 -13.3,3.6 v 0 c -3,-1.7 -6.7,-1.7 -9.7,0 -3,1.7 -6.7,1.7 -9.7,0 -3,-1.7 -6.7,-1.7 -9.7,0 -4.6,2.7 -10.6,1.1 -13.3,-3.6 0,0 0,0 0,0 z"
   class="st2"
   id="_x35_" />
		<path
   style="fill:#fddb00"
   d="m 100.2,69.1 0.7,2.4 2.4,-0.6 -1.7,1.8 1.7,1.8 -2.4,-0.6 -0.7,2.4 -0.8,-2.3 -2.4,0.5 1.7,-1.8 -1.7,-1.8 2.4,0.6 z"
   class="st4"
   id="_x34_" />
		<path
   style="fill:#fddb00"
   d="m 89.2,54.5 0.7,2.4 2.4,-0.6 -1.7,1.8 1.7,1.8 -2.3,-0.5 -0.7,2.4 -0.7,-2.4 -2.5,0.6 1.7,-1.8 -1.7,-1.8 2.4,0.6 z"
   class="st4"
   id="_x33_" />
		<path
   style="fill:#fddb00"
   d="m 111.1,54.5 0.7,2.4 2.4,-0.6 -1.7,1.8 1.7,1.8 -2.4,-0.6 -0.7,2.4 -0.7,-2.4 -2.4,0.6 1.7,-1.8 -1.7,-1.8 2.4,0.6 z"
   class="st4"
   id="_x32_" />
		<path
   style="fill:#ec2227"
   d="m 64.1,57.5 3.2,47.5 c 1.3,19.4 14.3,36.1 32.9,42 18.5,-6 31.5,-22.6 32.9,-42 l 3.2,-47.5 c 0.9,0.4 1.8,0.8 2.7,1.2 l -3.2,46.5 c -1.4,20.9 -15.6,38.7 -35.7,44.8 -20,-6.1 -34.2,-23.9 -35.7,-44.8 L 61.3,58.7 c 1,-0.4 1.9,-0.8 2.8,-1.2"
   class="st1"
   id="_x31_" />
	</g>
</g>
</svg>