<svg version="1.1" id="Countryflags.com" xmlns="http://www.w3.org/2000/svg" xmlns:xlink="http://www.w3.org/1999/xlink" x="0" y="0" viewBox="0 0 300 300" xml:space="preserve"><style>.st1{fill:#ec2227}.st2{fill:#005ea5}.st3{fill:#fff}.st4{fill:#fddb00}</style><defs><circle id="SVGID_1_" cx="150" cy="150" r="150"/></defs><clipPath id="SVGID_2_"><use xlink:href="#SVGID_1_" overflow="visible"/></clipPath><g clip-path="url(#SVGID_2_)"><path id="_x31_1" class="st1" d="M-50 0h600v300H-50z"/><path id="_x31_0" class="st2" d="M-50 0h600v200H-50z"/><path id="_x39_" class="st3" d="M-50 0h600v100H-50z"/><path id="_x38_" class="st2" d="M135.8 105.2l3.2-46.5c-24.6-11.6-53.1-11.6-77.6 0l3.1 46.5c1.4 20.9 15.6 38.7 35.7 44.8 20-6.1 34.2-23.9 35.6-44.8"/><path id="_x37_" class="st3" d="M71 111.5a44.84 44.84 0 0029.1 32.6 44.84 44.84 0 0029.1-32.6l-14.6-19.4-5.8 7.8-8.7-17.5-8.7 17.5-5.8-7.8L71 111.5"/><path id="_x36_" class="st2" d="M72.3 116.4c2.7 4.6 8.6 6.2 13.3 3.6 3-1.7 6.7-1.7 9.7 0 3 1.7 6.7 1.7 9.7 0 3-1.7 6.7-1.7 9.7 0 4.6 2.7 10.6 1.1 13.3-3.6v2.8c-2.7 4.6-8.6 6.2-13.3 3.6-3-1.7-6.7-1.7-9.7 0-3 1.7-6.7 1.7-9.7 0-3-1.7-6.7-1.7-9.7 0-4.6 2.7-10.6 1.1-13.3-3.6v-2.8z"/><path id="_x35_" class="st2" d="M72.3 122c2.7 4.6 8.6 6.2 13.3 3.6 3-1.7 6.7-1.7 9.7 0 3 1.7 6.7 1.7 9.7 0 3-1.7 6.7-1.7 9.7 0 4.6 2.7 10.6 1.1 13.3-3.6v2.8c-2.7 4.6-8.6 6.2-13.3 3.6-3-1.7-6.7-1.7-9.7 0-3 1.7-6.7 1.7-9.7 0-3-1.7-6.7-1.7-9.7 0-4.6 2.7-10.6 1.1-13.3-3.6V122z"/><path id="_x34_" class="st4" d="M100.2 69.1l.7 2.4 2.4-.6-1.7 1.8 1.7 1.8-2.4-.6-.7 2.4-.8-2.3-2.4.5 1.7-1.8-1.7-1.8 2.4.6.8-2.4z"/><path id="_x33_" class="st4" d="M89.2 54.5l.7 2.4 2.4-.6-1.7 1.8 1.7 1.8-2.3-.5-.7 2.4-.7-2.4-2.5.6 1.7-1.8-1.7-1.8 2.4.6.7-2.5z"/><path id="_x32_" class="st4" d="M111.1 54.5l.7 2.4 2.4-.6-1.7 1.8 1.7 1.8-2.4-.6-.7 2.4-.7-2.4-2.4.6 1.7-1.8-1.7-1.8 2.4.6.7-2.4z"/><path id="_x31_" class="st1" d="M64.1 57.5l3.2 47.5c1.3 19.4 14.3 36.1 32.9 42 18.5-6 31.5-22.6 32.9-42l3.2-47.5 2.7 1.2-3.2 46.5c-1.4 20.9-15.6 38.7-35.7 44.8-20-6.1-34.2-23.9-35.7-44.8l-3.1-46.5c1-.4 1.9-.8 2.8-1.2"/></g></svg>