<?xml version="1.0" encoding="UTF-8" standalone="no"?>
<svg
   xmlns:dc="http://purl.org/dc/elements/1.1/"
   xmlns:cc="http://creativecommons.org/ns#"
   xmlns:rdf="http://www.w3.org/1999/02/22-rdf-syntax-ns#"
   xmlns:svg="http://www.w3.org/2000/svg"
   xmlns="http://www.w3.org/2000/svg"
   viewBox="0 0 400 400"
   height="400"
   width="400"
   xml:space="preserve"
   id="svg2544"
   version="1.1"><metadata
     id="metadata2550"><rdf:RDF><cc:Work
         rdf:about=""><dc:format>image/svg+xml</dc:format><dc:type
           rdf:resource="http://purl.org/dc/dcmitype/StillImage" /><dc:title></dc:title></cc:Work></rdf:RDF></metadata><defs
     id="defs2548"><clipPath
       id="clipPath2560"
       clipPathUnits="userSpaceOnUse"><path
         id="path2558"
         d="M 150,300 C 67.157,300 0,232.843 0,150 v 0 C 0,67.157 67.157,0 150,0 v 0 c 82.843,0 150,67.157 150,150 v 0 c 0,82.843 -67.157,150 -150,150 z" /></clipPath></defs><g
     transform="matrix(1.3333333,0,0,-1.3333333,0,400)"
     id="g2552"><g
       id="g2554"><g
         clip-path="url(#clipPath2560)"
         id="g2556"><path
           id="path2562"
           style="fill:#ec2227;fill-opacity:1;fill-rule:nonzero;stroke:none"
           d="M -50.001,300 H 550.001 V 0 H -50.001 Z" /><path
           id="path2564"
           style="fill:#005ea5;fill-opacity:1;fill-rule:nonzero;stroke:none"
           d="M -50.001,300 H 550.001 V 99.999 H -50.001 Z" /><path
           id="path2566"
           style="fill:#ffffff;fill-opacity:1;fill-rule:nonzero;stroke:none"
           d="M -50.001,300 H 550.001 V 200 H -50.001 Z" /><g
           transform="translate(135.8156,194.7772)"
           id="g2568"><path
             id="path2570"
             style="fill:#005ea5;fill-opacity:1;fill-rule:nonzero;stroke:none"
             d="m 0,0 3.151,46.491 c -24.564,11.641 -53.056,11.641 -77.621,0 L -71.32,0 c 1.416,-20.891 15.617,-38.723 35.661,-44.777 C -15.615,-38.723 -1.414,-20.891 0,0" /></g><g
           transform="translate(71.0489,188.4781)"
           id="g2572"><path
             id="path2574"
             style="fill:#ffffff;fill-opacity:1;fill-rule:nonzero;stroke:none"
             d="M 0,0 C 3.374,-15.186 14.397,-27.53 29.108,-32.591 43.818,-27.53 54.841,-15.186 58.215,0 L 43.661,19.405 37.84,11.643 29.108,29.107 20.375,11.643 14.554,19.405 0,0" /></g><g
           transform="translate(72.3489,183.6267)"
           id="g2576"><path
             id="path2578"
             style="fill:#005ea5;fill-opacity:1;fill-rule:nonzero;stroke:none"
             d="m 0,0 c 2.68,-4.641 8.613,-6.231 13.254,-3.552 3.002,1.734 6.701,1.734 9.702,0 3.002,-1.733 6.702,-1.733 9.703,0 3.002,1.734 6.701,1.734 9.702,0 C 47.002,-6.231 52.936,-4.641 55.616,0 v -2.801 c -2.679,-4.641 -8.614,-6.23 -13.255,-3.552 -3.001,1.734 -6.7,1.734 -9.702,0 -3.001,-1.733 -6.701,-1.733 -9.703,0 -3.001,1.734 -6.7,1.734 -9.702,0 C 8.613,-9.031 2.68,-7.442 0,-2.801 Z" /></g><g
           transform="translate(72.3489,178.0251)"
           id="g2580"><path
             id="path2582"
             style="fill:#005ea5;fill-opacity:1;fill-rule:nonzero;stroke:none"
             d="m 0,0 c 2.68,-4.641 8.613,-6.231 13.254,-3.552 3.002,1.734 6.701,1.734 9.702,0 3.002,-1.733 6.702,-1.733 9.703,0 3.002,1.734 6.701,1.734 9.702,0 4.641,-2.679 10.575,-1.09 13.255,3.551 V 0 -2.801 c -2.679,-4.64 -8.614,-6.232 -13.255,-3.552 -3.001,1.734 -6.7,1.734 -9.702,0 -3.001,-1.733 -6.701,-1.733 -9.703,0 -3.001,1.734 -6.7,1.734 -9.702,0 C 8.613,-9.033 2.68,-7.442 0,-2.802 v 10e-4 z" /></g><g
           transform="translate(100.1567,230.9263)"
           id="g2584"><path
             id="path2586"
             style="fill:#fddb00;fill-opacity:1;fill-rule:nonzero;stroke:none"
             d="M 0,0 0.727,-2.378 3.151,-1.819 1.455,-3.639 3.151,-5.458 0.727,-4.899 0,-7.277 l -0.728,2.378 -2.424,-0.559 1.696,1.819 -1.696,1.82 2.424,-0.559 z" /></g><g
           transform="translate(89.2411,245.48)"
           id="g2588"><path
             id="path2590"
             style="fill:#fddb00;fill-opacity:1;fill-rule:nonzero;stroke:none"
             d="M 0,0 0.728,-2.378 3.151,-1.819 1.455,-3.639 3.151,-5.458 0.728,-4.899 0,-7.277 l -0.728,2.378 -2.423,-0.559 1.695,1.819 -1.695,1.82 2.423,-0.559 z" /></g><g
           transform="translate(111.0718,245.48)"
           id="g2592"><path
             id="path2594"
             style="fill:#fddb00;fill-opacity:1;fill-rule:nonzero;stroke:none"
             d="M 0,0 0.727,-2.378 3.151,-1.819 1.455,-3.639 3.151,-5.458 0.727,-4.899 0,-7.277 l -0.727,2.378 -2.425,-0.559 1.697,1.819 -1.697,1.82 2.425,-0.559 z" /></g><g
           transform="translate(64.0695,242.5051)"
           id="g2596"><path
             id="path2598"
             style="fill:#ec2227;fill-opacity:1;fill-rule:nonzero;stroke:none"
             d="m 0,0 3.222,-47.54 c 1.316,-19.417 14.338,-36.069 32.865,-42.028 18.526,5.959 31.549,22.611 32.865,42.028 L 72.174,0 c 0.901,-0.427 1.809,-0.839 2.723,-1.236 L 71.746,-47.727 C 70.332,-68.618 56.131,-86.45 36.087,-92.505 16.043,-86.45 1.842,-68.618 0.426,-47.727 L -2.723,-1.236 C -1.808,-0.839 -0.9,-0.427 0,0" /></g></g></g></g></svg>