<svg xmlns="http://www.w3.org/2000/svg" height="400" width="400"><defs><clipPath id="a" clipPathUnits="userSpaceOnUse"><path d="M150 300C67.157 300 0 232.843 0 150S67.157 0 150 0s150 67.157 150 150-67.157 150-150 150z"/></clipPath></defs><g clip-path="url(#a)" transform="matrix(1.33333 0 0 -1.33333 0 400)"><path d="M449.686.034h-599.685V300h599.685z" fill="#fff"/><path d="M119.856 120.11V.035h59.975V120.11h269.856v59.969H179.83V300h-59.975V180.08H-150v-59.97z" fill="#cf142b"/><path d="M199.83 202.9V300h194.16zM199.83 97.133V.034h194.16zM99.856 97.133V.034h-194.16zM99.856 202.9V300h-194.16z" fill="#00247d"/><path d="M449.686 300h-33.308L216.8 200.014h33.308L450 300M82.885 100.025H49.577L-150 .039h33.308L83.2 100.025M16.535 199.936h33.308L-150 300v-16.77zM283.045 100.064h-33.308L449.58 0l.001 16.77z" fill="#cf142b"/></g></svg>