<svg version="1.1" id="Countryflags.com" xmlns="http://www.w3.org/2000/svg" xmlns:xlink="http://www.w3.org/1999/xlink" x="0" y="0" viewBox="0 0 300 300" xml:space="preserve"><style>.st2{fill:#cf142b}.st3{fill:#00247d}</style><defs><circle id="SVGID_1_" cx="150" cy="150" r="150"/></defs><clipPath id="SVGID_2_"><use xlink:href="#SVGID_1_" overflow="visible"/></clipPath><g clip-path="url(#SVGID_2_)"><path id="_x31_4_1_" fill="#fff" d="M-150 0h599.7v300H-150z"/><path id="_x31_3_1_" class="st2" d="M119.9 179.9V300h59.9V179.9h269.9v-60H179.8V0h-59.9v119.9H-150v60z"/><path id="_x31_2_1_" class="st3" d="M199.8 97.1V0H394z"/><path id="_x31_1_1_" class="st3" d="M199.8 202.9V300H394z"/><path id="_x31_0_1_" class="st3" d="M99.9 202.9V300H-94.3z"/><path id="_x39__1_" class="st3" d="M99.9 97.1V0H-94.3z"/><path id="_x38__1_" class="st3" d="M-150 27.9V100H-5.8z"/><path id="_x37__1_" class="st3" d="M449.7 27.9V100H305.5z"/><path id="_x36__1_" class="st3" d="M449.7 272.1V200H305.5z"/><path id="_x35__1_" class="st3" d="M-150 272.1V200H-5.8z"/><path id="_x34__1_" class="st2" d="M449.7 0h-33.3L216.8 100h33.3L450 0"/><path id="_x33_" class="st2" d="M82.9 200H49.6L-150 300h33.3L83.2 200"/><path id="_x32__1_" class="st2" d="M16.5 100.1h33.3L-150 0v16.8z"/><path id="_x31__1_" class="st2" d="M283 199.9h-33.3L449.6 300v-16.8z"/></g></svg>