<?xml version="1.0" encoding="UTF-8" standalone="no"?>
<svg
   xmlns:dc="http://purl.org/dc/elements/1.1/"
   xmlns:cc="http://creativecommons.org/ns#"
   xmlns:rdf="http://www.w3.org/1999/02/22-rdf-syntax-ns#"
   xmlns:svg="http://www.w3.org/2000/svg"
   xmlns="http://www.w3.org/2000/svg"
   viewBox="0 0 400 400"
   height="400"
   width="400"
   xml:space="preserve"
   id="svg6106"
   version="1.1"><metadata
     id="metadata6112"><rdf:RDF><cc:Work
         rdf:about=""><dc:format>image/svg+xml</dc:format><dc:type
           rdf:resource="http://purl.org/dc/dcmitype/StillImage" /><dc:title></dc:title></cc:Work></rdf:RDF></metadata><defs
     id="defs6110"><clipPath
       id="clipPath6122"
       clipPathUnits="userSpaceOnUse"><path
         id="path6120"
         d="M 150,300 C 67.157,300 0,232.843 0,150 v 0 C 0,67.157 67.157,0 150,0 v 0 c 82.843,0 150,67.157 150,150 v 0 c 0,82.843 -67.157,150 -150,150 z" /></clipPath></defs><g
     transform="matrix(1.3333333,0,0,-1.3333333,0,400)"
     id="g6114"><g
       id="g6116"><g
         clip-path="url(#clipPath6122)"
         id="g6118"><path
           id="path6124"
           style="fill:#ffffff;fill-opacity:1;fill-rule:nonzero;stroke:none"
           d="M 449.686,0.034 H -149.999 V 300 h 599.685 z" /><g
           transform="translate(119.8556,120.1107)"
           id="g6126"><path
             id="path6128"
             style="fill:#cf142b;fill-opacity:1;fill-rule:nonzero;stroke:none"
             d="M 0,0 V -120.077 H 59.975 V 0 H 329.831 V 59.969 H 59.975 v 119.92 H 0 V 59.969 H -269.856 V 0 Z" /></g><g
           transform="translate(199.8298,202.9006)"
           id="g6130"><path
             id="path6132"
             style="fill:#00247d;fill-opacity:1;fill-rule:nonzero;stroke:none"
             d="M 0,0 V 97.099 H 194.16 Z" /></g><g
           transform="translate(199.8298,97.1333)"
           id="g6134"><path
             id="path6136"
             style="fill:#00247d;fill-opacity:1;fill-rule:nonzero;stroke:none"
             d="M 0,0 V -97.099 H 194.16 Z" /></g><g
           transform="translate(99.8564,97.1333)"
           id="g6138"><path
             id="path6140"
             style="fill:#00247d;fill-opacity:1;fill-rule:nonzero;stroke:none"
             d="M 0,0 V -97.099 H -194.16 Z" /></g><g
           transform="translate(99.8564,202.9006)"
           id="g6142"><path
             id="path6144"
             style="fill:#00247d;fill-opacity:1;fill-rule:nonzero;stroke:none"
             d="M 0,0 V 97.099 H -194.16 Z" /></g><g
           transform="translate(449.6857,300)"
           id="g6146"><path
             id="path6148"
             style="fill:#cf142b;fill-opacity:1;fill-rule:nonzero;stroke:none"
             d="m 0,0 h -33.308 l -199.578,-99.986 h 33.308 L 0.314,0" /></g><g
           transform="translate(82.8855,100.025)"
           id="g6150"><path
             id="path6152"
             style="fill:#cf142b;fill-opacity:1;fill-rule:nonzero;stroke:none"
             d="m 0,0 h -33.308 l -199.578,-99.986 h 33.308 L 0.314,0" /></g><g
           transform="translate(16.5345,199.9361)"
           id="g6154"><path
             id="path6156"
             style="fill:#cf142b;fill-opacity:1;fill-rule:nonzero;stroke:none"
             d="m 0,0 h 33.308 l -199.842,100.064 -0.001,-16.77 z" /></g><g
           transform="translate(283.0451,100.0638)"
           id="g6158"><path
             id="path6160"
             style="fill:#cf142b;fill-opacity:1;fill-rule:nonzero;stroke:none"
             d="m 0,0 h -33.308 l 199.842,-100.064 0.001,16.77 z" /></g></g></g></g></svg>