<?xml version="1.0" encoding="UTF-8" standalone="no"?>
<svg
   xmlns:dc="http://purl.org/dc/elements/1.1/"
   xmlns:cc="http://creativecommons.org/ns#"
   xmlns:rdf="http://www.w3.org/1999/02/22-rdf-syntax-ns#"
   xmlns:svg="http://www.w3.org/2000/svg"
   xmlns="http://www.w3.org/2000/svg"
   width="60"
   height="60"
   viewBox="0 0 15.875 15.875"
   version="1.1"
   id="svg4874">
  <defs
     id="defs4868" />
  <metadata
     id="metadata4871">
    <rdf:RDF>
      <cc:Work
         rdf:about="">
        <dc:format>image/svg+xml</dc:format>
        <dc:type
           rdf:resource="http://purl.org/dc/dcmitype/StillImage" />
        <dc:title></dc:title>
      </cc:Work>
    </rdf:RDF>
  </metadata>
  <g
     id="layer1"
     transform="translate(0,-281.12499)">
    <path
       id="Oval"
       d="m 7.9375,281.13086 c -4.3766114,0 -7.93164062,3.55503 -7.93164062,7.93164 0,4.37661 3.55502922,7.93164 7.93164062,7.93164 4.376611,0 7.931641,-3.55503 7.931641,-7.93164 0,-4.37661 -3.55503,-7.93164 -7.931641,-7.93164 z m 0,0.68945 c 4.003851,0 7.242188,3.23834 7.242188,7.24219 0,4.00385 -3.238337,7.24219 -7.242188,7.24219 -4.003851,0 -7.2421875,-3.23834 -7.2421875,-7.24219 0,-4.00385 3.2383365,-7.24219 7.2421875,-7.24219 z"
       style="color:#000000;font-style:normal;font-variant:normal;font-weight:normal;font-stretch:normal;font-size:medium;line-height:normal;font-family:sans-serif;font-variant-ligatures:normal;font-variant-position:normal;font-variant-caps:normal;font-variant-numeric:normal;font-variant-alternates:normal;font-feature-settings:normal;text-indent:0;text-align:start;text-decoration:none;text-decoration-line:none;text-decoration-style:solid;text-decoration-color:#000000;letter-spacing:normal;word-spacing:normal;text-transform:none;writing-mode:lr-tb;direction:ltr;text-orientation:mixed;dominant-baseline:auto;baseline-shift:baseline;text-anchor:start;white-space:normal;shape-padding:0;clip-rule:nonzero;display:inline;overflow:visible;visibility:visible;opacity:1;isolation:auto;mix-blend-mode:normal;color-interpolation:sRGB;color-interpolation-filters:linearRGB;solid-color:#000000;solid-opacity:1;vector-effect:none;fill:#000000;fill-opacity:1;fill-rule:nonzero;stroke:none;stroke-width:0.68973494;stroke-linecap:butt;stroke-linejoin:miter;stroke-miterlimit:4;stroke-dasharray:none;stroke-dashoffset:0;stroke-opacity:1;color-rendering:auto;image-rendering:auto;shape-rendering:auto;text-rendering:auto;enable-background:accumulate" />
    <path
       id="Shape"
       d="M 8.3858276,293.54576 H 6.6959769 v -3.96598 h -0.827682 v -1.37946 h 0.827682 v -0.82769 c 0,-1.10358 0.4828144,-1.79332 1.8277976,-1.79332 h 1.1380628 v 1.37948 H 8.9721024 c -0.5173013,0 -0.5517881,0.20692 -0.5517881,0.55179 v 0.68974 h 1.241523 l -0.137947,1.37946 H 8.3858276 Z"
       style="stroke-width:0.34486747" />
  </g>
  <g
     id="layer2" />
</svg>
