<?xml version="1.0" encoding="UTF-8" standalone="no"?>
<svg
   xmlns:dc="http://purl.org/dc/elements/1.1/"
   xmlns:cc="http://creativecommons.org/ns#"
   xmlns:rdf="http://www.w3.org/1999/02/22-rdf-syntax-ns#"
   xmlns:svg="http://www.w3.org/2000/svg"
   xmlns="http://www.w3.org/2000/svg"
   id="svg4874"
   version="1.1"
   viewBox="0 0 15.875 15.875"
   height="60"
   width="60">
  <defs
     id="defs4868" />
  <metadata
     id="metadata4871">
    <rdf:RDF>
      <cc:Work
         rdf:about="">
        <dc:format>image/svg+xml</dc:format>
        <dc:type
           rdf:resource="http://purl.org/dc/dcmitype/StillImage" />
        <dc:title></dc:title>
      </cc:Work>
    </rdf:RDF>
  </metadata>
  <g
     transform="translate(0,-281.12499)"
     id="layer1">
    <circle
       r="7.5908518"
       cy="289.0625"
       cx="7.9375"
       id="Oval_22_"
       style="fill:none;stroke:#000000;stroke-width:0.69007742" />
    <path
       style="stroke-width:0.34503871"
       d="m 4.866655,287.99284 c 0.1035116,0.069 0.3795426,0.24153 0.8625967,0.55206 0.4830543,0.31054 0.8625969,0.55207 1.104124,0.72458 0.034503,0.0346 0.1035116,0.069 0.1725194,0.10355 0.1035116,0.069 0.1725192,0.10354 0.241527,0.13802 0.069008,0.0346 0.1380155,0.069 0.2070233,0.13801 0.069008,0.0346 0.1725194,0.069 0.241527,0.10355 0.069008,0.0346 0.1380156,0.0346 0.2070232,0.0346 v 0 0 c 0.069008,0 0.1380156,0 0.2070233,-0.0346 0.069008,-0.0346 0.1725194,-0.069 0.2415272,-0.10355 0.069008,-0.0346 0.1725192,-0.10354 0.2070232,-0.13801 0.069008,-0.0346 0.1380154,-0.10354 0.2415271,-0.13802 0.1035116,-0.069 0.1380154,-0.10355 0.1725194,-0.10355 0.2760309,-0.17251 0.9316045,-0.58656 1.9667212,-1.27664 0.207023,-0.13801 0.379543,-0.31054 0.517558,-0.48306 0.138015,-0.17252 0.207023,-0.37954 0.207023,-0.58656 0,-0.17252 -0.06901,-0.31053 -0.207023,-0.44856 -0.138015,-0.13801 -0.276031,-0.17251 -0.483055,-0.17251 H 4.8321511 c -0.2070232,0 -0.3795426,0.069 -0.517558,0.20702 -0.1035117,0.13801 -0.1725194,0.31054 -0.1725194,0.51756 0,0.17252 0.069008,0.34504 0.241527,0.55206 0.1380156,0.17252 0.3105349,0.31053 0.4830543,0.41405 z m 6.452225,0.41405 c -0.931605,0.58656 -1.6216829,1.03511 -2.1047372,1.34564 -0.1725194,0.10354 -0.276031,0.20702 -0.3795426,0.24153 -0.1035116,0.069 -0.2415271,0.13801 -0.4140465,0.17252 -0.1725192,0.069 -0.3105348,0.10354 -0.4830541,0.10354 v 0 0 c -0.1380156,0 -0.3105348,-0.0346 -0.4830542,-0.10354 -0.1725194,-0.069 -0.3105349,-0.13802 -0.4140465,-0.17252 -0.1035116,-0.069 -0.2415271,-0.13801 -0.3795426,-0.24153 -0.3795425,-0.24152 -1.06962,-0.72458 -2.1047362,-1.34564 -0.1725194,-0.10355 -0.3105348,-0.20703 -0.4140464,-0.34504 v 3.10534 c 0,0.17253 0.069008,0.31054 0.2070232,0.44855 0.1380154,0.13802 0.276031,0.17253 0.4830542,0.17253 h 6.2106969 c 0.17252,0 0.345039,-0.069 0.483055,-0.17253 0.138015,-0.13801 0.207023,-0.27602 0.207023,-0.44855 v -3.10534 c -0.138016,0.13801 -0.276031,0.27602 -0.414046,0.34504 z"
       id="Shape_22_" />
  </g>
</svg>
