<?xml version="1.0" encoding="UTF-8" standalone="no"?>
<svg
   xmlns:dc="http://purl.org/dc/elements/1.1/"
   xmlns:cc="http://creativecommons.org/ns#"
   xmlns:rdf="http://www.w3.org/1999/02/22-rdf-syntax-ns#"
   xmlns:svg="http://www.w3.org/2000/svg"
   xmlns="http://www.w3.org/2000/svg"
   id="svg4874"
   version="1.1"
   viewBox="0 0 15.875 15.875"
   height="60"
   width="60">
  <defs
     id="defs4868" />
  <metadata
     id="metadata4871">
    <rdf:RDF>
      <cc:Work
         rdf:about="">
        <dc:format>image/svg+xml</dc:format>
        <dc:type
           rdf:resource="http://purl.org/dc/dcmitype/StillImage" />
        <dc:title></dc:title>
      </cc:Work>
    </rdf:RDF>
  </metadata>
  <g
     transform="translate(0,-281.12499)"
     id="layer1">
    <circle
       r="7.5939317"
       cy="289.0625"
       cx="7.9375"
       id="Oval_21_"
       style="fill:none;stroke:#000000;stroke-width:0.69035745" />
    <path
       style="stroke-width:0.34517872"
       d="m 9.697911,289.82188 c -0.5177681,0.51776 -0.5177681,1.00101 -1.0010184,1.00101 -0.5177681,0 -1.0010183,-0.51776 -1.5187864,-1.00101 -0.5177681,-0.51777 -1.0010182,-1.00102 -1.0010182,-1.51879 0,-0.51777 0.5177681,-0.51777 1.0010182,-1.00102 0.5177681,-0.51776 -1.0010182,-2.03655 -1.5187863,-2.03655 -0.5177681,0 -1.5187865,1.51879 -1.5187865,1.51879 0,1.00101 1.0355362,3.07209 2.0365546,4.03858 1.0010182,1.00102 3.0375727,2.03655 4.038591,2.03655 0,0 1.518786,-1.00101 1.518786,-1.51877 0,-0.51778 -1.518786,-2.03656 -2.036554,-1.51879"
       id="Shape_21_" />
  </g>
</svg>
