<?xml version="1.0" encoding="utf-8"?>
<!-- Generator: Adobe Illustrator 19.0.0, SVG Export Plug-In . SVG Version: 6.00 Build 0)  -->
<svg version="1.1" id="Layer_1" xmlns="http://www.w3.org/2000/svg" xmlns:xlink="http://www.w3.org/1999/xlink" x="0px" y="0px"
	 viewBox="0 0 500 500" style="enable-background:new 0 0 500 500;" xml:space="preserve">
<g>
	<path d="M402.6,410.6H97c-4.4,0-8,3.6-8,8c0,4.4,3.6,8,8,8h305.6c4.4,0,8-3.6,8-8C410.6,414.2,407,410.6,402.6,410.6L402.6,410.6z
		 M402.6,410.6"/>
	<path d="M97,395h80c4.4,0,8-3.6,8-8V227.6c0-4.4-3.6-8-8-8H97c-4.4,0-8,3.6-8,8V387C89,391.4,92.6,395,97,395L97,395z M105,235.6
		h64V379h-64V235.6z M105,235.6"/>
	<path d="M209.8,395h80c4.4,0,8-3.6,8-8V154.3c0-4.4-3.6-8-8-8h-80c-4.4,0-8,3.6-8,8V387C201.8,391.4,205.4,395,209.8,395L209.8,395
		z M217.8,162.3h64V379h-64V162.3z M217.8,162.3"/>
	<path d="M402.6,73h-80c-4.4,0-8,3.6-8,8v306c0,4.4,3.6,8,8,8h80c4.4,0,8-3.6,8-8V81C410.6,76.6,407,73,402.6,73L402.6,73z
		 M394.6,379h-64V89h64V379z M394.6,379"/>
</g>
</svg>
