<?xml version="1.0" encoding="utf-8"?>
<!-- Generator: Adobe Illustrator 19.0.0, SVG Export Plug-In . SVG Version: 6.00 Build 0)  -->
<svg version="1.1" id="Layer_1" xmlns="http://www.w3.org/2000/svg" xmlns:xlink="http://www.w3.org/1999/xlink" x="0px" y="0px"
	 viewBox="0 0 500 500" style="enable-background:new 0 0 500 500;" xml:space="preserve">
<g>
	<path d="M418.6,130.2h-34.9v-3.8c0-12.9-10.5-23.4-23.4-23.4c-12.9,0-23.4,10.5-23.4,23.4v3.8H310v-3.8c0-12.9-10.5-23.4-23.4-23.4
		c-12.9,0-23.4,10.5-23.4,23.4v3.8h-26.9v-3.8c0-12.9-10.5-23.4-23.4-23.4c-12.9,0-23.4,10.5-23.4,23.4v3.8h-26.9v-3.8
		c0-12.9-10.5-23.4-23.4-23.4s-23.4,10.5-23.4,23.4v3.8H81c-4.4,0-8,3.6-8,8v252.1c0,4.4,3.6,8,8,8h337.6c4.4,0,8-3.6,8-8V138.2
		C426.6,133.8,423,130.2,418.6,130.2L418.6,130.2z M360.3,119c4.1,0,7.4,3.3,7.4,7.4V150c0,4.1-3.3,7.4-7.4,7.4
		c-4.1,0-7.4-3.3-7.4-7.4v-23.6C352.9,122.3,356.2,119,360.3,119L360.3,119z M286.6,119c4.1,0,7.4,3.3,7.4,7.4V150
		c0,4.1-3.3,7.4-7.4,7.4c-4.1,0-7.4-3.3-7.4-7.4v-23.6C279.3,122.3,282.6,119,286.6,119L286.6,119z M205.6,126.4
		c0-4.1,3.3-7.4,7.4-7.4c4.1,0,7.4,3.3,7.4,7.4V150c0,4.1-3.3,7.4-7.4,7.4c-4.1,0-7.4-3.3-7.4-7.4V126.4z M139.3,119
		c4.1,0,7.4,3.3,7.4,7.4V150c0,4.1-3.3,7.4-7.4,7.4s-7.4-3.3-7.4-7.4v-23.6C131.9,122.3,135.2,119,139.3,119L139.3,119z
		 M115.9,146.2v3.8c0,12.9,10.5,23.4,23.4,23.4s23.4-10.5,23.4-23.4v-3.8h26.9v3.8c0,12.9,10.5,23.4,23.4,23.4
		c12.9,0,23.4-10.5,23.4-23.4v-3.8h26.9v3.8c0,12.9,10.5,23.4,23.4,23.4c12.9,0,23.4-10.5,23.4-23.4v-3.8h26.9v3.8
		c0,12.9,10.5,23.4,23.4,23.4c12.9,0,23.4-10.5,23.4-23.4v-3.8h26.9v38.2H89v-38.2H115.9z M89,382.3V200.4h321.6v181.9H89z
		 M89,382.3"/>
	<path d="M150.2,237.8h-26c-4.4,0-8,3.6-8,8c0,4.4,3.6,8,8,8h26c4.4,0,8-3.6,8-8C158.2,241.4,154.6,237.8,150.2,237.8L150.2,237.8z
		 M150.2,237.8"/>
	<path d="M225.3,237.8h-26c-4.4,0-8,3.6-8,8c0,4.4,3.6,8,8,8h26c4.4,0,8-3.6,8-8C233.2,241.4,229.7,237.8,225.3,237.8L225.3,237.8z
		 M225.3,237.8"/>
	<path d="M300.3,237.8h-26c-4.4,0-8,3.6-8,8c0,4.4,3.6,8,8,8h26c4.4,0,8-3.6,8-8C308.3,241.4,304.7,237.8,300.3,237.8L300.3,237.8z
		 M300.3,237.8"/>
	<path d="M375.4,237.8h-26c-4.4,0-8,3.6-8,8c0,4.4,3.6,8,8,8h26c4.4,0,8-3.6,8-8C383.4,241.4,379.8,237.8,375.4,237.8L375.4,237.8z
		 M375.4,237.8"/>
	<path d="M150.2,283h-26c-4.4,0-8,3.6-8,8s3.6,8,8,8h26c4.4,0,8-3.6,8-8S154.6,283,150.2,283L150.2,283z M150.2,283"/>
	<path d="M225.3,283h-26c-4.4,0-8,3.6-8,8s3.6,8,8,8h26c4.4,0,8-3.6,8-8S229.7,283,225.3,283L225.3,283z M225.3,283"/>
	<path d="M300.3,283h-26c-4.4,0-8,3.6-8,8s3.6,8,8,8h26c4.4,0,8-3.6,8-8S304.7,283,300.3,283L300.3,283z M300.3,283"/>
	<path d="M375.4,283h-26c-4.4,0-8,3.6-8,8s3.6,8,8,8h26c4.4,0,8-3.6,8-8S379.8,283,375.4,283L375.4,283z M375.4,283"/>
	<path d="M150.2,328.1h-26c-4.4,0-8,3.6-8,8s3.6,8,8,8h26c4.4,0,8-3.6,8-8S154.6,328.1,150.2,328.1L150.2,328.1z M150.2,328.1"/>
	<path d="M225.3,328.1h-26c-4.4,0-8,3.6-8,8s3.6,8,8,8h26c4.4,0,8-3.6,8-8S229.7,328.1,225.3,328.1L225.3,328.1z M225.3,328.1"/>
	<path d="M300.3,328.1h-26c-4.4,0-8,3.6-8,8s3.6,8,8,8h26c4.4,0,8-3.6,8-8S304.7,328.1,300.3,328.1L300.3,328.1z M300.3,328.1"/>
	<path d="M375.4,328.1h-26c-4.4,0-8,3.6-8,8s3.6,8,8,8h26c4.4,0,8-3.6,8-8S379.8,328.1,375.4,328.1L375.4,328.1z M375.4,328.1"/>
</g>
</svg>
