<?xml version="1.0" encoding="utf-8"?>
<!-- Generator: Adobe Illustrator 19.0.0, SVG Export Plug-In . SVG Version: 6.00 Build 0)  -->
<svg version="1.1" id="Layer_1" xmlns="http://www.w3.org/2000/svg" xmlns:xlink="http://www.w3.org/1999/xlink" x="0px" y="0px"
	 viewBox="0 0 500 500" style="enable-background:new 0 0 500 500;" xml:space="preserve">
<g>
	<path d="M374.8,124.8C341.4,91.4,297,73,249.8,73c-47.2,0-91.6,18.4-125,51.8C91.4,158.2,73,202.6,73,249.8
		c0,47.2,18.4,91.6,51.8,125c33.4,33.4,77.8,51.8,125,51.8c47.2,0,91.6-18.4,125-51.8c33.4-33.4,51.8-77.8,51.8-125
		C426.6,202.6,408.2,158.2,374.8,124.8L374.8,124.8z M249.8,410.6C161.1,410.6,89,338.5,89,249.8C89,161.1,161.1,89,249.8,89
		c88.7,0,160.8,72.1,160.8,160.8C410.6,338.5,338.5,410.6,249.8,410.6L249.8,410.6z M249.8,410.6"/>
	<path d="M249.8,105C170,105,105,170,105,249.8s65,144.8,144.8,144.8c33.3,0,65.8-11.6,91.6-32.8c3.4-2.8,3.9-7.8,1.1-11.3
		c-2.8-3.4-7.8-3.9-11.3-1.1c-22.9,18.8-51.9,29.1-81.5,29.1c-71,0-128.8-57.8-128.8-128.8c0-71,57.8-128.8,128.8-128.8
		c71,0,128.8,57.8,128.8,128.8c0,29.6-10.3,58.6-29.1,81.5c-2.8,3.4-2.3,8.5,1.1,11.3c3.4,2.8,8.5,2.3,11.3-1.1
		c21.1-25.8,32.8-58.3,32.8-91.6C394.6,170,329.6,105,249.8,105L249.8,105z M249.8,105"/>
	<path d="M277.8,251.3l34.8-34.8c3.9-3.9,6.1-9.2,6.1-14.7c0-5.6-2.2-10.8-6.1-14.7c-8.1-8.1-21.3-8.1-29.4,0l-33.4,33.4L199.5,170
		c-3.9-3.9-9.2-6.1-14.7-6.1c-5.6,0-10.8,2.2-14.7,6.1c-3.9,3.9-6.1,9.2-6.1,14.7c0,5.6,2.2,10.8,6.1,14.7l51.8,51.8
		c0.2,4.3,1.4,8.3,3.3,11.9L170,318.2c-3.1,3.1-3.1,8.2,0,11.3c1.6,1.6,3.6,2.3,5.7,2.3c2,0,4.1-0.8,5.7-2.3l55.1-55.1
		c4,2.1,8.5,3.4,13.3,3.4C264.8,277.8,277,266,277.8,251.3L277.8,251.3z M294.5,198.3c1.9-1.9,4.9-1.9,6.8,0
		c0.9,0.9,1.4,2.1,1.4,3.4c0,1.3-0.5,2.5-1.4,3.4l-28.6,28.6c-1.9-2.6-4.2-4.9-6.8-6.8L294.5,198.3z M179.9,184.7
		c0-1.3,0.5-2.5,1.4-3.4c0.9-0.9,2.1-1.4,3.4-1.4c1.3,0,2.5,0.5,3.4,1.4l45.6,45.6c-2.6,1.9-4.9,4.2-6.8,6.8l-45.6-45.6
		C180.4,187.2,179.9,186,179.9,184.7L179.9,184.7z M249.8,261.8c-3.3,0-6.3-1.3-8.5-3.5c0,0,0,0,0,0c0,0,0,0,0,0
		c-2.2-2.2-3.5-5.2-3.5-8.4c0-6.6,5.4-12,12-12c6.6,0,12,5.4,12,12C261.8,256.4,256.4,261.8,249.8,261.8L249.8,261.8z M249.8,261.8"
		/>
	<path d="M157,241.8h-12c-4.4,0-8,3.6-8,8s3.6,8,8,8h12c4.4,0,8-3.6,8-8S161.4,241.8,157,241.8L157,241.8z M157,241.8"/>
	<path d="M257.8,157v-12c0-4.4-3.6-8-8-8s-8,3.6-8,8v12c0,4.4,3.6,8,8,8S257.8,161.4,257.8,157L257.8,157z M257.8,157"/>
	<path d="M362.6,249.8c0-4.4-3.6-8-8-8h-12c-4.4,0-8,3.6-8,8s3.6,8,8,8h12C359,257.8,362.6,254.2,362.6,249.8L362.6,249.8z
		 M362.6,249.8"/>
	<path d="M241.8,342.6v12c0,4.4,3.6,8,8,8s8-3.6,8-8v-12c0-4.4-3.6-8-8-8S241.8,338.2,241.8,342.6L241.8,342.6z M241.8,342.6"/>
</g>
</svg>
