<?xml version="1.0" encoding="UTF-8" standalone="no"?>
<svg
   xmlns:dc="http://purl.org/dc/elements/1.1/"
   xmlns:cc="http://creativecommons.org/ns#"
   xmlns:rdf="http://www.w3.org/1999/02/22-rdf-syntax-ns#"
   xmlns:svg="http://www.w3.org/2000/svg"
   xmlns="http://www.w3.org/2000/svg"
   id="svg4874"
   version="1.1"
   viewBox="0 0 15.875 15.875"
   height="60"
   width="60">
  <defs
     id="defs4868" />
  <metadata
     id="metadata4871">
    <rdf:RDF>
      <cc:Work
         rdf:about="">
        <dc:format>image/svg+xml</dc:format>
        <dc:type
           rdf:resource="http://purl.org/dc/dcmitype/StillImage" />
        <dc:title></dc:title>
      </cc:Work>
    </rdf:RDF>
  </metadata>
  <g
     transform="translate(0,-281.12499)"
     id="layer1">
    <circle
       r="7.5939317"
       cy="289.0625"
       cx="7.9375"
       id="Oval_3_"
       style="fill:none;stroke:#000000;stroke-width:0.69035745" />
    <path
       style="stroke-width:0.34517872"
       d="M 10.04309,285.61068 H 5.7973915 c -0.7248754,0 -1.3461971,0.5868 -1.3461971,1.3462 v 4.24569 c 0,0.72489 0.5868039,1.34621 1.3461971,1.34621 H 10.04309 c 0.724875,0 1.346198,-0.5868 1.346198,-1.34621 v -4.24569 c 0,-0.7594 -0.586805,-1.3462 -1.346198,-1.3462 z m 0.379696,0.79392 h 0.138072 v 1.1736 H 9.3872503 v -1.1736 z m -3.4863047,1.93299 c 0.2071072,-0.31065 0.5868038,-0.51776 1.0010183,-0.51776 0.4142145,0 0.7593932,0.20711 1.0010182,0.51776 0.1380716,0.20711 0.2416252,0.44874 0.2416252,0.72488 0,0.65585 -0.552286,1.20813 -1.2081256,1.20813 -0.6558395,0 -1.2081256,-0.55228 -1.2081256,-1.20813 -0.034517,-0.27614 0.034518,-0.51777 0.1725895,-0.72488 z m 3.7969667,2.83046 c 0,0.37971 -0.310662,0.65585 -0.65584,0.65585 H 5.8319093 c -0.3796965,0 -0.6558396,-0.31066 -0.6558396,-0.65585 v -2.83046 h 1.0355362 c -0.1035536,0.20711 -0.1380714,0.44874 -0.1380714,0.72488 0,1.03554 0.8629468,1.89848 1.8984829,1.89848 1.0355362,0 1.898483,-0.86294 1.898483,-1.89848 0,-0.24162 -0.034517,-0.48325 -0.1380715,-0.72488 h 1.0355361 v 2.83046 z"
       id="Shape_3_" />
  </g>
</svg>
