<?xml version="1.0" encoding="UTF-8" standalone="no"?>
<svg
   xmlns:dc="http://purl.org/dc/elements/1.1/"
   xmlns:cc="http://creativecommons.org/ns#"
   xmlns:rdf="http://www.w3.org/1999/02/22-rdf-syntax-ns#"
   xmlns:svg="http://www.w3.org/2000/svg"
   xmlns="http://www.w3.org/2000/svg"
   viewBox="0 0 400 400"
   height="400"
   width="400"
   xml:space="preserve"
   id="svg1973"
   version="1.1"><metadata
     id="metadata1979"><rdf:RDF><cc:Work
         rdf:about=""><dc:format>image/svg+xml</dc:format><dc:type
           rdf:resource="http://purl.org/dc/dcmitype/StillImage" /><dc:title></dc:title></cc:Work></rdf:RDF></metadata><defs
     id="defs1977"><clipPath
       id="clipPath1989"
       clipPathUnits="userSpaceOnUse"><path
         id="path1987"
         d="M 150,300 C 67.157,300 0,232.843 0,150 v 0 C 0,67.157 67.157,0 150,0 v 0 c 82.843,0 150,67.157 150,150 v 0 c 0,82.843 -67.157,150 -150,150 z" /></clipPath></defs><g
     transform="matrix(1.3333333,0,0,-1.3333333,0,400)"
     id="g1981"><g
       id="g1983"><g
         clip-path="url(#clipPath1989)"
         id="g1985"><path
           id="path1991"
           style="fill:#ef2b2d;fill-opacity:1;fill-rule:nonzero;stroke:none"
           d="m -56.25,300 h 412.5 V 0 h -412.5 z" /><path
           id="path1993"
           style="fill:#ffffff;fill-opacity:1;fill-rule:nonzero;stroke:none"
           d="m 56.25,300 h 75 V 0 h -75 z" /><path
           id="path1995"
           style="fill:#ffffff;fill-opacity:1;fill-rule:nonzero;stroke:none"
           d="m -56.25,187.5 h 412.5 v -75 h -412.5 z" /><path
           id="path1997"
           style="fill:#002868;fill-opacity:1;fill-rule:nonzero;stroke:none"
           d="m 75,300 h 37.5 V 0 H 75 Z" /><path
           id="path1999"
           style="fill:#002868;fill-opacity:1;fill-rule:nonzero;stroke:none"
           d="m -56.25,168.75 h 412.5 v -37.5 h -412.5 z" /></g></g></g></svg>