<svg xmlns="http://www.w3.org/2000/svg" height="400" width="400"><defs><clipPath id="a" clipPathUnits="userSpaceOnUse"><path d="M150 300C67.157 300 0 232.843 0 150S67.157 0 150 0s150 67.157 150 150-67.157 150-150 150z"/></clipPath></defs><g clip-path="url(#a)" transform="matrix(1.33333 0 0 -1.33333 0 400)"><path d="M-50.001 300h600.002V0H-50.001z" fill="#ec2227"/><path d="M-50.001 300h600.002V99.999H-50.001z" fill="#005ea5"/><path d="M-50.001 300h600.002V200H-50.001z" fill="#fff"/><path d="M135.816 194.777l3.15 46.491a90.627 90.627 0 01-77.62 0l3.15-46.49c1.416-20.892 15.617-38.724 35.66-44.778 20.045 6.054 34.246 23.886 35.66 44.777" fill="#005ea5"/><path d="M71.049 188.478a44.724 44.724 0 0129.108-32.59 44.724 44.724 0 0129.107 32.59l-14.554 19.405-5.821-7.762-8.732 17.464-8.733-17.464-5.821 7.762-14.554-19.405" fill="#fff"/><path d="M72.349 183.627c2.68-4.641 8.613-6.231 13.254-3.552a9.698 9.698 0 009.702 0 9.704 9.704 0 019.703 0 9.698 9.698 0 009.702 0c4.64-2.68 10.575-1.09 13.255 3.552v-2.801c-2.68-4.641-8.614-6.23-13.255-3.552a9.698 9.698 0 01-9.702 0 9.704 9.704 0 00-9.703 0 9.698 9.698 0 01-9.702 0c-4.641-2.678-10.574-1.09-13.254 3.552z" fill="#005ea5"/><path d="M72.349 178.025c2.68-4.64 8.613-6.23 13.254-3.552a9.698 9.698 0 009.702 0 9.704 9.704 0 019.703 0 9.698 9.698 0 009.702 0c4.64-2.679 10.575-1.09 13.255 3.551v.001-2.8c-2.68-4.64-8.614-6.233-13.255-3.553a9.698 9.698 0 01-9.702 0 9.704 9.704 0 00-9.703 0 9.698 9.698 0 01-9.702 0c-4.641-2.68-10.574-1.089-13.254 3.551v.001z" fill="#005ea5"/><path d="M100.157 230.926l.727-2.378 2.424.56-1.696-1.82 1.696-1.82-2.424.56-.727-2.379-.728 2.378-2.424-.559 1.696 1.82-1.696 1.82 2.424-.56zM89.241 245.48l.728-2.378 2.423.559-1.696-1.82 1.696-1.819-2.423.559-.728-2.378-.728 2.378-2.423-.559 1.695 1.819-1.695 1.82 2.423-.559zM111.072 245.48l.727-2.378 2.424.559-1.696-1.82 1.696-1.819-2.424.559-.727-2.378-.727 2.378-2.425-.559 1.697 1.819-1.697 1.82 2.425-.559z" fill="#fddb00"/><path d="M64.07 242.505l3.222-47.54a47.525 47.525 0 0132.864-42.028c18.526 5.96 31.55 22.611 32.865 42.028l3.223 47.54a91.188 91.188 0 012.723-1.236l-3.151-46.49c-1.414-20.892-15.615-38.724-35.66-44.779-20.043 6.055-34.244 23.887-35.66 44.778l-3.15 46.491a88.94 88.94 0 012.724 1.236" fill="#ec2227"/></g></svg>