<?xml version="1.0" encoding="utf-8"?>
<!-- Generator: Adobe Illustrator 19.0.0, SVG Export Plug-In . SVG Version: 6.00 Build 0)  -->
<svg version="1.1" id="Countryflags.com" xmlns="http://www.w3.org/2000/svg" xmlns:xlink="http://www.w3.org/1999/xlink" x="0px"
	 y="0px" viewBox="0 0 300 300" style="enable-background:new 0 0 300 300;" xml:space="preserve">
<style type="text/css">
	.st0{clip-path:url(#SVGID_2_);}
	.st1{fill:#EC2227;}
	.st2{fill:#005EA5;}
	.st3{fill:#FFFFFF;}
	.st4{fill:#FDDB00;}
</style>
<g>
	<defs>
		<circle id="SVGID_1_" cx="150" cy="150" r="150"/>
	</defs>
	<clipPath id="SVGID_2_">
		<use xlink:href="#SVGID_1_"  style="overflow:visible;"/>
	</clipPath>
	<g class="st0">
		<rect id="_x31_1" x="-50" class="st1" width="600" height="300"/>
		<rect id="_x31_0" x="-50" class="st2" width="600" height="200"/>
		<rect id="_x39_" x="-50" class="st3" width="600" height="100"/>
		<path id="_x38_" class="st2" d="M135.8,105.2l3.2-46.5c-24.6-11.6-53.1-11.6-77.6,0l3.1,46.5c1.4,20.9,15.6,38.7,35.7,44.8
			C120.2,143.9,134.4,126.1,135.8,105.2"/>
		<path id="_x37_" class="st3" d="M71,111.5c3.4,15.2,14.4,27.5,29.1,32.6c14.7-5.1,25.7-17.4,29.1-32.6l-14.6-19.4l-5.8,7.8
			l-8.7-17.5l-8.7,17.5l-5.8-7.8L71,111.5"/>
		<path id="_x36_" class="st2" d="M72.3,116.4c2.7,4.6,8.6,6.2,13.3,3.6l0,0c3-1.7,6.7-1.7,9.7,0c3,1.7,6.7,1.7,9.7,0
			c3-1.7,6.7-1.7,9.7,0c4.6,2.7,10.6,1.1,13.3-3.6l0,0v2.8c-2.7,4.6-8.6,6.2-13.3,3.6l0,0c-3-1.7-6.7-1.7-9.7,0
			c-3,1.7-6.7,1.7-9.7,0c-3-1.7-6.7-1.7-9.7,0c-4.6,2.7-10.6,1.1-13.3-3.6l0,0V116.4z"/>
		<path id="_x35_" class="st2" d="M72.3,122c2.7,4.6,8.6,6.2,13.3,3.6l0,0c3-1.7,6.7-1.7,9.7,0c3,1.7,6.7,1.7,9.7,0
			c3-1.7,6.7-1.7,9.7,0c4.6,2.7,10.6,1.1,13.3-3.6v0v2.8c-2.7,4.6-8.6,6.2-13.3,3.6l0,0c-3-1.7-6.7-1.7-9.7,0c-3,1.7-6.7,1.7-9.7,0
			c-3-1.7-6.7-1.7-9.7,0c-4.6,2.7-10.6,1.1-13.3-3.6c0,0,0,0,0,0V122z"/>
		<path id="_x34_" class="st4" d="M100.2,69.1l0.7,2.4l2.4-0.6l-1.7,1.8l1.7,1.8l-2.4-0.6l-0.7,2.4L99.4,74L97,74.5l1.7-1.8L97,70.9
			l2.4,0.6L100.2,69.1z"/>
		<path id="_x33_" class="st4" d="M89.2,54.5l0.7,2.4l2.4-0.6l-1.7,1.8l1.7,1.8L90,59.4l-0.7,2.4l-0.7-2.4L86.1,60l1.7-1.8l-1.7-1.8
			l2.4,0.6L89.2,54.5z"/>
		<path id="_x32_" class="st4" d="M111.1,54.5l0.7,2.4l2.4-0.6l-1.7,1.8l1.7,1.8l-2.4-0.6l-0.7,2.4l-0.7-2.4l-2.4,0.6l1.7-1.8
			l-1.7-1.8l2.4,0.6L111.1,54.5z"/>
		<path id="_x31_" class="st1" d="M64.1,57.5l3.2,47.5c1.3,19.4,14.3,36.1,32.9,42c18.5-6,31.5-22.6,32.9-42l3.2-47.5
			c0.9,0.4,1.8,0.8,2.7,1.2l-3.2,46.5c-1.4,20.9-15.6,38.7-35.7,44.8c-20-6.1-34.2-23.9-35.7-44.8l-3.1-46.5
			C62.3,58.3,63.2,57.9,64.1,57.5"/>
	</g>
</g>
</svg>
