<svg version="1.1" id="Countryflags.com" xmlns="http://www.w3.org/2000/svg" xmlns:xlink="http://www.w3.org/1999/xlink" x="0" y="0" viewBox="0 0 300 300" xml:space="preserve"><style>.st3{fill:#ad1519}.st4{fill:none;stroke:#000;stroke-width:.156;stroke-linejoin:round}.st5{fill:#c8b100}.st6,.st7{fill:none;stroke:#000;stroke-width:.156}.st7{stroke-width:.18}.st8{fill:#fff}.st9{fill:#058e6e}.st10,.st11{fill:none;stroke:#000;stroke-width:.234}.st11{stroke-linejoin:round}.st12{fill:#005bbf}.st13{fill:#ccc}.st15{stroke-width:.126}.st15,.st16,.st17,.st19{fill:none;stroke:#000}.st16{stroke-linecap:round;stroke-width:.156}.st17,.st19{stroke-width:3.000000e-002}.st19{fill:#c8b100;stroke-width:.234}.st20,.st21,.st22{fill:none;stroke:#000;stroke-width:5.400000e-002}.st21,.st22{stroke-width:8.400000e-002}.st22{stroke-width:.108}.st37,.st38,.st39{fill:#fff;stroke:#000;stroke-width:.234}.st38,.st39{fill:#ad1519}.st39{fill:#058e6e}.st42,.st43{fill:none;stroke:#000;stroke-width:.312}.st43{fill:#c8b100}.st46{fill:none;stroke:#c8b100;stroke-width:.156}.st47{fill:#db4446}.st50,.st52{fill:#058e6e;stroke:#000;stroke-width:.312}.st52{fill:#c8b100;stroke-width:.276}.st53{fill:#0039f0}.st54{fill:none;stroke:#000;stroke-width:.366}.st55{stroke-linejoin:round}.st55,.st56{fill:none;stroke:#000;stroke-width:.204}.st57,.st58,.st59,.st60{fill:none;stroke:#000;stroke-width:1.200000e-002}.st58,.st59,.st60{stroke-width:1.800000e-002}.st59,.st60{stroke-width:2.400000e-002}.st60{stroke-width:3.600000e-002}.st61,.st62,.st63,.st64{fill:none;stroke:#000;stroke-width:4.200000e-002}.st62,.st63,.st64{stroke-width:4.800000e-002}.st63,.st64{stroke-width:6.000000e-002}.st64{stroke-width:6.600000e-002}.st65,.st66,.st67,.st68{fill:none;stroke:#000;stroke-width:7.200000e-002}.st66,.st67,.st68{stroke-width:7.800000e-002}.st67,.st68{stroke-width:9.000000e-002}.st68{stroke-width:6.000000e-003}</style><defs><circle id="SVGID_1_" cx="150" cy="150" r="150"/></defs><clipPath id="SVGID_2_"><use xlink:href="#SVGID_1_" overflow="visible"/></clipPath><g clip-path="url(#SVGID_2_)"><path id="_x36_27" fill="#c60b1e" d="M-45 0h450v300H-45z"/><path id="_x36_26" fill="#ffc400" d="M-45 75h450v150H-45z"/><path id="_x36_25" class="st3" d="M55.8 133.3s-.3 0-.5-.1-.7-.6-.7-.6l-.4-.3-.4-.5s-.4-.7-.2-1.3c.2-.5.5-.7.9-.9.3-.2.9-.4.9-.4s.5-.2.7-.3c.2 0 .8-.2.8-.2s.2-.1.3-.2c.2-.1.4-.1.5-.1.1 0 .5-.1.7-.2.3 0 .8.1 1 .1h1c.2 0 1.1-.1 1.3-.1h.7c.3 0 .7.2.9.3.1.1.9.4 1.3.4.3.1 1 .2 1.4.4.3.2.5.4.7.7.2.2.2.5.3.6.1.2.1.5 0 .7-.1.2-.3.5-.3.5l-.4.6-.5.4s-.3.3-.6.3-3-.5-4.8-.5c-1.8.2-4.6.7-4.6.7"/><path id="_x36_24" class="st4" d="M55.8 133.3s-.3 0-.5-.1-.7-.6-.7-.6l-.4-.3-.4-.5s-.4-.7-.2-1.3c.2-.5.5-.7.9-.9.3-.2.9-.4.9-.4s.5-.2.7-.3c.2 0 .8-.2.8-.2s.2-.1.3-.2c.2-.1.4-.1.5-.1.1 0 .5-.1.7-.2.3 0 .8.1 1 .1h1c.2 0 1.1-.1 1.3-.1h.7c.3 0 .7.2.9.3.1.1.9.4 1.3.4.3.1 1 .2 1.4.4.3.2.5.4.7.7.2.2.2.5.3.6.1.2.1.5 0 .7-.1.2-.3.5-.3.5l-.4.6-.5.4s-.3.3-.6.3-3-.5-4.8-.5c-1.8.2-4.6.7-4.6.7z"/><path id="_x36_23" class="st5" d="M59.6 129.4c0-.8.4-1.5.8-1.5.5 0 .8.7.8 1.5s-.4 1.5-.8 1.5c-.5 0-.8-.7-.8-1.5"/><path id="_x36_22" class="st6" d="M59.6 129.4c0-.8.4-1.5.8-1.5.5 0 .8.7.8 1.5s-.4 1.5-.8 1.5c-.5 0-.8-.7-.8-1.5z"/><path id="_x36_21" class="st5" d="M60 129.4c0-.8.2-1.4.4-1.4s.4.6.4 1.4c0 .8-.2 1.4-.4 1.4s-.4-.6-.4-1.4"/><path id="_x36_20" class="st6" d="M60 129.4c0-.8.2-1.4.4-1.4s.4.6.4 1.4c0 .8-.2 1.4-.4 1.4s-.4-.6-.4-1.4z"/><path id="_x36_19" class="st5" d="M59.8 127.8c0-.3.2-.5.6-.5.3 0 .6.2.6.5s-.3.5-.6.5-.6-.2-.6-.5"/><path id="_x36_18" class="st5" d="M60.8 127.6v.3h-.9v-.3h.3v-.8h-.4v-.3h.4v-.3h.4v.3h.4v.3h-.4v.8h.2"/><path id="_x36_17" class="st7" d="M60.8 127.6v.3h-.9v-.3h.3v-.8h-.4v-.3h.4v-.3h.4v.3h.4v.3h-.4v.8h.2"/><path id="_x36_16" class="st5" d="M61.2 127.6v.3h-1.5v-.3h.6v-.8h-.4v-.3h.4v-.3h.4v.3h.3v.3h-.4v.8h.6"/><path id="_x36_15" class="st7" d="M61.2 127.6v.3h-1.5v-.3h.6v-.8h-.4v-.3h.4v-.3h.4v.3h.3v.3h-.4v.8h.6"/><path id="_x36_14" class="st6" d="M60.6 127.3c.2.1.4.3.4.5 0 .3-.3.5-.6.5s-.6-.2-.6-.5c0-.2.2-.4.4-.5"/><path id="_x36_13" class="st5" d="M60.4 133.2h-2.9l-.1-.7-.1-.7-.1-.9c-.8-1.1-1.5-1.7-1.8-1.6.1-.2.1-.3.3-.4.7-.4 2.2.6 3.3 2.2.1.2.2.3.3.4h2.4c.1-.1.2-.3.3-.4 1.1-1.7 2.6-2.7 3.3-2.2.2.1.2.2.3.4-.2-.1-1 .5-1.8 1.6l-.1.9-.1.7-.1.7h-3.1"/><path id="_x36_12" class="st6" d="M60.4 133.2h-2.9l-.1-.7-.1-.7-.1-.9c-.8-1.1-1.5-1.7-1.8-1.6.1-.2.1-.3.3-.4.7-.4 2.2.6 3.3 2.2.1.2.2.3.3.4h2.4c.1-.1.2-.3.3-.4 1.1-1.7 2.6-2.7 3.3-2.2.2.1.2.2.3.4-.2-.1-1 .5-1.8 1.6l-.1.9-.1.7-.1.7h-3.1z"/><path id="_x36_11" class="st6" d="M55.5 129.3c.5-.3 1.8.7 2.8 2.2m7-2.2c-.5-.3-1.8.7-2.8 2.2"/><path id="_x36_10" class="st5" d="M56.1 134.6c-.1-.3-.3-.6-.3-.6 1.2-.3 2.8-.6 4.6-.6 1.8 0 3.5.2 4.6.6 0 0-.1.2-.3.5-.1.2-.2.5-.2.5-1-.3-2.4-.5-4.1-.5-1.7 0-3.3.2-4.1.5l-.2-.4"/><path id="_x36_09" class="st6" d="M56.1 134.6c-.1-.3-.3-.6-.3-.6 1.2-.3 2.8-.6 4.6-.6 1.8 0 3.5.2 4.6.6 0 0-.1.2-.3.5-.1.2-.2.5-.2.5-1-.3-2.4-.5-4.1-.5-1.7 0-3.3.2-4.1.5l-.2-.4"/><path id="_x36_08" class="st5" d="M60.4 136c1.5 0 3.1-.2 3.7-.4.4-.1.6-.3.6-.5 0-.1-.1-.2-.2-.2-.9-.3-2.4-.5-4-.5s-3.2.2-4 .5c-.1 0-.2.1-.2.2 0 .2.2.4.6.5.4.2 2 .4 3.5.4"/><path id="_x36_07" class="st6" d="M60.4 136c1.5 0 3.1-.2 3.7-.4.4-.1.6-.3.6-.5 0-.1-.1-.2-.2-.2-.9-.3-2.4-.5-4-.5s-3.2.2-4 .5c-.1 0-.2.1-.2.2 0 .2.2.4.6.5.4.2 2 .4 3.5.4z"/><path id="_x36_06" class="st5" d="M65.1 133.2l-.4-.3s-.3.2-.8.1c-.4-.1-.6-.6-.6-.6s-.5.4-.9.4-.6-.4-.6-.4-.4.3-.8.3-.7-.5-.7-.5-.4.5-.8.5-.7-.3-.7-.3-.2.4-.6.4c-.5.1-.9-.4-.9-.4s-.3.4-.6.6c-.3.1-.7-.2-.7-.2s-.1.2-.1.3c0 .1-.2.1-.2.1l.1.3c1.2-.3 2.7-.5 4.5-.5 1.8 0 3.4.2 4.6.6l.2-.4"/><path id="_x36_05" class="st6" d="M65.1 133.2l-.4-.3s-.3.2-.8.1c-.4-.1-.6-.6-.6-.6s-.5.4-.9.4-.6-.4-.6-.4-.4.3-.8.3-.7-.5-.7-.5-.4.5-.8.5-.7-.3-.7-.3-.2.4-.6.4c-.5.1-.9-.4-.9-.4s-.3.4-.6.6c-.3.1-.7-.2-.7-.2s-.1.2-.1.3c0 .1-.2.1-.2.1l.1.3c1.2-.3 2.7-.5 4.5-.5 1.8 0 3.4.2 4.6.6l.2-.4z"/><path id="_x36_04" class="st5" d="M60.4 131.7h.2v.2c0 .3.3.6.7.6.3 0 .5-.2.6-.4l.1-.2v.2c0 .3.3.5.7.5.4 0 .7-.3.7-.6v-.1l.2-.2.1.3c0 .1-.1.2-.1.3 0 .3.3.6.6.6.2 0 .4-.1.5-.3l.1-.2v.2c0 .2.1.4.3.4 0 0 .2 0 .5-.2s.5-.4.5-.4v.3s-.3.5-.6.7c-.2.1-.4.2-.6.1-.2 0-.3-.2-.4-.4-.1.1-.3.1-.5.1-.4 0-.7-.2-.9-.5-.2.2-.4.3-.7.3-.3 0-.6-.1-.8-.3-.2.2-.4.3-.7.3-.3 0-.6-.2-.8-.4-.2.2-.5.4-.8.4-.3 0-.5-.1-.7-.3-.2.2-.5.3-.8.3-.3 0-.5-.1-.7-.3-.1.3-.5.5-.9.5-.2 0-.3 0-.5-.1-.1.2-.2.3-.4.4-.2 0-.4-.1-.6-.1-.3-.2-.6-.7-.6-.7v-.3s.2.2.5.4.5.2.5.2c.2 0 .3-.2.3-.4v-.2l.1.2c.1.2.3.3.5.3.4 0 .6-.3.6-.6 0-.1 0-.2-.1-.3l.1-.3.2.2v.1c0 .4.3.6.7.6.3 0 .6-.2.7-.5v-.2l.1.2c.1.3.3.4.6.4.4 0 .7-.3.7-.6v-.2h.8"/><path id="_x36_03" class="st6" d="M60.4 131.7h.2v.2c0 .3.3.6.7.6.3 0 .5-.2.6-.4l.1-.2v.2c0 .3.3.5.7.5.4 0 .7-.3.7-.6v-.1l.2-.2.1.3c0 .1-.1.2-.1.3 0 .3.3.6.6.6.2 0 .4-.1.5-.3l.1-.2v.2c0 .2.1.4.3.4 0 0 .2 0 .5-.2s.5-.4.5-.4v.3s-.3.5-.6.7c-.2.1-.4.2-.6.1-.2 0-.3-.2-.4-.4-.1.1-.3.1-.5.1-.4 0-.7-.2-.9-.5-.2.2-.4.3-.7.3-.3 0-.6-.1-.8-.3-.2.2-.4.3-.7.3-.3 0-.6-.2-.8-.4-.2.2-.5.4-.8.4-.3 0-.5-.1-.7-.3-.2.2-.5.3-.8.3-.3 0-.5-.1-.7-.3-.1.3-.5.5-.9.5-.2 0-.3 0-.5-.1-.1.2-.2.3-.4.4-.2 0-.4-.1-.6-.1-.3-.2-.6-.7-.6-.7v-.3s.2.2.5.4.5.2.5.2c.2 0 .3-.2.3-.4v-.2l.1.2c.1.2.3.3.5.3.4 0 .6-.3.6-.6 0-.1 0-.2-.1-.3l.1-.3.2.2v.1c0 .4.3.6.7.6.3 0 .6-.2.7-.5v-.2l.1.2c.1.3.3.4.6.4.4 0 .7-.3.7-.6v-.2h.8z"/><path id="_x36_02" class="st5" d="M60.4 133.3c-1.8 0-3.4.2-4.6.6-.1 0-.2 0-.2-.1s0-.2.1-.2c1.2-.4 2.8-.6 4.7-.6 1.9 0 3.5.2 4.7.6.1 0 .1.1.1.2s-.1.1-.2.1c-1.2-.3-2.8-.6-4.6-.6"/><path id="_x36_01" class="st4" d="M60.4 133.3c-1.8 0-3.4.2-4.6.6-.1 0-.2 0-.2-.1s0-.2.1-.2c1.2-.4 2.8-.6 4.7-.6 1.9 0 3.5.2 4.7.6.1 0 .1.1.1.2s-.1.1-.2.1c-1.2-.3-2.8-.6-4.6-.6z"/><path id="_x36_00" class="st8" d="M58.7 134c0-.1.1-.2.3-.2.1 0 .3.1.3.2s-.1.2-.3.2c-.2 0-.3-.1-.3-.2"/><path id="_x35_99" class="st6" d="M58.7 134c0-.1.1-.2.3-.2.1 0 .3.1.3.2s-.1.2-.3.2c-.2 0-.3-.1-.3-.2z"/><path id="_x35_98" class="st3" d="M60.4 134.1h-.6c-.1 0-.2-.1-.2-.2s.1-.2.2-.2H61c.1 0 .2.1.2.2s-.1.2-.2.2h-.6"/><path id="_x35_97" class="st6" d="M60.4 134.1h-.6c-.1 0-.2-.1-.2-.2s.1-.2.2-.2H61c.1 0 .2.1.2.2s-.1.2-.2.2h-.6"/><path id="_x35_96" class="st9" d="M57.5 134.3l-.4.1c-.1 0-.2-.1-.2-.2s.1-.2.2-.2l.4-.1.4-.1c.1 0 .2.1.2.1 0 .1-.1.2-.2.2l-.4.2"/><path id="_x35_95" class="st6" d="M57.5 134.3l-.4.1c-.1 0-.2-.1-.2-.2s.1-.2.2-.2l.4-.1.4-.1c.1 0 .2.1.2.1 0 .1-.1.2-.2.2l-.4.2"/><path id="_x35_94" class="st3" d="M55.8 134.6l.2-.3.4.1-.2.3-.4-.1"/><path id="_x35_93" class="st6" d="M55.8 134.6l.2-.3.4.1-.2.3-.4-.1"/><path id="_x35_92" class="st8" d="M61.6 134c0-.1.1-.2.3-.2.1 0 .3.1.3.2s-.1.2-.3.2c-.2 0-.3-.1-.3-.2"/><path id="_x35_91" class="st6" d="M61.6 134c0-.1.1-.2.3-.2.1 0 .3.1.3.2s-.1.2-.3.2c-.2 0-.3-.1-.3-.2z"/><path id="_x35_90" class="st9" d="M63.3 134.3l.4.1c.1 0 .2-.1.2-.2s-.1-.2-.2-.2l-.4-.1-.4-.1c-.1 0-.2.1-.2.1 0 .1.1.2.2.2l.4.2"/><path id="_x35_89" class="st6" d="M63.3 134.3l.4.1c.1 0 .2-.1.2-.2s-.1-.2-.2-.2l-.4-.1-.4-.1c-.1 0-.2.1-.2.1 0 .1.1.2.2.2l.4.2"/><path id="_x35_88" class="st3" d="M64.9 134.6l-.1-.3h-.4l.2.4.3-.1"/><path id="_x35_87" class="st6" d="M64.9 134.6l-.1-.3h-.4l.2.4.3-.1"/><path id="_x35_86" class="st3" d="M60.4 135.7c-1.5 0-2.8-.1-3.8-.4 1-.3 2.3-.4 3.8-.4s2.8.2 3.8.4c-1 .3-2.3.4-3.8.4"/><path id="_x35_85" class="st4" d="M60.4 135.7c-1.5 0-2.8-.1-3.8-.4 1-.3 2.3-.4 3.8-.4s2.8.2 3.8.4c-1 .3-2.3.4-3.8.4z"/><path id="_x35_84" class="st5" d="M65 132.5c0-.1 0-.2-.1-.3-.1 0-.2.1-.2.2s0 .2.1.3c.1 0 .2-.1.2-.2"/><path id="_x35_83" class="st6" d="M65 132.5c0-.1 0-.2-.1-.3-.1 0-.2.1-.2.2s0 .2.1.3c.1 0 .2-.1.2-.2z"/><path id="_x35_82" class="st5" d="M62.1 132c0-.1 0-.2-.1-.2s-.2.1-.2.2 0 .2.1.2.2-.1.2-.2"/><path id="_x35_81" class="st6" d="M62.1 132c0-.1 0-.2-.1-.2s-.2.1-.2.2 0 .2.1.2.2-.1.2-.2z"/><path id="_x35_80" class="st5" d="M58.7 132c0-.1 0-.2.1-.2s.2.1.2.2 0 .2-.1.2-.2-.1-.2-.2"/><path id="_x35_79" class="st6" d="M58.7 132c0-.1 0-.2.1-.2s.2.1.2.2 0 .2-.1.2-.2-.1-.2-.2z"/><path id="_x35_78" class="st5" d="M55.8 132.5c0-.1 0-.2.1-.3.1 0 .2.1.2.2s0 .2-.1.3l-.2-.2"/><path id="_x35_77" class="st6" d="M55.8 132.5c0-.1 0-.2.1-.3.1 0 .2.1.2.2s0 .2-.1.3l-.2-.2z"/><path id="_x35_76" class="st5" d="M60.4 130.3l-.5.3.4.8.1.1.1-.1.4-.8-.5-.3"/><path id="_x35_75" class="st6" d="M60.4 130.3l-.5.3.4.8.1.1.1-.1.4-.8-.5-.3"/><path id="_x35_74" class="st5" d="M59.3 131.5l.2.3.8-.3.1-.1-.1-.1-.8-.2-.2.4"/><path id="_x35_73" class="st6" d="M59.3 131.5l.2.3.8-.3.1-.1-.1-.1-.8-.2-.2.4"/><path id="_x35_72" class="st5" d="M61.5 131.5l-.2.3-.8-.3-.1-.1.1-.1.8-.2.2.4"/><path id="_x35_71" class="st6" d="M61.5 131.5l-.2.3-.8-.3-.1-.1.1-.1.8-.2.2.4"/><path id="_x35_70" class="st5" d="M57 130.7l-.4.4.5.7.1.1.1-.1.2-.8-.5-.3"/><path id="_x35_69" class="st6" d="M57 130.7l-.4.4.5.7.1.1.1-.1.2-.8-.5-.3"/><path id="_x35_68" class="st5" d="M56.2 132l.3.3.7-.4.1-.1-.1-.1-.8-.1-.2.4"/><path id="_x35_67" class="st6" d="M56.2 132l.3.3.7-.4.1-.1-.1-.1-.8-.1-.2.4"/><path id="_x35_66" class="st5" d="M58.4 131.6l-.2.4-.8-.1-.1-.1.1-.1.7-.4.3.3"/><path id="_x35_65" class="st6" d="M58.4 131.6l-.2.4-.8-.1-.1-.1.1-.1.7-.4.3.3"/><path id="_x35_64" class="st5" d="M55.4 132.1l-.1.4-.8.1-.1-.1v-.1l.6-.5.4.2"/><path id="_x35_63" class="st6" d="M55.4 132.1l-.1.4-.8.1-.1-.1v-.1l.6-.5.4.2"/><path id="_x35_62" class="st5" d="M57 131.8c0-.2.1-.3.3-.3.2 0 .3.1.3.3 0 .1-.1.3-.3.3-.2 0-.3-.2-.3-.3"/><path id="_x35_61" class="st6" d="M57 131.8c0-.2.1-.3.3-.3.2 0 .3.1.3.3 0 .1-.1.3-.3.3-.2 0-.3-.2-.3-.3z"/><path id="_x35_60" class="st5" d="M63.8 130.7l.4.4-.5.7-.1.1-.1-.1-.2-.8.5-.3"/><path id="_x35_59" class="st6" d="M63.8 130.7l.4.4-.5.7-.1.1-.1-.1-.2-.8.5-.3"/><path id="_x35_58" class="st5" d="M64.6 132l-.3.3-.7-.4-.1-.1.1-.1.8-.1.2.4"/><path id="_x35_57" class="st6" d="M64.6 132l-.3.3-.7-.4-.1-.1.1-.1.8-.1.2.4"/><path id="_x35_56" class="st5" d="M62.4 131.6l.2.4.8-.1.1-.1-.1-.1-.7-.4-.3.3"/><path id="_x35_55" class="st6" d="M62.4 131.6l.2.4.8-.1.1-.1-.1-.1-.7-.4-.3.3"/><path id="_x35_54" class="st5" d="M65.3 132.1l.1.4.8.1.1-.1v-.1l-.6-.5-.4.2"/><path id="_x35_53" class="st6" d="M65.3 132.1l.1.4.8.1.1-.1v-.1l-.6-.5-.4.2"/><path id="_x35_52" class="st5" d="M60.1 131.5c0-.2.1-.3.3-.3.2 0 .3.1.3.3 0 .1-.1.3-.3.3-.2 0-.3-.1-.3-.3"/><path id="_x35_51" class="st6" d="M60.1 131.5c0-.2.1-.3.3-.3.2 0 .3.1.3.3 0 .1-.1.3-.3.3-.2 0-.3-.1-.3-.3z"/><path id="_x35_50" class="st5" d="M63.2 131.8c0-.2.1-.3.3-.3.2 0 .3.1.3.3 0 .1-.1.3-.3.3-.2 0-.3-.2-.3-.3"/><path id="_x35_49" class="st6" d="M63.2 131.8c0-.2.1-.3.3-.3.2 0 .3.1.3.3 0 .1-.1.3-.3.3-.2 0-.3-.2-.3-.3z"/><path id="_x35_48" class="st5" d="M54.3 132.6s-.2-.3-.4-.4c-.1-.1-.4-.2-.4-.2s.2-.2.3-.2c.1 0 .2 0 .3.1v-.1s.1 0 .2.2 0 .4 0 .4v.2"/><path id="_x35_47" class="st6" d="M54.3 132.6s-.2-.3-.4-.4c-.1-.1-.4-.2-.4-.2s.2-.2.3-.2c.1 0 .2 0 .3.1v-.1s.1 0 .2.2 0 .4 0 .4v.2z"/><path id="_x35_46" class="st5" d="M54.3 132.4c.1-.1.2-.1.3 0 .1.1.1.2.1.3-.1.1-.2.1-.3 0-.2 0-.2-.2-.1-.3"/><path id="_x35_45" class="st6" d="M54.3 132.4c.1-.1.2-.1.3 0 .1.1.1.2.1.3-.1.1-.2.1-.3 0-.2 0-.2-.2-.1-.3z"/><path id="_x35_44" class="st5" d="M66.4 132.6s.2-.3.4-.4c.1-.1.4-.2.4-.2s-.2-.2-.3-.2c-.1 0-.2 0-.3.1v-.1s-.1 0-.2.2 0 .4 0 .4v.2"/><path id="_x35_43" class="st6" d="M66.4 132.6s.2-.3.4-.4c.1-.1.4-.2.4-.2s-.2-.2-.3-.2c-.1 0-.2 0-.3.1v-.1s-.1 0-.2.2 0 .4 0 .4v.2z"/><path id="_x35_42" class="st5" d="M66.4 132.4c-.1-.1-.2-.1-.3 0-.1.1-.1.2-.1.3.1.1.2.1.3 0 .2 0 .2-.2.1-.3"/><path id="_x35_41" class="st6" d="M66.4 132.4c-.1-.1-.2-.1-.3 0-.1.1-.1.2-.1.3.1.1.2.1.3 0 .2 0 .2-.2.1-.3z"/><path id="_x35_40" class="st5" d="M53.7 139.4h13.4v-3.5H53.7v3.5z"/><path id="_x35_39" class="st10" d="M53.7 139.4h13.4v-3.5H53.7v3.5z"/><path id="_x35_38" class="st5" d="M55.2 141.8h10.5c-.3-.1-.6-.4-.6-.8s.3-.7.6-.8H55.1h.1c.4.1.6.4.6.8-.1.3-.3.6-.6.8"/><path id="_x35_37" class="st11" d="M55.2 141.8h10.5c-.3-.1-.6-.4-.6-.8s.3-.7.6-.8H55.1h.1c.4.1.6.4.6.8-.1.3-.3.6-.6.8z"/><path id="_x35_36" class="st5" d="M55.4 141.7h10c.3 0 .6.2.6.5s-.3.5-.6.5h-10c-.3 0-.6-.2-.6-.5s.3-.5.6-.5"/><path id="_x35_35" class="st10" d="M55.4 141.7h10c.3 0 .6.2.6.5s-.3.5-.6.5h-10c-.3 0-.6-.2-.6-.5s.3-.5.6-.5z"/><path id="_x35_34" class="st5" d="M55.4 139.4h10c.3 0 .6.2.6.4s-.3.4-.6.4h-10c-.3 0-.6-.2-.6-.4s.3-.4.6-.4"/><path id="_x35_33" class="st10" d="M55.4 139.4h10c.3 0 .6.2.6.4s-.3.4-.6.4h-10c-.3 0-.6-.2-.6-.4s.3-.4.6-.4z"/><path id="_x35_32" class="st12" d="M69.8 198.4c-.9 0-1.7-.2-2.4-.5-.6-.3-1.4-.5-2.3-.5-.9 0-1.7.2-2.3.5-.6.3-1.4.5-2.4.5-.9 0-1.8-.2-2.4-.5-.6-.3-1.4-.5-2.3-.5-.9 0-1.7.2-2.3.5-.6.3-1.5.5-2.4.5v1.4c.9 0 1.8-.2 2.4-.5.6-.3 1.4-.5 2.3-.5.9 0 1.7.2 2.3.5.6.3 1.4.5 2.4.5.9 0 1.7-.2 2.4-.5.6-.3 1.4-.5 2.3-.5.9 0 1.7.2 2.3.5.6.3 1.4.5 2.3.5l.1-1.4"/><path id="_x35_31" class="st10" d="M69.8 198.4c-.9 0-1.7-.2-2.4-.5-.6-.3-1.4-.5-2.3-.5-.9 0-1.7.2-2.3.5-.6.3-1.4.5-2.4.5-.9 0-1.8-.2-2.4-.5-.6-.3-1.4-.5-2.3-.5-.9 0-1.7.2-2.3.5-.6.3-1.5.5-2.4.5v1.4c.9 0 1.8-.2 2.4-.5.6-.3 1.4-.5 2.3-.5.9 0 1.7.2 2.3.5.6.3 1.4.5 2.4.5.9 0 1.7-.2 2.4-.5.6-.3 1.4-.5 2.3-.5.9 0 1.7.2 2.3.5.6.3 1.4.5 2.3.5l.1-1.4z"/><path id="_x35_30" class="st13" d="M69.8 199.9c-.9 0-1.7-.2-2.4-.5-.6-.3-1.4-.5-2.3-.5-.9 0-1.7.2-2.3.5-.6.3-1.4.5-2.4.5-.9 0-1.8-.2-2.4-.5-.6-.3-1.4-.5-2.3-.5-.9 0-1.7.2-2.3.5-.6.3-1.5.5-2.4.5v1.4c.9 0 1.8-.2 2.4-.5.6-.3 1.4-.5 2.3-.5.9 0 1.7.2 2.3.5.6.3 1.4.5 2.4.5.9 0 1.7-.2 2.4-.5.6-.3 1.4-.5 2.3-.5.9 0 1.7.2 2.3.5.6.3 1.4.5 2.3.5l.1-1.4"/><path id="_x35_29" class="st10" d="M69.8 199.9c-.9 0-1.7-.2-2.4-.5-.6-.3-1.4-.5-2.3-.5-.9 0-1.7.2-2.3.5-.6.3-1.4.5-2.4.5-.9 0-1.8-.2-2.4-.5-.6-.3-1.4-.5-2.3-.5-.9 0-1.7.2-2.3.5-.6.3-1.5.5-2.4.5v1.4c.9 0 1.8-.2 2.4-.5.6-.3 1.4-.5 2.3-.5.9 0 1.7.2 2.3.5.6.3 1.4.5 2.4.5.9 0 1.7-.2 2.4-.5.6-.3 1.4-.5 2.3-.5.9 0 1.7.2 2.3.5.6.3 1.4.5 2.3.5l.1-1.4"/><path id="_x35_28" class="st12" d="M69.8 201.3c-.9 0-1.7-.2-2.4-.5-.6-.3-1.4-.5-2.3-.5-.9 0-1.7.2-2.3.5-.6.3-1.4.5-2.4.5-.9 0-1.8-.2-2.4-.5-.6-.3-1.4-.5-2.3-.5-.9 0-1.7.2-2.3.5-.6.3-1.5.5-2.4.5v1.4c.9 0 1.8-.2 2.4-.5.6-.3 1.4-.5 2.3-.5.9 0 1.7.2 2.3.5.6.3 1.4.5 2.4.5.9 0 1.7-.2 2.4-.5.6-.3 1.4-.5 2.3-.5.9 0 1.7.2 2.3.5.6.3 1.4.5 2.3.5l.1-1.4"/><path id="_x35_27" class="st10" d="M69.8 201.3c-.9 0-1.7-.2-2.4-.5-.6-.3-1.4-.5-2.3-.5-.9 0-1.7.2-2.3.5-.6.3-1.4.5-2.4.5-.9 0-1.8-.2-2.4-.5-.6-.3-1.4-.5-2.3-.5-.9 0-1.7.2-2.3.5-.6.3-1.5.5-2.4.5v1.4c.9 0 1.8-.2 2.4-.5.6-.3 1.4-.5 2.3-.5.9 0 1.7.2 2.3.5.6.3 1.4.5 2.4.5.9 0 1.7-.2 2.4-.5.6-.3 1.4-.5 2.3-.5.9 0 1.7.2 2.3.5.6.3 1.4.5 2.3.5l.1-1.4"/><path id="_x35_26" class="st13" d="M69.8 204.2c-.9 0-1.7-.2-2.3-.5-.6-.3-1.4-.5-2.3-.5-.9 0-1.7.2-2.3.5-.6.3-1.4.5-2.4.5-.9 0-1.8-.2-2.4-.5-.6-.3-1.4-.5-2.3-.5-.9 0-1.7.2-2.3.5-.6.3-1.5.5-2.4.5v-1.4c.9 0 1.8-.2 2.4-.5.6-.3 1.4-.5 2.3-.5.9 0 1.7.2 2.3.5.6.3 1.4.5 2.4.5.9 0 1.7-.2 2.4-.5.6-.3 1.4-.5 2.3-.5.9 0 1.7.2 2.3.5.6.3 1.4.5 2.4.5l-.1 1.4"/><path id="_x35_25" class="st10" d="M69.8 204.2c-.9 0-1.7-.2-2.3-.5-.6-.3-1.4-.5-2.3-.5-.9 0-1.7.2-2.3.5-.6.3-1.4.5-2.4.5-.9 0-1.8-.2-2.4-.5-.6-.3-1.4-.5-2.3-.5-.9 0-1.7.2-2.3.5-.6.3-1.5.5-2.4.5v-1.4c.9 0 1.8-.2 2.4-.5.6-.3 1.4-.5 2.3-.5.9 0 1.7.2 2.3.5.6.3 1.4.5 2.4.5.9 0 1.7-.2 2.4-.5.6-.3 1.4-.5 2.3-.5.9 0 1.7.2 2.3.5.6.3 1.4.5 2.4.5l-.1 1.4"/><path id="_x35_24" class="st12" d="M69.8 205.6c-.9 0-1.7-.2-2.3-.5-.6-.3-1.4-.5-2.3-.5-.9 0-1.7.2-2.3.5-.6.3-1.4.5-2.4.5-.9 0-1.8-.2-2.4-.5-.6-.3-1.4-.5-2.3-.5-.9 0-1.7.2-2.3.5-.6.3-1.5.5-2.4.5v-1.4c.9 0 1.8-.2 2.4-.5.6-.3 1.4-.5 2.3-.5.9 0 1.7.2 2.3.5.6.3 1.4.5 2.4.5.9 0 1.7-.2 2.4-.5.6-.3 1.4-.5 2.3-.5.9 0 1.7.2 2.3.5.6.3 1.4.5 2.4.5l-.1 1.4"/><path id="_x35_23" class="st10" d="M69.8 205.6c-.9 0-1.7-.2-2.3-.5-.6-.3-1.4-.5-2.3-.5-.9 0-1.7.2-2.3.5-.6.3-1.4.5-2.4.5-.9 0-1.8-.2-2.4-.5-.6-.3-1.4-.5-2.3-.5-.9 0-1.7.2-2.3.5-.6.3-1.5.5-2.4.5v-1.4c.9 0 1.8-.2 2.4-.5.6-.3 1.4-.5 2.3-.5.9 0 1.7.2 2.3.5.6.3 1.4.5 2.4.5.9 0 1.7-.2 2.4-.5.6-.3 1.4-.5 2.3-.5.9 0 1.7.2 2.3.5.6.3 1.4.5 2.4.5l-.1 1.4z"/><path id="_x35_22" class="st5" d="M55.2 192.5c0 .1.1.2.1.4 0 .9-.8 1.6-1.7 1.6h13.8c-.9 0-1.7-.7-1.7-1.6 0-.1 0-.2.1-.4H55.2"/><path id="_x35_21" class="st11" d="M55.2 192.5c0 .1.1.2.1.4 0 .9-.8 1.6-1.7 1.6h13.8c-.9 0-1.7-.7-1.7-1.6 0-.1 0-.2.1-.4H55.2z"/><path id="_x35_20" class="st5" d="M55.4 191.6h10c.3 0 .6.2.6.5s-.3.5-.6.5h-10c-.3 0-.6-.2-.6-.5s.3-.5.6-.5"/><path id="_x35_19" class="st10" d="M55.4 191.6h10c.3 0 .6.2.6.5s-.3.5-.6.5h-10c-.3 0-.6-.2-.6-.5s.3-.5.6-.5z"/><path id="_x35_18" class="st5" d="M53.6 197.9h13.7v-3.5H53.6v3.5z"/><path id="_x35_17" class="st10" d="M53.6 197.9h13.7v-3.5H53.6v3.5z"/><path id="_x35_16" class="st3" d="M52.5 179.2c-1.4.8-2.3 1.6-2.1 2 .1.4.5.6 1.1 1 1 .7 1.6 1.9 1.1 2.4.8-.6 1.3-1.6 1.3-2.7s-.5-2.1-1.4-2.7"/><path id="_x35_15" class="st10" d="M52.5 179.2c-1.4.8-2.3 1.6-2.1 2 .1.4.5.6 1.1 1 1 .7 1.6 1.9 1.1 2.4.8-.6 1.3-1.6 1.3-2.7s-.5-2.1-1.4-2.7z"/><path id="_x35_14" class="st13" d="M55.5 191h9.7v-47.8h-9.7V191z"/><path id="_x35_13" class="st10" d="M62.5 143.3V191m1.1-47.7V191"/><path id="_x35_12" class="st10" d="M55.5 191h9.7v-47.8h-9.7V191z"/><path id="_x35_11" class="st3" d="M75.2 161.1c-2.1-.9-5.7-1.5-9.9-1.7-1.4 0-3 .1-4.7.4-5.8 1-10.3 3.3-9.9 5.2v.2s-2.2-4.9-2.2-5.1c-.4-2.1 4.5-4.7 11-5.8 2-.3 4-.5 5.7-.5 4.1 0 7.7.5 9.9 1.3l.1 6"/><path id="_x35_10" class="st11" d="M75.2 161.1c-2.1-.9-5.7-1.5-9.9-1.7-1.4 0-3 .1-4.7.4-5.8 1-10.3 3.3-9.9 5.2v.2s-2.2-4.9-2.2-5.1c-.4-2.1 4.5-4.7 11-5.8 2-.3 4-.5 5.7-.5 4.1 0 7.7.5 9.9 1.3l.1 6"/><path id="_x35_09" class="st3" d="M55.5 167.1c-2.7-.2-4.5-.9-4.8-2-.2-.9.8-1.9 2.4-2.8.7.1 1.5.2 2.4.2v4.6"/><path id="_x35_08" class="st10" d="M55.5 167.1c-2.7-.2-4.5-.9-4.8-2-.2-.9.8-1.9 2.4-2.8.7.1 1.5.2 2.4.2v4.6"/><path id="_x35_07" class="st3" d="M65.3 163.4c1.7.3 3 .7 3.6 1.2l.1.1c.3.6-1.2 1.9-3.7 3.4v-4.7"/><path id="_x35_06" class="st10" d="M65.3 163.4c1.7.3 3 .7 3.6 1.2l.1.1c.3.6-1.2 1.9-3.7 3.4v-4.7"/><path id="_x35_05" class="st3" d="M49.5 176.3c-.3-.8 2.4-2.3 6.1-3.7 1.7-.6 3.1-1.2 4.9-2 5.2-2.3 9-4.9 8.5-5.9l-.1-.1c.3.2.7 4.9.7 4.9.5.9-3 3.5-7.8 5.7-1.5.7-4.7 1.9-6.3 2.5-2.7.9-5.4 2.7-5.2 3.4l-.8-4.8"/><path id="_x35_04" class="st11" d="M49.5 176.3c-.3-.8 2.4-2.3 6.1-3.7 1.7-.6 3.1-1.2 4.9-2 5.2-2.3 9-4.9 8.5-5.9l-.1-.1c.3.2.7 4.9.7 4.9.5.9-3 3.5-7.8 5.7-1.5.7-4.7 1.9-6.3 2.5-2.7.9-5.4 2.7-5.2 3.4l-.8-4.8z"/><path id="_x35_03" class="st5" d="M54.9 158.8c1.2-.4 2-.9 1.6-1.9-.2-.6-.9-.7-1.8-.4l-1.6.6 1.5 3.6c.2-.1.3-.1.5-.2s.3-.1.5-.2l-.7-1.5zm-.8-1.8l.4-.2c.3-.1.7.1.9.5.1.3.1.7-.3.9-.1.1-.3.1-.4.2l-.6-1.4"/><path id="_x35_02" class="st5" d="M58.7 155.5c-.2 0-.3.1-.5.1s-.4.1-.5.1l.8 3.8 2.6-.5c0-.1-.1-.2-.1-.2v-.2c-.5.1-1 .3-1.6.4l-.7-3.5"/><path id="_x35_01" class="st5" d="M63.9 158.8c.5-1.4 1.1-2.7 1.7-4H65c-.3 1-.7 1.9-1.1 2.9l-1.5-2.7c-.2 0-.4.1-.6.1h-.6c.8 1.2 1.5 2.5 2.2 3.7h.5"/><path id="_x35_00" class="st5" d="M69.4 155.9c.1-.2.2-.4.3-.5-.1-.1-.6-.3-1.1-.4-1.1-.1-1.7.4-1.8 1-.2 1.4 2 1.2 1.9 2.1 0 .4-.4.5-.9.5s-.8-.3-.9-.7h-.1c-.1.2-.2.5-.3.7.3.2.7.3 1.1.4 1.1.1 1.9-.3 2-1 .1-1.3-2-1.4-1.9-2.1 0-.3.3-.5.8-.5.4 0 .6.3.8.6l.1-.1"/><path id="_x34_99" class="st3" d="M149.9 132.3s-.4.5-.8.5c-.3.1-.7-.3-.7-.3s-.3.3-.6.4c-.4.1-.8-.4-.8-.4s-.3.5-.6.6c-.3.1-.7-.1-.7-.1s-.1.2-.4.4c-.1.1-.3 0-.3 0l-.4-.2-.4-.4-.4-.1s-.2-.5-.2-.6v-.3c-.1-.4.5-.8 1.4-1 .5-.1.9-.1 1.2 0 .3-.3 1.1-.5 1.9-.5.8 0 1.5.2 1.8.4.4-.3 1-.4 1.8-.4.9 0 1.6.2 1.9.5.3-.1.7-.1 1.2 0 .9.2 1.5.6 1.4 1v.3c0 .1-.2.6-.2.6l-.4.1-.4.4-.3.2s-.2.1-.3 0c-.3-.1-.4-.4-.4-.4s-.4.3-.7.1c-.3-.1-.6-.6-.6-.6s-.5.5-.9.4c-.4-.1-.6-.4-.6-.4s-.4.4-.7.3c-.4-.1-.8-.5-.8-.5"/><path id="_x34_98" d="M149.9 132.3s-.4.5-.8.5c-.3.1-.7-.3-.7-.3s-.3.3-.6.4c-.4.1-.8-.4-.8-.4s-.3.5-.6.6c-.3.1-.7-.1-.7-.1s-.1.2-.4.4c-.1.1-.3 0-.3 0l-.4-.2-.4-.4-.4-.1s-.2-.5-.2-.6v-.3c-.1-.4.5-.8 1.4-1 .5-.1.9-.1 1.2 0 .3-.3 1.1-.5 1.9-.5.8 0 1.5.2 1.8.4.4-.3 1-.4 1.8-.4.9 0 1.6.2 1.9.5.3-.1.7-.1 1.2 0 .9.2 1.5.6 1.4 1v.3c0 .1-.2.6-.2.6l-.4.1-.4.4-.3.2s-.2.1-.3 0c-.3-.1-.4-.4-.4-.4s-.4.3-.7.1c-.3-.1-.6-.6-.6-.6s-.5.5-.9.4c-.4-.1-.6-.4-.6-.4s-.4.4-.7.3c-.4-.1-.8-.5-.8-.5h0z" fill="none" stroke="#000" stroke-width=".162"/><path id="_x34_97" class="st5" d="M149.1 129.7c0-.7.4-1.2.8-1.2.5 0 .8.5.8 1.2 0 .6-.4 1.2-.8 1.2-.5 0-.8-.5-.8-1.2"/><path id="_x34_96" class="st6" d="M149.1 129.7c0-.7.4-1.2.8-1.2.5 0 .8.5.8 1.2 0 .6-.4 1.2-.8 1.2-.5 0-.8-.5-.8-1.2z"/><path id="_x34_95" class="st5" d="M149.5 129.7c0-.6.2-1.1.4-1.1s.4.5.4 1.1c0 .6-.2 1.1-.4 1.1s-.4-.5-.4-1.1"/><path id="_x34_94" class="st6" d="M149.5 129.7c0-.6.2-1.1.4-1.1s.4.5.4 1.1c0 .6-.2 1.1-.4 1.1s-.4-.5-.4-1.1z"/><path id="_x34_93" class="st5" d="M145.6 134.6c-.1-.3-.4-.6-.4-.6 1.2-.3 2.8-.6 4.6-.6 1.8 0 3.4.2 4.6.6 0 0-.1.2-.3.5-.1.2-.2.5-.2.5-1.1-.3-2.4-.5-4.1-.5-1.7 0-3.3.2-4.1.5.1 0 0-.2-.1-.4"/><path id="_x34_92" class="st6" d="M145.6 134.6c-.1-.3-.4-.6-.4-.6 1.2-.3 2.8-.6 4.6-.6 1.8 0 3.4.2 4.6.6 0 0-.1.2-.3.5-.1.2-.2.5-.2.5-1.1-.3-2.4-.5-4.1-.5-1.7 0-3.3.2-4.1.5.1 0 0-.2-.1-.4"/><path id="_x34_91" class="st5" d="M149.9 136c1.5 0 3.1-.2 3.7-.4.4-.1.6-.3.6-.5 0-.1-.1-.2-.2-.2-.9-.3-2.4-.5-4-.5s-3.2.2-4 .5c-.1 0-.2.1-.2.2 0 .2.2.4.6.5.4.2 2 .4 3.5.4"/><path id="_x34_90" class="st6" d="M149.9 136c1.5 0 3.1-.2 3.7-.4.4-.1.6-.3.6-.5 0-.1-.1-.2-.2-.2-.9-.3-2.4-.5-4-.5s-3.2.2-4 .5c-.1 0-.2.1-.2.2 0 .2.2.4.6.5.4.2 2 .4 3.5.4z"/><path id="_x34_89" class="st8" d="M153.4 130.2c0-.1.1-.3.3-.3.2 0 .3.1.3.3 0 .1-.1.3-.3.3-.1 0-.3-.1-.3-.3"/><path id="_x34_88" class="st15" d="M153.4 130.2c0-.1.1-.3.3-.3.2 0 .3.1.3.3 0 .1-.1.3-.3.3-.1 0-.3-.1-.3-.3z"/><path id="_x34_87" class="st15" d="M153.3 129.3c0-.1.1-.3.3-.3s.3.1.3.3c0 .1-.1.3-.3.3s-.3-.1-.3-.3zm-.7-.5c0-.1.1-.3.3-.3.1 0 .3.1.3.3 0 .1-.1.3-.3.3-.2-.1-.3-.2-.3-.3zm-.8-.3c0-.1.1-.3.3-.3.2 0 .3.1.3.3 0 .1-.1.3-.3.3-.2 0-.3-.1-.3-.3zm-.9 0c0-.1.1-.3.3-.3.2 0 .3.1.3.3 0 .1-.1.3-.3.3-.2 0-.3-.1-.3-.3z"/><path id="_x34_86" class="st16" d="M156.1 132c.1-.2.1-.4.1-.6 0-1-.8-1.7-1.7-1.7-.3 0-.6.1-.8.2"/><path id="_x34_85" class="st6" d="M153.1 130.8c.1-.2.2-.3.2-.5 0-.7-.7-1.2-1.6-1.2-.4 0-.7.1-1 .3"/><path id="_x34_84" class="st15" d="M156.4 131.2c0-.1.1-.3.3-.3.1 0 .3.1.3.3 0 .1-.1.3-.3.3-.2 0-.3-.1-.3-.3zm-.1-.9c0-.1.1-.3.3-.3.1 0 .3.1.3.3 0 .1-.1.3-.3.3-.2-.1-.3-.2-.3-.3zm-.7-.8c0-.1.1-.3.3-.3.2 0 .3.1.3.3 0 .1-.1.3-.3.3-.1 0-.3-.1-.3-.3zm-.8-.4c0-.1.1-.3.3-.3.1 0 .3.1.3.3 0 .1-.1.3-.3.3-.1 0-.3-.1-.3-.3zm-.8.1c0-.1.1-.3.3-.3.1 0 .3.1.3.3 0 .1-.1.3-.3.3-.2-.1-.3-.2-.3-.3z"/><path id="_x34_83" class="st5" d="M154.6 133.2l-.4-.3s-.3.2-.8.1c-.4-.1-.6-.6-.6-.6s-.5.4-.9.4-.6-.4-.6-.4-.4.3-.8.3-.7-.5-.7-.5-.4.5-.7.5c-.4 0-.7-.3-.7-.3s-.2.4-.6.4c-.5.1-.9-.4-.9-.4s-.3.4-.6.6c-.3.1-.7-.2-.7-.2s-.1.2-.1.3c-.1.1-.2.1-.2.1l.1.3c1.2-.3 2.7-.5 4.5-.5 1.8 0 3.4.2 4.6.6l.1-.4"/><path id="_x34_82" class="st6" d="M154.6 133.2l-.4-.3s-.3.2-.8.1c-.4-.1-.6-.6-.6-.6s-.5.4-.9.4-.6-.4-.6-.4-.4.3-.8.3-.7-.5-.7-.5-.4.5-.7.5c-.4 0-.7-.3-.7-.3s-.2.4-.6.4c-.5.1-.9-.4-.9-.4s-.3.4-.6.6c-.3.1-.7-.2-.7-.2s-.1.2-.1.3c-.1.1-.2.1-.2.1l.1.3c1.2-.3 2.7-.5 4.5-.5 1.8 0 3.4.2 4.6.6l.1-.4z"/><path id="_x34_81" class="st8" d="M145.8 130.2c0-.1.1-.3.3-.3s.3.1.3.3c0 .1-.1.3-.3.3s-.3-.1-.3-.3"/><path id="_x34_80" class="st15" d="M145.8 130.2c0-.1.1-.3.3-.3s.3.1.3.3c0 .1-.1.3-.3.3s-.3-.1-.3-.3z"/><path id="_x34_79" class="st15" d="M145.9 129.3c0-.1.1-.3.3-.3.2 0 .3.1.3.3 0 .1-.1.3-.3.3-.1 0-.3-.1-.3-.3zm.7-.5c0-.1.1-.3.3-.3s.3.1.3.3c0 .1-.1.3-.3.3s-.3-.2-.3-.3zm.9-.3c0-.1.1-.3.3-.3.1 0 .3.1.3.3 0 .1-.1.3-.3.3-.2 0-.3-.1-.3-.3zm.8 0c0-.1.1-.3.3-.3.2 0 .3.1.3.3 0 .1-.1.3-.3.3-.1 0-.3-.1-.3-.3z"/><path id="_x34_78" class="st16" d="M143.6 132c-.1-.2-.1-.4-.1-.6 0-1 .8-1.7 1.7-1.7.3 0 .6.1.8.2"/><path id="_x34_77" class="st6" d="M146.7 130.8c-.1-.2-.2-.3-.2-.5 0-.7.7-1.2 1.6-1.2.4 0 .7.1 1 .3"/><path id="_x34_76" class="st15" d="M142.9 131.2c0-.1.1-.3.3-.3.1 0 .3.1.3.3 0 .1-.1.3-.3.3-.2 0-.3-.1-.3-.3zm.1-.9c0-.1.1-.3.3-.3s.3.1.3.3c0 .1-.1.3-.3.3s-.3-.2-.3-.3zm.6-.8c0-.1.1-.3.3-.3.1 0 .3.1.3.3 0 .1-.1.3-.3.3-.2 0-.3-.1-.3-.3zm.8-.4c0-.1.1-.3.3-.3.2 0 .3.1.3.3 0 .1-.1.3-.3.3-.2 0-.3-.1-.3-.3zm.9.1c0-.1.1-.3.3-.3s.3.1.3.3c0 .1-.1.3-.3.3s-.3-.2-.3-.3z"/><path id="_x34_75" class="st5" d="M149.9 131.7h.2v.2c0 .3.3.6.7.6.3 0 .5-.2.6-.4l.1-.2v.2c0 .3.3.5.7.5.4 0 .7-.3.7-.6v-.1l.2-.2.1.3c0 .1-.1.2-.1.3 0 .3.3.6.6.6.2 0 .4-.1.5-.3l.1-.2v.2c0 .2.1.4.3.4 0 0 .2 0 .5-.2s.5-.4.5-.4v.3s-.3.5-.6.7c-.1.1-.4.2-.6.1-.2 0-.3-.2-.4-.4-.1.1-.3.1-.5.1-.4 0-.7-.2-.9-.5-.2.2-.4.3-.7.3-.3 0-.6-.1-.8-.3-.2.2-.4.3-.7.3-.3 0-.6-.2-.8-.4-.2.2-.5.4-.8.4-.3 0-.5-.1-.7-.3-.2.2-.4.3-.8.3-.3 0-.5-.1-.7-.3-.1.3-.5.5-.9.5-.2 0-.3 0-.5-.1-.1.2-.2.3-.4.4-.2 0-.4-.1-.6-.1-.3-.2-.6-.7-.6-.7v-.3s.2.2.5.4.6.2.6.2c.2 0 .3-.2.3-.4v-.2l.1.2c.1.2.3.3.5.3.4 0 .6-.3.6-.6 0-.1 0-.2-.1-.3l.1-.3.2.2v.1c0 .4.3.6.7.6.3 0 .6-.2.7-.5v-.2l.1.2c.1.3.3.4.6.4.4 0 .7-.3.7-.6v-.2h.7"/><path id="_x34_74" class="st6" d="M149.9 131.7h.2v.2c0 .3.3.6.7.6.3 0 .5-.2.6-.4l.1-.2v.2c0 .3.3.5.7.5.4 0 .7-.3.7-.6v-.1l.2-.2.1.3c0 .1-.1.2-.1.3 0 .3.3.6.6.6.2 0 .4-.1.5-.3l.1-.2v.2c0 .2.1.4.3.4 0 0 .2 0 .5-.2s.5-.4.5-.4v.3s-.3.5-.6.7c-.1.1-.4.2-.6.1-.2 0-.3-.2-.4-.4-.1.1-.3.1-.5.1-.4 0-.7-.2-.9-.5-.2.2-.4.3-.7.3-.3 0-.6-.1-.8-.3-.2.2-.4.3-.7.3-.3 0-.6-.2-.8-.4-.2.2-.5.4-.8.4-.3 0-.5-.1-.7-.3-.2.2-.4.3-.8.3-.3 0-.5-.1-.7-.3-.1.3-.5.5-.9.5-.2 0-.3 0-.5-.1-.1.2-.2.3-.4.4-.2 0-.4-.1-.6-.1-.3-.2-.6-.7-.6-.7v-.3s.2.2.5.4.6.2.6.2c.2 0 .3-.2.3-.4v-.2l.1.2c.1.2.3.3.5.3.4 0 .6-.3.6-.6 0-.1 0-.2-.1-.3l.1-.3.2.2v.1c0 .4.3.6.7.6.3 0 .6-.2.7-.5v-.2l.1.2c.1.3.3.4.6.4.4 0 .7-.3.7-.6v-.2h.7z"/><path id="_x34_73" class="st5" d="M149.9 133.3c-1.8 0-3.4.2-4.6.6-.1 0-.2 0-.2-.1s0-.2.1-.2c1.2-.4 2.8-.6 4.7-.6 1.8 0 3.5.2 4.7.6.1 0 .1.1.1.2s-.1.1-.2.1c-1.2-.3-2.8-.6-4.6-.6"/><path id="_x34_72" class="st6" d="M149.9 133.3c-1.8 0-3.4.2-4.6.6-.1 0-.2 0-.2-.1s0-.2.1-.2c1.2-.4 2.8-.6 4.7-.6 1.8 0 3.5.2 4.7.6.1 0 .1.1.1.2s-.1.1-.2.1c-1.2-.3-2.8-.6-4.6-.6z"/><path id="_x34_71" class="st8" d="M148.2 134c0-.1.1-.2.3-.2.1 0 .3.1.3.2s-.1.2-.3.2c-.2 0-.3-.1-.3-.2"/><path id="_x34_70" class="st6" d="M148.2 134c0-.1.1-.2.3-.2.1 0 .3.1.3.2s-.1.2-.3.2c-.2 0-.3-.1-.3-.2z"/><path id="_x34_69" class="st3" d="M149.9 134.1h-.6c-.1 0-.2-.1-.2-.2s.1-.2.2-.2h1.2c.1 0 .2.1.2.2s-.1.2-.2.2h-.6"/><path id="_x34_68" class="st6" d="M149.9 134.1h-.6c-.1 0-.2-.1-.2-.2s.1-.2.2-.2h1.2c.1 0 .2.1.2.2s-.1.2-.2.2h-.6"/><path id="_x34_67" class="st9" d="M147 134.3l-.4.1c-.1 0-.2-.1-.2-.2s.1-.2.2-.2l.4-.1.4-.1c.1 0 .2.1.2.1 0 .1-.1.2-.2.2l-.4.2"/><path id="_x34_66" class="st6" d="M147 134.3l-.4.1c-.1 0-.2-.1-.2-.2s.1-.2.2-.2l.4-.1.4-.1c.1 0 .2.1.2.1 0 .1-.1.2-.2.2l-.4.2"/><path id="_x34_65" class="st3" d="M145.3 134.6l.2-.3.4.1-.2.3-.4-.1"/><path id="_x34_64" class="st6" d="M145.3 134.6l.2-.3.4.1-.2.3-.4-.1"/><path id="_x34_63" class="st8" d="M151.1 134c0-.1.1-.2.3-.2.1 0 .3.1.3.2s-.1.2-.3.2c-.2 0-.3-.1-.3-.2"/><path id="_x34_62" class="st6" d="M151.1 134c0-.1.1-.2.3-.2.1 0 .3.1.3.2s-.1.2-.3.2c-.2 0-.3-.1-.3-.2z"/><path id="_x34_61" class="st9" d="M152.8 134.3l.4.1c.1 0 .2-.1.2-.2s-.1-.2-.2-.2l-.4-.1-.4-.1c-.1 0-.2.1-.2.1 0 .1.1.2.2.2l.4.2"/><path id="_x34_60" class="st6" d="M152.8 134.3l.4.1c.1 0 .2-.1.2-.2s-.1-.2-.2-.2l-.4-.1-.4-.1c-.1 0-.2.1-.2.1 0 .1.1.2.2.2l.4.2"/><path id="_x34_59" class="st3" d="M154.4 134.6l-.1-.3h-.4l.2.4.3-.1"/><path id="_x34_58" class="st6" d="M154.4 134.6l-.1-.3h-.4l.2.4.3-.1"/><path id="_x34_57" class="st3" d="M149.9 135.7c-1.5 0-2.8-.1-3.8-.4 1-.3 2.3-.4 3.8-.4s2.8.2 3.8.4c-1 .3-2.3.4-3.8.4"/><path id="_x34_56" class="st4" d="M149.9 135.7c-1.5 0-2.8-.1-3.8-.4 1-.3 2.3-.4 3.8-.4s2.8.2 3.8.4c-1 .3-2.3.4-3.8.4z"/><path id="_x34_55" class="st5" d="M154.5 132.5c0-.1 0-.2-.1-.3-.1 0-.2.1-.2.2s0 .2.1.3c.1 0 .2-.1.2-.2"/><path id="_x34_54" class="st6" d="M154.5 132.5c0-.1 0-.2-.1-.3-.1 0-.2.1-.2.2s0 .2.1.3c.1 0 .2-.1.2-.2z"/><path id="_x34_53" class="st5" d="M151.6 132c0-.1 0-.2-.1-.2s-.2.1-.2.2 0 .2.1.2.2-.1.2-.2"/><path id="_x34_52" class="st6" d="M151.6 132c0-.1 0-.2-.1-.2s-.2.1-.2.2 0 .2.1.2.2-.1.2-.2z"/><path id="_x34_51" class="st5" d="M148.2 132c0-.1 0-.2.1-.2s.2.1.2.2 0 .2-.1.2-.2-.1-.2-.2"/><path id="_x34_50" class="st6" d="M148.2 132c0-.1 0-.2.1-.2s.2.1.2.2 0 .2-.1.2-.2-.1-.2-.2z"/><path id="_x34_49" class="st5" d="M145.3 132.5c0-.1 0-.2.1-.3.1 0 .2.1.2.2s0 .2-.1.3l-.2-.2"/><path id="_x34_48" class="st6" d="M145.3 132.5c0-.1 0-.2.1-.3.1 0 .2.1.2.2s0 .2-.1.3l-.2-.2z"/><path id="_x34_47" class="st5" d="M149.9 130.3l-.5.3.4.8.1.1.1-.1.4-.8-.5-.3"/><path id="_x34_46" class="st6" d="M149.9 130.3l-.5.3.4.8.1.1.1-.1.4-.8-.5-.3"/><path id="_x34_45" class="st5" d="M148.8 131.5l.2.3.8-.3.1-.1-.1-.1-.8-.2-.2.4"/><path id="_x34_44" class="st6" d="M148.8 131.5l.2.3.8-.3.1-.1-.1-.1-.8-.2-.2.4"/><path id="_x34_43" class="st5" d="M151 131.5l-.2.3-.8-.3-.1-.1.1-.1.8-.2.2.4"/><path id="_x34_42" class="st6" d="M151 131.5l-.2.3-.8-.3-.1-.1.1-.1.8-.2.2.4"/><path id="_x34_41" class="st5" d="M146.6 130.7l-.4.4.5.7.1.1.1-.1.2-.8-.5-.3"/><path id="_x34_40" class="st6" d="M146.6 130.7l-.4.4.5.7.1.1.1-.1.2-.8-.5-.3"/><path id="_x34_39" class="st5" d="M145.7 132l.3.3.7-.4.1-.1-.1-.1-.8-.1-.2.4"/><path id="_x34_38" class="st6" d="M145.7 132l.3.3.7-.4.1-.1-.1-.1-.8-.1-.2.4"/><path id="_x34_37" class="st5" d="M147.9 131.6l-.2.4-.8-.1-.1-.1.1-.1.7-.4.3.3"/><path id="_x34_36" class="st6" d="M147.9 131.6l-.2.4-.8-.1-.1-.1.1-.1.7-.4.3.3"/><path id="_x34_35" class="st5" d="M144.9 132.1l-.1.4-.8.1-.1-.1v-.1l.6-.5.4.2"/><path id="_x34_34" class="st6" d="M144.9 132.1l-.1.4-.8.1-.1-.1v-.1l.6-.5.4.2"/><path id="_x34_33" class="st5" d="M146.5 131.8c0-.2.1-.3.3-.3.2 0 .3.1.3.3 0 .1-.1.3-.3.3-.2 0-.3-.2-.3-.3"/><path id="_x34_32" class="st6" d="M146.5 131.8c0-.2.1-.3.3-.3.2 0 .3.1.3.3 0 .1-.1.3-.3.3-.2 0-.3-.2-.3-.3z"/><path id="_x34_31" class="st5" d="M153.3 130.7l.4.4-.5.7-.1.1-.1-.1-.2-.8.5-.3"/><path id="_x34_30" class="st6" d="M153.3 130.7l.4.4-.5.7-.1.1-.1-.1-.2-.8.5-.3"/><path id="_x34_29" class="st5" d="M154.1 132l-.3.3-.7-.4-.1-.1.1-.1.8-.1.2.4"/><path id="_x34_28" class="st6" d="M154.1 132l-.3.3-.7-.4-.1-.1.1-.1.8-.1.2.4"/><path id="_x34_27" class="st5" d="M151.9 131.6l.2.4.8-.1.1-.1-.1-.1-.7-.4-.3.3"/><path id="_x34_26" class="st6" d="M151.9 131.6l.2.4.8-.1.1-.1-.1-.1-.7-.4-.3.3"/><path id="_x34_25" class="st5" d="M154.8 132.1l.1.4.8.1.1-.1v-.1l-.6-.5-.4.2"/><path id="_x34_24" class="st6" d="M154.8 132.1l.1.4.8.1.1-.1v-.1l-.6-.5-.4.2"/><path id="_x34_23" class="st5" d="M149.6 131.5c0-.2.1-.3.3-.3.2 0 .3.1.3.3 0 .1-.1.3-.3.3-.2 0-.3-.1-.3-.3"/><path id="_x34_22" class="st6" d="M149.6 131.5c0-.2.1-.3.3-.3.2 0 .3.1.3.3 0 .1-.1.3-.3.3-.2 0-.3-.1-.3-.3z"/><path id="_x34_21" class="st5" d="M152.7 131.8c0-.2.1-.3.3-.3.2 0 .3.1.3.3 0 .1-.1.3-.3.3-.1 0-.3-.2-.3-.3"/><path id="_x34_20" class="st6" d="M152.7 131.8c0-.2.1-.3.3-.3.2 0 .3.1.3.3 0 .1-.1.3-.3.3-.1 0-.3-.2-.3-.3z"/><path id="_x34_19" class="st5" d="M149.4 128.4c0-.3.2-.5.6-.5.3 0 .6.2.6.5s-.3.5-.6.5c-.4 0-.6-.2-.6-.5"/><path id="_x34_18" class="st5" d="M150.3 128.2v.3h-.9v-.3h.3v-.8h-.4v-.3h.4v-.3h.4v.3h.4v.3h-.4v.8h.2"/><path id="_x34_17" class="st7" d="M150.3 128.2v.3h-.9v-.3h.3v-.8h-.4v-.3h.4v-.3h.4v.3h.4v.3h-.4v.8h.2z"/><path id="_x34_16" class="st5" d="M150.7 128.2v.3h-1.5v-.3h.6v-.8h-.4v-.3h.4v-.3h.4v.3h.4v.3h-.4v.8h.5"/><path id="_x34_15" class="st6" d="M150.1 127.9c.2.1.4.3.4.5 0 .3-.2.5-.6.5-.3 0-.6-.2-.6-.5 0-.2.2-.4.4-.5"/><path id="_x34_14" class="st5" d="M143.8 132.6s-.2-.3-.4-.4c-.1-.1-.4-.2-.4-.2s.2-.2.3-.2c.1 0 .2 0 .3.1v-.1s.1 0 .2.2 0 .4 0 .4v.2"/><path id="_x34_13" class="st6" d="M143.8 132.6s-.2-.3-.4-.4c-.1-.1-.4-.2-.4-.2s.2-.2.3-.2c.1 0 .2 0 .3.1v-.1s.1 0 .2.2 0 .4 0 .4v.2z"/><path id="_x34_12" class="st5" d="M143.8 132.4c.1-.1.2-.1.3 0 .1.1.1.2.1.3-.1.1-.2.1-.3 0-.2 0-.2-.2-.1-.3"/><path id="_x34_11" class="st6" d="M143.8 132.4c.1-.1.2-.1.3 0 .1.1.1.2.1.3-.1.1-.2.1-.3 0-.2 0-.2-.2-.1-.3z"/><path id="_x34_10" class="st5" d="M155.9 132.6s.2-.3.4-.4c.1-.1.4-.2.4-.2s-.2-.2-.4-.2c-.1 0-.2 0-.3.1v-.1s-.2 0-.2.2c-.1.2 0 .4 0 .4s.1.1.1.2"/><path id="_x34_09" class="st6" d="M155.9 132.6s.2-.3.4-.4c.1-.1.4-.2.4-.2s-.2-.2-.4-.2c-.1 0-.2 0-.3.1v-.1s-.2 0-.2.2c-.1.2 0 .4 0 .4s.1.1.1.2z"/><path id="_x34_08" class="st5" d="M155.9 132.4c-.1-.1-.2-.1-.3 0-.1.1-.1.2-.1.3.1.1.2.1.3 0 .2 0 .2-.2.1-.3"/><path id="_x34_07" class="st6" d="M155.9 132.4c-.1-.1-.2-.1-.3 0-.1.1-.1.2-.1.3.1.1.2.1.3 0 .2 0 .2-.2.1-.3z"/><path id="_x34_06" class="st5" d="M143.2 139.4h13.4v-3.5h-13.4v3.5z"/><path id="_x34_05" class="st10" d="M143.2 139.4h13.4v-3.5h-13.4v3.5z"/><path id="_x34_04" class="st5" d="M155.2 141.8h-10.5c.3-.1.6-.4.6-.8s-.3-.7-.6-.8H155.3h-.1c-.4.1-.6.4-.6.8 0 .3.2.6.6.8"/><path id="_x34_03" class="st11" d="M155.2 141.8h-10.5c.3-.1.6-.4.6-.8s-.3-.7-.6-.8H155.3h-.1c-.4.1-.6.4-.6.8 0 .3.2.6.6.8z"/><path id="_x34_02" class="st5" d="M144.9 141.7h10c.3 0 .6.2.6.5s-.3.5-.6.5h-10c-.3 0-.6-.2-.6-.5s.3-.5.6-.5"/><path id="_x34_01" class="st10" d="M144.9 141.7h10c.3 0 .6.2.6.5s-.3.5-.6.5h-10c-.3 0-.6-.2-.6-.5s.3-.5.6-.5z"/><path id="_x34_00" class="st5" d="M144.9 139.4h10c.3 0 .6.2.6.4s-.3.4-.6.4h-10c-.3 0-.6-.2-.6-.4s.3-.4.6-.4"/><path id="_x33_99" class="st10" d="M144.9 139.4h10c.3 0 .6.2.6.4s-.3.4-.6.4h-10c-.3 0-.6-.2-.6-.4s.3-.4.6-.4z"/><path id="_x33_98" class="st12" d="M140.6 198.4c.9 0 1.7-.2 2.4-.5.6-.3 1.4-.5 2.3-.5.9 0 1.7.2 2.3.5.6.3 1.4.5 2.4.5.9 0 1.8-.2 2.4-.5.6-.3 1.4-.5 2.3-.5.9 0 1.7.2 2.3.5.6.3 1.5.5 2.4.5v1.4c-.9 0-1.8-.2-2.4-.5-.6-.3-1.4-.5-2.3-.5-.9 0-1.7.2-2.3.5-.6.3-1.4.5-2.4.5-.9 0-1.7-.2-2.4-.5-.6-.3-1.4-.5-2.3-.5-.9 0-1.7.2-2.3.5-.6.3-1.4.5-2.3.5l-.1-1.4"/><path id="_x33_97" class="st10" d="M140.6 198.4c.9 0 1.7-.2 2.4-.5.6-.3 1.4-.5 2.3-.5.9 0 1.7.2 2.3.5.6.3 1.4.5 2.4.5.9 0 1.8-.2 2.4-.5.6-.3 1.4-.5 2.3-.5.9 0 1.7.2 2.3.5.6.3 1.5.5 2.4.5v1.4c-.9 0-1.8-.2-2.4-.5-.6-.3-1.4-.5-2.3-.5-.9 0-1.7.2-2.3.5-.6.3-1.4.5-2.4.5-.9 0-1.7-.2-2.4-.5-.6-.3-1.4-.5-2.3-.5-.9 0-1.7.2-2.3.5-.6.3-1.4.5-2.3.5l-.1-1.4z"/><path id="_x33_96" class="st13" d="M140.6 199.9c.9 0 1.7-.2 2.4-.5.6-.3 1.4-.5 2.3-.5.9 0 1.7.2 2.3.5.6.3 1.4.5 2.4.5.9 0 1.8-.2 2.4-.5.6-.3 1.4-.5 2.3-.5.9 0 1.7.2 2.3.5.6.3 1.5.5 2.4.5v1.4c-.9 0-1.8-.2-2.4-.5-.6-.3-1.4-.5-2.3-.5-.9 0-1.7.2-2.3.5-.6.3-1.4.5-2.4.5-.9 0-1.7-.2-2.4-.5-.6-.3-1.4-.5-2.3-.5-.9 0-1.7.2-2.3.5-.6.3-1.4.5-2.3.5l-.1-1.4"/><path id="_x33_95" class="st10" d="M140.6 199.9c.9 0 1.7-.2 2.4-.5.6-.3 1.4-.5 2.3-.5.9 0 1.7.2 2.3.5.6.3 1.4.5 2.4.5.9 0 1.8-.2 2.4-.5.6-.3 1.4-.5 2.3-.5.9 0 1.7.2 2.3.5.6.3 1.5.5 2.4.5v1.4c-.9 0-1.8-.2-2.4-.5-.6-.3-1.4-.5-2.3-.5-.9 0-1.7.2-2.3.5-.6.3-1.4.5-2.4.5-.9 0-1.7-.2-2.4-.5-.6-.3-1.4-.5-2.3-.5-.9 0-1.7.2-2.3.5-.6.3-1.4.5-2.3.5l-.1-1.4"/><path id="_x33_94" class="st12" d="M140.6 201.3c.9 0 1.7-.2 2.4-.5.6-.3 1.4-.5 2.3-.5.9 0 1.7.2 2.3.5.6.3 1.4.5 2.4.5.9 0 1.8-.2 2.4-.5.6-.3 1.4-.5 2.3-.5.9 0 1.7.2 2.3.5.6.3 1.5.5 2.4.5v1.4c-.9 0-1.8-.2-2.4-.5-.6-.3-1.4-.5-2.3-.5-.9 0-1.7.2-2.3.5-.6.3-1.4.5-2.4.5-.9 0-1.7-.2-2.4-.5-.6-.3-1.4-.5-2.3-.5-.9 0-1.7.2-2.3.5-.6.3-1.4.5-2.3.5l-.1-1.4"/><path id="_x33_93" class="st10" d="M140.6 201.3c.9 0 1.7-.2 2.4-.5.6-.3 1.4-.5 2.3-.5.9 0 1.7.2 2.3.5.6.3 1.4.5 2.4.5.9 0 1.8-.2 2.4-.5.6-.3 1.4-.5 2.3-.5.9 0 1.7.2 2.3.5.6.3 1.5.5 2.4.5v1.4c-.9 0-1.8-.2-2.4-.5-.6-.3-1.4-.5-2.3-.5-.9 0-1.7.2-2.3.5-.6.3-1.4.5-2.4.5-.9 0-1.7-.2-2.4-.5-.6-.3-1.4-.5-2.3-.5-.9 0-1.7.2-2.3.5-.6.3-1.4.5-2.3.5l-.1-1.4"/><path id="_x33_92" class="st13" d="M140.6 204.2c.9 0 1.7-.2 2.3-.5.6-.3 1.4-.5 2.3-.5.9 0 1.7.2 2.3.5.6.3 1.4.5 2.4.5.9 0 1.8-.2 2.4-.5.6-.3 1.4-.5 2.3-.5.9 0 1.7.2 2.3.5.6.3 1.5.5 2.4.5v-1.4c-.9 0-1.8-.2-2.4-.5-.6-.3-1.4-.5-2.3-.5-.9 0-1.7.2-2.3.5-.6.3-1.4.5-2.4.5-.9 0-1.7-.2-2.4-.5-.6-.3-1.4-.5-2.3-.5-.9 0-1.7.2-2.3.5-.6.3-1.4.5-2.4.5l.1 1.4"/><path id="_x33_91" class="st10" d="M140.6 204.2c.9 0 1.7-.2 2.3-.5.6-.3 1.4-.5 2.3-.5.9 0 1.7.2 2.3.5.6.3 1.4.5 2.4.5.9 0 1.8-.2 2.4-.5.6-.3 1.4-.5 2.3-.5.9 0 1.7.2 2.3.5.6.3 1.5.5 2.4.5v-1.4c-.9 0-1.8-.2-2.4-.5-.6-.3-1.4-.5-2.3-.5-.9 0-1.7.2-2.3.5-.6.3-1.4.5-2.4.5-.9 0-1.7-.2-2.4-.5-.6-.3-1.4-.5-2.3-.5-.9 0-1.7.2-2.3.5-.6.3-1.4.5-2.4.5l.1 1.4"/><path id="_x33_90" class="st12" d="M140.6 205.6c.9 0 1.7-.2 2.3-.5.6-.3 1.4-.5 2.3-.5.9 0 1.7.2 2.3.5.6.3 1.4.5 2.4.5.9 0 1.8-.2 2.4-.5.6-.3 1.4-.5 2.3-.5.9 0 1.7.2 2.3.5.6.3 1.5.5 2.4.5v-1.4c-.9 0-1.8-.2-2.4-.5-.6-.3-1.4-.5-2.3-.5-.9 0-1.7.2-2.3.5-.6.3-1.4.5-2.4.5-.9 0-1.7-.2-2.4-.5-.6-.3-1.4-.5-2.3-.5-.9 0-1.7.2-2.3.5-.6.3-1.4.5-2.4.5l.1 1.4"/><path id="_x33_89" class="st10" d="M140.6 205.6c.9 0 1.7-.2 2.3-.5.6-.3 1.4-.5 2.3-.5.9 0 1.7.2 2.3.5.6.3 1.4.5 2.4.5.9 0 1.8-.2 2.4-.5.6-.3 1.4-.5 2.3-.5.9 0 1.7.2 2.3.5.6.3 1.5.5 2.4.5v-1.4c-.9 0-1.8-.2-2.4-.5-.6-.3-1.4-.5-2.3-.5-.9 0-1.7.2-2.3.5-.6.3-1.4.5-2.4.5-.9 0-1.7-.2-2.4-.5-.6-.3-1.4-.5-2.3-.5-.9 0-1.7.2-2.3.5-.6.3-1.4.5-2.4.5l.1 1.4z"/><path id="_x33_88" class="st5" d="M155.2 192.5c0 .1-.1.2-.1.4 0 .9.8 1.6 1.7 1.6H143c.9 0 1.7-.7 1.7-1.6 0-.1 0-.2-.1-.4H155.2"/><path id="_x33_87" class="st11" d="M155.2 192.5c0 .1-.1.2-.1.4 0 .9.8 1.6 1.7 1.6H143c.9 0 1.7-.7 1.7-1.6 0-.1 0-.2-.1-.4H155.2z"/><path id="_x33_86" class="st5" d="M144.9 191.6h10c.3 0 .6.2.6.5s-.3.5-.6.5h-10c-.3 0-.6-.2-.6-.5s.3-.5.6-.5"/><path id="_x33_85" class="st10" d="M144.9 191.6h10c.3 0 .6.2.6.5s-.3.5-.6.5h-10c-.3 0-.6-.2-.6-.5s.3-.5.6-.5z"/><path id="_x33_84" class="st5" d="M143.1 197.9h13.7v-3.5h-13.7v3.5z"/><path id="_x33_83" class="st10" d="M143.1 197.9h13.7v-3.5h-13.7v3.5z"/><path id="_x33_82" class="st3" d="M157.9 179.2c1.4.8 2.3 1.6 2.1 2-.1.4-.5.6-1.1 1-1 .7-1.6 1.9-1.1 2.4-.8-.6-1.3-1.6-1.3-2.7s.5-2.1 1.4-2.7"/><path id="_x33_81" class="st10" d="M157.9 179.2c1.4.8 2.3 1.6 2.1 2-.1.4-.5.6-1.1 1-1 .7-1.6 1.9-1.1 2.4-.8-.6-1.3-1.6-1.3-2.7s.5-2.1 1.4-2.7z"/><path id="_x33_80" class="st13" d="M145.1 191h9.8v-47.8h-9.8V191z"/><path id="_x33_79" class="st10" d="M152.1 143.2v47.7m1.1-47.7v47.7"/><path id="_x33_78" class="st10" d="M145.1 191h9.8v-47.8h-9.8V191z"/><path id="_x33_77" class="st3" d="M135.1 161.1c2.1-.9 5.7-1.5 9.9-1.7 1.4 0 3 .1 4.7.4 5.8 1 10.3 3.3 9.9 5.2v.2s2.2-4.9 2.2-5.1c.4-2.1-4.5-4.7-11-5.8-2-.3-4-.5-5.7-.5-4.1 0-7.7.5-9.9 1.3l-.1 6"/><path id="_x33_76" class="st11" d="M135.1 161.1c2.1-.9 5.7-1.5 9.9-1.7 1.4 0 3 .1 4.7.4 5.8 1 10.3 3.3 9.9 5.2v.2s2.2-4.9 2.2-5.1c.4-2.1-4.5-4.7-11-5.8-2-.3-4-.5-5.7-.5-4.1 0-7.7.5-9.9 1.3l-.1 6"/><path id="_x33_75" class="st3" d="M154.8 167.1c2.7-.2 4.6-.9 4.8-2 .2-.9-.8-1.9-2.4-2.8-.7.1-1.6.2-2.4.2v4.6"/><path id="_x33_74" class="st10" d="M154.8 167.1c2.7-.2 4.6-.9 4.8-2 .2-.9-.8-1.9-2.4-2.8-.7.1-1.6.2-2.4.2v4.6"/><path id="_x33_73" class="st3" d="M145.1 163.4c-1.7.3-3 .7-3.6 1.2l-.1.1c-.3.6 1.2 1.9 3.7 3.4v-4.7"/><path id="_x33_72" class="st10" d="M145.1 163.4c-1.7.3-3 .7-3.6 1.2l-.1.1c-.3.6 1.2 1.9 3.7 3.4v-4.7"/><path id="_x33_71" class="st3" d="M160.9 176.3c.3-.8-2.4-2.3-6.1-3.7-1.7-.6-3.1-1.2-4.9-2-5.2-2.3-9-4.9-8.5-5.9l.1-.1c-.3.2-.7 4.9-.7 4.9-.5.9 3 3.5 7.8 5.7 1.5.7 4.8 1.9 6.3 2.5 2.7.9 5.4 2.7 5.2 3.4l.8-4.8"/><path id="_x33_70" class="st11" d="M160.9 176.3c.3-.8-2.4-2.3-6.1-3.7-1.7-.6-3.1-1.2-4.9-2-5.2-2.3-9-4.9-8.5-5.9l.1-.1c-.3.2-.7 4.9-.7 4.9-.5.9 3 3.5 7.8 5.7 1.5.7 4.8 1.9 6.3 2.5 2.7.9 5.4 2.7 5.2 3.4l.8-4.8z"/><path id="_x33_69" class="st5" d="M141.2 159c.4-1.4.8-2.7 1.3-4.1-.1 0-.2.1-.3.1h-.3c-.2 1-.5 2-.9 3-.6-.9-1.2-1.7-1.7-2.6-.2 0-.4.1-.6.1-.2 0-.4 0-.6.1.9 1.2 1.7 2.3 2.5 3.5.1 0 .2-.1.3-.1h.3"/><path id="_x33_68" class="st5" d="M144.9 154.9h-1l-.1 3.8h2.7v-.2-.2c-.5 0-1 .1-1.6 0v-3.4"/><path id="_x33_67" class="st5" d="M149.1 155.5c.4 0 .8.1 1.3.2v-.2c0-.1 0-.2.1-.2l-3.6-.3v.2c0 .1 0 .2-.1.2h1.3l-.3 3.5h.5c.2 0 .4 0 .5.1l.3-3.5"/><path id="_x33_66" class="st5" d="M150.6 159.3c.2 0 .4.1.5.1.2 0 .3.1.5.1l.4-1.8c.1.2.2.5.3.7l.5 1.3c.2 0 .4.1.6.1.2 0 .4.1.6.2l-.2-.4c-.3-.6-.6-1.2-.8-1.8.7 0 1.2-.2 1.3-.8.1-.4-.1-.7-.4-.9-.3-.2-.8-.3-1.1-.4l-1.5-.3-.7 3.9m1.9-3.2c.4.1 1 .2 1 .6v.3c-.1.6-.6.8-1.3.5l.3-1.4"/><path id="_x33_65" class="st5" d="M157.5 160.5c0 .4-.1.8-.2 1.3.2.1.4.2.5.3.2.1.3.2.5.3l.4-4.3c-.1 0-.2-.1-.2-.1-.1 0-.1-.1-.2-.1l-3.8 2.4c.1 0 .2.1.3.2.1.1.2.1.3.2.3-.3.7-.5 1-.8l1.4.6zm-1-1l1.3-.8-.1 1.4-1.2-.6"/><path id="_x33_64" class="st17" d="M90.1 120.3c0-.7.6-1.2 1.3-1.2.7 0 1.3.6 1.3 1.2 0 .7-.6 1.2-1.3 1.2-.7 0-1.3-.6-1.3-1.2z"/><path id="_x33_63" d="M104.8 109.6c4 0 7.5.6 9.8 1.5 1.3.6 3.1 1 5 1.3 1.5.2 2.9.2 4.1.1 1.6 0 4 .4 6.4 1.5 2 .9 3.6 1.9 4.7 2.9l-.9.8-.3 2.4-2.6 3-1.3 1.1-3.1 2.4-1.6.1-.5 1.4-19.7-2.3-19.8 2.3-.5-1.4-1.6-.1-3-2.4-1.3-1.1-2.6-3-.3-2.4-.9-.8c1.1-1 2.7-2.1 4.7-2.9 2.4-1 4.7-1.5 6.4-1.5 1.2.1 2.6.1 4.1-.1 1.9-.3 3.7-.7 5-1.3 2.5-.9 5.8-1.5 9.8-1.5h0z" fill="#ad1519" stroke="#000" stroke-width=".156"/><path id="_x33_62" class="st19" d="M105.1 135.7c-7.4 0-13.9-.9-18.7-2.3-.3-.1-.5-.4-.5-.8 0-.3.2-.6.5-.7 4.7-1.4 11.3-2.3 18.7-2.3 7.4 0 13.9.9 18.7 2.3.3.1.5.4.5.7 0 .3-.2.6-.5.8-4.8 1.4-11.3 2.3-18.7 2.3"/><path id="_x33_61" class="st3" d="M105.1 134.7c-6.6 0-12.6-.8-17.2-2 4.6-1.2 10.6-1.9 17.2-1.9s12.7.7 17.2 1.9c-4.5 1.3-10.6 2-17.2 2"/><path id="_x33_60" class="st20" d="M105.6 134.8v-3.9"/><path id="_x33_59" class="st21" d="M104.5 134.8v-3.9"/><path id="_x33_58" class="st22" d="M103.5 134.8v-3.9"/><path id="_x33_57" d="M102.5 134.8v-3.9" fill="none" stroke="#000" stroke-width=".138"/><path id="_x33_56" d="M101.6 134.8v-3.9" fill="none" stroke="#000" stroke-width=".168"/><path id="_x33_55" d="M99.9 134.6V131m.8 3.6v-3.8" fill="none" stroke="#000" stroke-width=".198"/><path id="_x33_54" d="M98.3 134.4v-3.3m.8 3.4V131" fill="none" stroke="#000" stroke-width=".222"/><path id="_x33_53" d="M96.2 134.2v-2.9m.7 3v-3m.7 3.1v-3.2" fill="none" stroke="#000" stroke-width=".252"/><path id="_x33_52" d="M95.5 134.2v-2.8" fill="none" stroke="#000" stroke-width=".276"/><path id="_x33_51" d="M94.8 134.1v-2.6" fill="none" stroke="#000" stroke-width=".306"/><path id="_x33_50" d="M94 134v-2.4" fill="none" stroke="#000" stroke-width=".336"/><path id="_x33_49" d="M92.5 133.8v-1.9m.8 2v-2.2" fill="none" stroke="#000" stroke-width=".36"/><path id="_x33_48" d="M91.8 133.6v-1.7" fill="none" stroke="#000" stroke-width=".378"/><path id="_x33_47" d="M91 133.5v-1.4" fill="none" stroke="#000" stroke-width=".408"/><path id="_x33_46" d="M90.3 133.3v-1.1" fill="none" stroke="#000" stroke-width=".438"/><path id="_x33_45" d="M89.5 133.2v-.8" fill="none" stroke="#000" stroke-width=".462"/><path id="_x33_44" d="M88.6 133v-.4" fill="none" stroke="#000" stroke-width=".546"/><path id="_x33_43" class="st17" d="M109.8 134.6V131m-1.8 3.7v-3.8m-1.3 3.8v-3.9"/><path id="_x33_42" class="st19" d="M105 129.7c-7.4 0-14.1.9-18.8 2.4.4-.2.4-.7-.1-1.9-.6-1.5-1.5-1.5-1.5-1.5 5.2-1.5 12.4-2.5 20.5-2.5s15.4 1 20.6 2.5c0 0-.9-.1-1.5 1.5-.5 1.2-.5 1.7-.1 1.9-4.8-1.5-11.6-2.4-19.1-2.4"/><path id="_x33_41" class="st19" d="M105.1 126.2c-8.1 0-15.3 1-20.5 2.5-.3.1-.7 0-.8-.4-.1-.3.1-.7.4-.8 5.2-1.6 12.6-2.6 20.9-2.6 8.3 0 15.7 1 20.9 2.6.3.1.5.5.4.8-.1.3-.5.5-.8.4-5.2-1.5-12.5-2.5-20.5-2.5"/><path id="_x33_40" class="st11" d="M105.1 134.7c-6.6 0-12.6-.8-17.2-2 4.6-1.2 10.6-1.9 17.2-1.9s12.7.7 17.2 1.9c-4.5 1.3-10.6 2-17.2 2z"/><path id="_x33_39" class="st37" d="M99.3 128c0-.3.3-.6.7-.6.4 0 .7.3.7.6s-.3.6-.7.6c-.4 0-.7-.2-.7-.6"/><path id="_x33_38" class="st38" d="M105.1 128.5h-2c-.4 0-.7-.3-.7-.6s.3-.6.7-.6h4c.4 0 .7.3.7.6s-.3.6-.7.6h-2"/><path id="_x33_37" class="st39" d="M95.2 129l-1.4.2c-.4 0-.7-.2-.7-.5s.2-.7.6-.7l1.4-.2 1.5-.2c.4 0 .7.2.7.5s-.2.7-.6.7l-1.5.2"/><path id="_x33_36" class="st37" d="M89.4 129.2c0-.3.3-.6.7-.6.4 0 .7.3.7.6s-.3.6-.7.6c-.4 0-.7-.3-.7-.6"/><path id="_x33_35" class="st38" d="M85 130.3l.7-1 2 .3-1.6 1.2-1.1-.5"/><path id="_x33_34" class="st39" d="M115 129l1.4.2c.4 0 .7-.2.7-.5s-.2-.7-.6-.7l-1.4-.2-1.5-.2c-.4 0-.7.2-.7.5s.2.7.6.7l1.5.2"/><path id="_x33_33" class="st37" d="M109.5 128c0-.3.3-.6.7-.6.4 0 .7.3.7.6s-.3.6-.7.6c-.4 0-.7-.2-.7-.6"/><path id="_x33_32" class="st37" d="M119.4 129.2c0-.3.3-.6.7-.6.4 0 .7.3.7.6s-.3.6-.7.6c-.4 0-.7-.3-.7-.6"/><path id="_x33_31" class="st38" d="M125.1 130.3l-.7-1-2 .3 1.6 1.2 1.1-.5"/><path id="_x33_30" class="st10" d="M87.1 133c4.7-1.3 11-2.1 18-2.1s13.4.8 18 2.1"/><path id="_x33_29" class="st5" d="M90.2 114.9l.8.7 1.2-2c-1.3-.8-2.3-2.3-2.3-3.9v-.5c.1-2.6 3.3-4.8 7.3-4.8 2.1 0 4 .6 5.3 1.5 0-.4.1-.8.1-1.1-1.5-.9-3.4-1.4-5.4-1.4-4.6 0-8.2 2.6-8.4 5.7v.6c0 1.7.8 3.2 2 4.2l-.6 1"/><path id="_x33_28" class="st10" d="M90.2 114.9l.8.7 1.2-2c-1.3-.8-2.3-2.3-2.3-3.9v-.5c.1-2.6 3.3-4.8 7.3-4.8 2.1 0 4 .6 5.3 1.5 0-.4.1-.8.1-1.1-1.5-.9-3.4-1.4-5.4-1.4-4.6 0-8.2 2.6-8.4 5.7v.6c0 1.7.8 3.2 2 4.2l-.6 1"/><path id="_x33_27" class="st5" d="M90.3 114.9c-1.6-1.2-2.6-2.8-2.6-4.5 0-2 1.3-3.8 3.3-5-1.2 1-2 2.3-2.1 3.7v.6c0 1.7.8 3.2 2 4.2l-.6 1"/><path id="_x33_26" class="st10" d="M90.3 114.9c-1.6-1.2-2.6-2.8-2.6-4.5 0-2 1.3-3.8 3.3-5-1.2 1-2 2.3-2.1 3.7v.6c0 1.7.8 3.2 2 4.2l-.6 1"/><path id="_x33_25" class="st5" d="M76.3 116.9c-.9-1-1.4-2.3-1.4-3.7 0-.8.2-1.7.5-2.4 1.3-2.6 5.3-4.5 10.1-4.5 1.3 0 2.5.1 3.7.4-.3.3-.4.6-.6.9-1-.2-2-.3-3-.3-4.4 0-8 1.7-9.1 4-.3.6-.4 1.2-.4 1.9 0 1.4.7 2.6 1.7 3.5l-1.6 2.6-.8-.7.9-1.7"/><path id="_x33_24" class="st10" d="M76.3 116.9c-.9-1-1.4-2.3-1.4-3.7 0-.8.2-1.7.5-2.4 1.3-2.6 5.3-4.5 10.1-4.5 1.3 0 2.5.1 3.7.4-.3.3-.4.6-.6.9-1-.2-2-.3-3-.3-4.4 0-8 1.7-9.1 4-.3.6-.4 1.2-.4 1.9 0 1.4.7 2.6 1.7 3.5l-1.6 2.6-.8-.7.9-1.7z"/><path id="_x33_23" class="st5" d="M77.9 108.3c-1.1.7-2 1.6-2.5 2.6-.3.7-.5 1.5-.5 2.4 0 1.4.5 2.7 1.4 3.7l-1 1.6c-.9-1.2-1.5-2.6-1.5-4 .1-2.7 1.7-4.9 4.1-6.3"/><path id="_x33_22" class="st10" d="M77.9 108.3c-1.1.7-2 1.6-2.5 2.6-.3.7-.5 1.5-.5 2.4 0 1.4.5 2.7 1.4 3.7l-1 1.6c-.9-1.2-1.5-2.6-1.5-4 .1-2.7 1.7-4.9 4.1-6.3z"/><path id="_x33_21" class="st5" d="M105 102.8c1.1 0 2 .7 2.2 1.6.1.8.2 1.8.2 2.8v.7c0 2.1.3 4 .8 5.1l-3.2 3-3.3-3.1c.4-1.1.7-3 .8-5.1v-.4-.3c0-1 .1-1.9.2-2.8.3-.8 1.3-1.5 2.3-1.5"/><path id="_x33_20" class="st10" d="M105 102.8c1.1 0 2 .7 2.2 1.6.1.8.2 1.8.2 2.8v.7c0 2.1.3 4 .8 5.1l-3.2 3-3.3-3.1c.4-1.1.7-3 .8-5.1v-.4-.3c0-1 .1-1.9.2-2.8.3-.8 1.3-1.5 2.3-1.5z"/><path id="_x33_19" class="st5" d="M105 103.8c.5 0 1 .3 1.1.8.1.8.2 1.7.2 2.6v.7c0 2 .3 3.8.7 4.8l-2.1 2-2.1-2c.4-1.1.7-2.8.7-4.8v-.4-.3c0-.9.1-1.8.2-2.6.3-.5.8-.8 1.3-.8"/><path id="_x33_18" class="st10" d="M105 103.8c.5 0 1 .3 1.1.8.1.8.2 1.7.2 2.6v.7c0 2 .3 3.8.7 4.8l-2.1 2-2.1-2c.4-1.1.7-2.8.7-4.8v-.4-.3c0-.9.1-1.8.2-2.6.3-.5.8-.8 1.3-.8z"/><path id="_x33_17" class="st5" d="M119.8 114.9l-.8.7-1.2-2c1.4-.8 2.3-2.3 2.3-3.9v-.5c-.1-2.6-3.3-4.8-7.3-4.8-2.1 0-4 .6-5.3 1.5 0-.4-.1-.8-.1-1.1 1.5-.9 3.4-1.4 5.4-1.4 4.6 0 8.2 2.6 8.4 5.7v.6c0 1.7-.8 3.2-2 4.2l.6 1"/><path id="_x33_16" class="st10" d="M119.8 114.9l-.8.7-1.2-2c1.4-.8 2.3-2.3 2.3-3.9v-.5c-.1-2.6-3.3-4.8-7.3-4.8-2.1 0-4 .6-5.3 1.5 0-.4-.1-.8-.1-1.1 1.5-.9 3.4-1.4 5.4-1.4 4.6 0 8.2 2.6 8.4 5.7v.6c0 1.7-.8 3.2-2 4.2l.6 1"/><path id="_x33_15" class="st5" d="M119.8 114.9c1.6-1.2 2.6-2.8 2.6-4.5 0-2-1.3-3.8-3.3-5 1.2 1 2 2.3 2.1 3.7v.6c0 1.7-.8 3.2-2 4.2l.6 1"/><path id="_x33_14" class="st10" d="M119.8 114.9c1.6-1.2 2.6-2.8 2.6-4.5 0-2-1.3-3.8-3.3-5 1.2 1 2 2.3 2.1 3.7v.6c0 1.7-.8 3.2-2 4.2l.6 1"/><path id="_x33_13" class="st5" d="M133.7 116.9c.9-1 1.4-2.3 1.4-3.7 0-.8-.2-1.7-.5-2.4-1.3-2.6-5.3-4.5-10.1-4.5-1.3 0-2.5.1-3.7.4.3.3.5.6.7.9.9-.2 2-.3 3-.3 4.4 0 8 1.7 9.1 4 .3.6.4 1.2.4 1.9 0 1.4-.7 2.6-1.7 3.5l1.6 2.6.9-.7-1.1-1.7"/><path id="_x33_12" class="st10" d="M133.7 116.9c.9-1 1.4-2.3 1.4-3.7 0-.8-.2-1.7-.5-2.4-1.3-2.6-5.3-4.5-10.1-4.5-1.3 0-2.5.1-3.7.4.3.3.5.6.7.9.9-.2 2-.3 3-.3 4.4 0 8 1.7 9.1 4 .3.6.4 1.2.4 1.9 0 1.4-.7 2.6-1.7 3.5l1.6 2.6.9-.7-1.1-1.7z"/><path id="_x33_11" class="st5" d="M132.1 108.3c1.1.7 2 1.6 2.5 2.6.3.7.5 1.5.5 2.4 0 1.4-.5 2.7-1.4 3.7l1 1.6c.9-1.2 1.4-2.6 1.4-4 0-2.7-1.6-4.9-4-6.3"/><path id="_x33_10" class="st10" d="M132.1 108.3c1.1.7 2 1.6 2.5 2.6.3.7.5 1.5.5 2.4 0 1.4-.5 2.7-1.4 3.7l1 1.6c.9-1.2 1.4-2.6 1.4-4 0-2.7-1.6-4.9-4-6.3z"/><path id="_x33_09" class="st8" d="M103.9 113.4c0-.6.5-1.1 1.1-1.1.6 0 1.1.5 1.1 1.1 0 .6-.5 1.1-1.1 1.1-.6-.1-1.1-.5-1.1-1.1"/><path id="_x33_08" class="st10" d="M103.9 113.4c0-.6.5-1.1 1.1-1.1.6 0 1.1.5 1.1 1.1 0 .6-.5 1.1-1.1 1.1-.6-.1-1.1-.5-1.1-1.1z"/><path id="_x33_07" class="st37" d="M103.9 111.2c0-.6.5-1.1 1.1-1.1.6 0 1.1.5 1.1 1.1 0 .6-.5 1.1-1.1 1.1-.6 0-1.1-.5-1.1-1.1"/><path id="_x33_06" class="st37" d="M104.1 109c0-.5.4-.9.9-.9s.9.4.9.9-.4.9-.9.9c-.5-.1-.9-.5-.9-.9"/><path id="_x33_05" class="st37" d="M104.4 106.9c0-.3.3-.6.7-.6.4 0 .7.3.7.6s-.3.6-.7.6c-.4 0-.7-.2-.7-.6"/><path id="_x33_04" class="st37" d="M104.5 105.1c0-.3.2-.5.5-.5s.5.2.5.5-.2.5-.5.5-.5-.2-.5-.5"/><path id="_x33_03" class="st19" d="M105.1 119.9l.7.1c-.1.3-.1.6-.1 1 0 1.5 1.3 2.8 3 2.8 1.3 0 2.4-.8 2.8-1.9 0 0 .3-1 .4-1 .1 0 .1 1.1.1 1.1.2 1.4 1.5 2.4 2.9 2.4 1.6 0 2.9-1.2 2.9-2.8v-.3l.9-.9.5 1.2c-.2.4-.3.8-.3 1.2 0 1.5 1.3 2.7 2.8 2.7 1 0 1.8-.5 2.3-1.2l.6-.8v.9c0 .9.4 1.8 1.3 1.9 0 0 1 .1 2.4-1s2.1-2 2.1-2l.1 1.1s-1.1 1.8-2.4 2.5c-.7.4-1.7.8-2.5.7-.9-.1-1.5-.8-1.8-1.6-.6.4-1.3.6-2.1.6-1.7 0-3.2-.9-3.8-2.3-.8.8-1.9 1.3-3.1 1.3-1.3 0-2.6-.6-3.3-1.5-.8.7-1.8 1.1-2.9 1.1-1.5 0-2.8-.7-3.6-1.8-.8 1.1-2.1 1.8-3.6 1.8-1.1 0-2.2-.4-2.9-1.1-.8.9-2 1.5-3.3 1.5-1.3 0-2.3-.5-3.1-1.3-.6 1.4-2.1 2.3-3.8 2.3-.8 0-1.5-.2-2.1-.6-.3.8-.9 1.5-1.8 1.6-.8.1-1.8-.3-2.5-.7-1.2-.7-2.4-2.5-2.4-2.5l.1-1.1s.8.9 2.1 2c1.4 1.1 2.4 1 2.4 1 .9-.2 1.3-1 1.3-1.9v-.9l.6.8c.5.7 1.4 1.2 2.3 1.2 1.6 0 2.8-1.2 2.8-2.7 0-.4-.1-.9-.3-1.2l.5-1.2.9.9v.3c0 1.5 1.3 2.8 2.9 2.8 1.5 0 2.7-1 2.9-2.4 0 0 0-1 .1-1.1.1 0 .4 1 .4 1 .4 1.1 1.5 1.9 2.8 1.9 1.6 0 2.9-1.2 2.9-2.8 0-.3 0-.7-.1-1l1-.1"/><path id="_x33_02" class="st37" d="M125.4 123.5c.2-.5 0-1-.3-1.1-.4-.1-.8.2-1 .7-.2.5 0 1 .3 1.1.4.2.8-.2 1-.7"/><path id="_x33_01" class="st37" d="M112.5 121.1c.1-.5-.2-1-.6-1-.4 0-.7.3-.8.9-.1.5.2 1 .6 1 .4 0 .8-.4.8-.9"/><path id="_x33_00" class="st37" d="M97.7 121.1c-.1-.5.2-1 .6-1 .4 0 .7.3.8.9.1.5-.2 1-.6 1-.4 0-.8-.4-.8-.9"/><path id="_x32_99" class="st37" d="M84.8 123.5c-.2-.5 0-1 .3-1.1.4-.1.8.2 1 .7.2.5 0 1-.3 1.1-.4.2-.8-.2-1-.7"/><path id="_x32_98" class="st19" d="M90.4 115c.6.4 1.2 1.1 1.4 1.8 0 0 .1-.2.4-.4.4-.2.7-.2.7-.2s-.1.6-.2.8c-.1.2-.1.8-.2 1.4-.1.6-.4 1-.4 1-.3-.2-.6-.3-.9-.2-.3.1-.6.3-.8.5 0 0-.4-.3-.7-.8-.3-.5-.6-1.1-.7-1.2-.1-.2-.4-.7-.4-.7s.3-.1.7 0c.4.1.5.2.5.2-.1-.8.2-1.6.6-2.2"/><path id="_x32_97" class="st19" d="M90.7 121.1c-.2-.2-.4-.4-.4-.6 0-.3 0-.5.1-.7 0 0-.5-.3-1.1-.4-.4-.1-1.2-.1-1.4-.1h-.7s0 .1.2.3c.2.3.3.4.3.4-.8.2-1.4.7-1.8 1.3.6.4 1.4.7 2.2.6 0 0-.1.2-.1.5v.4s.4-.2.6-.2c.2-.1.9-.3 1.3-.6.4-.5.8-.9.8-.9"/><path id="_x32_96" class="st19" d="M92.4 120.8c.1-.2.2-.5.1-.7 0-.3-.2-.5-.4-.6 0 0 .4-.4.9-.8.4-.2 1.1-.5 1.3-.6.2-.1.6-.2.6-.2v.4c0 .3-.1.5-.1.5.8-.1 1.6.2 2.2.6-.4.6-1.1 1.1-1.8 1.2 0 0 .1.2.3.4.1.2.2.3.2.3H95c-.2 0-1 0-1.4-.1-.7-.1-1.2-.4-1.2-.4"/><path id="_x32_95" class="st38" d="M90.1 120.3c0-.7.6-1.2 1.3-1.2.7 0 1.3.6 1.3 1.2 0 .7-.6 1.2-1.3 1.2-.7 0-1.3-.6-1.3-1.2"/><path id="_x32_94" class="st19" d="M105.1 113c.6.6 1.1 1.4 1.2 2.3 0 0 .1-.2.5-.3.4-.2.8-.1.8-.1l-.3.9c-.1.2-.2.9-.5 1.5s-.6 1.1-.6 1.1c-.2-.3-.6-.5-1-.5s-.8.2-1 .5c0 0-.4-.5-.6-1.1-.3-.6-.4-1.3-.5-1.5-.1-.2-.3-.9-.3-.9s.3-.1.8.1l.6.3c-.2-.9.2-1.7.9-2.3"/><path id="_x32_93" class="st19" d="M104.1 119.9c-.2-.2-.3-.5-.3-.8 0-.3.1-.6.3-.8 0 0-.5-.4-1.1-.7-.5-.2-1.3-.4-1.6-.4-.3 0-.8-.1-.8-.1s0 .1.1.4l.2.6c-.9 0-1.7.5-2.3 1.1.6.6 1.4 1 2.3 1 0 0-.1.2-.2.6-.1.3-.1.4-.1.4s.5-.1.8-.1c.3 0 1.1-.2 1.6-.4.6-.4 1.1-.8 1.1-.8"/><path id="_x32_92" class="st19" d="M106.1 119.9c.2-.2.3-.5.3-.8 0-.3-.1-.6-.3-.8 0 0 .5-.4 1.1-.7.5-.2 1.3-.4 1.6-.4.3 0 .8-.1.8-.1s0 .1-.1.4l-.2.6c.9 0 1.7.5 2.3 1.1-.6.6-1.4 1-2.3 1 0 0 .1.2.2.6.1.3.1.4.1.4l-.8-.1c-.3 0-1.1-.2-1.6-.4-.6-.4-1.1-.8-1.1-.8"/><path id="_x32_91" class="st19" d="M119.8 115c-.6.4-1.2 1.1-1.4 1.8 0 0-.1-.2-.4-.4-.3-.2-.7-.2-.7-.2s.1.6.2.8c.1.2.1.8.2 1.4.1.6.4 1 .4 1 .3-.2.6-.3.9-.2.4.1.6.3.8.5 0 0 .4-.3.7-.8.3-.5.6-1.1.7-1.2.1-.2.4-.7.4-.7s-.3-.1-.7 0c-.4.1-.5.2-.5.2.1-.8-.1-1.6-.6-2.2"/><path id="_x32_90" class="st19" d="M119.5 121.1c.2-.2.4-.4.4-.6.1-.3 0-.5-.1-.7 0 0 .5-.3 1.1-.4.4-.1 1.2-.1 1.4-.1h.7s0 .1-.2.3c-.2.3-.3.4-.3.4.8.2 1.4.7 1.8 1.3-.6.4-1.4.7-2.2.6 0 0 .1.2.1.5v.4s-.4-.2-.6-.2c-.2-.1-.9-.3-1.3-.6-.4-.5-.8-.9-.8-.9"/><path id="_x32_89" class="st19" d="M117.8 120.8c-.1-.2-.2-.5-.1-.7.1-.3.2-.5.4-.6 0 0-.4-.4-.9-.8-.4-.2-1.1-.5-1.3-.6-.2-.1-.6-.2-.6-.2v.4c0 .3.1.5.1.5-.8-.1-1.6.2-2.2.6.4.6 1.1 1.1 1.8 1.2 0 0-.1.2-.3.4-.1.2-.2.3-.2.3h.7c.2 0 1 0 1.4-.1.7-.1 1.2-.4 1.2-.4"/><path id="_x32_88" class="st38" d="M117.5 120.3c0-.7.6-1.2 1.3-1.2s1.3.6 1.3 1.2c0 .7-.6 1.2-1.3 1.2s-1.3-.6-1.3-1.2"/><path id="_x32_87" class="st38" d="M132 123c-.3-.3-.9-.3-1.4.2-.5.4-.6 1-.3 1.3.3.3.9.3 1.4-.1.5-.5.6-1.1.3-1.4"/><path id="_x32_86" class="st19" d="M130.2 123.8c.1-.2.2-.4.4-.6.5-.4 1.1-.5 1.4-.2 0 0 .1.1.1.2 0 0 .7-1.2 1.4-1.7.8-.4 2.1-.3 2.1-.3 0-1-.8-1.7-1.8-1.7-.6 0-1.2.2-1.5.7l-.1-.6s-.8.2-1.2 1.1c-.4.9 0 2.3 0 2.3s-.2-.6-.5-1-1.1-.8-1.5-1c-.4-.2-.8-.5-.8-.5v.9c-.8-.1-1.6 0-2.3.3.3.6.8 1.1 1.6 1.4 0 0-.3.2-.5.5l-.3.3s.5.1.8.1c.3 0 1.1.2 1.6.1.4-.2.8-.3 1.1-.3"/><path id="_x32_85" class="st19" d="M80 123.8c-.1-.2-.2-.4-.4-.6-.5-.4-1.1-.5-1.4-.2 0 0-.1.1-.1.2 0 0-.7-1.2-1.4-1.7-.8-.4-2.1-.3-2.1-.3 0-1 .8-1.7 1.8-1.7.6 0 1.2.2 1.5.7l.1-.6s.8.2 1.2 1.1c.4.9 0 2.3 0 2.3s.2-.6.5-1 1.1-.8 1.5-1c.4-.2.8-.5.8-.5v.9c.7-.1 1.6 0 2.3.3-.3.6-.8 1.1-1.6 1.4 0 0 .3.2.5.5l.3.3s-.5.1-.8.1c-.3 0-1.1.2-1.6.1-.4-.2-.8-.3-1.1-.3"/><path id="_x32_84" class="st38" d="M78.2 123c.3-.3.9-.3 1.4.2.5.4.6 1 .3 1.3-.3.3-.9.3-1.4-.1-.5-.5-.6-1.1-.3-1.4"/><path id="_x32_83" class="st38" d="M103.8 119.1c0-.7.6-1.2 1.3-1.2.7 0 1.3.6 1.3 1.2 0 .7-.6 1.2-1.3 1.2-.7 0-1.3-.5-1.3-1.2"/><path id="_x32_82" d="M102.4 100.4c0-1.4 1.2-2.5 2.7-2.5 1.5 0 2.7 1.1 2.7 2.5s-1.2 2.5-2.7 2.5c-1.5 0-2.7-1.1-2.7-2.5" fill="#005bbf" stroke="#000" stroke-width=".156"/><path id="_x32_81" d="M104.3 93.3v1.4h-1.5v1.4h1.5v4h-1.8c0 .1-.1.2-.1.4 0 .3.1.7.2 1 0 0 0 0 0 0h4.9s0 0 0 0c.1-.3.2-.6.2-1 0-.1-.1-.2-.1-.4h-1.8v-4h1.5v-1.4h-1.5v-1.4h-1.5 0z" fill="#c8b100" stroke="#000" stroke-width=".156"/><path id="_x32_80" class="st13" d="M105.3 206.6c-7.8 0-15.6-1.9-22.2-5.1-4.8-2.4-8-7.2-8-12.7v-20h60.3v20c0 5.5-3.2 10.3-8 12.7-6.6 3.2-14.3 5.1-22.1 5.1"/><path id="_x32_79" class="st42" d="M105.3 206.6c-7.8 0-15.6-1.9-22.2-5.1-4.8-2.4-8-7.2-8-12.7v-20h60.3v20c0 5.5-3.2 10.3-8 12.7-6.6 3.2-14.3 5.1-22.1 5.1z"/><path id="_x32_78" class="st13" d="M105.2 168.8h30.2v-33.4h-30.2v33.4z"/><path id="_x32_77" class="st42" d="M105.2 168.8h30.2v-33.4h-30.2v33.4z"/><path id="_x32_76" class="st3" d="M105.2 188.7c0 7.9-6.7 14.3-15 14.3s-15.1-6.4-15.1-14.3v-20h30.1v20"/><path id="_x32_75" class="st43" d="M81.6 200.5c.9.5 2.2 1.3 3.6 1.7V168h-3.5v32.5z"/><path id="_x32_74" d="M75 188.5c.1 4.2 1.8 7.4 3.4 9.4v-29.7H75v20.3h0z" fill="#c8b100" stroke="#000" stroke-width=".3" stroke-linejoin="round"/><path id="_x32_73" d="M88.4 202.9c1.4.1 2.4.1 3.5 0V168h-3.5v34.9z" fill="#c7b500" stroke="#000" stroke-width=".312"/><path id="_x32_72" class="st43" d="M95 202.2c1.4-.3 2.9-1.1 3.6-1.6V168h-3.5l-.1 34.2z"/><path id="_x32_71" class="st3" d="M75.1 168.8h30.1v-33.4H75.1v33.4z"/><path id="_x32_70" class="st42" d="M75.1 168.8h30.1v-33.4H75.1v33.4z"/><path id="_x32_69" class="st43" d="M101.9 197.5c1.5-1.3 2.8-4.3 3.4-7.7l.1-21.9h-3.5v29.6z"/><path id="_x32_68" class="st42" d="M105.2 188.7c0 7.9-6.7 14.3-15 14.3s-15.1-6.4-15.1-14.3v-20h30.1v20"/><path id="_x32_67" class="st3" d="M135.4 168.7v20c0 7.9-6.8 14.3-15.1 14.3s-15.1-6.4-15.1-14.3v-20h30.2"/><path id="_x32_66" class="st42" d="M135.4 168.7v20c0 7.9-6.8 14.3-15.1 14.3s-15.1-6.4-15.1-14.3v-20h30.2"/><path id="_x32_65" class="st5" d="M110.7 183.8c0 .1.1.2.1.3 0 .4-.3.7-.7.7-.4 0-.7-.3-.7-.7 0-.1 0-.2.1-.3h-1v.3c0 .7.5 1.3 1.1 1.5v2.4h1v-2.4c.5-.2.9-.5 1-1h2.8v-.8h-3.7m13.5 0v.8h-2.5c0 .1-.1.2-.2.3l2.9 3.3-.8.6-2.9-3.3c-.1 0-.1 0-.1.1v5.4h-1v-5.4s-.1 0-.1-.1l-3 3.3-.8-.6 3-3.3c0-.1-.1-.2-.1-.3H116v-.8h8.2zm1.7 0v.8h2.8c.2.5.5.8 1 1v2.4h1v-2.4c.7-.2 1.1-.8 1.1-1.5v-.3h-1c0 .1.1.2.1.3 0 .4-.3.7-.7.7-.4 0-.7-.3-.7-.7 0-.1 0-.2.1-.3h-3.7m-4.2 13.9c.8-.1 1.5-.3 2.3-.7l.5.9c-.8.4-1.8.6-2.7.8-.2.7-.8 1.2-1.6 1.2s-1.4-.5-1.6-1.2c-1-.1-2-.4-2.8-.8l.5-.9c.8.3 1.6.5 2.4.7.2-.4.5-.7.9-.8v-4.2h1v4.2c.5 0 .9.4 1.1.8zm-6.9-1.5l-.5.9c-.9-.5-1.6-1.2-2.3-1.9-.5.2-1.1.1-1.6-.3-.7-.6-.8-1.5-.2-2.2l.1-.1c-.4-.9-.7-1.9-.8-3h1c.1.9.3 1.8.7 2.6.3 0 .6 0 .9.1l2.6-2.8.8.6-2.5 2.8c.3.5.3 1.2-.1 1.7.5.6 1.2 1.2 1.9 1.6zm-3.8-2.9c.3-.3.7-.3 1-.1.3.2.3.7.1.9-.3.3-.7.3-1 .1-.3-.2-.3-.7-.1-.9zm-1.3-2.8l-1.1-.2-.2-2.7 1-.3v1.5c.2.5.2 1.1.3 1.7zm.9-3.4l1.1.2s.1 1.7 0 1.3c0-.4.1 1.3.1 1.3l-1.1.3c-.1-.5-.1-1.1-.1-1.7v-1.4zm3.5 8.6c.9.7 1.9 1.2 3 1.6l.2-1c-.9-.3-1.8-.7-2.5-1.3l-.7.7m-.6.9c.9.7 1.9 1.2 3 1.6l-.8.7c-.9-.3-1.7-.8-2.5-1.3l.3-1m1.4-5.9l1 .4 1.8-2-.6-.9-2.2 2.5m-.8-.6l-.6-.9 1.8-2 1 .4-2.2 2.5m11.3 6.1l.5.9c.9-.5 1.6-1.2 2.3-1.9.5.2 1.1.1 1.6-.3.7-.6.8-1.5.2-2.2l-.1-.1c.4-.9.7-1.9.8-3h-1c-.1.9-.3 1.8-.7 2.6-.3 0-.6 0-.9.1l-2.6-2.8-.8.6 2.6 2.8c-.3.5-.3 1.2.1 1.7-.6.6-1.2 1.2-2 1.6zm3.8-2.9c-.3-.3-.7-.3-1-.1-.3.2-.3.7-.1.9.3.3.7.3 1 .1.4-.2.4-.7.1-.9zm1.3-2.8l1.1-.2.1-2.7-1-.3v1.5c0 .5-.1 1.1-.2 1.7zm-.8-3.4l-1.1.2s-.1 1.7 0 1.3c0-.4-.1 1.3-.1 1.3l1.1.3c.1-.5.1-1.1.1-1.7v-1.4m-3.5 8.6c-.9.7-1.9 1.2-3 1.6l-.2-1c.9-.3 1.8-.7 2.5-1.3l.7.7m.5.9c-.9.7-1.9 1.2-3 1.6l.8.7c.9-.3 1.7-.8 2.5-1.3l-.3-1m-1.4-5.9l-1 .4-1.8-2 .6-.9 2.2 2.5m.8-.6l.6-.9-1.8-2-1 .4 2.2 2.5m-12.5-5.5l.3 1h2.8l.3-1h-3.4m13.2 0l-.3 1h-2.8l-.3-1h3.4m-7.3 13.7c0-.4.3-.7.7-.7.4 0 .7.3.7.7 0 .4-.3.7-.7.7-.4 0-.7-.3-.7-.7zm1.2-4.8l1.1-.3v-2.7l-1.1-.3v3.3m-1 0l-1.1-.3v-2.7l1.1-.3v3.3"/><path id="_x32_64" class="st5" d="M108.4 183.9c.1-.6.6-1 1.1-1.2v-3.3h1v3.3c.5.2.9.5 1 1h2.7v.2h-3.7c-.1-.2-.4-.4-.6-.4-.3 0-.5.1-.6.4h-.9m7.7 0v-.2h2.6c0-.1.1-.2.1-.2l-3.2-3.5.8-.6 3.1 3.4c.1 0 .1-.1.2-.1v-4.6h1v4.6h.2l3-3.5.8.6-3 3.4c.1.1.1.2.2.4h2.5v.2h-8.3zm13.5 0c.1-.2.4-.4.6-.4.3 0 .5.1.6.4h1c-.1-.6-.6-1-1.1-1.2v-3.3h-1v3.3c-.5.2-.9.5-1 1H126v.2h3.6m-18.9-9.4l3.8 4.2.8-.6-3.8-4.2c.1-.1.1-.2.2-.4h2.8v-1h-2.8c-.2-.6-.8-1.1-1.6-1.1-.9 0-1.6.7-1.6 1.6 0 .7.5 1.3 1.1 1.5v3.3h1v-3.3h.1zm20 .1v3.3h-1v-3.3c-.1 0-.2-.1-.2-.1l-3.8 4.2-.8-.6 3.8-4.3c0-.1-.1-.1-.1-.2h-2.8v-1h2.8c.2-.6.8-1.1 1.6-1.1.9 0 1.6.7 1.6 1.6 0 .7-.4 1.3-1.1 1.5zm-10-.1v2h-1v-2c-.5-.1-.9-.5-1.1-1h-2.5v-1h2.5c.2-.6.8-1.1 1.6-1.1.7 0 1.3.4 1.6 1.1h2.5v1h-2.5c-.3.5-.6.9-1.1 1zm-11.1 2.5l-1.1.3v2.7l1.1.3V177m1 0l1 .3v2.7l-1 .3V177m19.1 0l-1.1.3v2.7l1.1.3V177m1 0l1.1.3v2.7l-1.1.3V177m-16 .5l1-.4 1.8 2-.5.9-2.3-2.5m-.8.6l-.6.9 1.8 2 1-.4-2.2-2.5m11.6-.7l-1-.4-1.8 2.1.6.9 2.2-2.6m.8.7l.6.9-1.8 2.1-1-.4 2.2-2.6m-12.7 5.6l.3-1h2.8l.3 1h-3.4m-4.2-10.6c0-.4.3-.7.7-.7.4 0 .7.3.7.7 0 .4-.3.7-.7.7-.4-.1-.7-.4-.7-.7zm7.6.5l-.3 1h-2.8l-.3-1h3.4m0-1l-.3-1h-2.8l-.3 1h3.4m9.8 11.1l-.3-1h-2.8l-.3 1h3.4m2.7-10.6c0-.4.3-.7.7-.7.4 0 .7.3.7.7 0 .4-.3.7-.7.7-.4-.1-.7-.4-.7-.7zm-10.1 0c0-.4.3-.7.7-.7.4 0 .7.3.7.7 0 .4-.3.7-.7.7-.4-.1-.7-.4-.7-.7zm3.9.5l.3 1h2.8l.3-1h-3.4m0-1l.3-1h2.8l.3 1h-3.4m-3.6 3.1l-1.1.3v2.7l1.1.3v-3.3m1 0l1.1.3v2.7l-1.1.3v-3.3"/><path id="_x32_63" class="st46" d="M121.7 197.7c.8-.1 1.5-.3 2.3-.7l.5.9c-.8.4-1.8.6-2.7.8-.2.7-.8 1.2-1.6 1.2s-1.4-.5-1.6-1.2c-1-.1-1.9-.4-2.8-.8l.5-.9c.8.3 1.6.5 2.4.7.2-.4.5-.7.9-.8v-4.2h1v4.2c.5 0 .9.4 1.1.8zm-2.9-12.8c-.1-.1-.1-.2-.1-.3h-2.6v-1h2.6c0-.1.1-.2.1-.2l-3.2-3.5.8-.6 3.1 3.4c.1 0 .1 0 .2-.1V178h1v4.6h.2l3-3.4.8.6-3 3.4c.1.1.1.2.2.4h2.5v1h-2.5c0 .1-.1.2-.2.3l2.9 3.3-.8.6-2.9-3.3c-.1 0-.1 0-.1.1v5.4h-1v-5.4s-.1 0-.1-.1l-3 3.3-.8-.6 2.9-3.3m-8.1-10.4l3.8 4.2.8-.6-3.8-4.2c.1-.1.1-.2.2-.4h2.8v-1h-2.8c-.2-.6-.8-1.1-1.6-1.1-.9 0-1.6.7-1.6 1.5 0 .7.5 1.3 1.1 1.5v3.3h1v-3.2h.1zm4.1 21.7l-.5.9c-.9-.5-1.6-1.2-2.3-1.9-.5.2-1.1.1-1.6-.3-.7-.6-.8-1.5-.2-2.2l.1-.1c-.4-.9-.7-1.9-.8-3h1c.1.9.3 1.8.7 2.6.3 0 .6 0 .9.1l2.6-2.8.8.6-2.5 2.8c.3.5.3 1.2-.1 1.7.5.6 1.2 1.2 1.9 1.6zm-5.2-8.2v-2.4c-.7-.2-1.1-.8-1.1-1.5s.5-1.3 1.2-1.5v-3.3h1v3.3c.5.2.9.5 1 1h2.7v1h-2.8c-.2.5-.5.8-1 1v2.4h-1m1.4 5.3c.3-.3.7-.3 1-.1.3.2.3.7.1.9-.3.3-.7.3-1 .1-.3-.2-.3-.7-.1-.9zm-1.3-2.8l-1.1-.2-.2-2.7 1-.3v1.5c.2.5.2 1.1.3 1.7zm.9-3.4l1.1.2s.1 1.7 0 1.3c0-.4.1 1.3.1 1.3l-1.1.3c-.1-.5-.1-1.1-.1-1.7v-1.4zm3.5 8.6c.9.7 1.9 1.2 3 1.6l.2-1c-.9-.3-1.8-.7-2.5-1.3l-.7.7m-.6.9c.9.7 1.9 1.2 3 1.6l-.8.7c-.9-.3-1.7-.8-2.5-1.3l.3-1"/><path id="_x32_62" class="st46" d="M114.9 190.7l1 .4 1.8-2-.6-.9-2.2 2.5m-.8-.6l-.6-.9 1.8-2 1 .4-2.2 2.5m-4.7-6c0-.4.3-.7.7-.7.4 0 .7.3.7.7 0 .4-.3.7-.7.7-.4 0-.7-.3-.7-.7zm16 12.1l.5.9c.9-.5 1.6-1.2 2.3-1.9.5.2 1.1.1 1.6-.3.7-.6.8-1.5.2-2.2l-.1-.1c.4-.9.7-1.9.8-3h-1c-.1.9-.3 1.8-.7 2.6-.3 0-.6 0-.9.1l-2.6-2.8-.8.6 2.5 2.8c-.3.5-.3 1.2.1 1.7-.5.6-1.1 1.2-1.9 1.6zm5.3-8.2v-2.4c.7-.2 1.1-.8 1.1-1.5s-.5-1.3-1.2-1.5v-3.3h-1v3.3c-.5.2-.9.5-1 1h-2.7v1h2.8c.2.5.5.8 1 1v2.4h1zm-1.5 5.3c-.3-.3-.7-.3-1-.1-.3.2-.3.7-.1.9.3.3.7.3 1 .1.4-.2.4-.7.1-.9zm1.3-2.8l1.1-.2.1-2.7-1-.3v1.5c0 .5-.1 1.1-.2 1.7zm-.8-3.4l-1.1.2s-.1 1.7 0 1.3c0-.4-.1 1.3-.1 1.3l1.1.3c.1-.5.1-1.1.1-1.7v-1.4m1-12.6v3.3h-1v-3.3c-.1 0-.2-.1-.2-.1l-3.8 4.2-.8-.6 3.8-4.3c0-.1-.1-.1-.1-.2h-2.8v-1h2.8c.2-.6.8-1.1 1.6-1.1.9 0 1.6.7 1.6 1.5 0 .9-.4 1.4-1.1 1.6zm-10 0v2h-1v-2c-.5-.1-.9-.5-1.1-1h-2.5v-1h2.5c.2-.6.8-1.1 1.6-1.1.7 0 1.3.4 1.6 1.1h2.5v1h-2.5c-.3.5-.6.9-1.1 1zm5.5 21.2c-.9.7-1.9 1.2-3 1.6l-.2-1c.9-.3 1.8-.7 2.5-1.3l.7.7m.5.9c-.9.7-1.9 1.2-3 1.6l.8.7c.9-.3 1.7-.8 2.5-1.3l-.3-1M109.6 177l-1.1.3v2.7l1.1.3V177m1 0l1 .3v2.7l-1 .3V177m19.1 0l-1.1.3v2.7l1.1.3V177"/><path id="_x32_61" class="st46" d="M130.7 177l1.1.3v2.7l-1.1.3V177m-5.4 13.7l-1 .4-1.8-2 .6-.9 2.2 2.5m.8-.6l.6-.9-1.8-2-1 .4 2.2 2.5m-11.4-12.6l1-.4 1.8 2-.5.9-2.3-2.5m-.8.6l-.6.9 1.8 2 1-.4-2.2-2.5m11.6-.7l-1-.4-1.8 2.1.6.9 2.2-2.6m.8.6l.6.9-1.8 2.1-1-.4 2.2-2.6m-12.7 5.7l.3-1h2.8l.3 1h-3.4m0 .9l.3 1h2.8l.3-1h-3.4m-4.2-11.5c0-.4.3-.7.7-.7.4 0 .7.3.7.7 0 .4-.3.7-.7.7-.4-.1-.7-.4-.7-.7zm7.6.5l-.3 1h-2.8l-.3-1h3.4m0-1l-.3-1h-2.8l-.3 1h3.4m12.5 11.5c0-.4.3-.7.7-.7.4 0 .7.3.7.7 0 .4-.3.7-.7.7-.4 0-.7-.3-.7-.7zm-2.7-.4l-.3-1h-2.8l-.3 1h3.4m0 .9l-.3 1h-2.8l-.3-1h3.4m-7.3 13.7c0-.4.3-.7.7-.7.4 0 .7.3.7.7 0 .4-.3.7-.7.7-.4 0-.7-.3-.7-.7zm1.2-4.8l1.1-.3v-2.7l-1.1-.3v3.3m-1 0l-1.1-.3v-2.7l1.1-.3v3.3m9.8-20.4c0-.4.3-.7.7-.7.4 0 .7.3.7.7 0 .4-.3.7-.7.7-.4-.1-.7-.4-.7-.7zm-10.1 0c0-.4.3-.7.7-.7.4 0 .7.3.7.7 0 .4-.3.7-.7.7-.4-.1-.7-.4-.7-.7zm3.9.5l.3 1h2.8l.3-1h-3.4m0-1l.3-1h2.8l.3 1h-3.4"/><path id="_x32_60" class="st46" d="M119.7 175.7l-1.1.3v2.7l1.1.3v-3.3m1 0l1.1.3v2.7l-1.1.3v-3.3"/><path id="_x32_59" class="st9" d="M118.6 184.2c0-.9.7-1.6 1.6-1.6.9 0 1.6.7 1.6 1.6 0 .9-.7 1.5-1.6 1.5-.9 0-1.6-.7-1.6-1.5"/><path id="_x32_58" class="st47" d="M120.6 143.6v-.4l.1-.2s-1 .1-1.5-.1c-.5-.1-1-.4-1.4-.8-.5-.4-.7-.7-1-.7-.8-.1-1.4.2-1.4.2s.6.2 1.1.8c.5.6 1 .8 1.2.9.4.1 1.6 0 1.9 0 .2.2 1 .3 1 .3"/><path id="_x32_57" class="st10" d="M120.6 143.6v-.4l.1-.2s-1 .1-1.5-.1c-.5-.1-1-.4-1.4-.8-.5-.4-.7-.7-1-.7-.8-.1-1.4.2-1.4.2s.6.2 1.1.8c.5.6 1 .8 1.2.9.4.1 1.6 0 1.9 0 .2.2 1 .3 1 .3z"/><path id="_x32_56" d="M125.1 142.2v.8c0 .4-.1.7-.1 1 .1.2.1.4.2.6.1.2.1.6.1.6s-.2-.2-.4-.3c-.2-.2-.4-.3-.4-.3s0 .4.1.6c0 .2.1.5.3.7.2.2.5.5.6.8.1.3.1.9.1.9s-.3-.4-.5-.5l-.8-.4s.5.5.5.9-.2 1-.2 1-.2-.4-.5-.7c-.3-.3-.7-.5-.7-.5s.3.7.3 1.2-.1 1.5-.1 1.5-.2-.4-.5-.6c-.2-.2-.5-.3-.6-.5-.1-.1.3.4.3.7 0 .3.2 1.4 1.2 2.8.6.8 1.4 2.3 3.3 1.8 1.9-.5 1.2-3 .8-4.2-.4-1.2-.6-2.5-.6-2.9 0-.4.3-1.8.3-2 0-.2-.1-1.2.1-2s.4-1.1.6-1.4c.1-.3.2-.5.3-.8v-.8s.3.6.4.9c.1.2.1.9.1.9s.1-.7.6-1c.5-.3 1.1-.7 1.3-.9.1-.2.2-.3.2-.3s0 1.2-.4 1.6c-.2.3-1.1 1.3-1.1 1.3s.4-.2.7-.2h.5s-.4.3-.8 1c-.5.7-.3.8-.6 1.3-.3.6-.6.6-1.1.9-.6.5-.3 2.6-.2 2.9.1.3 1.2 2.9 1.2 3.5 0 .6.1 2-1 2.9-.7.6-1.8.6-2.1.7-.3.2-.8.7-.8 1.7 0 1.1.4 1.2.7 1.5.3.3.7.1.8.3.1.2.1.3.3.5.1.1.2.3.2.5s-.5.7-.7 1.1c-.2.4-.5 1.3-.5 1.5 0 .1 0 .6.1.8 0 0 .5.6.2.8-.2.1-.5-.1-.6-.1-.3.1-.5.3-.6.3-.2 0-.2-.1-.2-.5 0-.3 0-.4-.1-.4s-.2.1-.2.3c0 .2 0 .5-.2.5s-.4-.3-.5-.3c-.1-.1-.5-.1-.5-.3 0-.2.2-.5.5-.6.2-.1.5-.2.3-.3-.2-.1-.3-.1-.5 0s-.5 0-.5-.2.1-.4 0-.5c0-.1-.3-.3.1-.5s.5.2.9.1c.3-.1.5-.2.6-.4.1-.2.1-.6-.1-.9-.2-.3-.5-.3-.6-.5-.1-.2-.2-.6-.2-.6s.1.7 0 .8v.5s-.2-.3-.4-.5-.4-.8-.4-.8v.8c0 .2.3.4.2.5-.1.1-.5-.4-.6-.5-.1-.1-.5-.3-.6-.6-.1-.3-.3-.7-.3-.8 0-.1-.1-.8 0-.9.1-.2.3-.7.3-.7h-.8c-.5 0-.8-.1-1 .2-.2.3-.1.9.1 1.7.2.8.3 1.2.3 1.3-.1.1-.3.5-.5.5-.1.1-.4 0-.5 0-.1-.1-.3-.2-.8-.2h-.8c-.2 0-.5-.2-.7-.2-.2 0-.5.2-.4.4.1.4-.1.4-.3.4-.2 0-.3-.1-.5-.1-.2-.1-.5 0-.5-.3 0-.2.1-.3.2-.4.1-.2.2-.3 0-.3s-.3 0-.4.1c-.1.1-.3.3-.5.2-.2-.1-.3-.3-.3-.6 0-.4-.4-.7 0-.7s.8.3.9.1c.1-.2 0-.3-.2-.5s-.5-.3-.2-.5.3-.2.4-.3c.1-.1.2-.5.4-.4.4.2 0 .4.4.9.4.4.6.6 1.2.5.6-.1.8-.1.8-.3 0-.2-.1-.5-.1-.6 0-.1.1-.6.1-.6s-.3.2-.4.4c-.1.2-.3.5-.3.5s-.1-.4 0-.7c0-.2.1-.5.1-.5 0-.2-.1-.6-.1-.6s-.1.4-.2.6c-.1.1-.1.6-.1.6s-.4-.3-.3-.9c.1-.4-.1-1 .1-1.2.1-.2.4-1 1.2-1h1.7c.3 0 1.2-.2 1.2-.2s-1.8-.9-2.2-1.2c-.4-.3-1-1-1.2-1.3-.2-.3-.4-.9-.4-.9s-.3 0-.6.2-.6.4-.7.6c-.2.2-.4.6-.4.6v-.7-.5s-.2.8-.6 1.1c-.4.3-.9.7-.9.7v-.5c0-.1.1-.6.1-.6s-.3.4-.7.5c-.4.1-1.1.1-1.1.3 0 .3.1.6 0 .8-.1.2-.3.3-.3.3s-.3-.2-.5-.2-.4.1-.4.1-.2-.2-.1-.4.4-.4.3-.5c-.1-.1-.4 0-.5.1-.2.1-.5.2-.5-.1 0-.3.1-.4 0-.6-.1-.2 0-.3.1-.4.1 0 .7 0 .7-.1s-.1-.3-.5-.4c-.4-.1-.5-.3-.3-.5s.2-.2.3-.4c.1-.2.1-.5.4-.3.3.1.3.5.6.6.3.1 1.1 0 1.3-.1.2-.1.7-.5.9-.6.2-.1 1-.7 1-.7s-.5-.3-.6-.5l-.6-.6c-.2-.1-.9-.4-1.2-.4-.3 0-1-.3-1-.3s.4-.1.5-.2c.1-.1.4-.3.5-.3h.2s-.7 0-.9-.1c-.2 0-.6-.3-.8-.3-.2 0-.5.1-.5.1s.5-.3.8-.4c.4-.1.7 0 .7 0s-.6-.2-.7-.3c-.1-.2-.3-.5-.4-.6-.1-.1-.2-.3-.4-.4-.2 0-.5.2-.7.2-.2 0-.3-.1-.3-.4 0-.3 0-.2-.1-.3-.1-.1-.3-.5-.1-.6.3-.1.8 0 .9 0 0-.1-.3-.4-.5-.5-.2-.1-.6-.3-.4-.5.2-.2.4-.2.5-.4.1-.1.2-.5.4-.4.2.1.5.8.7.7.2 0 .2-.5.2-.7 0-.2 0-.5.2-.5s.3.3.6.3.7-.1.6.1c0 .2-.2.4-.4.6-.2.2-.3.6-.2.9.1.3.4.7.7.9.3.2.8.3 1.1.5.3.2 1.1.8 1.3.9.3.1.5.2.5.2s.3-.1.7-.1c.4 0 1.3.1 1.6-.1.3-.1.8-.4.6-.7-.1-.3-.9-.6-.8-.8.1-.2.3-.3.8-.3s1.1.1 1.2-.6c.1-.6.2-1-.5-1.2-.6-.1-1.1-.2-1.2-.6-.1-.5-.2-.6-.1-.7.1-.1.4-.2.8-.2.5 0 1 0 1.2-.2.1-.1.2-.4.4-.5.2-.1.9-.2.9-.2s.9.4 1.7 1c.9.4 1.6 1.2 1.6 1.2" fill="#ed72aa" stroke="#000" stroke-width=".234"/><path id="_x32_55" d="M118.8 141.7s-.1-.3-.1-.4c0-.1-.1-.2-.1-.2s.5 0 .5.2-.2.2-.2.2c0 .1-.1.2-.1.2"/><path id="_x32_54" class="st6" d="M118.8 141.7s-.1-.3-.1-.4c0-.1-.1-.2-.1-.2s.5 0 .5.2-.2.2-.2.2c0 .1-.1.2-.1.2z"/><path id="_x32_53" d="M121.2 140.9v-.3s.5 0 .7.2c.3.2.6.6.5.6-.1.1-.3-.2-.5-.2h-.3c-.1 0-.2-.1-.2-.1v-.2h-.2"/><path id="_x32_52" class="st17" d="M121.2 140.9v-.3s.5 0 .7.2c.3.2.6.6.5.6-.1.1-.3-.2-.5-.2h-.3c-.1 0-.2-.1-.2-.1v-.2h-.2z"/><path id="_x32_51" class="st6" d="M124.5 144.5s-.2-.3-.3-.4c-.1-.1-.1-.3-.1-.3"/><path id="_x32_50" class="st47" d="M112.1 141.6s.3.2.5.2h.5s.1-.3.1-.5c-.1-.7-.8-.9-.8-.9s.2.4.1.6c-.1.4-.4.6-.4.6"/><path id="_x32_49" class="st10" d="M112.1 141.6s.3.2.5.2h.5s.1-.3.1-.5c-.1-.7-.8-.9-.8-.9s.2.4.1.6c-.1.4-.4.6-.4.6z"/><path id="_x32_48" class="st47" d="M110.8 142.3s-.3-.5-.8-.4c-.5.1-.9.5-.9.5s.6 0 .8.1c.2.1.3.5.3.5s.3-.2.4-.3c0-.2.2-.4.2-.4"/><path id="_x32_47" class="st10" d="M110.8 142.3s-.3-.5-.8-.4c-.5.1-.9.5-.9.5s.6 0 .8.1c.2.1.3.5.3.5s.3-.2.4-.3c0-.2.2-.4.2-.4z"/><path id="_x32_46" class="st47" d="M110.1 144.1s-.5.1-.7.4c-.3.3-.2.8-.2.8s.3-.3.6-.3.7.1.7.1-.1-.3-.1-.5c-.1-.1-.3-.5-.3-.5"/><path id="_x32_45" class="st10" d="M110.1 144.1s-.5.1-.7.4c-.3.3-.2.8-.2.8s.3-.3.6-.3.7.1.7.1-.1-.3-.1-.5c-.1-.1-.3-.5-.3-.5z"/><path id="_x32_44" d="M118.8 144.1l.2-.3.2.3h-.4"/><path id="_x32_43" class="st6" d="M118.8 144.1l.2-.3.2.3h-.4"/><path id="_x32_42" d="M119.3 144.1l.2-.3.3.3h-.5"/><path id="_x32_41" class="st6" d="M119.3 144.1l.2-.3.3.3h-.5"/><path id="_x32_40" d="M119.1 142.1l.5.2-.4.2-.1-.4"/><path id="_x32_39" class="st6" d="M119.1 142.1l.5.2-.4.2-.1-.4"/><path id="_x32_38" d="M119.7 142.3l.4.1-.4.3v-.4"/><path id="_x32_37" class="st6" d="M119.7 142.3l.4.1-.4.3v-.4"/><path id="_x32_36" class="st10" d="M116.4 146s-.5.1-.7.4c-.2.3-.2.6-.2.6s.4-.3.9-.2c.5.1.6.2.8.2.2 0 .8-.2.8-.2s-.4.5-.4.9c0 .3.1.5.1.7 0 .4-.4 1-.4 1s.2-.1.6-.2c.4-.1.8-.3 1.1-.5.2-.2.5-.6.5-.6s-.1.6 0 .9c.1.3.1 1 .1 1s.3-.3.5-.4c.1-.1.4-.2.5-.4.1-.1.2-.6.2-.6s.1.5.2.8c.2.3.4 1 .4 1s.2-.5.4-.7c.2-.2.4-.5.4-.6v-.5l.2.5m-6.6.2s.3-.5.6-.7c.3-.2.6-.4.8-.5.1 0 .5-.3.5-.3m.5 3.2s.7-.3.8-.4c.4-.2.7-.7.7-.7"/><path id="_x32_35" class="st47" d="M111.6 150.2s-.3-.3-.7-.2c-.4.1-.7.6-.7.6s.4-.1.6 0c.2 0 .4.3.4.3l.3-.3c0-.1.1-.4.1-.4"/><path id="_x32_34" class="st10" d="M111.6 150.2s-.3-.3-.7-.2c-.4.1-.7.6-.7.6s.4-.1.6 0c.2 0 .4.3.4.3l.3-.3c0-.1.1-.4.1-.4z"/><path id="_x32_33" class="st47" d="M111.1 152s-.4-.1-.7.2c-.3.3-.3.8-.3.8s.3-.3.5-.2c.2 0 .5.2.5.2s0-.3.1-.4c.1-.3-.1-.6-.1-.6"/><path id="_x32_32" class="st10" d="M111.1 152s-.4-.1-.7.2c-.3.3-.3.8-.3.8s.3-.3.5-.2c.2 0 .5.2.5.2s0-.3.1-.4c.1-.3-.1-.6-.1-.6z"/><path id="_x32_31" class="st47" d="M112 153.6s0 .5.2.8c.2.3.7.4.7.4s-.1-.3-.2-.5c0-.2.2-.5.2-.5s-.2-.2-.4-.2h-.5"/><path id="_x32_30" class="st10" d="M112 153.6s0 .5.2.8c.2.3.7.4.7.4s-.1-.3-.2-.5c0-.2.2-.5.2-.5s-.2-.2-.4-.2h-.5z"/><path id="_x32_29" class="st10" d="M122 154.4s1.2.8 1.2 1.4c0 .6-.7 1.4-.7 1.4"/><path id="_x32_28" class="st47" d="M116.4 157.9s-.3-.4-.7-.4c-.4 0-.9.4-.9.4s.5 0 .7.1c.1.2.3.4.3.4s.2-.1.3-.2c.1 0 .3-.3.3-.3"/><path id="_x32_27" class="st10" d="M116.4 157.9s-.3-.4-.7-.4c-.4 0-.9.4-.9.4s.5 0 .7.1c.1.2.3.4.3.4s.2-.1.3-.2c.1 0 .3-.3.3-.3z"/><path id="_x32_26" class="st47" d="M115.1 159.6s-.6-.1-.8.2c-.3.3-.3.8-.3.8s.3-.4.6-.3c.3 0 .6.2.6.2s-.1-.3-.1-.5c.1-.2 0-.4 0-.4"/><path id="_x32_25" class="st10" d="M115.1 159.6s-.6-.1-.8.2c-.3.3-.3.8-.3.8s.3-.4.6-.3c.3 0 .6.2.6.2s-.1-.3-.1-.5c.1-.2 0-.4 0-.4z"/><path id="_x32_24" class="st47" d="M116.3 161.3s-.3.4-.1.7c.2.3.6.4.6.4s-.2-.2-.1-.5c.1-.2.4-.5.4-.5l-.8-.1"/><path id="_x32_23" class="st10" d="M116.3 161.3s-.3.4-.1.7c.2.3.6.4.6.4s-.2-.2-.1-.5c.1-.2.4-.5.4-.5l-.8-.1z"/><path id="_x32_22" class="st47" d="M123.7 162.1s-.5-.1-.8 0c-.3.2-.5.8-.5.8s.4-.4.8-.3c.3 0 .6.2.6.2v-.5c0-.1-.1-.2-.1-.2"/><path id="_x32_21" class="st10" d="M123.7 162.1s-.5-.1-.8 0c-.3.2-.5.8-.5.8s.4-.4.8-.3c.3 0 .6.2.6.2v-.5c0-.1-.1-.2-.1-.2z"/><path id="_x32_20" class="st47" d="M124 163.9s-.4.4-.2.7c.1.3.4.7.4.7s0-.5.1-.6c.2-.2.6-.2.6-.2s-.3-.3-.4-.3c-.1-.2-.5-.3-.5-.3"/><path id="_x32_19" class="st10" d="M124 163.9s-.4.4-.2.7c.1.3.4.7.4.7s0-.5.1-.6c.2-.2.6-.2.6-.2s-.3-.3-.4-.3c-.1-.2-.5-.3-.5-.3z"/><path id="_x32_18" class="st47" d="M125.8 164.4s-.2.5.2.8c.4.3.7.3.7.3s-.3-.5-.2-.7c.1-.3.3-.4.3-.4s-.4-.1-.5-.1c-.1-.1-.5.1-.5.1"/><path id="_x32_17" class="st10" d="M125.8 164.4s-.2.5.2.8c.4.3.7.3.7.3s-.3-.5-.2-.7c.1-.3.3-.4.3-.4s-.4-.1-.5-.1c-.1-.1-.5.1-.5.1z"/><path id="_x32_16" d="M106.7 197.7c1.3.4 1.9 1.3 1.9 2.4 0 1.4-1.4 2.5-3.2 2.5-1.8 0-3.3-1.1-3.3-2.5 0-1.1.6-2.3 1.8-2.4 0 0 0-.1-.1-.3l-.4-.4s.5-.1.8 0c.3.1.5.3.5.3s.1-.3.3-.5c.2-.2.4-.3.4-.3s.3.2.4.4l.2.4s.3-.2.5-.3c.2-.1.5-.2.5-.2s-.1.3-.1.4c-.1.2-.2.5-.2.5" fill="#ffd691" stroke="#000" stroke-width=".312"/><path id="_x32_15" class="st50" d="M105.2 204.2s-2.4-1.6-3.4-1.8c-1.3-.3-2.8-.1-3.5-.1 0 0 .8.6 1.1.9.3.3 1.4 1 2.1 1.1 1.9.5 3.7-.1 3.7-.1"/><path id="_x32_14" class="st50" d="M105.9 204.3s1.5-1.6 3.1-1.8c1.9-.3 3.1.2 3.9.3 0 0-.6.3-.9.5-.3.2-1.2.9-2.5 1-1.3 0-2.7-.1-3-.1-.3.1-.6.1-.6.1"/><path id="_x32_13" d="M105.4 202.4c-.6-.6-1-1.3-1-2.2 0-.9.4-1.7 1-2.2.6.6 1 1.3 1 2.2 0 .8-.4 1.6-1 2.2" fill="#ad1519" stroke="#000" stroke-width=".312"/><path id="_x32_12" class="st50" d="M104.8 205.6s.4-.9.4-1.7c0-.7-.1-1.3-.1-1.3h.5s.2.7.2 1.3c0 .6-.1 1.4-.1 1.4s-.3 0-.4.1c-.1.1-.5.2-.5.2"/><path id="_x32_11" class="st8" d="M135 119.2c0-.3.3-.6.7-.6.4 0 .7.3.7.6s-.3.6-.7.6c-.4 0-.7-.2-.7-.6"/><path id="_x32_10" class="st10" d="M135 119.2c0-.3.3-.6.7-.6.4 0 .7.3.7.6s-.3.6-.7.6c-.4 0-.7-.2-.7-.6z"/><path id="_x32_09" class="st8" d="M135.9 117.6c0-.3.3-.6.7-.6.4 0 .7.3.7.6s-.3.6-.7.6c-.4 0-.7-.2-.7-.6"/><path id="_x32_08" class="st10" d="M135.9 117.6c0-.3.3-.6.7-.6.4 0 .7.3.7.6s-.3.6-.7.6c-.4 0-.7-.2-.7-.6z"/><path id="_x32_07" class="st8" d="M136.5 115.8c0-.3.3-.6.7-.6.4 0 .7.3.7.6s-.3.6-.7.6c-.4 0-.7-.3-.7-.6"/><path id="_x32_06" class="st10" d="M136.5 115.8c0-.3.3-.6.7-.6.4 0 .7.3.7.6s-.3.6-.7.6c-.4 0-.7-.3-.7-.6z"/><path id="_x32_05" class="st8" d="M136.6 113.8c0-.3.3-.6.7-.6.4 0 .7.3.7.6s-.3.6-.7.6c-.4 0-.7-.3-.7-.6"/><path id="_x32_04" class="st10" d="M136.6 113.8c0-.3.3-.6.7-.6.4 0 .7.3.7.6s-.3.6-.7.6c-.4 0-.7-.3-.7-.6z"/><path id="_x32_03" class="st8" d="M136.1 111.8c0-.3.3-.6.7-.6.4 0 .7.3.7.6s-.3.6-.7.6c-.4.1-.7-.2-.7-.6"/><path id="_x32_02" class="st10" d="M136.1 111.8c0-.3.3-.6.7-.6.4 0 .7.3.7.6s-.3.6-.7.6c-.4.1-.7-.2-.7-.6z"/><path id="_x32_01" class="st8" d="M135.1 110.1c0-.3.3-.6.7-.6.4 0 .7.3.7.6s-.3.6-.7.6c-.4 0-.7-.3-.7-.6"/><path id="_x32_00" class="st10" d="M135.1 110.1c0-.3.3-.6.7-.6.4 0 .7.3.7.6s-.3.6-.7.6c-.4 0-.7-.3-.7-.6z"/><path id="_x31_99" class="st8" d="M133.7 108.6c0-.3.3-.6.7-.6.4 0 .7.3.7.6s-.3.6-.7.6c-.4 0-.7-.2-.7-.6"/><path id="_x31_98" class="st10" d="M133.7 108.6c0-.3.3-.6.7-.6.4 0 .7.3.7.6s-.3.6-.7.6c-.4 0-.7-.2-.7-.6z"/><path id="_x31_97" class="st8" d="M132.2 107.4c0-.3.3-.6.7-.6.4 0 .7.3.7.6s-.3.6-.7.6c-.4 0-.7-.3-.7-.6"/><path id="_x31_96" class="st10" d="M132.2 107.4c0-.3.3-.6.7-.6.4 0 .7.3.7.6s-.3.6-.7.6c-.4 0-.7-.3-.7-.6z"/><path id="_x31_95" class="st8" d="M130.3 106.4c0-.3.3-.6.7-.6.4 0 .7.3.7.6s-.3.6-.7.6c-.4 0-.7-.2-.7-.6"/><path id="_x31_94" class="st10" d="M130.3 106.4c0-.3.3-.6.7-.6.4 0 .7.3.7.6s-.3.6-.7.6c-.4 0-.7-.2-.7-.6z"/><path id="_x31_93" class="st8" d="M128.3 105.7c0-.3.3-.6.7-.6.4 0 .7.3.7.6s-.3.6-.7.6c-.4 0-.7-.2-.7-.6"/><path id="_x31_92" class="st10" d="M128.3 105.7c0-.3.3-.6.7-.6.4 0 .7.3.7.6s-.3.6-.7.6c-.4 0-.7-.2-.7-.6z"/><path id="_x31_91" class="st8" d="M126.2 105.3c0-.3.3-.6.7-.6.4 0 .7.3.7.6s-.3.6-.7.6c-.4 0-.7-.2-.7-.6"/><path id="_x31_90" class="st10" d="M126.2 105.3c0-.3.3-.6.7-.6.4 0 .7.3.7.6s-.3.6-.7.6c-.4 0-.7-.2-.7-.6z"/><path id="_x31_89" class="st8" d="M124.1 105.2c0-.3.3-.6.7-.6.4 0 .7.3.7.6s-.3.6-.7.6c-.4 0-.7-.2-.7-.6"/><path id="_x31_88" class="st10" d="M124.1 105.2c0-.3.3-.6.7-.6.4 0 .7.3.7.6s-.3.6-.7.6c-.4 0-.7-.2-.7-.6z"/><path id="_x31_87" class="st8" d="M122.1 105.3c0-.3.3-.6.7-.6.4 0 .7.3.7.6s-.3.6-.7.6c-.4 0-.7-.3-.7-.6"/><path id="_x31_86" class="st10" d="M122.1 105.3c0-.3.3-.6.7-.6.4 0 .7.3.7.6s-.3.6-.7.6c-.4 0-.7-.3-.7-.6z"/><path id="_x31_85" class="st8" d="M120.1 105.3c0-.3.3-.6.7-.6.4 0 .7.3.7.6s-.3.6-.7.6c-.4 0-.7-.3-.7-.6"/><path id="_x31_84" class="st10" d="M120.1 105.3c0-.3.3-.6.7-.6.4 0 .7.3.7.6s-.3.6-.7.6c-.4 0-.7-.3-.7-.6z"/><path id="_x31_83" class="st37" d="M121.1 107c0-.3.3-.6.7-.6.4 0 .7.3.7.6s-.3.6-.7.6c-.4 0-.7-.2-.7-.6"/><path id="_x31_82" class="st37" d="M121.5 108.9c0-.3.3-.6.7-.6.4 0 .7.3.7.6s-.3.6-.7.6c-.4.1-.7-.2-.7-.6"/><path id="_x31_81" class="st37" d="M121.6 110.8c0-.3.3-.6.7-.6.4 0 .7.3.7.6s-.3.6-.7.6c-.4.1-.7-.2-.7-.6"/><path id="_x31_80" class="st37" d="M121 112.6c0-.3.3-.6.7-.6.4 0 .7.3.7.6s-.3.6-.7.6c-.4 0-.7-.3-.7-.6"/><path id="_x31_79" class="st37" d="M119.8 114.2c0-.3.3-.6.7-.6.4 0 .7.3.7.6s-.3.6-.7.6c-.4 0-.7-.3-.7-.6"/><path id="_x31_78" class="st8" d="M118.5 104.1c0-.3.3-.6.7-.6.4 0 .7.3.7.6s-.3.6-.7.6c-.4 0-.7-.3-.7-.6"/><path id="_x31_77" class="st10" d="M118.5 104.1c0-.3.3-.6.7-.6.4 0 .7.3.7.6s-.3.6-.7.6c-.4 0-.7-.3-.7-.6z"/><path id="_x31_76" class="st8" d="M116.7 103.1c0-.3.3-.6.7-.6.4 0 .7.3.7.6s-.3.6-.7.6c-.4 0-.7-.3-.7-.6"/><path id="_x31_75" class="st10" d="M116.7 103.1c0-.3.3-.6.7-.6.4 0 .7.3.7.6s-.3.6-.7.6c-.4 0-.7-.3-.7-.6z"/><path id="_x31_74" class="st8" d="M114.7 102.5c0-.3.3-.6.7-.6.4 0 .7.3.7.6s-.3.6-.7.6c-.4 0-.7-.3-.7-.6"/><path id="_x31_73" class="st10" d="M114.7 102.5c0-.3.3-.6.7-.6.4 0 .7.3.7.6s-.3.6-.7.6c-.4 0-.7-.3-.7-.6z"/><path id="_x31_72" class="st8" d="M112.7 102.1c0-.3.3-.6.7-.6.4 0 .7.3.7.6s-.3.6-.7.6c-.4.1-.7-.2-.7-.6"/><path id="_x31_71" class="st10" d="M112.7 102.1c0-.3.3-.6.7-.6.4 0 .7.3.7.6s-.3.6-.7.6c-.4.1-.7-.2-.7-.6z"/><path id="_x31_70" class="st8" d="M110.7 102.2c0-.3.3-.6.7-.6.4 0 .7.3.7.6s-.3.6-.7.6c-.4 0-.7-.3-.7-.6"/><path id="_x31_69" class="st10" d="M110.7 102.2c0-.3.3-.6.7-.6.4 0 .7.3.7.6s-.3.6-.7.6c-.4 0-.7-.3-.7-.6z"/><path id="_x31_68" class="st8" d="M108.6 102.5c0-.3.3-.6.7-.6.4 0 .7.3.7.6s-.3.6-.7.6c-.4 0-.7-.2-.7-.6"/><path id="_x31_67" class="st10" d="M108.6 102.5c0-.3.3-.6.7-.6.4 0 .7.3.7.6s-.3.6-.7.6c-.4 0-.7-.2-.7-.6z"/><path id="_x31_66" class="st8" d="M106.6 103.2c0-.3.3-.6.7-.6.4 0 .7.3.7.6s-.3.6-.7.6c-.4 0-.7-.3-.7-.6"/><path id="_x31_65" class="st10" d="M106.6 103.2c0-.3.3-.6.7-.6.4 0 .7.3.7.6s-.3.6-.7.6c-.4 0-.7-.3-.7-.6z"/><path id="_x31_64" class="st8" d="M73.7 119.2c0-.3.3-.6.7-.6.4 0 .7.3.7.6s-.3.6-.7.6c-.4 0-.7-.2-.7-.6"/><path id="_x31_63" class="st10" d="M73.7 119.2c0-.3.3-.6.7-.6.4 0 .7.3.7.6s-.3.6-.7.6c-.4 0-.7-.2-.7-.6z"/><path id="_x31_62" class="st8" d="M72.8 117.6c0-.3.3-.6.7-.6.4 0 .7.3.7.6s-.3.6-.7.6c-.4 0-.7-.2-.7-.6"/><path id="_x31_61" class="st10" d="M72.8 117.6c0-.3.3-.6.7-.6.4 0 .7.3.7.6s-.3.6-.7.6c-.4 0-.7-.2-.7-.6z"/><path id="_x31_60" class="st8" d="M72.2 115.8c0-.3.3-.6.7-.6.4 0 .7.3.7.6s-.3.6-.7.6c-.4 0-.7-.3-.7-.6"/><path id="_x31_59" class="st10" d="M72.2 115.8c0-.3.3-.6.7-.6.4 0 .7.3.7.6s-.3.6-.7.6c-.4 0-.7-.3-.7-.6z"/><path id="_x31_58" class="st8" d="M72.1 113.8c0-.3.3-.6.7-.6.4 0 .7.3.7.6s-.3.6-.7.6c-.4 0-.7-.3-.7-.6"/><path id="_x31_57" class="st10" d="M72.1 113.8c0-.3.3-.6.7-.6.4 0 .7.3.7.6s-.3.6-.7.6c-.4 0-.7-.3-.7-.6z"/><path id="_x31_56" class="st8" d="M72.6 111.8c0-.3.3-.6.7-.6.4 0 .7.3.7.6s-.3.6-.7.6c-.4.1-.7-.2-.7-.6"/><path id="_x31_55" class="st10" d="M72.6 111.8c0-.3.3-.6.7-.6.4 0 .7.3.7.6s-.3.6-.7.6c-.4.1-.7-.2-.7-.6z"/><path id="_x31_54" class="st8" d="M73.6 110.1c0-.3.3-.6.7-.6.4 0 .7.3.7.6s-.3.6-.7.6c-.4 0-.7-.3-.7-.6"/><path id="_x31_53" class="st10" d="M73.6 110.1c0-.3.3-.6.7-.6.4 0 .7.3.7.6s-.3.6-.7.6c-.4 0-.7-.3-.7-.6z"/><path id="_x31_52" class="st8" d="M75 108.6c0-.3.3-.6.7-.6.4 0 .7.3.7.6s-.3.6-.7.6c-.4 0-.7-.2-.7-.6"/><path id="_x31_51" class="st10" d="M75 108.6c0-.3.3-.6.7-.6.4 0 .7.3.7.6s-.3.6-.7.6c-.4 0-.7-.2-.7-.6z"/><path id="_x31_50" class="st8" d="M76.5 107.4c0-.3.3-.6.7-.6.4 0 .7.3.7.6s-.3.6-.7.6c-.4 0-.7-.3-.7-.6"/><path id="_x31_49" class="st10" d="M76.5 107.4c0-.3.3-.6.7-.6.4 0 .7.3.7.6s-.3.6-.7.6c-.4 0-.7-.3-.7-.6z"/><path id="_x31_48" class="st8" d="M78.4 106.4c0-.3.3-.6.7-.6.4 0 .7.3.7.6s-.3.6-.7.6c-.4 0-.7-.2-.7-.6"/><path id="_x31_47" class="st10" d="M78.4 106.4c0-.3.3-.6.7-.6.4 0 .7.3.7.6s-.3.6-.7.6c-.4 0-.7-.2-.7-.6z"/><path id="_x31_46" class="st8" d="M80.4 105.7c0-.3.3-.6.7-.6.4 0 .7.3.7.6s-.3.6-.7.6c-.4 0-.7-.2-.7-.6"/><path id="_x31_45" class="st10" d="M80.4 105.7c0-.3.3-.6.7-.6.4 0 .7.3.7.6s-.3.6-.7.6c-.4 0-.7-.2-.7-.6z"/><path id="_x31_44" class="st8" d="M82.5 105.3c0-.3.3-.6.7-.6.4 0 .7.3.7.6s-.3.6-.7.6c-.4 0-.7-.2-.7-.6"/><path id="_x31_43" class="st10" d="M82.5 105.3c0-.3.3-.6.7-.6.4 0 .7.3.7.6s-.3.6-.7.6c-.4 0-.7-.2-.7-.6z"/><path id="_x31_42" class="st8" d="M84.6 105.2c0-.3.3-.6.7-.6.4 0 .7.3.7.6s-.3.6-.7.6c-.4 0-.7-.2-.7-.6"/><path id="_x31_41" class="st10" d="M84.6 105.2c0-.3.3-.6.7-.6.4 0 .7.3.7.6s-.3.6-.7.6c-.4 0-.7-.2-.7-.6z"/><path id="_x31_40" class="st8" d="M86.6 105.3c0-.3.3-.6.7-.6.4 0 .7.3.7.6s-.3.6-.7.6c-.4 0-.7-.3-.7-.6"/><path id="_x31_39" class="st10" d="M86.6 105.3c0-.3.3-.6.7-.6.4 0 .7.3.7.6s-.3.6-.7.6c-.4 0-.7-.3-.7-.6z"/><path id="_x31_38" class="st8" d="M88.7 105.3c0-.3.3-.6.7-.6.4 0 .7.3.7.6s-.3.6-.7.6c-.5 0-.7-.3-.7-.6"/><path id="_x31_37" class="st10" d="M88.7 105.3c0-.3.3-.6.7-.6.4 0 .7.3.7.6s-.3.6-.7.6c-.5 0-.7-.3-.7-.6z"/><path id="_x31_36" class="st37" d="M87.6 107c0-.3.3-.6.7-.6.4 0 .7.3.7.6s-.3.6-.7.6c-.4 0-.7-.2-.7-.6"/><path id="_x31_35" class="st37" d="M87.2 108.9c0-.3.3-.6.7-.6.4 0 .7.3.7.6s-.3.6-.7.6c-.4.1-.7-.2-.7-.6"/><path id="_x31_34" class="st37" d="M87.2 110.8c0-.3.3-.6.7-.6.4 0 .7.3.7.6s-.3.6-.7.6c-.5.1-.7-.2-.7-.6"/><path id="_x31_33" class="st37" d="M87.8 112.6c0-.3.3-.6.7-.6.4 0 .7.3.7.6s-.3.6-.7.6c-.5 0-.7-.3-.7-.6"/><path id="_x31_32" class="st37" d="M88.9 114.2c0-.3.3-.6.7-.6.4 0 .7.3.7.6s-.3.6-.7.6c-.4 0-.7-.3-.7-.6"/><path id="_x31_31" class="st8" d="M90.2 104.1c0-.3.3-.6.7-.6.4 0 .7.3.7.6s-.3.6-.7.6c-.4 0-.7-.3-.7-.6"/><path id="_x31_30" class="st10" d="M90.2 104.1c0-.3.3-.6.7-.6.4 0 .7.3.7.6s-.3.6-.7.6c-.4 0-.7-.3-.7-.6z"/><path id="_x31_29" class="st8" d="M92 103.1c0-.3.3-.6.7-.6.4 0 .7.3.7.6s-.3.6-.7.6c-.4 0-.7-.3-.7-.6"/><path id="_x31_28" class="st10" d="M92 103.1c0-.3.3-.6.7-.6.4 0 .7.3.7.6s-.3.6-.7.6c-.4 0-.7-.3-.7-.6z"/><path id="_x31_27" class="st8" d="M94 102.5c0-.3.3-.6.7-.6.4 0 .7.3.7.6s-.3.6-.7.6c-.4 0-.7-.3-.7-.6"/><path id="_x31_26" class="st10" d="M94 102.5c0-.3.3-.6.7-.6.4 0 .7.3.7.6s-.3.6-.7.6c-.4 0-.7-.3-.7-.6z"/><path id="_x31_25" class="st8" d="M96 102.1c0-.3.3-.6.7-.6.4 0 .7.3.7.6s-.3.6-.7.6c-.4.1-.7-.2-.7-.6"/><path id="_x31_24" class="st10" d="M96 102.1c0-.3.3-.6.7-.6.4 0 .7.3.7.6s-.3.6-.7.6c-.4.1-.7-.2-.7-.6z"/><path id="_x31_23" class="st8" d="M98 102.2c0-.3.3-.6.7-.6.4 0 .7.3.7.6s-.3.6-.7.6c-.4 0-.7-.3-.7-.6"/><path id="_x31_22" class="st10" d="M98 102.2c0-.3.3-.6.7-.6.4 0 .7.3.7.6s-.3.6-.7.6c-.4 0-.7-.3-.7-.6z"/><path id="_x31_21" class="st8" d="M100.1 102.5c0-.3.3-.6.7-.6.4 0 .7.3.7.6s-.3.6-.7.6c-.4 0-.7-.2-.7-.6"/><path id="_x31_20" class="st10" d="M100.1 102.5c0-.3.3-.6.7-.6.4 0 .7.3.7.6s-.3.6-.7.6c-.4 0-.7-.2-.7-.6z"/><path id="_x31_19" class="st8" d="M102.1 103.2c0-.3.3-.6.7-.6.4 0 .7.3.7.6s-.3.6-.7.6c-.4 0-.7-.3-.7-.6"/><path id="_x31_18" class="st10" d="M102.1 103.2c0-.3.3-.6.7-.6.4 0 .7.3.7.6s-.3.6-.7.6c-.4 0-.7-.3-.7-.6z"/><path id="_x31_17" class="st52" d="M85.4 143h-.6v-.6h-1v2.2h1v1.5h-2.1v4.4h1.1v8.9h-2.2v4.6h17.1v-4.6h-2.2v-8.9h1.1v-4.4h-2.1v-1.5h1v-2.2h-1v.6H95v-.6h-1v.6h-.7v-.6h-1v2.2h1v1.5h-2.1v-4.9h1.1V139h-1.1v.6h-.6v-.6h-1v.6H89v-.6h-1v2.2h1.1v4.9H87v-1.5h1v-2.2h-1v.6h-.6v-.6h-1.1v.6h.1zm-3.7 21.1h17.1M81.7 163h17.1m-17.1-1.1h17.1m-17.1-1.1h17.1m-17.1-1.3h17.1m-14.9-.9h12.6m-12.6-1.1h12.6m-12.6-1.3h12.6m-12.6-1.1h12.6M83.9 154h12.6m-12.6-1.1h12.6m-12.6-1.1h12.6m-13.7-1.1h14.8m-14.8-1.1h14.8m-14.8-1.1h14.8m-14.8-1.2h14.8m-12.7-1.1h10.7m-6.5-1.1h2.1m-2.1-1.1h2.1m-2.1-1.1h2.1m-2.1-1.1h2.1m-3.2-1.4h4.3m-7.4 4.7h2.2m-3.2-1.4H88m-4.1 20.4V163m0-1.1v-1.1m-1.1 1.1v1.1m2.1 0v-1.1m1.1 2.2V163m0-1.1v-1.1m0-1.3v-1m0-1v-1.2m-1.1 4.5v-1.2m-2.1 1.2v-1.2m4.3-.1v1.2m.9-1.2v-1m-3.1-1v1.1m2.2-1.1v1.1m2-1.1v1.1m-1.1-1.1v-1.2m1.1-1.2v1.1m0-3.3v1.1m-1.1-2.2v1.1m1.1-2.2v1.1m-2-1.1v1.1m-2.2-1.1v1.1m-1-2.2v1.1m2.1-1.1v1.1m2-1.1v1.1m1.1-2.2v1.1m-2-1.1v1.1m-2.2-1.1v1.1m-1-2.3v1.1m4.1-1.1v1.1m-2-3.3v1.1m9.5-1.1h-2.2m3.2-1.4h-4.2m4.2 20.4V163m0-1.1v-1.1m1.1 1.1v1.1m-2.1 0v-1.1m-1.1 2.2V163m0-1.1v-1.1m0-1.3v-1m0-1v-1.2m1.1 4.5v-1.2m2.1 1.2v-1.2m-4.3-.1v1.2m-1-1.2v-1m3.2-1v1.1m-2.2-1.1v1.1m-2.1-1.1v1.1m1.1-1.1v-1.2m-1.1-1.2v1.1m0-3.3v1.1m1.1-2.2v1.1m-1.1-2.2v1.1m2.1-1.1v1.1m2.2-1.1v1.1m1-2.2v1.1m-2.1-1.1v1.1m-2.1-1.1v1.1m-1.1-2.2v1.1m2.1-1.1v1.1m2.2-1.1v1.1m1-2.3v1.1m-4.2-1.1v1.1m2.1-3.3v1.1m-4.3 11.3v-1.2m0-3.4v-1.1m0 3.3V154m0-3.3v-1.1m0-1.1v-1.1m0-2.3V144m0-1.1v-1.1m-5.2 2.9h2.2m2-3.3h2.1m2.1 3.3h2.2"/><path id="_x31_16" class="st52" d="M93 164.1v-2.9c0-.6-.3-2.2-2.9-2.2-2.5 0-2.8 1.7-2.8 2.2v2.9H93z"/><path id="_x31_15" class="st52" d="M88.3 161.3l-1.4-.1c0-.6.1-1.4.6-1.7l1.2 1c-.1.2-.4.6-.4.8z"/><path id="_x31_14" class="st52" d="M92.1 161.3l1.4-.1c0-.6-.1-1.4-.6-1.7l-1.2 1c.1.2.4.6.4.8z"/><path id="_x31_13" class="st52" d="M90.7 160l.7-1.2c-.3-.1-.8-.3-1.2-.3-.3 0-.8.1-1.1.3l.7 1.2h.9z"/><path id="_x31_12" class="st52" d="M88 156.5v-3.1c0-.8-.6-1.5-1.5-1.5-1 0-1.5.7-1.5 1.5v3.1h3z"/><path id="_x31_11" class="st52" d="M92.3 156.5v-3.1c0-.8.6-1.5 1.5-1.5 1 0 1.5.7 1.5 1.5v3.1h-3z"/><path id="_x31_10" class="st52" d="M91.2 149l.3-2.8h-2.6l.1 2.8h2.2z"/><path id="_x31_09" class="st52" d="M93.3 149l-.3-2.8h2.8l-.3 2.8h-2.2z"/><path id="_x31_08" class="st52" d="M87.1 149l.1-2.8h-2.6l.3 2.8h2.2z"/><path id="_x31_07" class="st53" d="M92.1 164.1v-2.5c0-.4-.3-1.7-1.9-1.7-1.5 0-1.8 1.2-1.8 1.7v2.5h3.7z"/><path id="_x31_06" class="st53" d="M87.8 156.2v-2.6c0-.7-.4-1.4-1.2-1.4-.8 0-1.2.7-1.2 1.4v2.6h2.4z"/><path id="_x31_05" class="st53" d="M92.6 156.2v-2.6c0-.7.4-1.4 1.2-1.4.8 0 1.2.7 1.2 1.4v2.6h-2.4z"/><path id="_x31_04" class="st3" d="M95.5 168.6c0-6.1 4.4-11 9.8-11s9.8 4.9 9.8 11-4.4 11-9.8 11-9.8-4.9-9.8-11"/><path id="_x31_03" class="st54" d="M95.5 168.6c0-6.1 4.4-11 9.8-11s9.8 4.9 9.8 11-4.4 11-9.8 11-9.8-4.9-9.8-11z"/><path id="_x31_02" class="st12" d="M98.4 168.6c0-4.4 3.1-8 6.9-8 3.8 0 6.9 3.6 6.9 8s-3.1 8.1-6.9 8.1c-3.8-.1-6.9-3.7-6.9-8.1"/><path id="_x31_01" class="st54" d="M98.4 168.6c0-4.4 3.1-8 6.9-8 3.8 0 6.9 3.6 6.9 8s-3.1 8.1-6.9 8.1c-3.8-.1-6.9-3.7-6.9-8.1z"/><path id="_x31_00" class="st5" d="M102 163s-.8.9-.8 1.7c0 .8.3 1.5.3 1.5-.1-.3-.5-.6-.8-.6-.5 0-.9.4-.9.9 0 .1.1.3.1.5l.3.6c.1-.2.3-.3.6-.3.4 0 .6.3.6.6v.2h-.7v.6h.7l-.5 1 .6-.3.5.5.5-.5.6.3-.5-1h.6v-.7h-.7v-.2c0-.3.3-.6.6-.6s.5.1.6.3l.3-.6c.1-.1.1-.3.1-.5 0-.5-.4-.9-.9-.9-.4 0-.7.2-.8.6 0 0 .3-.7.3-1.5.2-.7-.7-1.6-.7-1.6"/><path id="_x39_9" class="st55" d="M102 163s-.8.9-.8 1.7c0 .8.3 1.5.3 1.5-.1-.3-.5-.6-.8-.6-.5 0-.9.4-.9.9 0 .1.1.3.1.5l.3.6c.1-.2.3-.3.6-.3.4 0 .6.3.6.6v.2h-.7v.6h.7l-.5 1 .6-.3.5.5.5-.5.6.3-.5-1h.6v-.7h-.7v-.2c0-.3.3-.6.6-.6s.5.1.6.3l.3-.6c.1-.1.1-.3.1-.5 0-.5-.4-.9-.9-.9-.4 0-.7.2-.8.6 0 0 .3-.7.3-1.5.2-.7-.7-1.6-.7-1.6z"/><path id="_x39_8" class="st5" d="M100.7 168.7h2.6v-.7h-2.6v.7z"/><path id="_x39_7" class="st56" d="M100.7 168.7h2.6v-.7h-2.6v.7z"/><path id="_x39_6" class="st5" d="M108.4 163s-.8.9-.8 1.7c0 .8.3 1.5.3 1.5-.1-.3-.5-.6-.8-.6-.5 0-.9.4-.9.9 0 .1.1.3.1.5l.3.6c.1-.2.3-.3.6-.3.4 0 .6.3.6.6v.2h-.7v.6h.7l-.5 1 .6-.3.5.5.5-.5.6.3-.5-1h.7v-.7h-.7v-.2c0-.3.3-.6.6-.6s.5.1.6.3l.3-.6c.1-.1.1-.3.1-.5 0-.5-.4-.9-.9-.9-.4 0-.7.2-.9.6 0 0 .3-.7.3-1.5.1-.7-.7-1.6-.7-1.6"/><path id="_x39_5" class="st55" d="M108.4 163s-.8.9-.8 1.7c0 .8.3 1.5.3 1.5-.1-.3-.5-.6-.8-.6-.5 0-.9.4-.9.9 0 .1.1.3.1.5l.3.6c.1-.2.3-.3.6-.3.4 0 .6.3.6.6v.2h-.7v.6h.7l-.5 1 .6-.3.5.5.5-.5.6.3-.5-1h.7v-.7h-.7v-.2c0-.3.3-.6.6-.6s.5.1.6.3l.3-.6c.1-.1.1-.3.1-.5 0-.5-.4-.9-.9-.9-.4 0-.7.2-.9.6 0 0 .3-.7.3-1.5.1-.7-.7-1.6-.7-1.6z"/><path id="_x39_4" class="st5" d="M107.1 168.7h2.6v-.7h-2.6v.7z"/><path id="_x39_3" class="st56" d="M107.1 168.7h2.6v-.7h-2.6v.7z"/><path id="_x39_2" class="st5" d="M105.2 168.5s-.8.9-.8 1.7.3 1.5.3 1.5c-.1-.3-.5-.6-.8-.6-.5 0-.9.4-.9.9 0 .1.1.3.2.5l.3.6c.1-.2.3-.3.6-.3.4 0 .6.3.6.6v.1h-.7v.6h.7l-.5 1 .6-.3.5.5.5-.5.6.3-.5-1h.7v-.6h-.7v-.1c0-.3.3-.6.6-.6s.5.1.6.3l.3-.6c.1-.1.1-.3.1-.5 0-.5-.4-.9-.9-.9-.4 0-.7.2-.8.6 0 0 .3-.7.3-1.5s-.9-1.7-.9-1.7"/><path id="_x39_1" class="st55" d="M105.2 168.5s-.8.9-.8 1.7.3 1.5.3 1.5c-.1-.3-.5-.6-.8-.6-.5 0-.9.4-.9.9 0 .1.1.3.2.5l.3.6c.1-.2.3-.3.6-.3.4 0 .6.3.6.6v.1h-.7v.6h.7l-.5 1 .6-.3.5.5.5-.5.6.3-.5-1h.7v-.6h-.7v-.1c0-.3.3-.6.6-.6s.5.1.6.3l.3-.6c.1-.1.1-.3.1-.5 0-.5-.4-.9-.9-.9-.4 0-.7.2-.8.6 0 0 .3-.7.3-1.5s-.9-1.7-.9-1.7z"/><path id="_x39_0" class="st5" d="M103.9 174.2h2.6v-.6h-2.6v.6z"/><path id="_x38_9" class="st56" d="M103.9 174.2h2.6v-.6h-2.6v.6z"/><path id="_x38_8" class="st5" d="M124.7 139.6h-.2l-.2.2c-.2.1-.4.2-.5 0-.1-.1-.1-.2-.1-.2-.1.1-.2.1-.3 0-.2-.1-.2-.3-.1-.5 0 0 0-.1.1-.1v-.2h-.2l-.1.1c-.1.1-.3.2-.4.1l-.1-.2-.1.1c-.3.1-.4-.6-.5-.8l-.1.2s.1.4 0 .8c0 .4-.2.7-.2.7.4.1 1.1.5 1.8 1s1.2 1.1 1.4 1.5c0 0 .3-.2.7-.3.4-.1.8-.1.8-.1l.1-.1c-.2 0-.9.1-.9-.3v-.1h-.2c-.1-.1-.1-.3 0-.4l.1-.1v-.2h-.2l-.1.1c-.2.1-.4.1-.5 0-.1-.1-.1-.2-.1-.3h-.3c-.2-.1-.2-.3-.1-.5l.2-.2.3-.2"/><path id="_x38_7" class="st6" d="M124.7 139.6h-.2l-.2.2c-.2.1-.4.2-.5 0-.1-.1-.1-.2-.1-.2-.1.1-.2.1-.3 0-.2-.1-.2-.3-.1-.5 0 0 0-.1.1-.1v-.2h-.2l-.1.1c-.1.1-.3.2-.4.1l-.1-.2-.1.1c-.3.1-.4-.6-.5-.8l-.1.2s.1.4 0 .8c0 .4-.2.7-.2.7.4.1 1.1.5 1.8 1s1.2 1.1 1.4 1.5c0 0 .3-.2.7-.3.4-.1.8-.1.8-.1l.1-.1c-.2 0-.9.1-.9-.3v-.1h-.2c-.1-.1-.1-.3 0-.4l.1-.1v-.2h-.2l-.1.1c-.2.1-.4.1-.5 0-.1-.1-.1-.2-.1-.3h-.3c-.2-.1-.2-.3-.1-.5l.2-.2.3-.2z"/><path id="_x38_6" d="M123.4 140h.1s.1.1 0 .1h-.1s-.1 0 0-.1"/><path id="_x38_5" class="st17" d="M123.4 140h.1s.1.1 0 .1h-.1s-.1 0 0-.1z"/><path id="_x38_4" d="M123.9 140.5l-.2-.2v-.1h.1l.1.3.3.1v.1h-.1l-.2-.2"/><path id="_x38_3" class="st17" d="M123.9 140.5l-.2-.2v-.1h.1l.1.3.3.1v.1h-.1l-.2-.2"/><path id="_x38_2" d="M122.9 139.8l-.2-.1s-.1-.1 0-.1h.1l.2.1.2.1s.1.1 0 .1h-.1l-.2-.1"/><path id="_x38_1" class="st17" d="M122.9 139.8l-.2-.1s-.1-.1 0-.1h.1l.2.1.2.1s.1.1 0 .1h-.1l-.2-.1"/><path id="_x38_0" d="M122.3 139.4h.1s.1.1 0 .1h-.1v-.1"/><path id="_x37_9" class="st17" d="M122.3 139.4h.1s.1.1 0 .1h-.1v-.1z"/><path id="_x37_8" d="M124.6 141v-.1h-.1v.1h.1"/><path id="_x37_7" class="st17" d="M124.6 141v-.1h-.1v.1h.1z"/><path id="_x37_6" d="M124.9 141.3l.1.1h.1v-.1l-.1-.1-.1-.1h-.1v.1l.1.1"/><path id="_x37_5" class="st17" d="M124.9 141.3l.1.1h.1v-.1l-.1-.1-.1-.1h-.1v.1l.1.1"/><path id="_x37_4" d="M125.5 141.8v-.1h-.1v.1c0 .1.1.1.1 0"/><path id="_x37_3" class="st17" d="M125.5 141.8v-.1h-.1v.1c0 .1.1.1.1 0z"/><path id="_x37_2" class="st5" d="M123.8 138.2h-.4l-.1.5v.1h.1l.5-.3-.1-.3"/><path id="_x37_1" class="st6" d="M123.8 138.2h-.4l-.1.5v.1h.1l.5-.3-.1-.3"/><path id="_x37_0" class="st5" d="M122.9 138.5v.3l.6.1h.1v-.1l-.3-.4-.4.1"/><path id="_x36_9" class="st6" d="M122.9 138.5v.3l.6.1h.1v-.1l-.3-.4-.4.1"/><path id="_x36_8" class="st5" d="M124 139.2l-.3.2-.3-.4v-.1h.1l.6.1-.1.2"/><path id="_x36_7" class="st6" d="M124 139.2l-.3.2-.3-.4v-.1h.1l.6.1-.1.2"/><path id="_x36_6" class="st5" d="M123.3 138.8c0-.1.2-.1.2-.1.1 0 .1.1.1.2s-.2.1-.2.1c-.1-.1-.1-.2-.1-.2"/><path id="_x36_5" class="st6" d="M123.3 138.8c0-.1.2-.1.2-.1.1 0 .1.1.1.2s-.2.1-.2.1c-.1-.1-.1-.2-.1-.2z"/><path id="_x36_4" class="st5" d="M122 138.2s-.1-.3-.2-.4c0-.1-.2-.3-.2-.3s.3-.1.5.1 0 .5 0 .5 0 .1-.1.1"/><path id="_x36_3" class="st6" d="M122 138.2s-.1-.3-.2-.4c0-.1-.2-.3-.2-.3s.3-.1.5.1 0 .5 0 .5 0 .1-.1.1z"/><path id="_x36_2" class="st5" d="M122.6 138.4l-.3.2-.4-.4v-.1h.6l.1.3"/><path id="_x36_1" class="st6" d="M122.6 138.4l-.3.2-.4-.4v-.1h.6l.1.3"/><path id="_x36_0" class="st5" d="M121.9 138.2c0-.1.1-.1.2-.1s.1.1.1.2-.1.1-.2.1c-.1-.1-.1-.1-.1-.2"/><path id="_x35_9" class="st6" d="M121.9 138.2c0-.1.1-.1.2-.1s.1.1.1.2-.1.1-.2.1c-.1-.1-.1-.1-.1-.2z"/><path id="_x35_8" class="st5" d="M125.2 139.1h-.4l-.1.5v.1h.1l.5-.2-.1-.4"/><path id="_x35_7" class="st6" d="M125.2 139.1h-.4l-.1.5v.1h.1l.5-.2-.1-.4"/><path id="_x35_6" class="st5" d="M124.2 139.2l-.1.3.5.1h.1v-.1l-.3-.5-.2.2"/><path id="_x35_5" class="st6" d="M124.2 139.2l-.1.3.5.1h.1v-.1l-.3-.5-.2.2"/><path id="_x35_4" class="st5" d="M125.2 140l-.3.1-.3-.5v-.1h.1l.5.1v.4"/><path id="_x35_3" class="st6" d="M125.2 140l-.3.1-.3-.5v-.1h.1l.5.1v.4"/><path id="_x35_2" class="st5" d="M124.6 139.5c.1-.1.2-.1.2 0 .1.1.1.2 0 .2-.1.1-.2.1-.2 0-.1 0-.1-.1 0-.2"/><path id="_x35_1" class="st6" d="M124.6 139.5c.1-.1.2-.1.2 0 .1.1.1.2 0 .2-.1.1-.2.1-.2 0-.1 0-.1-.1 0-.2z"/><path id="_x35_0" class="st5" d="M126.4 140.2l.1.3-.5.2h-.1v-.1l.2-.5.3.1"/><path id="_x34_9" class="st6" d="M126.4 140.2l.1.3-.5.2h-.1v-.1l.2-.5.3.1"/><path id="_x34_8" class="st5" d="M126.3 141.1l-.3.1-.2-.5v-.1h.1l.5.2-.1.3"/><path id="_x34_7" class="st6" d="M126.3 141.1l-.3.1-.2-.5v-.1h.1l.5.2-.1.3"/><path id="_x34_6" class="st5" d="M125.4 140.2l-.1.3.5.2h.1v-.1l-.2-.5-.3.1"/><path id="_x34_5" class="st6" d="M125.4 140.2l-.1.3.5.2h.1v-.1l-.2-.5-.3.1"/><path id="_x34_4" class="st5" d="M125.9 140.8c.1-.1.1-.2 0-.2-.1-.1-.2-.1-.2 0-.1.1-.1.2 0 .2h.2"/><path id="_x34_3" class="st6" d="M125.9 140.8c.1-.1.1-.2 0-.2-.1-.1-.2-.1-.2 0-.1.1-.1.2 0 .2h.2z"/><path id="_x34_2" class="st5" d="M126.8 141.9s.3 0 .5.1c.1 0 .3.2.3.2s.1-.3-.2-.5c-.2-.2-.5.1-.5.1s-.1 0-.1.1"/><path id="_x34_1" class="st6" d="M126.8 141.9s.3 0 .5.1c.1 0 .3.2.3.2s.1-.3-.2-.5c-.2-.2-.5.1-.5.1s-.1 0-.1.1z"/><path id="_x34_0" class="st5" d="M126.4 141.3l-.2.3.5.3h.2l-.1-.5-.4-.1"/><path id="_x33_9" class="st6" d="M126.4 141.3l-.2.3.5.3h.2l-.1-.5-.4-.1"/><path id="_x33_8" class="st5" d="M126.8 141.9c.1 0 .1-.1.1-.2s-.1-.1-.2 0c-.1 0-.1.1-.1.2s.1.1.2 0"/><path id="_x33_7" class="st6" d="M126.8 141.9c.1 0 .1-.1.1-.2s-.1-.1-.2 0c-.1 0-.1.1-.1.2s.1.1.2 0z"/><path id="_x33_6" class="st7" d="M150.7 128.2v.3h-1.5v-.3h.6v-.8h-.4v-.3h.4v-.3h.4v.3h.4v.3h-.4v.8h.5"/><path id="_x33_5" class="st57" d="M60.3 135.7v-.8"/><path id="_x33_4" class="st58" d="M60.1 135.7v-.8"/><path id="_x33_3" class="st59" d="M59.9 135.7v-.8"/><path id="_x33_2" class="st59" d="M59.7 135.7v-.8"/><path id="_x33_1_1_" class="st17" d="M59.5 135.7v-.8"/><path id="_x33_1" class="st60" d="M59.2 135.6v-.7m.1.8v-.7"/><path id="_x33_0" class="st61" d="M58.9 135.6v-.6m.1.6v-.7"/><path id="_x32_9" class="st62" d="M58.5 135.6v-.6m.1.6v-.6m.1.6v-.6"/><path id="_x32_8" class="st20" d="M58.3 135.6v-.6"/><path id="_x32_7" class="st63" d="M58.2 135.6v-.6"/><path id="_x32_6" class="st64" d="M58 135.5v-.5"/><path id="_x32_5" class="st65" d="M57.7 135.5v-.4m.2.4v-.4"/><path id="_x32_4" class="st65" d="M57.6 135.5v-.3"/><path id="_x32_3" class="st66" d="M57.5 135.4v-.3"/><path id="_x32_2" class="st21" d="M57.3 135.4v-.2"/><path id="_x32_1" class="st67" d="M57.2 135.4v-.2"/><path id="_x32_0" class="st22" d="M57 135.3"/><path id="_x31_9" class="st68" d="M61.1 135.6v-.6m-.4.7v-.7m-.2.7v-.8"/><path id="_x31_8" class="st57" d="M149.9 135.7v-.8"/><path id="_x31_7" class="st58" d="M149.7 135.7v-.8"/><path id="_x31_6" class="st59" d="M149.5 135.7v-.8"/><path id="_x31_5" class="st59" d="M149.3 135.7v-.8"/><path id="_x31_4" class="st17" d="M149.1 135.7v-.8"/><path id="_x31_3" class="st60" d="M148.8 135.7v-.7m.1.7v-.7"/><path id="_x31_2" class="st61" d="M148.5 135.6v-.6m.1.6v-.7"/><path id="_x31_1" class="st62" d="M148.1 135.6v-.6m.1.6v-.6m.1.6v-.6"/><path id="_x31_0" class="st20" d="M147.9 135.6v-.6"/><path id="_x39_" class="st63" d="M147.8 135.6v-.5"/><path id="_x38_" class="st64" d="M147.6 135.6v-.5"/><path id="_x37_" class="st65" d="M147.3 135.5v-.4m.2.4v-.4"/><path id="_x36__1_" class="st65" d="M147.2 135.5v-.3"/><path id="_x35__1_" class="st66" d="M147.1 135.4v-.3"/><path id="_x34__1_" class="st21" d="M146.9 135.4v-.2"/><path id="_x33__1_" class="st67" d="M146.8 135.4v-.2"/><path id="_x32_" class="st22" d="M146.6 135.4"/><path id="_x31_" class="st68" d="M150.7 135.7v-.7m-.4.7v-.7m-.2.7v-.8"/></g></svg>