<?xml version="1.0" encoding="utf-8"?>
<!-- Generator: Adobe Illustrator 19.0.0, SVG Export Plug-In . SVG Version: 6.00 Build 0)  -->
<svg version="1.1" id="Countryflags.com" xmlns="http://www.w3.org/2000/svg" xmlns:xlink="http://www.w3.org/1999/xlink" x="0px"
	 y="0px" viewBox="0 0 300 300" style="enable-background:new 0 0 300 300;" xml:space="preserve">
<style type="text/css">
	.st0{clip-path:url(#SVGID_2_);}
	.st1{fill:#FFFFFF;}
	.st2{fill:#CF142B;}
	.st3{fill:#00247D;}
</style>
<g>
	<defs>
		<circle id="SVGID_1_" cx="150" cy="150" r="150"/>
	</defs>
	<clipPath id="SVGID_2_">
		<use xlink:href="#SVGID_1_"  style="overflow:visible;"/>
	</clipPath>
	<g class="st0">
		<rect id="_x31_4_1_" x="-150" y="0" class="st1" width="599.7" height="300"/>
		<polygon id="_x31_3_1_" class="st2" points="119.9,179.9 119.9,300 179.8,300 179.8,179.9 449.7,179.9 449.7,119.9 179.8,119.9 
			179.8,0 119.9,0 119.9,119.9 -150,119.9 -150,179.9 		"/>
		<polygon id="_x31_2_1_" class="st3" points="199.8,97.1 199.8,0 394,0 		"/>
		<polygon id="_x31_1_1_" class="st3" points="199.8,202.9 199.8,300 394,300 		"/>
		<polygon id="_x31_0_1_" class="st3" points="99.9,202.9 99.9,300 -94.3,300 		"/>
		<polygon id="_x39__1_" class="st3" points="99.9,97.1 99.9,0 -94.3,0 		"/>
		<polygon id="_x38__1_" class="st3" points="-150,27.9 -150,100 -5.8,100 		"/>
		<polygon id="_x37__1_" class="st3" points="449.7,27.9 449.7,100 305.5,100 		"/>
		<polygon id="_x36__1_" class="st3" points="449.7,272.1 449.7,200 305.5,200 		"/>
		<polygon id="_x35__1_" class="st3" points="-150,272.1 -150,200 -5.8,200 		"/>
		<polyline id="_x34__1_" class="st2" points="449.7,0 416.4,0 216.8,100 250.1,100 450,0 		"/>
		<polyline id="_x33_" class="st2" points="82.9,200 49.6,200 -150,300 -116.7,300 83.2,200 		"/>
		<polygon id="_x32__1_" class="st2" points="16.5,100.1 49.8,100.1 -150,0 -150,16.8 		"/>
		<polygon id="_x31__1_" class="st2" points="283,199.9 249.7,199.9 449.6,300 449.6,283.2 		"/>
	</g>
</g>
</svg>
