<?xml version="1.0" encoding="utf-8"?>
<!-- Generator: Adobe Illustrator 19.0.0, SVG Export Plug-In . SVG Version: 6.00 Build 0)  -->
<svg version="1.1" id="Layer_1" xmlns="http://www.w3.org/2000/svg" xmlns:xlink="http://www.w3.org/1999/xlink" x="0px" y="0px"
	 viewBox="0 0 1268 552" style="enable-background:new 0 0 1268 552;" xml:space="preserve">
<style type="text/css">
	.st0{fill:#FFFFFF;}
	.st1{fill:#FFFFFF;stroke:#000000;stroke-width:4;stroke-miterlimit:10;}
	.st2{fill:none;stroke:#000000;stroke-width:4;stroke-miterlimit:10;}
	.st3{font-family:'Corbel-Bold';}
	.st4{font-size:26px;}
	.st5{fill:#103B9B;}
	.st6{fill:#ED1F34;}
	.st7{clip-path:url(#XMLID_840_);fill:#ED1F34;}
	.st8{clip-path:url(#XMLID_840_);}
	.st9{fill:#FFE000;}
	.st10{clip-path:url(#XMLID_841_);fill:#ED1F34;}
	.st11{clip-path:url(#XMLID_841_);}
	.st12{fill:#164FCE;}
	.st13{clip-path:url(#XMLID_842_);fill:#FFFFFF;}
	.st14{clip-path:url(#XMLID_842_);}
	.st15{clip-path:url(#XMLID_843_);fill:#ED1F34;}
	.st16{clip-path:url(#XMLID_843_);}
	.st17{clip-path:url(#XMLID_844_);fill:#164FCE;}
	.st18{clip-path:url(#XMLID_844_);}
	.st19{fill:#259245;}
	.st20{clip-path:url(#XMLID_845_);fill:#ED1F34;}
	.st21{clip-path:url(#XMLID_845_);}
	.st22{fill:#333333;}
	.st23{clip-path:url(#XMLID_846_);fill:#333333;}
	.st24{clip-path:url(#XMLID_846_);}
	.st25{clip-path:url(#XMLID_847_);fill:#ED1F34;}
	.st26{clip-path:url(#XMLID_847_);}
	.st27{clip-path:url(#XMLID_848_);}
	.st28{clip-path:url(#XMLID_849_);fill:#231F20;}
	.st29{fill:#B3B3B3;stroke:#000000;stroke-width:4;stroke-miterlimit:10;}
	.st30{fill:#29ABE2;stroke:#000000;stroke-width:3;stroke-miterlimit:10;}
	.st31{fill:#22B573;stroke:#000000;stroke-width:3;stroke-miterlimit:10;}
	.st32{clip-path:url(#XMLID_850_);}
	.st33{fill:none;stroke:#000000;stroke-width:3;stroke-miterlimit:10;}
	.st34{fill:#BDCCD4;stroke:#000000;stroke-width:4;stroke-miterlimit:10;}
	.st35{clip-path:url(#XMLID_851_);}
</style>
<rect id="XMLID_404_" class="st0" width="1268" height="552"/>
<rect id="XMLID_272_" x="34" y="26" class="st1" width="1200" height="500"/>
<line id="XMLID_276_" class="st2" x1="34" y1="330" x2="240" y2="330"/>
<line id="XMLID_278_" class="st2" x1="1043" y1="270" x2="1042.3" y2="27.2"/>
<line id="XMLID_279_" class="st2" x1="787" y1="236" x2="787" y2="527"/>
<line id="XMLID_280_" class="st2" x1="787" y1="270" x2="1234" y2="270"/>
<line id="XMLID_281_" class="st2" x1="276" y1="26" x2="276" y2="235"/>
<line id="XMLID_282_" class="st2" x1="648.3" y1="27" x2="649" y2="236"/>
<line id="XMLID_283_" class="st2" x1="240" y1="236" x2="240" y2="526"/>
<line id="XMLID_284_" class="st2" x1="580" y1="233" x2="580" y2="528"/>
<line id="XMLID_285_" class="st2" x1="1042" y1="196" x2="1234" y2="196"/>
<g id="XMLID_286_">
	<path d="M1190.6,66.4l-2.8,4.6l-6.5-3.9l2.9-4.5c0.7-1.1,1.8-1.7,3.1-1.7h0.3c2,0,3.7,1.6,3.7,3.7
		C1191.2,65.2,1191,65.9,1190.6,66.4L1190.6,66.4z M1173.9,92.1V79.2l-0.2-0.2l2.4-3.7l6.6,4l-8,12.8H1173.9L1173.9,92.1z
		 M1173.9,99.2c-4,0.8-6.9,4.3-6.9,8.5s3,7.7,6.9,8.5v1.9H1108v-1.9c4-0.8,6.9-4.3,6.9-8.5s-3-7.7-6.9-8.5v-3.6h65.9V99.2
		L1173.9,99.2z M1165.2,161.4h-48.5c-4.8,0-8.7-3.9-8.7-8.7V151h55.5v-3.5H1108v-26h65.9v26h-6.9v3.5h6.9v1.7
		C1173.9,157.5,1170,161.4,1165.2,161.4L1165.2,161.4z M1096.2,73.6l6-4.8l16.3,23.3h-9.6L1096.2,73.6L1096.2,73.6z M1090.6,64.4
		c0-2,1.6-3.6,3.6-3.6h0.6c1.2,0,2.2,0.6,2.9,1.5l2.5,3.5l-6,4.8l-2.9-4.3C1090.9,65.8,1090.6,65.1,1090.6,64.4L1090.6,64.4z
		 M1142.7,60.8v3.5h-6.9v3.5h6.9v3.5h-3.5v3.5h3.5v3.5h-6.9v3.5h6.9v3.5h-3.5v3.5h3.5v3.5h-17.3V60.8H1142.7L1142.7,60.8z
		 M1153.1,83.4h10.4v-3.5h-9.8c1.7-2.1,5-6.5,6-12.1h4.1c1,5.6,4.3,10.1,6,12.1h-2.9v3.5h3.5v8.7h-17.3V83.4L1153.1,83.4z
		 M1160,60.8h1l2.5,2.5v1h-3.5V60.8L1160,60.8z M1179.4,70l6.6,3.9l-1.5,2.4l-6.6-4L1179.4,70L1179.4,70z M1194.7,64.5
		c0-3.9-3.2-7.1-7.1-7.1h-0.3c-2.4,0-4.7,1.2-6,3.3l-9.9,15.5c-1.9-2.6-4.4-7-4.4-11.9v-2.5l-4.5-4.5h-5.9v6.9
		c0,7.8-6.4,14.3-6.4,14.4l-0.5,0.5v12.9h-3.5V57.4h-24.3v33.4l-21.3-30.4c-1.3-1.9-3.5-3-5.8-3h-0.6c-3.9,0-7,3.2-7,7
		c0,1.4,0.4,2.8,1.2,4l16.3,23.7h-3.6v3.5h3.5v6.9h1.7c2.9,0,5.2,2.3,5.2,5.2s-2.3,5.2-5.2,5.2h-1.7v39.9c0,6.7,5.4,12.1,12.1,12.1
		h48.5c6.7,0,12.1-5.4,12.1-12.1v-39.9h-1.7c-2.9,0-5.2-2.3-5.2-5.2s2.3-5.2,5.2-5.2h1.7v-6.9h3.5v-3.5h-2.1l14.9-23.8
		C1194.3,67.1,1194.7,65.8,1194.7,64.5L1194.7,64.5z"/>
	<polygon id="XMLID_500_" points="1166.9,140.6 1170.4,140.6 1170.4,144.1 1166.9,144.1 1166.9,140.6 	"/>
	<polygon id="XMLID_499_" points="1160,140.6 1163.5,140.6 1163.5,144.1 1160,144.1 1160,140.6 	"/>
	<polygon id="XMLID_498_" points="1153.1,140.6 1156.5,140.6 1156.5,144.1 1153.1,144.1 1153.1,140.6 	"/>
</g>
<text id="XMLID_287_" transform="matrix(1 0 0 1 71.5796 291.1713)" class="st3 st4">TEACHING</text>
<text id="XMLID_288_" transform="matrix(1 0 0 1 621.3334 499)" class="st3 st4">LEARNING</text>
<text id="XMLID_289_" transform="matrix(1 0 0 1 1056 317)" class="st3 st4">GESPRÄCH</text>
<line id="XMLID_290_" class="st2" x1="838" y1="27" x2="838" y2="270"/>
<line id="XMLID_293_" class="st2" x1="1004" y1="270" x2="1004" y2="347"/>
<line id="XMLID_294_" class="st2" x1="1004" y1="347" x2="1004" y2="527"/>
<line id="XMLID_295_" class="st2" x1="580" y1="452" x2="1004" y2="452"/>
<g id="XMLID_296_">
	<path class="st5" d="M542.1,190.2v-13.9l20.8,13.9H542.1z M542.1,190.2"/>
	<path class="st5" d="M542.3,176.6v13.5h20.2L542.3,176.6z M542.3,176.6"/>
	<path class="st5" d="M560.3,165.4H585v16.5L560.3,165.4z M560.3,165.4"/>
	<path class="st5" d="M584.9,165.5h-24.1l24.1,16.1V165.5z M584.9,165.5"/>
	<path class="st5" d="M542.1,209.5h20.8l-20.8,13.9V209.5z M542.1,209.5"/>
	<path class="st5" d="M542.3,209.6v13.5l20.2-13.5H542.3z M542.3,209.6"/>
	<path class="st5" d="M604.3,165.4H629l-24.7,16.5V165.4z M604.3,165.4"/>
	<path class="st5" d="M628.5,165.5h-24.1v16.1L628.5,165.5z M628.5,165.5"/>
	<path class="st5" d="M626.4,190.2l20.8-13.9v13.9H626.4z M626.4,190.2"/>
	<path class="st5" d="M647,190.1v-13.5l-20.2,13.5H647z M647,190.1"/>
	<path class="st5" d="M560.3,234.3l24.7-16.5v16.5H560.3z M560.3,234.3"/>
	<path class="st5" d="M560.8,234.2h24.1v-16.1L560.8,234.2z M560.8,234.2"/>
	<path class="st5" d="M626.4,209.5h20.8v13.9L626.4,209.5z M626.4,209.5"/>
	<path class="st5" d="M647,223.1v-13.5h-20.2L647,223.1z M647,223.1"/>
	<path class="st5" d="M604.3,234.3v-16.5l24.7,16.5H604.3z M604.3,234.3"/>
	<path class="st5" d="M604.4,234.2h24.1l-24.1-16.1V234.2z M604.4,234.2"/>
	<path class="st0" d="M628.5,165.5l-24.1,16.1v-16.1h-2.7v27.3H647v-2.7h-20.2l20.2-13.5v-9.6l-34.5,23h-8.1v-6.7l26.7-17.8H628.5z
		 M628.5,165.5"/>
	<path class="st0" d="M560.8,234.2l24.1-16.1v16.1h2.7v-27.3h-45.3v2.7h20.2l-20.2,13.5v9.6l34.5-23h8.1v6.7l-26.7,17.8H560.8z
		 M560.8,234.2"/>
	<path class="st6" d="M546,234.3l37.3-24.9h1.8v2.6l-33.3,22.3H546z M546,234.3"/>
	<path class="st6" d="M583.3,209.6l-36.8,24.6h5.2l33.3-22.2v-2.4H583.3z M583.3,209.6"/>
	<path class="st6" d="M571.4,190.2l-29.3-19.6v-3.8l35.1,23.4H571.4z M571.4,190.2"/>
	<path class="st6" d="M542.3,167.1v3.5l29.2,19.5h5.3L542.3,167.1z M542.3,167.1"/>
	<path class="st6" d="M612.1,209.5h5.5l29.6,19.8v3.6L612.1,209.5z M612.1,209.5"/>
	<path class="st6" d="M647,232.6v-3.3l-29.5-19.7h-5L647,232.6z M647,232.6"/>
	<path class="st6" d="M604.3,190.2v-2.6l33.3-22.3h5.7l-37.3,24.9H604.3z M604.3,190.2"/>
	<g>
		<defs>
			<rect id="XMLID_521_" x="538.7" y="161.8" width="111.9" height="76.2"/>
		</defs>
		<clipPath id="XMLID_840_">
			<use xlink:href="#XMLID_521_"  style="overflow:visible;"/>
		</clipPath>
		<path class="st7" d="M606,190.1l36.8-24.6h-5.2l-33.3,22.2v2.4H606z M606,190.1"/>
		<path class="st8" d="M650.6,236v-72.3c0,0,0,0,0,0c0,0,0-0.1,0-0.1c0,0,0,0,0-0.1c0,0,0-0.1,0-0.1c0,0,0-0.1,0-0.1
			c0,0,0-0.1,0-0.1c0,0,0-0.1,0-0.1c0,0,0,0,0-0.1c0,0,0-0.1-0.1-0.1c0,0,0,0,0,0c0,0-0.1-0.1-0.1-0.1c0,0,0,0,0,0c0,0,0,0,0,0
			c0-0.1-0.1-0.1-0.1-0.1c0,0,0,0-0.1-0.1c0,0,0,0-0.1-0.1c0,0-0.1-0.1-0.1-0.1c0,0,0,0,0,0c0,0-0.1,0-0.1-0.1c0,0,0,0,0,0
			c0,0-0.1,0-0.1-0.1c0,0,0,0-0.1,0c0,0,0,0-0.1,0c0,0-0.1,0-0.1,0c0,0,0,0-0.1,0c0,0-0.1,0-0.1,0c0,0,0,0,0,0c0,0-0.1,0-0.1,0
			c0,0,0,0-0.1,0c0,0-0.1,0-0.1,0c-0.1,0-0.1,0-0.2,0c0,0,0,0,0,0H540.5c-0.1,0-0.1,0-0.2,0c0,0-0.1,0-0.1,0c0,0,0,0,0,0
			c0,0-0.1,0-0.1,0c0,0,0,0,0,0c0,0-0.1,0-0.1,0c0,0,0,0,0,0c0,0-0.1,0-0.1,0c0,0,0,0-0.1,0c0,0-0.1,0-0.1,0c0,0-0.1,0-0.1,0
			c0,0,0,0-0.1,0c0,0-0.1,0-0.1,0.1c0,0,0,0,0,0c0,0-0.1,0.1-0.1,0.1c0,0-0.1,0.1-0.1,0.1c0,0,0,0,0,0c0,0-0.1,0.1-0.1,0.1
			c0,0,0,0,0,0c0,0,0,0,0,0c0,0-0.1,0.1-0.1,0.1c0,0,0,0,0,0.1c0,0,0,0.1-0.1,0.1c0,0,0,0,0,0.1c0,0,0,0.1,0,0.1c0,0,0,0.1,0,0.1
			c0,0,0,0.1,0,0.1c0,0,0,0.1,0,0.1c0,0,0,0,0,0.1c0,0,0,0.1,0,0.1c0,0,0,0,0,0V236c0,0,0,0,0,0c0,0,0,0.1,0,0.1c0,0,0,0,0,0.1
			c0,0,0,0.1,0,0.1c0,0,0,0.1,0,0.1c0,0,0,0.1,0,0.1c0,0,0,0.1,0,0.1c0,0,0,0,0,0.1c0,0,0,0.1,0.1,0.1c0,0,0,0,0,0
			c0,0,0.1,0.1,0.1,0.1c0,0,0,0,0,0c0,0,0,0,0,0c0,0.1,0.1,0.1,0.1,0.2c0,0,0,0,0,0c0,0,0.1,0.1,0.1,0.1c0,0,0,0,0.1,0.1
			c0,0,0.1,0.1,0.1,0.1c0,0,0,0,0,0c0.1,0,0.1,0.1,0.2,0.1c0,0,0,0,0,0c0,0,0.1,0,0.1,0.1c0,0,0,0,0.1,0c0,0,0.1,0,0.1,0
			c0,0,0,0,0.1,0c0,0,0.1,0,0.2,0c0,0,0,0,0.1,0c0.1,0,0.1,0,0.2,0c0,0,0,0,0,0h108.3c0,0,0,0,0,0c0,0,0,0,0,0c0.1,0,0.1,0,0.2,0
			c0,0,0,0,0.1,0c0.1,0,0.1,0,0.2,0c0,0,0,0,0.1,0c0,0,0.1,0,0.1,0c0,0,0,0,0.1,0c0,0,0.1,0,0.1-0.1c0,0,0,0,0,0
			c0.1,0,0.1-0.1,0.2-0.1c0,0,0,0,0,0c0,0,0.1-0.1,0.1-0.1c0,0,0,0,0.1-0.1c0,0,0.1-0.1,0.1-0.1c0,0,0,0,0,0c0-0.1,0.1-0.1,0.1-0.2
			c0,0,0,0,0,0c0,0,0,0,0,0c0,0,0.1-0.1,0.1-0.1c0,0,0,0,0,0c0,0,0-0.1,0.1-0.1c0,0,0,0,0-0.1c0,0,0-0.1,0-0.1c0,0,0-0.1,0-0.1
			c0,0,0-0.1,0-0.1c0,0,0-0.1,0-0.1c0,0,0,0,0-0.1C650.6,236.1,650.6,236.1,650.6,236C650.6,236,650.6,236,650.6,236L650.6,236
			C650.6,236,650.6,236,650.6,236L650.6,236z M604.4,187.7l33.3-22.2h5.2L606,190.1h6.5l34.5-23v25.7h-45.3v-27.3h29.5l-26.7,17.8
			V187.7z M587.6,192.8h-45.3v-17.9l22.7,15.2h6.5l-29.2-19.5v-3.5l34.5,23h6.5l-36.8-24.6h41.2V192.8z M584.9,212l-33.3,22.2h-5.2
			l36.8-24.6h-6.5l-34.5,23v-25.7h45.3v27.3h-29.4l26.7-17.8V212z M601.7,206.9h32.7c1,0,1.8-0.8,1.8-1.8c0-1-0.8-1.8-1.8-1.8h-34.5
			c-1,0-1.8,0.8-1.8,1.8v29.1h-6.9v-29.1c0-1-0.8-1.8-1.8-1.8h-47.1v-6.9h47.1c1,0,1.8-0.8,1.8-1.8v-29.1h6.9v29.1
			c0,1,0.8,1.8,1.8,1.8H647v6.9h-5.4c-1,0-1.8,0.8-1.8,1.8c0,1,0.8,1.8,1.8,1.8h5.4V225l-23-15.4h-6.5l29.5,19.7v3.3l-34.5-23H606
			l36.8,24.6h-41.2V206.9z M601.7,206.9"/>
	</g>
	<path class="st0" d="M584.9,181.6l-24.1-16.1h-14.3l36.8,24.6H565l-22.7-15.2v1.7l20.2,13.5h-20.2v2.7h45.3v-27.3h-2.7V181.6z
		 M584.9,181.6"/>
	<path class="st0" d="M604.4,218.1l24.1,16.1h14.3L606,209.6h18l23,15.4v-1.9l-20.2-13.5H647v-2.7h-5.4c-1,0-1.8-0.8-1.8-1.8h-3.6
		c0,1-0.8,1.8-1.8,1.8h-32.7v27.3h2.7V218.1z M604.4,218.1"/>
	<path class="st6" d="M591.1,234.3v-29.2c0-0.9-0.7-1.7-1.7-1.7h-47.3v-7.2h47.3c0.9,0,1.7-0.7,1.7-1.7v-29.2h7.1v29.2
		c0,0.9,0.7,1.7,1.7,1.7h47.3v7.2h-5.6c-0.9,0-1.7,0.7-1.7,1.7v0.1H636v-0.1c0-0.9-0.7-1.7-1.7-1.7h-34.5c-0.9,0-1.7,0.7-1.7,1.7
		v29.2H591.1z M591.1,234.3"/>
	<path class="st6" d="M639.8,205.1c0-1,0.8-1.8,1.8-1.8h5.4v-6.9h-47.1c-1,0-1.8-0.8-1.8-1.8v-29.1h-6.9v29.1c0,1-0.8,1.8-1.8,1.8
		h-47.1v6.9h47.1c1,0,1.8,0.8,1.8,1.8v29.1h6.9v-29.1c0-1,0.8-1.8,1.8-1.8h34.5c1,0,1.8,0.8,1.8,1.8H639.8z M639.8,205.1"/>
</g>
<g id="XMLID_297_">
	<path class="st9" d="M328.4,435.3v-0.1c0-0.9-0.7-1.7-1.7-1.7h-85.2v-32.8h105.2v32.8h-12.8c-0.9,0-1.7,0.7-1.7,1.7v0.1H328.4z
		 M328.4,435.3"/>
	<path class="st9" d="M333.9,433.4h12.7v-32.6H241.6v32.6h85c1,0,1.8,0.8,1.8,1.8h3.6C332.1,434.2,332.9,433.4,333.9,433.4
		L333.9,433.4z M333.9,433.4"/>
	<rect id="XMLID_612_" x="241.5" y="382.6" class="st6" width="105.2" height="14.8"/>
	<rect id="XMLID_611_" x="241.6" y="382.7" class="st6" width="104.9" height="14.5"/>
	<path class="st6" d="M241.5,451.6v-14.8h85.2c0.9,0,1.7-0.7,1.7-1.7V435h3.9v0.1c0,0.9,0.7,1.7,1.7,1.7h12.8v14.8H241.5z
		 M241.5,451.6"/>
	<g>
		<defs>
			<rect id="XMLID_602_" x="238" y="379" width="112.2" height="76.2"/>
		</defs>
		<clipPath id="XMLID_841_">
			<use xlink:href="#XMLID_602_"  style="overflow:visible;"/>
		</clipPath>
		<path class="st10" d="M333.9,437c-1,0-1.8-0.8-1.8-1.8h-3.6c0,1-0.8,1.8-1.8,1.8h-85v14.5h104.9V437H333.9z M333.9,437"/>
		<path class="st11" d="M348.4,379.1H239.8c-1,0-1.8,0.8-1.8,1.8v72.4c0,1,0.8,1.8,1.8,1.8h108.6c1,0,1.8-0.8,1.8-1.8v-72.4
			C350.2,379.9,349.4,379.1,348.4,379.1L348.4,379.1z M346.6,382.7v14.5H241.6v-14.5H346.6z M241.6,451.5V437h85
			c1,0,1.8-0.8,1.8-1.8c0-1-0.8-1.8-1.8-1.8h-85v-32.6h104.9v32.6h-12.7c-1,0-1.8,0.8-1.8,1.8s0.8,1.8,1.8,1.8h12.7v14.5H241.6z
			 M241.6,451.5"/>
	</g>
</g>
<g id="XMLID_298_">
	<path class="st12" d="M983.7,318.3v-0.1c0-0.9-0.7-1.7-1.7-1.7h-85.2v-20.8h20.3l0,0.1c0.1,5.4,4.5,8.8,8.7,10
		c0.2,0,0.3,0.1,0.5,0.1c0.2,0,0.3,0,0.5-0.1c4.2-1.3,8.6-4.6,8.7-10l0-0.1h66.6v20.8h-12.8c-0.9,0-1.7,0.7-1.7,1.7v0.1H983.7z
		 M983.7,318.3"/>
	<path class="st12" d="M989.3,316.3h12.7v-20.5h-66.3c-0.1,5.5-4.6,8.9-8.8,10.2c-0.2,0.1-0.4,0.1-0.5,0.1c-0.2,0-0.4,0-0.5-0.1
		c-4.2-1.3-8.7-4.7-8.8-10.2h-20v20.5h85c1,0,1.8,0.8,1.8,1.8h3.6C987.5,317.2,988.3,316.3,989.3,316.3L989.3,316.3z M989.3,316.3"
		/>
	<path class="st6" d="M896.9,340.6v-20.8h85.2c0.9,0,1.7-0.7,1.7-1.7V318h3.9v0.1c0,0.9,0.7,1.7,1.7,1.7h12.8v20.8H896.9z
		 M896.9,340.6"/>
	<path class="st6" d="M989.3,320c-1,0-1.8-0.8-1.8-1.8h-3.6c0,1-0.8,1.8-1.8,1.8h-85v20.5H1002V320H989.3z M989.3,320"/>
	<g>
		<defs>
			<rect id="XMLID_622_" x="893.4" y="268" width="112.2" height="76.2"/>
		</defs>
		<clipPath id="XMLID_842_">
			<use xlink:href="#XMLID_622_"  style="overflow:visible;"/>
		</clipPath>
		<path class="st13" d="M917.1,292.2v-8.4c0-1,0.8-1.8,1.8-1.8h15c1,0,1.8,0.8,1.8,1.8v8.4h66.3v-20.5H897v20.5H917.1z M917.1,292.2
			"/>
		<path class="st14" d="M1003.8,268.1H895.2c-1,0-1.8,0.8-1.8,1.8v72.4c0,1,0.8,1.8,1.8,1.8h108.6c1,0,1.8-0.8,1.8-1.8v-72.4
			C1005.6,268.9,1004.8,268.1,1003.8,268.1L1003.8,268.1z M1002,271.7v20.5h-66.3v-8.4c0-1-0.8-1.8-1.8-1.8h-15
			c-1,0-1.8,0.8-1.8,1.8v8.4h-20v-20.5H1002z M932.1,294v1.7c0,4.1-3.8,6-5.7,6.6c-1.8-0.7-5.7-2.5-5.7-6.6v-10.1h11.4V294z
			 M897,340.5V320h85c1,0,1.8-0.8,1.8-1.8c0-1-0.8-1.8-1.8-1.8h-85v-20.5h20c0.1,5.5,4.6,8.9,8.8,10.2c0.2,0.1,0.4,0.1,0.5,0.1
			c0.2,0,0.4,0,0.5-0.1c4.2-1.3,8.7-4.7,8.8-10.2h66.3v20.5h-12.7c-1,0-1.8,0.8-1.8,1.8c0,1,0.8,1.8,1.8,1.8h12.7v20.5H897z
			 M897,340.5"/>
	</g>
	<rect id="XMLID_621_" x="920.5" y="285.4" class="st12" width="11.6" height="8.7"/>
	<rect id="XMLID_620_" x="920.7" y="285.6" class="st12" width="11.4" height="8.4"/>
	<path class="st0" d="M920.7,295.7c0,4.1,3.8,6,5.7,6.6c1.8-0.7,5.7-2.5,5.7-6.6V294h-11.4V295.7z M920.7,295.7"/>
</g>
<g id="XMLID_299_">
	<path class="st5" d="M875.3,318.3v-0.1c0-0.9-0.7-1.7-1.7-1.7h-85.2v-20.8h105.2v20.8h-12.8c-0.9,0-1.7,0.7-1.7,1.7v0.1H875.3z
		 M875.3,318.3"/>
	<path class="st5" d="M880.8,316.3h12.7v-20.5H788.6v20.5h85c1,0,1.8,0.8,1.8,1.8h3.6C879,317.2,879.8,316.3,880.8,316.3
		L880.8,316.3z M880.8,316.3"/>
	<rect id="XMLID_648_" x="788.6" y="271.7" class="st0" width="104.9" height="20.5"/>
	<path class="st6" d="M788.4,340.6v-20.8h85.2c0.9,0,1.7-0.7,1.7-1.7V318h3.9v0.1c0,0.9,0.7,1.7,1.7,1.7h12.8v20.8H788.4z
		 M788.4,340.6"/>
	<g>
		<defs>
			<rect id="XMLID_639_" x="785" y="268" width="112.2" height="76.2"/>
		</defs>
		<clipPath id="XMLID_843_">
			<use xlink:href="#XMLID_639_"  style="overflow:visible;"/>
		</clipPath>
		<path class="st15" d="M880.8,320c-1,0-1.8-0.8-1.8-1.8h-3.6c0,1-0.8,1.8-1.8,1.8h-85v20.5h104.9V320H880.8z M880.8,320"/>
		<path class="st16" d="M895.3,268.1H786.7c-1,0-1.8,0.8-1.8,1.8v72.4c0,1,0.8,1.8,1.8,1.8h108.6c1,0,1.8-0.8,1.8-1.8v-72.4
			C897.1,268.9,896.3,268.1,895.3,268.1L895.3,268.1z M893.5,271.7v20.5H788.6v-20.5H893.5z M788.6,340.5V320h85
			c1,0,1.8-0.8,1.8-1.8c0-1-0.8-1.8-1.8-1.8h-85v-20.5h104.9v20.5h-12.7c-1,0-1.8,0.8-1.8,1.8c0,1,0.8,1.8,1.8,1.8h12.7v20.5H788.6z
			 M788.6,340.5"/>
	</g>
</g>
<g id="XMLID_300_">
	<rect id="XMLID_680_" x="241.5" y="455.2" class="st6" width="29.7" height="24.9"/>
	<rect id="XMLID_679_" x="241.6" y="455.4" class="st6" width="29.4" height="24.6"/>
	<rect id="XMLID_678_" x="290.4" y="455.2" class="st6" width="56.3" height="24.9"/>
	<rect id="XMLID_677_" x="290.6" y="455.4" class="st6" width="56" height="24.6"/>
	<rect id="XMLID_676_" x="290.4" y="499.4" class="st6" width="56.3" height="24.9"/>
	<rect id="XMLID_675_" x="290.6" y="499.5" class="st6" width="56" height="24.6"/>
	<rect id="XMLID_674_" x="241.5" y="499.4" class="st6" width="29.7" height="24.9"/>
	<rect id="XMLID_673_" x="241.6" y="499.5" class="st6" width="29.4" height="24.6"/>
	<path class="st0" d="M290.6,455.4h-2.7v27.3h58.7V480h-56V455.4z M290.6,455.4"/>
	<path class="st0" d="M271,480h-29.4v2.7h5.4c1,0,1.8,0.8,1.8,1.8h3.6c0-1,0.8-1.8,1.8-1.8h19.5v-27.3H271V480z M271,480"/>
	<path class="st0" d="M271,524.1h2.7v-27.3h-32.1v2.7H271V524.1z M271,524.1"/>
	<path class="st0" d="M290.6,499.5h56v-2.7h-58.7v27.3h2.7V499.5z M290.6,499.5"/>
	<path class="st12" d="M277.2,524.3V495c0-0.9-0.7-1.7-1.7-1.7h-34.1v-7.2h5.6c0.9,0,1.7-0.7,1.7-1.7v-0.1h3.9v0.1
		c0,0.9,0.7,1.7,1.7,1.7h21.3c0.9,0,1.7-0.7,1.7-1.7v-29.3h7.2v29.3c0,0.9,0.7,1.7,1.7,1.7h60.7v7.2h-60.7c-0.9,0-1.7,0.7-1.7,1.7
		v29.3H277.2z M277.2,524.3"/>
	<g>
		<defs>
			<rect id="XMLID_654_" x="238" y="451.7" width="112.2" height="76.2"/>
		</defs>
		<clipPath id="XMLID_844_">
			<use xlink:href="#XMLID_654_"  style="overflow:visible;"/>
		</clipPath>
		<path class="st17" d="M247.1,486.3h-5.4v6.9h33.9c1,0,1.8,0.8,1.8,1.8v29.1h6.9V495c0-1,0.8-1.8,1.8-1.8h60.5v-6.9h-60.5
			c-1,0-1.8-0.8-1.8-1.8v-29.1h-6.9v29.1c0,1-0.8,1.8-1.8,1.8h-21.3c-1,0-1.8-0.8-1.8-1.8h-3.6C248.9,485.5,248.1,486.3,247.1,486.3
			L247.1,486.3z M247.1,486.3"/>
		<path class="st18" d="M348.4,451.8H239.8c-1,0-1.8,0.8-1.8,1.8V526c0,1,0.8,1.8,1.8,1.8h108.6c1,0,1.8-0.8,1.8-1.8v-72.4
			C350.2,452.6,349.4,451.8,348.4,451.8L348.4,451.8z M273.8,482.7h-19.5c-1,0-1.8,0.8-1.8,1.8c0,1,0.8,1.8,1.8,1.8h21.3
			c1,0,1.8-0.8,1.8-1.8v-29.1h6.9v29.1c0,1,0.8,1.8,1.8,1.8h60.5v6.9h-60.5c-1,0-1.8,0.8-1.8,1.8v29.1h-6.9V495c0-1-0.8-1.8-1.8-1.8
			h-33.9v-6.9h5.4c1,0,1.8-0.8,1.8-1.8c0-1-0.8-1.8-1.8-1.8h-5.4v-27.3h32.1V482.7z M346.6,480v2.7h-58.7v-27.3h58.7V480z
			 M241.6,499.5v-2.7h32.1v27.3h-32.1V499.5z M287.9,496.8h58.7v27.3h-58.7V496.8z M287.9,496.8"/>
	</g>
</g>
<g id="XMLID_301_">
	<path class="st0" d="M310.4,322.9v-12.7h-32.6V379h32.6v-48.9c0-1,0.8-1.8,1.8-1.8v-3.6C311.2,324.7,310.4,323.9,310.4,322.9
		L310.4,322.9z M310.4,322.9"/>
	<rect id="XMLID_692_" x="241.5" y="310.1" class="st19" width="32.9" height="69"/>
	<rect id="XMLID_691_" x="241.6" y="310.3" class="st19" width="32.6" height="68.8"/>
	<path class="st6" d="M313.9,379.2v-49c0-0.9-0.7-1.7-1.7-1.7h-0.1v-3.9h0.1c0.9,0,1.7-0.7,1.7-1.7v-12.8h32.8v69H313.9z
		 M313.9,379.2"/>
	<g>
		<defs>
			<rect id="XMLID_682_" x="238" y="306.6" width="112.2" height="76.2"/>
		</defs>
		<clipPath id="XMLID_845_">
			<use xlink:href="#XMLID_682_"  style="overflow:visible;"/>
		</clipPath>
		<path class="st20" d="M314,322.9c0,1-0.8,1.8-1.8,1.8v3.6c1,0,1.8,0.8,1.8,1.8V379h32.6v-68.8H314V322.9z M314,322.9"/>
		<path class="st21" d="M348.4,306.6H239.8c-1,0-1.8,0.8-1.8,1.8v72.4c0,1,0.8,1.8,1.8,1.8h108.6c1,0,1.8-0.8,1.8-1.8v-72.4
			C350.2,307.5,349.4,306.6,348.4,306.6L348.4,306.6z M346.6,379H314v-48.9c0-1-0.8-1.8-1.8-1.8c-1,0-1.8,0.8-1.8,1.8V379h-32.6
			v-68.8h32.6v12.7c0,1,0.8,1.8,1.8,1.8c1,0,1.8-0.8,1.8-1.8v-12.7h32.6V379z M241.6,310.3h32.6V379h-32.6V310.3z M241.6,310.3"/>
	</g>
</g>
<g id="XMLID_302_">
	<path class="st6" d="M520.5,212.1v-0.1c0-0.9-0.7-1.7-1.7-1.7h-85v-20.8h105.1v20.8H526c-0.9,0-1.7,0.7-1.7,1.7v0.1H520.5z
		 M520.5,212.1"/>
	<path class="st6" d="M526,210.1h12.6v-20.5H433.9v20.5h84.9c1,0,1.8,0.8,1.8,1.8h3.6C524.2,210.9,525,210.1,526,210.1L526,210.1z
		 M526,210.1"/>
	<path class="st9" d="M433.8,234.4v-20.8h85c0.9,0,1.7-0.7,1.7-1.7v-0.1h3.9v0.1c0,0.9,0.7,1.7,1.7,1.7h12.8v20.8H433.8z
		 M433.8,234.4"/>
	<path class="st9" d="M526,213.7c-1,0-1.8-0.8-1.8-1.8h-3.6c0,1-0.8,1.8-1.8,1.8h-84.9v20.5h104.8v-20.5H526z M526,213.7"/>
	<rect id="XMLID_702_" x="433.8" y="165.4" class="st22" width="105.1" height="20.8"/>
	<g>
		<defs>
			<rect id="XMLID_696_" x="430.3" y="161.9" width="112" height="76.1"/>
		</defs>
		<clipPath id="XMLID_846_">
			<use xlink:href="#XMLID_696_"  style="overflow:visible;"/>
		</clipPath>
		<rect id="XMLID_701_" x="433.9" y="165.6" class="st23" width="104.8" height="20.5"/>
		<path class="st24" d="M540.5,162H432.1c-1,0-1.8,0.8-1.8,1.8V236c0,1,0.8,1.8,1.8,1.8h108.4c1,0,1.8-0.8,1.8-1.8v-72.3
			C542.3,162.8,541.5,162,540.5,162L540.5,162z M538.7,165.6V186H433.9v-20.5H538.7z M433.9,234.2v-20.5h84.9c1,0,1.8-0.8,1.8-1.8
			c0-1-0.8-1.8-1.8-1.8h-84.9v-20.5h104.8v20.5H526c-1,0-1.8,0.8-1.8,1.8c0,1,0.8,1.8,1.8,1.8h12.6v20.5H433.9z M433.9,234.2"/>
	</g>
</g>
<g id="XMLID_303_">
	<path class="st0" d="M310.4,250.3v-12.7h-32.6v68.8h32.6v-48.9c0-1,0.8-1.8,1.8-1.8v-3.6C311.2,252.1,310.4,251.3,310.4,250.3
		L310.4,250.3z M310.4,250.3"/>
	<rect id="XMLID_722_" x="241.5" y="237.5" class="st12" width="32.9" height="69"/>
	<rect id="XMLID_721_" x="241.6" y="237.6" class="st12" width="32.6" height="68.8"/>
	<path class="st6" d="M313.9,306.5v-49c0-0.9-0.7-1.7-1.7-1.7h-0.1v-3.9h0.1c0.9,0,1.7-0.7,1.7-1.7v-12.8h32.8v69H313.9z
		 M313.9,306.5"/>
	<g>
		<defs>
			<rect id="XMLID_712_" x="238" y="233.9" width="112.2" height="76.2"/>
		</defs>
		<clipPath id="XMLID_847_">
			<use xlink:href="#XMLID_712_"  style="overflow:visible;"/>
		</clipPath>
		<path class="st25" d="M314,250.3c0,1-0.8,1.8-1.8,1.8v3.6c1,0,1.8,0.8,1.8,1.8v48.9h32.6v-68.8H314V250.3z M314,250.3"/>
		<path class="st26" d="M348.4,234H239.8c-1,0-1.8,0.8-1.8,1.8v72.4c0,1,0.8,1.8,1.8,1.8h108.6c1,0,1.8-0.8,1.8-1.8v-72.4
			C350.2,234.8,349.4,234,348.4,234L348.4,234z M346.6,306.4H314v-48.9c0-1-0.8-1.8-1.8-1.8c-1,0-1.8,0.8-1.8,1.8v48.9h-32.6v-68.8
			h32.6v12.7c0,1,0.8,1.8,1.8,1.8c1,0,1.8-0.8,1.8-1.8v-12.7h32.6V306.4z M241.6,237.6h32.6v68.8h-32.6V237.6z M241.6,237.6"/>
	</g>
</g>
<g id="XMLID_304_">
	<path d="M87.6,421.2h92.7v-36.4H87.6V421.2L87.6,421.2z M181.9,424.5h-96c-1,0-1.7-0.7-1.7-1.7v-39.7c0-1,0.7-1.7,1.7-1.7h96
		c1,0,1.7,0.7,1.7,1.7v39.7C183.6,423.9,182.9,424.5,181.9,424.5L181.9,424.5z"/>
	<path d="M94.2,421.2h6.6v-23.2h-6.6V421.2L94.2,421.2z M102.5,424.5h-9.9c-1,0-1.7-0.7-1.7-1.7v-26.5c0-1,0.7-1.7,1.7-1.7h9.9
		c1,0,1.7,0.7,1.7,1.7v26.5C104.1,423.9,103.5,424.5,102.5,424.5L102.5,424.5z"/>
	<path d="M124,421.2h6.6v-29.8H124V421.2L124,421.2z M132.3,424.5h-9.9c-1,0-1.7-0.7-1.7-1.7v-33.1c0-1,0.7-1.7,1.7-1.7h9.9
		c1,0,1.7,0.7,1.7,1.7v33.1C133.9,423.9,133.3,424.5,132.3,424.5L132.3,424.5z"/>
	<path d="M104.1,421.2h6.6v-19.9h-6.6V421.2L104.1,421.2z M112.4,424.5h-9.9c-1,0-1.7-0.7-1.7-1.7v-23.2c0-1,0.7-1.7,1.7-1.7h9.9
		c1,0,1.7,0.7,1.7,1.7v23.2C114,423.9,113.4,424.5,112.4,424.5L112.4,424.5z"/>
	<path d="M114,421.2h6.6v-23.2H114V421.2L114,421.2z M122.3,424.5h-9.9c-1,0-1.7-0.7-1.7-1.7v-26.5c0-1,0.7-1.7,1.7-1.7h9.9
		c1,0,1.7,0.7,1.7,1.7v26.5C124,423.9,123.3,424.5,122.3,424.5L122.3,424.5z"/>
	<path d="M87.6,461h92.7v-36.4H87.6V461L87.6,461z M181.9,464.3h-96c-1,0-1.7-0.7-1.7-1.7v-39.7c0-1,0.7-1.7,1.7-1.7h96
		c1,0,1.7,0.7,1.7,1.7v39.7C183.6,463.6,182.9,464.3,181.9,464.3L181.9,464.3z"/>
	<path d="M87.6,477.5H124v-13.2H87.6V477.5L87.6,477.5z M125.6,480.8H85.9c-1,0-1.7-0.7-1.7-1.7v-16.6c0-1,0.7-1.7,1.7-1.7h39.7
		c1,0,1.7,0.7,1.7,1.7v16.6C127.3,480.2,126.6,480.8,125.6,480.8L125.6,480.8z"/>
	<path d="M143.9,477.5h36.4v-13.2h-36.4V477.5L143.9,477.5z M181.9,480.8h-39.7c-1,0-1.7-0.7-1.7-1.7v-16.6c0-1,0.7-1.7,1.7-1.7
		h39.7c1,0,1.7,0.7,1.7,1.7v16.6C183.6,480.2,182.9,480.8,181.9,480.8L181.9,480.8z"/>
	<path id="XMLID_757_" d="M107.4,470.9c0,1-0.7,1.7-1.7,1.7c-1,0-1.7-0.7-1.7-1.7s0.7-1.7,1.7-1.7
		C106.8,469.3,107.4,470.1,107.4,470.9"/>
	<path id="XMLID_756_" d="M163.7,470.9c0,1-0.7,1.7-1.7,1.7c-1,0-1.7-0.7-1.7-1.7s0.7-1.7,1.7-1.7
		C163.1,469.3,163.7,470.1,163.7,470.9"/>
	<path d="M127.3,477.5h13.2v-13.2h-13.2V477.5L127.3,477.5z M142.2,480.8h-16.6c-1,0-1.7-0.7-1.7-1.7v-16.6c0-1,0.7-1.7,1.7-1.7
		h16.6c1,0,1.7,0.7,1.7,1.7v16.6C143.9,480.2,143.2,480.8,142.2,480.8L142.2,480.8z"/>
	<path d="M94.2,401.4h6.6v-3.3h-6.6V401.4L94.2,401.4z M102.5,404.7h-9.9c-1,0-1.7-0.7-1.7-1.7v-6.6c0-1,0.7-1.7,1.7-1.7h9.9
		c1,0,1.7,0.7,1.7,1.7v6.6C104.1,404,103.5,404.7,102.5,404.7L102.5,404.7z"/>
	<path d="M104.1,404.7h6.6v-3.3h-6.6V404.7L104.1,404.7z M112.4,408h-9.9c-1,0-1.7-0.7-1.7-1.7v-6.6c0-1,0.7-1.7,1.7-1.7h9.9
		c1,0,1.7,0.7,1.7,1.7v6.6C114,407.3,113.4,408,112.4,408L112.4,408z"/>
	<path d="M114,401.4h6.6v-3.3H114V401.4L114,401.4z M122.3,404.7h-9.9c-1,0-1.7-0.7-1.7-1.7v-6.6c0-1,0.7-1.7,1.7-1.7h9.9
		c1,0,1.7,0.7,1.7,1.7v6.6C124,404,123.3,404.7,122.3,404.7L122.3,404.7z"/>
	<path d="M124,394.7h6.6v-3.3H124V394.7L124,394.7z M132.3,398.1h-9.9c-1,0-1.7-0.7-1.7-1.7v-6.6c0-1,0.7-1.7,1.7-1.7h9.9
		c1,0,1.7,0.7,1.7,1.7v6.6C133.9,397.4,133.3,398.1,132.3,398.1L132.3,398.1z"/>
	<path d="M137.4,399.9l10.6,20.9l5.5-2.8l-9.9-20.9L137.4,399.9L137.4,399.9z M147.2,424.5c-0.7,0-1.2-0.3-1.5-0.8l-12.1-23.8
		c-0.2-0.3-0.2-0.8-0.2-1.3c0.2-0.5,0.5-0.8,0.8-1l8.9-4.3c0.3-0.2,0.8-0.2,1.3,0c0.5,0.2,0.8,0.5,1,0.8l11.4,23.8
		c0.3,0.8,0,1.8-0.8,2.2l-8.3,4.1C147.7,424.5,147.5,424.5,147.2,424.5L147.2,424.5z"/>
	<path d="M134.4,393.9l1.5,3l6-2.8l-1.5-3L134.4,393.9L134.4,393.9z M135.1,400.7c-0.7,0-1.2-0.3-1.5-1l-2.8-6
		c-0.3-0.8,0-1.8,0.8-2.2l8.9-4.3c0.3-0.2,0.8-0.2,1.3,0c0.3,0.2,0.7,0.3,0.8,0.8l2.8,6c0.3,0.8,0,1.8-0.8,2.2l-8.9,4.3
		C135.6,400.7,135.4,400.7,135.1,400.7L135.1,400.7z"/>
	<path d="M97.5,461h9.9v-26.5h-9.9V461L97.5,461z M109.1,464.3H95.8c-1,0-1.7-0.7-1.7-1.7v-29.8c0-1,0.7-1.7,1.7-1.7h13.2
		c1,0,1.7,0.7,1.7,1.7v29.8C110.7,463.6,110.1,464.3,109.1,464.3L109.1,464.3z"/>
	<path d="M97.5,437.8h9.9v-3.3h-9.9V437.8L97.5,437.8z M109.1,441.1H95.8c-1,0-1.7-0.7-1.7-1.7v-6.6c0-1,0.7-1.7,1.7-1.7h13.2
		c1,0,1.7,0.7,1.7,1.7v6.6C110.7,440.4,110.1,441.1,109.1,441.1L109.1,441.1z"/>
	<path d="M110.7,461h9.9v-29.8h-9.9V461L110.7,461z M122.3,464.3h-13.2c-1,0-1.7-0.7-1.7-1.7v-33.1c0-1,0.7-1.7,1.7-1.7h13.2
		c1,0,1.7,0.7,1.7,1.7v33.1C124,463.6,123.3,464.3,122.3,464.3L122.3,464.3z"/>
	<path d="M110.7,434.5h9.9v-3.3h-9.9V434.5L110.7,434.5z M122.3,437.8h-13.2c-1,0-1.7-0.7-1.7-1.7v-6.6c0-1,0.7-1.7,1.7-1.7h13.2
		c1,0,1.7,0.7,1.7,1.7v6.6C124,437.1,123.3,437.8,122.3,437.8L122.3,437.8z"/>
	<path id="XMLID_733_" d="M102.5,457.7c-1,0-1.7-0.7-1.7-1.7v-9.9c0-1,0.7-1.7,1.7-1.7s1.7,0.7,1.7,1.7v9.9
		C104.1,457,103.5,457.7,102.5,457.7L102.5,457.7z"/>
	<path id="XMLID_732_" d="M115.7,457.7c-1,0-1.7-0.7-1.7-1.7v-13.2c0-1,0.7-1.7,1.7-1.7s1.7,0.7,1.7,1.7V456
		C117.4,457,116.7,457.7,115.7,457.7L115.7,457.7z"/>
	<path d="M133.3,461h32.1c1.8,0,3.3-1.5,3.3-3.3c0-1.8-1.5-3.3-3.3-3.3h-32.1C133.9,456.5,133.9,458.8,133.3,461L133.3,461z
		 M165.4,464.3h-34.8c-0.7,0-1.2-0.3-1.5-0.8c-0.3-0.5-0.3-1.2,0-1.7c1.7-2.5,1.7-5.6,0-8.1c-0.3-0.5-0.3-1.2,0-1.7
		c0.3-0.5,0.8-0.8,1.5-0.8h34.8c3.6,0,6.6,3,6.6,6.6C172,461.5,169,464.3,165.4,464.3L165.4,464.3z"/>
	<path d="M138.2,451h32.1c1.8,0,3.3-1.5,3.3-3.3c0-1.8-1.5-3.3-3.3-3.3h-32.1C138.9,446.6,138.9,448.9,138.2,451L138.2,451z
		 M170.3,454.3h-34.8c-0.7,0-1.2-0.3-1.5-0.8c-0.3-0.5-0.3-1.2,0-1.7c1.7-2.5,1.7-5.6,0-8.1c-0.3-0.5-0.3-1.2,0-1.7
		c0.3-0.5,0.8-0.8,1.5-0.8h34.8c3.6,0,6.6,3,6.6,6.6C177,451.5,174,454.3,170.3,454.3L170.3,454.3z"/>
	<path d="M133.3,441.1h32.1c1.8,0,3.3-1.5,3.3-3.3c0-1.8-1.5-3.3-3.3-3.3h-32.1C133.9,436.6,133.9,439,133.3,441.1L133.3,441.1z
		 M165.4,444.4h-34.8c-0.7,0-1.2-0.3-1.5-0.8c-0.3-0.5-0.3-1.2,0-1.7c1.7-2.5,1.7-5.6,0-8.1c-0.3-0.5-0.3-1.2,0-1.7
		c0.3-0.5,0.8-0.8,1.5-0.8h34.8c3.6,0,6.6,3,6.6,6.6C172,441.6,169,444.4,165.4,444.4L165.4,444.4z"/>
</g>
<g id="XMLID_305_">
	<g>
		<defs>
			<polygon id="XMLID_787_" points="71.6,74.6 240.1,74.6 240.1,243.1 71.6,243.1 71.6,74.6 			"/>
		</defs>
		<defs>
			<rect id="XMLID_786_" x="71.6" y="74.6" width="168.5" height="168.5"/>
		</defs>
		<clipPath id="XMLID_848_">
			<use xlink:href="#XMLID_787_"  style="overflow:visible;"/>
		</clipPath>
		<clipPath id="XMLID_849_" class="st27">
			<use xlink:href="#XMLID_786_"  style="overflow:visible;"/>
		</clipPath>
		<path class="st28" d="M117.2,86.3c-0.6,0-1.2-0.3-1.6-0.8c-0.4-0.5-0.5-1.1-0.4-1.8c0.2-0.9,1.1-1.5,2.1-1.5h15
			c1,0,1.8,0.7,2.1,1.5c0.2,0.6,0,1.3-0.4,1.8c-0.4,0.5-1,0.8-1.6,0.8H117.2L117.2,86.3z M169.1,103.4c-0.6,0-1.2-0.3-1.6-0.8
			c-0.4-0.5-0.5-1.1-0.4-1.8c0.2-0.9,1.1-1.5,2.1-1.5h21.3c1,0,1.8,0.6,2.1,1.5c0.2,0.6,0,1.3-0.4,1.8c-0.4,0.5-1,0.8-1.6,0.8H169.1
			L169.1,103.4z M169.1,119c-0.6,0-1.2-0.3-1.6-0.8c-0.4-0.5-0.5-1.1-0.4-1.8c0.2-0.9,1.1-1.5,2.1-1.5H200c1,0,1.8,0.7,2.1,1.5
			c0.2,0.6,0,1.3-0.4,1.8c-0.4,0.5-1,0.8-1.6,0.8H169.1L169.1,119z M117.5,135.1c0.1,0.7,0.4,1.5,0.6,2.2c2.3,5.9,7.9,9.8,14.4,9.8
			h1.6l0.8-0.1l-0.6-2.4c-2.3-5.7-8.2-9.8-14.5-9.8C118.5,134.9,117.9,135,117.5,135.1L117.5,135.1z M113.4,136.4
			c-0.7,0.3-1.4,0.6-2.1,1c-4.3,2.9-6.9,7.7-6.9,12.8c0,8.5,6.9,15.4,15.4,15.4c7.3,0,13.6-5.2,15.1-12.3c0.2-0.8,0.3-1.6,0.4-2.4
			l-0.4,0.1c-0.2,0-0.5,0.1-0.7,0.1c-0.3,0-0.7,0.1-1,0.1c-0.3,0-0.5,0-0.7,0c-8.3,0-15.7-5.2-18.4-12.9L113.4,136.4L113.4,136.4z
			 M119.7,169.8c-9.4-0.1-17.4-6.9-19.1-16.1c-1.7-9.8,4.2-19.3,13.8-22.1l0.1,0c1.7-0.5,3.5-0.7,5.3-0.7c9.8,0,18,7,19.3,16.7
			c0.1,0.9,0.2,1.9,0.2,2.8c0,10.8-8.8,19.5-19.5,19.5L119.7,169.8L119.7,169.8z M76.7,189.3c-0.2,0-0.3,0-0.5-0.1
			c-0.9-0.2-1.5-1.1-1.5-2.1v-85.3c0-1.1,0.9-2.1,2.1-2.1h56.1c1,0,1.8,0.6,2.1,1.5c0.2,0.6,0,1.3-0.4,1.8c-0.4,0.5-1,0.8-1.6,0.8
			H78.8v83.3C78.8,188.4,77.8,189.3,76.7,189.3L76.7,189.3z M161.1,86.3c-5.1,0-9.2,4.1-9.2,9.2V139l2.7-1.7l9.1-5.1
			c0.3-0.2,0.7-0.3,1-0.3h46.9c5.1,0,9.2-4.1,9.2-9.2V95.6c0-5.1-4.1-9.2-9.2-9.2H161.1L161.1,86.3z M179.1,223.2
			c-0.6,0-1.2-0.3-1.6-0.8c-0.4-0.5-0.5-1.1-0.4-1.8c0.2-0.9,1.1-1.5,2.1-1.5H236V103.9h-11v18.8c0,7.4-6,13.3-13.3,13.3h-45.8
			l-0.2,0l-0.5,0.1l-0.2,0.1l-13.9,7.8c-0.3,0.2-0.7,0.3-1,0.3c-0.4,0-0.7-0.1-1-0.3c-0.6-0.4-1-1.1-1-1.8V95.6
			c0-7.4,6-13.3,13.3-13.3h50.4c7.4,0,13.3,6,13.3,13.3v4.2H238c1.1,0,2.1,0.9,2.1,2.1v119.3c0,1.1-0.9,2.1-2.1,2.1H179.1
			L179.1,223.2z M118.2,193.7l1.4,2l1.5-2l4.5-6.2l2-2.9h-16.1L118.2,193.7L118.2,193.7z M73.6,235.6c-0.3,0-0.5,0-0.8-0.2
			c-0.5-0.2-0.9-0.6-1.1-1.1c-0.2-0.5-0.2-1.1,0-1.6l10.7-26.3c4.5-11.1,12.6-25.9,30.4-25.9H127c17.8,0,25.8,14.8,30.4,25.9
			l1.4,3.4l1,2.4l2-1.7l28.7-26.5c0.4-0.4,0.9-0.5,1.4-0.5c0.6,0,1.1,0.2,1.5,0.7c0.4,0.4,0.6,0.9,0.5,1.5c0,0.6-0.3,1.1-0.7,1.4
			l-32.8,30.3c-0.4,0.4-0.9,0.5-1.4,0.5c-0.2,0-0.3,0-0.4,0c-0.7-0.1-1.2-0.6-1.5-1.2l-3.5-8.6c-5.4-13.2-11.5-20.1-19.8-22.5
			l-1-0.3l-0.3-0.1l-0.7,1l-10.4,14.2c-0.4,0.5-1,0.8-1.7,0.8c-0.7,0-1.3-0.3-1.7-0.8l-11-15.1l-1.4,0.3
			c-8.1,2.4-14.2,9.3-19.4,22.4l-10.7,26.3c-0.3,0.6-0.7,1.1-1.3,1.3C74,235.5,73.8,235.6,73.6,235.6L73.6,235.6z"/>
	</g>
</g>
<line id="XMLID_274_" class="st2" x1="787" y1="342" x2="1235" y2="342"/>
<line id="XMLID_275_" class="st2" x1="34" y1="236" x2="838" y2="236"/>
<path id="XMLID_329_" d="M1194.8,516c-0.8,0-1.5-0.5-1.8-1.2l-9-22.4c-4.9-12-10.6-18-18.5-19.5l-1.6-0.3l-2.3,10.8l2.6,23.6
	c0.1,0.7-0.2,1.3-0.7,1.7l-5.8,4.6c-0.3,0.3-0.8,0.4-1.2,0.4h-2.1c-0.4,0-0.9-0.1-1.2-0.4l-5.8-4.6c-0.5-0.4-0.8-1-0.7-1.7l2.6-23.6
	l-2.3-10.8l-1.6,0.3c-7.9,1.4-13.7,7.5-18.5,19.5l-9.1,22.4c-0.3,0.7-1,1.2-1.8,1.2c-0.2,0-0.5,0-0.7-0.1c-0.5-0.2-0.8-0.6-1-1
	c-0.2-0.5-0.2-1,0-1.5l9.1-22.4c3.7-9.2,10.4-21.6,24.9-22.2l0.1,0l0.1,0c0.1,0,0.1,0,0.2,0h13.6c0.1,0,0.2,0,0.2,0l0.1,0l0.1,0
	c14.5,0.6,21.1,12.9,24.9,22.2l9,22.5c0.2,0.5,0.2,1,0,1.5c-0.2,0.5-0.6,0.8-1,1C1195.3,516,1195,516,1194.8,516z M1150.7,506.4
	l4.8,3.9l4.8-3.9l-2.4-21.2h-4.9L1150.7,506.4z M1152.9,481.4h5.2l1.9-8.9h-8.9L1152.9,481.4z M1047.2,516c-0.2,0-0.5,0-0.7-0.1
	c-0.5-0.2-0.8-0.6-1-1c-0.2-0.5-0.2-1,0-1.5l9-22.1c3.8-9.4,10.6-21.9,25.7-21.9h11.9c8.1,0,14.7,3.6,19.8,10.7
	c0.1,0.1,0.5,0.7,1,1.4c1.5,2.1,2.1,2.9,2.3,3.1c0.3,0.4,0.4,0.9,0.3,1.4c-0.1,0.5-0.4,0.9-0.8,1.2c-0.3,0.2-0.7,0.3-1,0.3
	c-0.6,0-1.2-0.3-1.6-0.8c-0.2-0.3-1.1-1.5-2-2.8l-0.2-0.2c-0.5-0.7-1-1.3-1-1.4c-2.7-3.8-5.7-6.3-9.2-7.8l-1.2-0.5l-10.6,14.6
	c-0.4,0.5-0.9,0.8-1.5,0.8c-0.6,0-1.2-0.3-1.5-0.8l-10.6-14.6l-1.2,0.5c-6,2.4-10.6,8.2-14.7,18.1l-9,22.1
	C1048.7,515.6,1048,516,1047.2,516z M1086,484.3l8.1-11.1h-16.1L1086,484.3z M1062.3,516c-1.1,0-1.9-0.9-1.9-1.9
	c0-1.1,0.9-1.9,1.9-1.9h38.2c1.1,0,1.9,0.9,1.9,1.9c0,1.1-0.9,1.9-1.9,1.9H1062.3z M1171.9,489.9c-1.1,0-1.9-0.9-1.9-1.9v-0.4
	c0-1.1,0.9-1.9,1.9-1.9c1.1,0,1.9,0.9,1.9,1.9v0.4C1173.8,489,1172.9,489.9,1171.9,489.9z M1086,460.7c-9.1,0-16.6-7.4-16.6-16.6
	c0-7.3,4.9-13.8,11.9-15.9l0.1,0c1.1-0.3,2.2-0.5,3.4-0.6h0.1l0,0h0.1l0.1,0c0,0,0.1,0,0.1,0h0.1l0,0h0.1l0,0h0.1l0,0
	c0.1,0,0.3,0,0.4,0l0.3,0c8,0.1,14.8,5.9,16.1,13.8c0.2,0.9,0.2,1.8,0.2,2.8c0,4.4-1.7,8.6-4.9,11.7
	C1094.6,459,1090.4,460.7,1086,460.7z M1078.6,433.9c-3.3,2.4-5.3,6.3-5.3,10.3c0,7,5.7,12.7,12.7,12.7c5.8,0,10.9-4,12.4-9.6
	l0.5-2.1l-2.3,0c-7,0-13-4.1-15.5-10.6l-0.8-2L1078.6,433.9z M1084.9,433.8c2,4.4,6.2,7.3,11.1,7.5l2.7,0.1l-1.1-2.5
	c-2-4.4-6.2-7.3-11.1-7.5l-2.7-0.1L1084.9,433.8z M1155.5,459.9c-9.2,0-16.8-7.5-16.8-16.8s7.5-16.8,16.8-16.8
	c1.1,0,2.2,0.1,3.2,0.3c0,0,0.1,0,0.2,0c7.8,1.6,13.4,8.5,13.4,16.4C1172.3,452.4,1164.8,459.9,1155.5,459.9z M1148.2,432.5
	c-3.5,2.4-5.6,6.4-5.6,10.7c0,7.1,5.8,13,13,13s13-5.8,13-13c0-5.2-3.1-9.8-7.8-11.9l-1.2-0.5l-0.8,1c-1.4,1.8-3.1,3.2-5.1,4.3
	c-0.3,0.2-0.6,0.2-0.9,0.2c-0.7,0-1.3-0.4-1.7-1c-0.3-0.5-0.3-0.9-0.2-1.2l0.7-3.9L1148.2,432.5z M1070.4,422.3
	c-0.3,0-0.7-0.1-1-0.3c-0.6-0.3-0.9-1-0.9-1.6V388c0-5.4,4.4-9.7,9.7-9.7h12.8c1.1,0,1.9,0.9,1.9,1.9c0,1.1-0.9,1.9-1.9,1.9h-12.8
	c-3.3,0-5.9,2.7-5.9,5.9v29.1l7.5-4.2c0.3-0.2,0.6-0.2,0.9-0.2h31.2c1.1,0,1.9,0.9,1.9,1.9c0,1.1-0.9,1.9-1.9,1.9h-30.7l-9.9,5.5
	C1071,422.2,1070.7,422.3,1070.4,422.3z M1155.6,414.9c-0.5,0-1.1-0.2-1.4-0.6l-11.6-12.7h-29.8c-5.4,0-9.7-4.4-9.7-9.7v-18.8
	c0-5.4,4.4-9.7,9.7-9.7h35c5.4,0,9.7,4.4,9.7,9.7V413c0,0.8-0.5,1.5-1.2,1.8C1156,414.8,1155.8,414.9,1155.6,414.9z M1112.8,367.1
	c-3.3,0-5.9,2.7-5.9,5.9v18.8c0,3.3,2.7,5.9,5.9,5.9h30.7c0.5,0,1,0.2,1.4,0.6l8.8,9.7v-35c0-3.3-2.7-5.9-5.9-5.9H1112.8z
	 M1083.7,395.7c-1.1,0-1.9-0.9-1.9-1.9c0-1.1,0.9-1.9,1.9-1.9h6.5c1.1,0,1.9,0.9,1.9,1.9c0,1.1-0.9,1.9-1.9,1.9H1083.7z
	 M1126.6,380.9c-1.1,0-1.9-0.9-1.9-1.9c0-1.1,0.9-1.9,1.9-1.9h14.8c1.1,0,1.9,0.9,1.9,1.9c0,1.1-0.9,1.9-1.9,1.9H1126.6z"/>
<g id="XMLID_333_">
	<path id="XMLID_358_" d="M601.8,428.8c-1,0-1.8-0.8-1.8-1.8s0.8-1.8,1.8-1.8h0.4c1,0,1.8,0.8,1.8,1.8s-0.8,1.8-1.8,1.8H601.8z"/>
	<path id="XMLID_357_" d="M616.1,389.6c-8.9,0-16.1-7.2-16.1-16.1v-96c0-8.9,7.2-16.1,16.1-16.1h135.1c8.9,0,16.1,7.2,16.1,16.1v96
		c0,5.7-3.1,11.1-8,13.9c-0.3,0.2-0.6,0.2-0.9,0.2c-0.7,0-1.3-0.4-1.6-0.9c-0.5-0.9-0.2-2,0.7-2.5c3.8-2.2,6.2-6.3,6.2-10.7v-96
		c0-6.8-5.6-12.4-12.4-12.4H616.1c-6.8,0-12.4,5.6-12.4,12.4v96c0,6.8,5.6,12.4,12.4,12.4h7.1c1,0,1.8,0.8,1.8,1.8
		c0,1-0.8,1.8-1.8,1.8H616.1z"/>
	<path id="XMLID_356_" d="M665.7,311.4c-1,0-1.8-0.8-1.8-1.8c0-1,0.8-1.8,1.8-1.8h0.4c1,0,1.8,0.8,1.8,1.8c0,1-0.8,1.8-1.8,1.8
		H665.7z"/>
	<path id="XMLID_355_" d="M744.1,375.4c-1,0-1.8-0.8-1.8-1.8c0-1,0.8-1.8,1.8-1.8c2.9,0,5.3-2.4,5.3-5.3v-81.8
		c0-2.9-2.4-5.3-5.3-5.3H623.2c-2.9,0-5.3,2.4-5.3,5.3v81.8c0,2.9,2.4,5.3,5.3,5.3h7.1c1,0,1.8,0.8,1.8,1.8c0,1-0.8,1.8-1.8,1.8
		h-7.1c-4.9,0-9-4-9-9v-81.8c0-4.9,4-9,9-9h120.9c4.9,0,9,4,9,9v81.8C753,371.4,749,375.4,744.1,375.4z"/>
	<path id="XMLID_350_" d="M676.7,311.4c-1,0-1.8-0.8-1.8-1.8c0-1,0.8-1.8,1.8-1.8h24.9c1,0,1.8,0.8,1.8,1.8c0,1-0.8,1.8-1.8,1.8
		H676.7z"/>
	<path id="XMLID_335_" d="M612.5,428.8c-1,0-1.8-0.8-1.8-1.8s0.8-1.8,1.8-1.8h15.9V402c0-13.5,8.1-25.7,20.5-31.1l0.1,0
		c0.1,0,0.2-0.1,0.3-0.1l0.1,0c0.5-0.2,0.9-0.4,1.3-0.5l1.7-0.6l-1.5-0.9c-6.4-3.7-10.7-10.2-11.5-17.5l-0.1-0.7h-8.9
		c-1,0-1.8-0.8-1.8-1.8v-7.1c0-8.9,7.2-16.1,16.1-16.1h17.8c12.8,0,23.2,10.4,23.2,23.2c0,8.2-4.5,15.9-11.6,20.1l-1.5,0.9l1.6,0.6
		c0.5,0.2,1,0.4,1.3,0.5l0,0c0,0,0,0,0.1,0c5,2.1,9.5,5.4,12.9,9.6l0.6,0.8l0.6-0.8c3.4-4.1,7.8-7.4,12.7-9.5l0.1,0
		c0.1,0,0.2-0.1,0.3-0.1l0.1,0c0.5-0.2,0.9-0.4,1.3-0.5l1.7-0.6l-1.5-0.9c-7.2-4.1-11.6-11.8-11.6-20.1c0-12.8,10.4-23.2,23.2-23.2
		c12.8,0,23.2,10.4,23.2,23.2c0,8.2-4.5,15.9-11.6,20.1l-1.5,0.9l1.7,0.6c0.4,0.1,0.8,0.3,1.3,0.5l0.1,0c0.1,0,0.2,0.1,0.3,0.1
		l0.1,0c12.5,5.4,20.5,17.6,20.5,31.1v23.1h5.3c0.5,0,1,0.2,1.3,0.5c0.3,0.3,0.5,0.8,0.5,1.3c0,1-0.8,1.8-1.8,1.8H612.5z
		 M700.9,375.8c-9.5,5.4-15.4,15.4-15.4,26.3v23.1h60.3V402c0-10.9-5.9-20.9-15.4-26.3l-0.9-0.5l-0.3,1c-1.9,5.9-7.4,9.9-13.6,9.9
		c-6.2,0-11.7-4-13.6-9.9l-0.3-1L700.9,375.8z M647.5,375.8c-9.5,5.4-15.4,15.4-15.4,26.3v23.1h49.7V402c0-6,1.6-12,4.7-17.2
		l0.3-0.5l-0.3-0.4c-2.5-3.4-5.7-6.1-9.4-8.2l-0.9-0.5l-0.3,1c-1.9,5.9-7.4,9.9-13.6,9.9c-6.2,0-11.7-4-13.6-9.9l-0.3-1L647.5,375.8
		z M715.6,371.9c-3.3,0-6.6,0.5-9.7,1.6l-0.7,0.2l0.2,0.7c1.2,4.7,5.4,7.9,10.3,7.9c4.8,0,9.1-3.3,10.3-7.9l0.2-0.7l-0.7-0.2
		C722.2,372.4,719,371.9,715.6,371.9z M662.3,371.9c-3.3,0-6.6,0.5-9.7,1.6l-0.7,0.2l0.2,0.7c1.2,4.7,5.4,7.9,10.3,7.9
		c4.8,0,9.1-3.3,10.3-7.9l0.2-0.7l-0.7-0.2C668.9,372.4,665.6,371.9,662.3,371.9z M722.6,351c-3,6.7-9,11.6-16.2,13.2l-2.1,0.5
		l1.9,1.1c2.9,1.6,6.1,2.5,9.4,2.5c9.6,0,17.9-7.2,19.3-16.7l0.1-0.9h-12.3L722.6,351z M669.2,351c-3,6.7-9,11.6-16.2,13.2l-2.1,0.5
		l1.9,1.1c2.9,1.6,6.1,2.5,9.4,2.5c9.6,0,17.9-7.2,19.3-16.7l0.1-0.9h-12.3L669.2,351z M715.6,329.2c-10.7,0-19.5,8.7-19.5,19.5
		c0,4.4,1.5,8.6,4.2,12.1l0.3,0.4l0.5-0.1c0.1,0,0.2,0,0.3,0c10.7,0,19.5-8.7,19.5-19.5c0-1,0.8-1.8,1.8-1.8c1,0,1.8,0.8,1.8,1.8
		c0,1.4-0.1,2.9-0.4,4.3l-0.2,1h11.1l-0.1-0.9C733.6,336.4,725.3,329.2,715.6,329.2z M643,351.5c0.5,3.4,1.9,6.6,4,9.3l0.3,0.4
		l0.5-0.1c0.1,0,0.2,0,0.3,0c10.7,0,19.5-8.7,19.5-19.5c0-1,0.8-1.8,1.8-1.8c1,0,1.8,0.8,1.8,1.8c0,1.4-0.1,2.9-0.4,4.3l-0.2,1h11.1
		l-0.1-0.9c-1.4-9.5-9.7-16.7-19.3-16.7h-1.7v5.3c0,8.9-7.2,16.1-16.1,16.1h-1.6L643,351.5z M644.5,329.2c-6.8,0-12.4,5.6-12.4,12.4
		v5.3h12.4c6.8,0,12.4-5.6,12.4-12.4v-5.3H644.5z"/>
	<path id="XMLID_334_" d="M653.4,297.2c-1,0-1.8-0.8-1.8-1.8c0-1,0.8-1.8,1.8-1.8h60.5c1,0,1.8,0.8,1.8,1.8c0,1-0.8,1.8-1.8,1.8
		H653.4z"/>
</g>
<line id="XMLID_328_" class="st2" x1="348" y1="328" x2="580" y2="328"/>
<text id="XMLID_359_" transform="matrix(1 0 0 1 356.8714 293.157)" class="st3 st4">FREMDSPRACHEN</text>
<path id="XMLID_362_" d="M453.7,492.9c-19.8,0-38.7-9.6-50.5-25.6l-0.1-0.1l-0.1-0.1c-0.1-0.1-0.2-0.2-0.3-0.4l0-0.1l-0.1-0.1
	c-7.7-10.7-11.7-23.3-11.7-36.4c0-13.2,4-25.8,11.7-36.4l0.1-0.1l0-0.1c0.1-0.1,0.2-0.2,0.3-0.3l0.1-0.1l0.1-0.1
	c11.8-16,30.7-25.6,50.5-25.6c25.1,0,47.7,14.9,57.6,37.9c0.2,0.5,0.2,1,0,1.4c-0.2,0.5-0.5,0.8-1,1c-0.2,0.1-0.5,0.2-0.7,0.2
	c-0.8,0-1.4-0.4-1.7-1.1c-1.4-3.2-3-6.2-4.9-9.1l-0.7-1.1l-1.2,0.4c-6.9,2.2-14.3,3.9-21.9,5l-1.7,0.3l0.3,1.7
	c1.3,7.1,2.1,14.7,2.3,22.6l0,1.6h6.8c1,0,1.9,0.8,1.9,1.9c0,1-0.8,1.9-1.9,1.9H480l0,1.6c-0.3,15.1-2.9,29.4-7.3,40.2
	C467.8,486.1,461,492.9,453.7,492.9z M453.7,460.1c-5.8,0-11.6,0.3-17.2,0.9l-1.9,0.2l0.5,1.9c4.3,16,11.4,26,18.6,26
	c7.2,0,14.4-10,18.6-26l0.5-1.9l-1.9-0.2C465.3,460.4,459.5,460.1,453.7,460.1z M429.3,461.9c-6.6,1-13.1,2.4-19.3,4.2l-2.5,0.7
	l1.7,2c7.8,9,17.9,15.3,29.3,18.3l4.6,1.2l-2.8-3.8c-2.1-2.9-4-6.5-5.7-10.6c-1.3-3.3-2.5-6.9-3.5-10.7l-0.4-1.5L429.3,461.9z
	 M394.9,433.8c0.6,10.2,4,20.2,9.6,28.7l0.7,1l1.2-0.4c6.9-2.2,14.3-3.8,21.9-5l1.7-0.3l-0.3-1.7c-1.3-7.1-2.1-14.7-2.3-22.6l0-1.6
	h-32.5L394.9,433.8z M431.1,433.8c0.2,7.8,1,15.3,2.3,22.2l0.3,1.5l1.5-0.2c6-0.7,12.3-1,18.5-1c6.2,0,12.4,0.3,18.4,1l1.5,0.2
	l0.3-1.5c1.3-6.9,2.1-14.4,2.3-22.2l0-1.7h-45.2L431.1,433.8z M433.4,404.4c-1.3,6.9-2.1,14.4-2.3,22.2l0,1.7h45.2l0-1.7
	c-0.2-7.8-0.9-15.2-2.3-22.2l-0.3-1.5l-1.5,0.2c-6,0.7-12.2,1-18.4,1s-12.4-0.3-18.4-1l-1.5-0.2L433.4,404.4z M404.5,397.8
	c-5.7,8.6-9,18.5-9.6,28.7l-0.1,1.8h32.5l0-1.6c0.2-7.9,0.9-15.5,2.3-22.6l0.3-1.7l-1.7-0.3c-7.6-1.2-14.9-2.8-21.9-5l-1.2-0.4
	L404.5,397.8z M453.7,371.3c-7.2,0-14.4,10-18.6,26l-0.5,1.9l1.9,0.2c5.6,0.6,11.4,0.9,17.2,0.9c5.8,0,11.6-0.3,17.2-0.9l1.9-0.2
	l-0.5-1.9C468.1,381.3,460.9,371.3,453.7,371.3z M438.6,373.2c-11.4,3-21.5,9.4-29.3,18.3l-1.7,2l2.5,0.7c6.1,1.8,12.6,3.2,19.3,4.2
	l1.5,0.2l0.4-1.5c1-3.9,2.2-7.5,3.5-10.7c1.7-4.2,3.6-7.8,5.7-10.6l2.8-3.8L438.6,373.2z M467,375.8c2.1,2.9,4,6.5,5.7,10.6
	c1.3,3.3,2.5,6.9,3.5,10.7l0.4,1.5l1.5-0.2c6.7-1,13.2-2.4,19.3-4.2l2.5-0.7l-1.7-2c-7.8-9-17.9-15.3-29.4-18.3l-4.5-1.2L467,375.8z
	 M482.3,492.6c-0.2,0-0.3,0-0.5-0.1c-0.2,0-0.3-0.1-0.4-0.2c-0.3-0.2-0.5-0.4-0.7-0.7c-0.1-0.2-0.2-0.4-0.3-0.7c0-0.2,0-0.4,0-0.7
	c0-0.1,0.1-0.3,0.1-0.4l6.8-16.8c2.9-7.3,8.2-16.9,19.9-16.9h9c11.7,0,17,9.6,19.9,16.9l6.8,16.8c0.4,0.9,0,1.9-0.8,2.4h-0.3l0,0h0
	l0,0h0l0,0l-0.1,0.1l-0.4,0.1L482.3,492.6z M507.3,460.1c-7.3,0-12.3,4.5-16.4,14.5l-5.8,14.2h53.4l-5.8-14.2
	c-4.1-10.1-9.1-14.5-16.4-14.5H507.3z M511.8,447.3c-7.7,0-13.9-6.2-13.9-13.9c0-7.7,6.2-13.9,13.9-13.9c7.7,0,13.9,6.2,13.9,13.9
	C525.7,441.1,519.5,447.3,511.8,447.3z M511.8,423.3c-5.6,0-10.1,4.5-10.1,10.1c0,5.6,4.5,10.1,10.1,10.1c5.6,0,10.1-4.5,10.1-10.1
	C521.9,427.8,517.4,423.3,511.8,423.3z"/>
<rect id="XMLID_361_" x="276" y="26" class="st29" width="72.3" height="210"/>
<rect id="XMLID_363_" x="787" y="236.4" class="st30" width="50.6" height="33.1"/>
<rect id="XMLID_364_" x="1043.3" y="196.3" class="st31" width="190" height="73.3"/>
<g id="XMLID_365_">
	<g>
		<defs>
			<rect id="XMLID_815_" x="488.2" y="47.7" width="109.4" height="96.3"/>
		</defs>
		<clipPath id="XMLID_850_">
			<use xlink:href="#XMLID_815_"  style="overflow:visible;"/>
		</clipPath>
		<path class="st32" d="M595.9,54.9h-5.1v-5.3c0-1-0.8-1.8-1.8-1.8h-39.4c-2.5,0-4.9,1-6.7,2.7c-1.8-1.7-4.2-2.7-6.7-2.7h-39.4
			c-1,0-1.8,0.8-1.8,1.8v5.3h-5.1c-1,0-1.8,0.8-1.8,1.8v61.5c0,4.8,3.9,8.8,8.8,8.8h33.7v13.3h-7.6c-1,0-1.8,0.8-1.8,1.8
			c0,1,0.8,1.8,1.8,1.8h39.7c1,0,1.8-0.8,1.8-1.8c0-1-0.8-1.8-1.8-1.8h-7.6v-8c0-1-0.8-1.8-1.8-1.8c-1,0-1.8,0.8-1.8,1.8v8h-17.5
			v-13.3h54.7c4.8,0,8.8-3.9,8.8-8.8V56.7C597.7,55.7,596.9,54.9,595.9,54.9L595.9,54.9z M594.2,58.4v49.8h-3.4V58.4H594.2z
			 M498.5,51.4h37.7c2.1,0,4.1,1.1,5.3,2.8c0.3,0.5,0.9,0.8,1.5,0.8s1.1-0.3,1.5-0.8c1.2-1.8,3.1-2.8,5.3-2.8h37.7v56.8h-88.8V51.4z
			 M495,58.4v49.8h-3.4V58.4H495z M588.9,123.4h-92c-2.9,0-5.3-2.4-5.3-5.3v-6.5h102.5v6.5C594.2,121.1,591.8,123.4,588.9,123.4
			L588.9,123.4z M588.9,123.4"/>
	</g>
	<path d="M542.9,104.7c1,0,1.8-0.8,1.8-1.8V60.3c0-1-0.8-1.8-1.8-1.8c-1,0-1.8,0.8-1.8,1.8v42.7C541.2,103.9,542,104.7,542.9,104.7
		L542.9,104.7z M542.9,104.7"/>
	<path d="M506.3,60.7h26.9c1,0,1.8-0.8,1.8-1.8c0-1-0.8-1.8-1.8-1.8h-26.9c-1,0-1.8,0.8-1.8,1.8C504.5,60,505.3,60.7,506.3,60.7
		L506.3,60.7z M506.3,60.7"/>
	<path d="M506.3,69.1h26.9c1,0,1.8-0.8,1.8-1.8c0-1-0.8-1.8-1.8-1.8h-26.9c-1,0-1.8,0.8-1.8,1.8C504.5,68.3,505.3,69.1,506.3,69.1
		L506.3,69.1z M506.3,69.1"/>
	<path d="M506.3,77.4h13.4c1,0,1.8-0.8,1.8-1.8c0-1-0.8-1.8-1.8-1.8h-13.4c-1,0-1.8,0.8-1.8,1.8C504.5,76.6,505.3,77.4,506.3,77.4
		L506.3,77.4z M506.3,77.4"/>
	<path d="M506.3,85.7h26.9c1,0,1.8-0.8,1.8-1.8c0-1-0.8-1.8-1.8-1.8h-26.9c-1,0-1.8,0.8-1.8,1.8C504.5,84.9,505.3,85.7,506.3,85.7
		L506.3,85.7z M506.3,85.7"/>
	<path d="M506.3,94h26.9c1,0,1.8-0.8,1.8-1.8c0-1-0.8-1.8-1.8-1.8h-26.9c-1,0-1.8,0.8-1.8,1.8C504.5,93.3,505.3,94,506.3,94
		L506.3,94z M506.3,94"/>
	<path d="M506.3,102.4h13.4c1,0,1.8-0.8,1.8-1.8c0-1-0.8-1.8-1.8-1.8h-13.4c-1,0-1.8,0.8-1.8,1.8
		C504.5,101.6,505.3,102.4,506.3,102.4L506.3,102.4z M506.3,102.4"/>
	<path d="M552.7,60.7h26.9c1,0,1.8-0.8,1.8-1.8c0-1-0.8-1.8-1.8-1.8h-26.9c-1,0-1.8,0.8-1.8,1.8C551,60,551.7,60.7,552.7,60.7
		L552.7,60.7z M552.7,60.7"/>
	<path d="M552.7,69.1h26.9c1,0,1.8-0.8,1.8-1.8c0-1-0.8-1.8-1.8-1.8h-26.9c-1,0-1.8,0.8-1.8,1.8C551,68.3,551.7,69.1,552.7,69.1
		L552.7,69.1z M552.7,69.1"/>
	<path d="M552.7,77.4h13.4c1,0,1.8-0.8,1.8-1.8c0-1-0.8-1.8-1.8-1.8h-13.4c-1,0-1.8,0.8-1.8,1.8C551,76.6,551.7,77.4,552.7,77.4
		L552.7,77.4z M552.7,77.4"/>
	<path d="M552.7,85.7h26.9c1,0,1.8-0.8,1.8-1.8c0-1-0.8-1.8-1.8-1.8h-26.9c-1,0-1.8,0.8-1.8,1.8C551,84.9,551.7,85.7,552.7,85.7
		L552.7,85.7z M552.7,85.7"/>
	<path d="M552.7,94h26.9c1,0,1.8-0.8,1.8-1.8c0-1-0.8-1.8-1.8-1.8h-26.9c-1,0-1.8,0.8-1.8,1.8C551,93.3,551.7,94,552.7,94L552.7,94z
		 M552.7,94"/>
	<path d="M552.7,102.4h13.4c1,0,1.8-0.8,1.8-1.8c0-1-0.8-1.8-1.8-1.8h-13.4c-1,0-1.8,0.8-1.8,1.8C551,101.6,551.7,102.4,552.7,102.4
		L552.7,102.4z M552.7,102.4"/>
</g>
<line id="XMLID_397_" class="st33" x1="838" y1="88.5" x2="1042" y2="88.5"/>
<g id="XMLID_399_">
	<path id="XMLID_416_" d="M940,212.5c-6.2,0-11.2-5-11.2-11.2s5-11.2,11.2-11.2c6.2,0,11.2,5,11.2,11.2S946.2,212.5,940,212.5z
		 M940,193.6c-4.2,0-7.6,3.4-7.6,7.6c0,4.2,3.4,7.6,7.6,7.6c4.2,0,7.6-3.4,7.6-7.6C947.6,197,944.2,193.6,940,193.6z"/>
	<path id="XMLID_394_" d="M897.4,158.9c-1,0-1.8-0.8-1.8-1.8c0-1,0.8-1.8,1.8-1.8h85.2c1,0,1.8,0.8,1.8,1.8c0,1-0.8,1.8-1.8,1.8
		H897.4z"/>
	<path id="XMLID_393_" d="M897.4,173.4c-1,0-1.8-0.8-1.8-1.8c0-1,0.8-1.8,1.8-1.8h85.2c1,0,1.8,0.8,1.8,1.8c0,1-0.8,1.8-1.8,1.8
		H897.4z"/>
	<path id="XMLID_392_" d="M907.1,183.5c-1,0-1.8-0.8-1.8-1.8c0-1,0.8-1.8,1.8-1.8h65.8c1,0,1.8,0.8,1.8,1.8c0,1-0.8,1.8-1.8,1.8
		H907.1z"/>
	<path id="XMLID_391_" d="M904.7,203c-1,0-1.8-0.8-1.8-1.8s0.8-1.8,1.8-1.8h16.8c1,0,1.8,0.8,1.8,1.8s-0.8,1.8-1.8,1.8H904.7z"/>
	<path id="XMLID_390_" d="M958.5,203c-1,0-1.8-0.8-1.8-1.8s0.8-1.8,1.8-1.8h16.8c1,0,1.8,0.8,1.8,1.8s-0.8,1.8-1.8,1.8H958.5z"/>
	<path id="XMLID_400_" d="M874.1,230.9c-1,0-1.8-0.8-1.8-1.8v-95.3c0-1,0.8-1.8,1.8-1.8h131.9c1,0,1.8,0.8,1.8,1.8v95.3
		c0,1-0.8,1.8-1.8,1.8H874.1z M1003.1,212.4c-7,1.2-12.5,6.7-13.7,13.7l-0.2,1.1h15v-15L1003.1,212.4z M893.8,223.6
		c0.3,0.9,0.5,1.9,0.6,2.9l0.1,0.8h91l0.1-0.8c0.1-1,0.3-2,0.6-2.9l0.3-1.2h-93L893.8,223.6z M875.9,227.2h15l-0.2-1.1
		c-1.2-7-6.7-12.5-13.7-13.7l-1.1-0.2V227.2z M891.5,144.4c-1.7,2.7-4,5.1-6.8,6.8l-0.4,0.3v59.8l0.4,0.3c2.7,1.7,5.1,4,6.8,6.8
		l0.3,0.4h96.4l0.3-0.4c1.7-2.7,4-5.1,6.8-6.8l0.4-0.3v-59.8l-0.4-0.3c-2.7-1.7-5.1-4-6.8-6.8l-0.3-0.4h-96.4L891.5,144.4z
		 M879.6,153.5c-0.9,0.3-1.9,0.5-2.9,0.6l-0.8,0.1v54.5l0.8,0.1c1,0.1,1.9,0.3,2.9,0.6l1.2,0.3v-56.5L879.6,153.5z M999.3,209.6
		l1.2-0.3c0.9-0.3,1.9-0.5,2.9-0.6l0.8-0.1v-54.5l-0.8-0.1c-1-0.1-1.9-0.3-2.9-0.6l-1.2-0.3V209.6z M989.3,136.6
		c1.2,7,6.7,12.5,13.7,13.7l1.1,0.2v-15h-15L989.3,136.6z M875.9,150.5l1.1-0.2c7-1.2,12.5-6.7,13.7-13.7l0.2-1.1h-15V150.5z
		 M894.4,136.3c-0.1,0.9-0.3,1.9-0.6,2.9l-0.3,1.2h93l-0.3-1.2c-0.3-0.9-0.5-1.9-0.6-2.9l-0.1-0.8h-91L894.4,136.3z"/>
</g>
<text id="XMLID_398_" transform="matrix(1 0 0 1 863 67)" class="st3 st4">KNOWLEDGE</text>
<line id="XMLID_360_" class="st2" x1="348.3" y1="236" x2="348" y2="26"/>
<line id="XMLID_401_" class="st2" x1="838" y1="164" x2="348" y2="164"/>
<line id="XMLID_402_" class="st2" x1="895" y1="452" x2="895" y2="526"/>
<rect id="XMLID_403_" x="787" y="452" class="st34" width="217" height="74"/>
<line id="XMLID_422_" class="st2" x1="965" y1="342" x2="965" y2="452"/>
<line id="XMLID_440_" class="st2" x1="678" y1="145" x2="707" y2="145"/>
<line id="XMLID_277_" class="st2" x1="703" y1="130" x2="732" y2="130"/>
<line id="XMLID_426_" class="st2" x1="680" y1="145" x2="680" y2="164"/>
<line id="XMLID_427_" class="st2" x1="705" y1="128" x2="705" y2="147"/>
<line id="XMLID_428_" class="st2" x1="730" y1="113" x2="730" y2="132"/>
<line id="XMLID_429_" class="st2" x1="755" y1="98" x2="755" y2="117"/>
<line id="XMLID_430_" class="st2" x1="780" y1="83" x2="780" y2="102"/>
<line id="XMLID_431_" class="st2" x1="805" y1="68" x2="805" y2="87"/>
<line id="XMLID_432_" class="st2" x1="728" y1="115" x2="757" y2="115"/>
<line id="XMLID_433_" class="st2" x1="753" y1="100" x2="782" y2="100"/>
<line id="XMLID_434_" class="st2" x1="778" y1="85" x2="807" y2="85"/>
<line id="XMLID_435_" class="st2" x1="807" y1="70" x2="836" y2="70"/>
<g id="XMLID_414_">
	<g id="XMLID_417_">
		<g id="XMLID_419_">
			<g id="XMLID_437_">
				<path id="XMLID_438_" d="M704.3,85.9c-5.4,0-9.7-4.2-9.7-9.7c0-5.4,4.2-9.7,9.7-9.7c5.4,0,9.7,4.2,9.7,9.7
					C714,81.6,709.7,85.9,704.3,85.9z M704.3,70.4c-3.1,0-5.8,2.7-5.8,5.8c0,3.1,2.7,5.8,5.8,5.8c3.1,0,5.8-2.7,5.8-5.8
					C710.1,73.1,707.4,70.4,704.3,70.4z"/>
			</g>
			<g id="XMLID_421_">
				<path id="XMLID_423_" d="M707,109h-5c-2.3,0-4.6-1.9-4.6-4.6v-3.9c-1.5-0.4-3.1-1.2-4.6-1.9c-0.4,0-0.8,0-0.8,0l-2.7,2.7
					c-1.5,1.5-4.6,1.5-6.6,0l-3.9-3.9c-1.9-1.9-1.9-4.6,0-6.6l2.7-2.7c0.4-0.4,0-0.8,0-0.8c-0.8-1.2-1.2-2.7-1.5-3.9
					c0-0.4-0.4-0.4-0.8-0.4h-3.5c-2.3,0-4.6-1.9-4.6-4.6v-5c0-2.3,1.9-4.6,4.6-4.6h3.5c0.4,0,0.4-0.4,0.8-0.4
					c0.4-1.5,1.2-2.7,1.5-3.9c0-0.4,0-0.4,0-0.8l-2.7-2.7c-1.9-1.9-1.9-4.6,0-6.6l3.9-3.9c1.5-1.5,4.6-1.5,6.6,0l2.7,2.7
					c0.4,0.4,0.4,0.4,0.8,0c1.2-0.8,2.7-1.2,3.9-1.5c0.4,0,0.4-0.4,0.4-0.8v-3.5c0-2.3,1.9-4.6,4.6-4.6h5c2.3,0,4.6,1.9,4.6,4.6v3.5
					c0,0.4,0.4,0.4,0.4,0.8c1.2,0.4,2.7,1.2,3.9,1.5c0.4,0,0.8,0,0.8,0l2.7-2.7c1.5-1.5,4.6-1.5,6.6,0l3.9,3.9
					c1.9,1.9,1.9,4.6,0,6.6l-2.7,2.7c-0.4,0.4,0,0.8,0,0.8c0.8,1.2,1.2,2.7,1.5,3.9c0,0.4,0.4,0.4,0.8,0.4h3.5
					c2.3,0,4.6,1.9,4.6,4.6v5c0,2.3-1.9,4.6-4.6,4.6H729c-0.4,0-0.4,0.4-0.8,0.4c-0.4,1.5-1.2,2.7-1.5,3.9c0,0.4,0,0.4,0,0.8
					l2.7,2.7c1.9,1.9,1.9,4.6,0,6.6l-3.9,3.9c-1.5,1.5-4.6,1.5-6.6,0l-2.7-2.7c-0.4-0.4-0.4-0.4-0.8,0c-1.2,0.8-2.7,1.2-3.9,1.5
					c-0.4,0-0.4,0.4-0.4,0.8v3.5C711.3,107.1,709.4,109,707,109z M692.4,94.7c0.8,0,1.5,0,2.3,0.4c1.5,0.8,3.5,1.5,5,1.9
					c0.8,0.4,1.5,1.2,1.5,1.9v5.4c0,0.4,0.4,0.8,0.8,0.8h5c0.4,0,0.8-0.4,0.8-0.8v-3.5c0-1.9,1.2-3.9,3.1-4.2
					c1.2-0.4,2.3-0.8,3.5-1.5c1.9-0.8,3.9-0.8,5.4,0.8l2.7,2.7c0.4,0.4,0.8,0.4,0.8,0l3.9-3.9c0.4-0.4,0.4-0.8,0-0.8l-2.7-2.7
					c-1.5-1.5-1.5-3.5-0.8-5.4c0.4-1.2,1.2-2.3,1.5-3.5c0.8-1.9,2.3-3.1,4.2-3.1h3.5c0.4,0,0.8-0.4,0.8-0.8v-5
					c0-0.4-0.4-0.8-0.8-0.8h-3.5c-1.9,0-3.9-1.2-4.2-3.1c-0.4-1.2-0.8-2.3-1.5-3.5c-0.8-1.9-0.8-3.9,0.8-5.4l2.7-2.7
					c0.4-0.4,0.4-0.8,0-0.8l-3.9-3.9c-0.4-0.4-0.8-0.4-0.8,0l-2.7,2.7c-1.5,1.2-3.5,1.5-5.4,0.8c-1.2-0.4-2.3-1.2-3.5-1.5
					c-1.9-0.8-3.1-2.3-3.1-4.2v-3.5c0-0.4-0.4-0.8-0.8-0.8h-5c-0.4,0-0.8,0.4-0.8,0.8v3.5c0,1.9-1.2,3.9-3.1,4.2
					c-1.2,0.4-2.3,0.8-3.5,1.5c-1.9,0.8-3.9,0.8-5.4-0.8l-2.7-2.7c-0.4-0.4-0.8-0.4-0.8,0l-3.9,3.9c-0.4,0.4-0.4,0.8,0,0.8l2.7,2.7
					c1.5,1.5,1.5,3.5,0.8,5.4c-0.4,1.2-1.2,2.3-1.5,3.5c-0.8,1.9-2.3,3.1-4.2,3.1h-3.5c-0.4,0-0.8,0.4-0.8,0.8v5
					c0,0.4,0.4,0.8,0.8,0.8h3.5c1.9,0,3.9,1.2,4.2,3.1c0.4,1.2,0.8,2.3,1.5,3.5c0.8,1.9,0.8,3.9-0.8,5.4l-2.7,2.7
					c-0.4,0.4-0.4,0.8,0,0.8l3.9,3.9c0.4,0.4,0.8,0.4,0.8,0l2.7-2.7C690.1,95.1,691.2,94.7,692.4,94.7z"/>
			</g>
		</g>
	</g>
</g>
<g id="XMLID_455_">
	<path id="XMLID_458_" d="M914.5,405.5v-30.5c0-2.7-2.3-5-5-5h-8.4v-5c0-2.7-2.3-5-5-5h-3.4c-2.7,0-5,2.3-5,5v5h-16.8v-5
		c0-2.7-2.3-5-5-5h-3.4c-2.7,0-5,2.3-5,5v5h-8.4c-2.7,0-5,2.3-5,5v53.6c0,2.7,2.3,5,5,5H892c3.4,4,8.4,6.7,14.1,6.7
		c10.1,0,18.4-8.4,18.4-18.4C924.5,414.9,920.5,408.6,914.5,405.5z M889.7,413.6H881v-13.4h13.4v7.7
		C892.4,409.2,891,411.2,889.7,413.6z M864.2,413.6v-13.4h13.4v13.4H864.2z M877.6,416.9v13.4h-13.4v-13.4H877.6z M894.4,383.4v13.4
		H881v-13.4H894.4z M877.6,396.8h-13.4v-13.4h13.4V396.8z M860.9,396.8h-13.4v-13.4h13.4V396.8z M860.9,400.2v13.4h-13.4v-13.4
		H860.9z M897.7,400.2h13.4v4c-1.7-0.3-3.4-0.7-5-0.7c-3,0-5.7,0.7-8.4,2V400.2z M911.1,396.8h-13.4v-13.4h13.4V396.8z M891,365
		c0-1,0.7-1.7,1.7-1.7h3.4c1,0,1.7,0.7,1.7,1.7v6.7c0,1-0.7,1.7-1.7,1.7h-3.4c-1,0-1.7-0.7-1.7-1.7V365z M860.9,365
		c0-1,0.7-1.7,1.7-1.7h3.4c1,0,1.7,0.7,1.7,1.7v6.7c0,1-0.7,1.7-1.7,1.7h-3.4c-1,0-1.7-0.7-1.7-1.7V365z M849.2,373.4h8.7
		c0.7,2,2.7,3.4,4.7,3.4h3.4c2.3,0,4-1.3,4.7-3.4H888c0.7,2,2.7,3.4,4.7,3.4h3.4c2.3,0,4-1.3,4.7-3.4h8.7c1,0,1.7,0.7,1.7,1.7v5
		h-63.7v-5C847.5,374,848.2,373.4,849.2,373.4z M847.5,428.7v-11.7h13.4v13.4h-11.7C848.2,430.3,847.5,429.7,847.5,428.7z
		 M881,430.3v-13.4h7.4c-0.3,1.7-0.7,3.4-0.7,5c0,3,0.7,5.7,2,8.4H881z M906.1,437c-8.4,0-15.1-6.7-15.1-15.1s6.7-15.1,15.1-15.1
		c8.4,0,15.1,6.7,15.1,15.1S914.5,437,906.1,437z"/>
	<g id="XMLID_456_">
		<path id="XMLID_412_" d="M902.8,430.3c-0.3,0-1-0.3-1.3-0.3l-6.7-6.7c-0.7-0.7-0.7-1.7,0-2.3s1.7-0.7,2.3,0l5.4,5.4l9-11.7
			c0.7-0.7,1.7-1,2.3-0.3c0.7,0.7,1,1.7,0.3,2.3L904.1,430C903.8,430,903.4,430.3,902.8,430.3L902.8,430.3z"/>
	</g>
</g>
<g id="XMLID_407_">
	<path d="M435.8,82.3h-33.1c-0.9,0-1.7-0.7-1.7-1.7c0-0.9,0.7-1.7,1.7-1.7h33.1c0.9,0,1.7,0.7,1.7,1.7
		C437.5,81.5,436.7,82.3,435.8,82.3L435.8,82.3z M435.8,82.3"/>
	<path d="M427.9,89.7h-25.2c-0.9,0-1.7-0.7-1.7-1.7c0-0.9,0.7-1.7,1.7-1.7h25.2c0.9,0,1.7,0.7,1.7,1.7
		C429.6,89,428.8,89.7,427.9,89.7L427.9,89.7z M427.9,89.7"/>
	<path d="M411,112h-8.3c-0.9,0-1.7-0.7-1.7-1.7c0-0.9,0.7-1.7,1.7-1.7h8.3c0.9,0,1.7,0.7,1.7,1.7C412.7,111.3,412,112,411,112
		L411,112z M411,112"/>
	<g>
		<defs>
			<rect id="XMLID_823_" x="392.5" y="58.9" width="74.9" height="76.6"/>
		</defs>
		<clipPath id="XMLID_851_">
			<use xlink:href="#XMLID_823_"  style="overflow:visible;"/>
		</clipPath>
		<path class="st35" d="M407.4,119.4h-4.7c-0.9,0-1.7-0.7-1.7-1.7c0-0.9,0.7-1.7,1.7-1.7h4.7c0.9,0,1.7,0.7,1.7,1.7
			C409.1,118.7,408.3,119.4,407.4,119.4L407.4,119.4z M407.4,119.4"/>
		<path class="st35" d="M465.4,66.6l-3.8-2.8c-1-0.7-2.1-1-3.3-0.8c-1.2,0.2-2.2,0.8-2.9,1.7c0,0,0,0,0,0L446,77.4V64.8
			c0-0.9-0.7-1.7-1.7-1.7h-6.9v-2.5c0-0.9-0.7-1.7-1.7-1.7c-0.9,0-1.7,0.7-1.7,1.7v2.5h-5v-2.5c0-0.9-0.7-1.7-1.7-1.7
			c-0.9,0-1.7,0.7-1.7,1.7v2.5h-5v-2.5c0-0.9-0.7-1.7-1.7-1.7c-0.9,0-1.7,0.7-1.7,1.7v2.5h-5v-2.5c0-0.9-0.7-1.7-1.7-1.7
			c-0.9,0-1.7,0.7-1.7,1.7v2.5h-5v-2.5c0-0.9-0.7-1.7-1.7-1.7c-0.9,0-1.7,0.7-1.7,1.7v2.5h-6.9c-0.9,0-1.7,0.7-1.7,1.7v68.8
			c0,0.9,0.7,1.7,1.7,1.7h50.2c0.9,0,1.7-0.7,1.7-1.7v-33.1l20.3-27.7c0,0,0,0,0,0C467.7,70.9,467.3,68.1,465.4,66.6L465.4,66.6z
			 M442.7,132h-46.8V66.4h5.2V69c0,0.9,0.7,1.7,1.7,1.7c0.9,0,1.7-0.7,1.7-1.7v-2.5h5V69c0,0.9,0.7,1.7,1.7,1.7
			c0.9,0,1.7-0.7,1.7-1.7v-2.5h5V69c0,0.9,0.7,1.7,1.7,1.7c0.9,0,1.7-0.7,1.7-1.7v-2.5h5V69c0,0.9,0.7,1.7,1.7,1.7
			c0.9,0,1.7-0.7,1.7-1.7v-2.5h5V69c0,0.9,0.7,1.7,1.7,1.7c0.9,0,1.7-0.7,1.7-1.7v-2.5h5.2v15.5L434,93.8h-31.3
			c-0.9,0-1.7,0.7-1.7,1.7c0,0.9,0.7,1.7,1.7,1.7h28.9c0,0-9.4,12.9-9.4,12.9h0c-0.1,0.1-0.2,0.3-0.2,0.5l-3.8,13h-15.4
			c-0.9,0-1.7,0.7-1.7,1.7c0,0.9,0.7,1.7,1.7,1.7l16.7,0v0c0.3,0,0.6-0.1,0.9-0.3l12.4-8c0.2-0.1,0.3-0.2,0.4-0.4
			c0,0,9.6-13.1,9.6-13.1V132z M424.4,113.8l4.4,3.3l-6.6,4.3L424.4,113.8z M431.4,114.9l-5.6-4.2L452,74.8l5.6,4.2L431.4,114.9z
			 M459.5,76.3l-5.6-4.2l1.8-2.4l5.6,4.2L459.5,76.3z M463.6,70.8C463.6,70.8,463.6,70.8,463.6,70.8l-0.3,0.4l-5.6-4.2l0.3-0.4l0,0
			c0.2-0.2,0.4-0.4,0.7-0.4c0.3,0,0.6,0,0.8,0.2l3.8,2.8C463.9,69.6,464,70.3,463.6,70.8L463.6,70.8z M463.6,70.8"/>
	</g>
</g>
<text id="XMLID_418_" transform="matrix(1 0 0 1 692.4996 208.8449)" class="st3 st4">COURSE</text>
<g id="XMLID_469_">
	<path id="XMLID_470_" d="M381.4,237.2c-1,0-1.8-0.8-1.8-1.8v-30.4c0,0,0,0,0-0.1c0,0,0,0,0-0.1c0-1,0.8-1.8,1.8-1.8h36.1v-16.2H409
		c-1,0-1.8-0.8-1.8-1.8c0-1,0.8-1.8,1.8-1.8h10.2c1,0,1.8,0.8,1.8,1.8v19.7c0,1-0.8,1.8-1.8,1.8h-36.1v28.8
		C383.1,236.4,382.4,237.2,381.4,237.2L381.4,237.2z M362.5,237.2c-1,0-1.8-0.8-1.8-1.8v-58.7c0-1,0.8-1.8,1.8-1.8h37.8
		c1,0,1.8,0.8,1.8,1.8v19.7c0,1-0.8,1.8-1.8,1.8h-36.1v37.2C364.2,236.4,363.4,237.2,362.5,237.2L362.5,237.2z M364.2,194.6h34.3
		v-16.2h-34.3V194.6z M381.4,191.3c-2.6,0-4.8-2.1-4.8-4.8c0-2.6,2.1-4.8,4.8-4.8c2.6,0,4.8,2.1,4.8,4.8
		C386.2,189.2,384,191.3,381.4,191.3L381.4,191.3z M381.4,185.3c-0.7,0-1.3,0.6-1.3,1.3c0,0.7,0.6,1.3,1.3,1.3
		c0.7,0,1.3-0.6,1.3-1.3C382.6,185.9,382.1,185.3,381.4,185.3L381.4,185.3z M381.4,185.3"/>
</g>
</svg>
