<?xml version="1.0" ?><!DOCTYPE svg  PUBLIC '-//W3C//DTD SVG 1.1//EN'  'http://www.w3.org/Graphics/SVG/1.1/DTD/svg11.dtd'><svg enable-background="new 0 0 32 32" height="32px" id="Layer_1" version="1.1" viewBox="0 0 32 32" width="32px" xml:space="preserve" xmlns="http://www.w3.org/2000/svg" xmlns:xlink="http://www.w3.org/1999/xlink"><g id="teamwork_x2C__gears_x2C__cogwheel_x2C__team_x2C__work"><g id="team_2_"><g><g><g><path d="M7.927,30.865c-0.253,0-0.47-0.191-0.496-0.448l-0.402-3.858H4.721c-0.642,0-1.193-0.499-1.256-1.137       L3.173,22.42H1.961c-0.361,0-0.66-0.153-0.82-0.421c-0.16-0.267-0.154-0.604,0.017-0.922l1.747-3.87l-0.063-1.116       c-0.001-1.912,0.862-3.755,2.367-5.085c0.206-0.183,0.523-0.164,0.706,0.044c0.183,0.207,0.163,0.523-0.044,0.706       c-1.31,1.156-2.03,2.686-2.03,4.307l0.069,1.21c0.005,0.08-0.01,0.161-0.043,0.234L2.1,21.417l1.527,0.003       c0.258,0,0.473,0.195,0.498,0.451l0.336,3.453c0.012,0.123,0.136,0.234,0.26,0.234h2.758c0.256,0,0.471,0.193,0.497,0.448       l0.449,4.307c0.029,0.274-0.171,0.521-0.445,0.549C7.962,30.864,7.944,30.865,7.927,30.865z" fill="#263238"/></g></g></g><g><g><g><path d="M12.718,30.906c-0.252,0-0.469-0.19-0.496-0.447l-0.595-5.57H8.904c-0.702,0-1.304-0.546-1.369-1.242       l-0.343-3.516H5.73c-0.389,0-0.709-0.163-0.88-0.447c-0.17-0.285-0.162-0.645,0.021-0.988l2.019-4.471l-0.073-1.306       c-0.001-2.526,1.326-4.928,3.549-6.45c0.227-0.156,0.539-0.098,0.694,0.13c0.156,0.228,0.099,0.538-0.13,0.694       c-1.95,1.337-3.114,3.43-3.114,5.598l0.079,1.399c0.005,0.081-0.01,0.161-0.043,0.234l-2.078,4.599l1.872,0.008       c0.258,0,0.473,0.195,0.498,0.451l0.387,3.969c0.017,0.181,0.191,0.338,0.373,0.338h3.172c0.256,0,0.47,0.192,0.497,0.447       l0.643,6.018c0.029,0.274-0.169,0.521-0.444,0.55C12.754,30.905,12.736,30.906,12.718,30.906z" fill="#263238"/></g></g></g><g><g><g><path d="M16.473,23.465h-2.586c-0.76,0-1.41-0.591-1.482-1.346l-0.392-4.033h-1.714       c-0.416,0-0.758-0.173-0.938-0.475C9.181,17.31,9.19,16.927,9.388,16.56l2.288-5.073l-0.083-1.494       c-0.001-4.999,4.446-9.043,9.913-9.043c5.396,0,9.467,4.262,9.467,9.912c0,2.158-0.528,4.213-1.616,6.281       c-0.128,0.245-0.432,0.337-0.675,0.21c-0.245-0.128-0.339-0.431-0.21-0.675c1.01-1.922,1.501-3.824,1.501-5.816       c0-5.081-3.64-8.912-8.467-8.912c-4.915,0-8.914,3.596-8.914,8.016l0.089,1.588c0.005,0.08-0.01,0.16-0.043,0.233l-2.354,5.217       c-0.019,0.035-0.031,0.063-0.039,0.082c0.016,0.001,0.032,0.001,0.054,0.001h2.168c0.258,0,0.473,0.195,0.498,0.452       l0.436,4.486c0.022,0.239,0.245,0.44,0.486,0.44h2.586c0.276,0,0.5,0.224,0.5,0.5S16.749,23.465,16.473,23.465z" fill="#263238"/></g></g></g></g><g><g><g><path d="M22.398,17.927H20.6c-0.235,0-0.438-0.164-0.488-0.394l-0.296-1.352      c-0.415-0.121-0.814-0.287-1.194-0.496l-1.166,0.747c-0.198,0.127-0.457,0.099-0.623-0.067l-1.271-1.271      c-0.166-0.166-0.194-0.426-0.067-0.623l0.747-1.166c-0.209-0.38-0.375-0.779-0.496-1.194l-1.352-0.296      C14.163,11.765,14,11.562,14,11.326V9.527c0-0.235,0.163-0.438,0.393-0.488l1.351-0.296c0.122-0.416,0.289-0.815,0.497-1.194      l-0.747-1.166c-0.127-0.197-0.099-0.457,0.067-0.623l1.271-1.271c0.166-0.166,0.425-0.194,0.623-0.067l1.166,0.747      c0.381-0.209,0.78-0.375,1.194-0.496l0.296-1.352c0.05-0.229,0.253-0.393,0.488-0.393h1.799c0.235,0,0.438,0.163,0.488,0.393      l0.296,1.353c0.414,0.12,0.813,0.286,1.194,0.495l1.166-0.747C25.741,4.294,26,4.322,26.166,4.488l1.271,1.271      c0.166,0.166,0.194,0.426,0.067,0.623L26.758,7.55c0.209,0.381,0.375,0.78,0.495,1.193l1.353,0.296      c0.229,0.05,0.393,0.253,0.393,0.488v1.799c0,0.235-0.163,0.438-0.393,0.488l-1.353,0.296c-0.12,0.413-0.286,0.813-0.495,1.193      l0.747,1.167c0.127,0.197,0.099,0.457-0.067,0.623l-1.271,1.272c-0.167,0.167-0.426,0.192-0.623,0.067l-1.166-0.748      c-0.38,0.209-0.779,0.374-1.194,0.495l-0.296,1.353C22.837,17.763,22.634,17.927,22.398,17.927z M21.002,16.927h0.994      l0.275-1.258c0.041-0.188,0.187-0.337,0.374-0.381c0.524-0.122,1.021-0.329,1.479-0.613c0.162-0.101,0.371-0.101,0.533,0.004      l1.085,0.695l0.703-0.703l-0.695-1.085c-0.104-0.162-0.105-0.369-0.005-0.532c0.287-0.464,0.493-0.961,0.614-1.48      c0.044-0.188,0.192-0.333,0.38-0.374l1.258-0.275V9.93L26.74,9.654c-0.188-0.041-0.336-0.187-0.38-0.374      c-0.121-0.52-0.327-1.017-0.614-1.48c-0.101-0.163-0.099-0.37,0.005-0.532l0.695-1.085l-0.703-0.703l-1.085,0.695      c-0.162,0.105-0.369,0.105-0.533,0.004c-0.46-0.285-0.957-0.491-1.479-0.613c-0.188-0.044-0.333-0.192-0.374-0.38l-0.275-1.258      h-0.994l-0.275,1.258c-0.041,0.188-0.187,0.336-0.375,0.38c-0.521,0.121-1.018,0.327-1.479,0.613      c-0.163,0.101-0.37,0.101-0.533-0.004l-1.085-0.695l-0.703,0.703l0.695,1.085c0.104,0.162,0.105,0.37,0.004,0.533      c-0.284,0.457-0.491,0.955-0.616,1.48c-0.044,0.188-0.191,0.332-0.379,0.373L15,9.93v0.994l1.258,0.275      c0.188,0.041,0.336,0.187,0.38,0.374c0.122,0.523,0.328,1.021,0.613,1.479c0.102,0.163,0.101,0.371-0.004,0.533l-0.695,1.085      l0.703,0.703l1.085-0.695c0.163-0.104,0.372-0.104,0.533-0.004c0.459,0.285,0.956,0.492,1.479,0.613      c0.188,0.044,0.334,0.192,0.375,0.381L21.002,16.927z M21.498,13.928c-1.93,0-3.5-1.57-3.5-3.5s1.57-3.5,3.5-3.5      s3.5,1.57,3.5,3.5S23.428,13.928,21.498,13.928z M21.498,7.928c-1.379,0-2.5,1.121-2.5,2.5s1.121,2.5,2.5,2.5s2.5-1.121,2.5-2.5      S22.877,7.928,21.498,7.928z" fill="#263238"/></g></g></g><g><g><g><path d="M25.443,29.934h-1.484c-0.235,0-0.438-0.164-0.488-0.394l-0.232-1.065      c-0.313-0.095-0.617-0.221-0.906-0.376l-0.92,0.588c-0.198,0.128-0.457,0.099-0.623-0.067L19.74,27.57      c-0.166-0.166-0.194-0.426-0.067-0.624l0.59-0.918c-0.156-0.29-0.282-0.594-0.377-0.906l-1.064-0.233      c-0.229-0.05-0.394-0.253-0.394-0.488v-1.484c0-0.235,0.164-0.438,0.394-0.488l1.064-0.233c0.095-0.313,0.221-0.616,0.377-0.906      l-0.59-0.92c-0.127-0.197-0.099-0.457,0.067-0.623l1.049-1.049c0.166-0.166,0.425-0.195,0.623-0.067l0.92,0.588      c0.289-0.155,0.593-0.282,0.906-0.377l0.232-1.063c0.05-0.229,0.253-0.394,0.488-0.394h1.484c0.234,0,0.438,0.163,0.488,0.393      l0.233,1.064c0.313,0.095,0.616,0.221,0.907,0.377l0.918-0.588c0.198-0.126,0.456-0.099,0.623,0.067l1.049,1.049      c0.166,0.166,0.194,0.425,0.067,0.623l-0.588,0.92c0.155,0.29,0.282,0.594,0.377,0.906l1.064,0.233      c0.229,0.05,0.394,0.253,0.394,0.488V24.4c0,0.235-0.164,0.438-0.394,0.488l-1.065,0.233c-0.094,0.313-0.22,0.615-0.376,0.906      l0.588,0.919c0.127,0.197,0.099,0.457-0.067,0.623l-1.049,1.05c-0.167,0.167-0.429,0.192-0.623,0.067l-0.918-0.589      c-0.291,0.155-0.594,0.281-0.907,0.376l-0.233,1.066C25.882,29.771,25.679,29.934,25.443,29.934z M24.362,28.934h0.679      l0.213-0.971c0.041-0.188,0.188-0.336,0.375-0.38c0.42-0.098,0.821-0.264,1.194-0.494c0.162-0.102,0.37-0.101,0.532,0.004      l0.835,0.535l0.48-0.48l-0.535-0.836c-0.104-0.162-0.105-0.369-0.004-0.533c0.231-0.373,0.397-0.774,0.494-1.192      c0.044-0.188,0.191-0.335,0.381-0.376l0.97-0.212v-0.68l-0.968-0.212c-0.188-0.041-0.336-0.187-0.38-0.374      c-0.1-0.421-0.267-0.822-0.497-1.194c-0.102-0.164-0.101-0.371,0.004-0.533l0.535-0.837l-0.48-0.48l-0.835,0.535      c-0.162,0.104-0.37,0.104-0.532,0.004c-0.374-0.231-0.776-0.398-1.195-0.497c-0.188-0.044-0.333-0.191-0.374-0.379l-0.213-0.968      h-0.68L24.15,19.35c-0.041,0.188-0.187,0.336-0.374,0.38c-0.422,0.1-0.823,0.267-1.194,0.497      c-0.161,0.101-0.37,0.101-0.533-0.004l-0.837-0.535l-0.48,0.48l0.537,0.837c0.104,0.162,0.105,0.369,0.004,0.533      c-0.23,0.372-0.397,0.773-0.497,1.194c-0.044,0.188-0.191,0.333-0.38,0.374l-0.968,0.212v0.68l0.968,0.212      c0.188,0.041,0.336,0.187,0.38,0.374c0.1,0.421,0.267,0.822,0.497,1.194c0.102,0.164,0.101,0.371-0.004,0.534l-0.536,0.836      l0.479,0.479l0.837-0.535c0.163-0.104,0.372-0.104,0.533-0.004c0.369,0.229,0.771,0.396,1.193,0.494      c0.188,0.044,0.334,0.192,0.375,0.381L24.362,28.934z M24.701,26.634c-1.641,0-2.975-1.334-2.975-2.975s1.334-2.975,2.975-2.975      s2.975,1.334,2.975,2.975S26.342,26.634,24.701,26.634z M24.701,21.685c-1.089,0-1.975,0.886-1.975,1.975      s0.886,1.975,1.975,1.975s1.975-0.886,1.975-1.975S25.79,21.685,24.701,21.685z" fill="#263238"/></g></g></g></g></svg>