<?xml version="1.0" encoding="utf-8"?>
<!-- Generator: Adobe Illustrator 19.0.0, SVG Export Plug-In . SVG Version: 6.00 Build 0)  -->
<svg version="1.1" id="Layer_1" xmlns="http://www.w3.org/2000/svg" xmlns:xlink="http://www.w3.org/1999/xlink" x="0px" y="0px"
	 viewBox="328 121 1268 552" style="enable-background:new 328 121 1268 552;" xml:space="preserve">
<style type="text/css">
	.st0{fill:#FFFFFF;stroke:#000000;stroke-width:4;stroke-miterlimit:10;}
	.st1{fill:none;stroke:#000000;stroke-width:4;stroke-miterlimit:10;}
	.st2{enable-background:new    ;}
	.st3{fill:#103B9B;}
	.st4{fill:#FFFFFF;}
	.st5{fill:#ED1F34;}
	.st6{clip-path:url(#SVGID_2_);fill:#ED1F34;}
	.st7{clip-path:url(#SVGID_4_);}
	.st8{fill:#FFE000;}
	.st9{clip-path:url(#SVGID_6_);fill:#ED1F34;}
	.st10{clip-path:url(#SVGID_8_);}
	.st11{fill:#164FCE;}
	.st12{clip-path:url(#SVGID_10_);fill:#FFFFFF;}
	.st13{clip-path:url(#SVGID_12_);}
	.st14{clip-path:url(#SVGID_14_);fill:#ED1F34;}
	.st15{clip-path:url(#SVGID_16_);}
	.st16{clip-path:url(#SVGID_18_);fill:#164FCE;}
	.st17{clip-path:url(#SVGID_20_);}
	.st18{fill:#259245;}
	.st19{clip-path:url(#SVGID_22_);fill:#ED1F34;}
	.st20{clip-path:url(#SVGID_24_);}
	.st21{fill:#333333;}
	.st22{clip-path:url(#SVGID_26_);fill:#333333;}
	.st23{clip-path:url(#SVGID_28_);}
	.st24{clip-path:url(#SVGID_30_);fill:#ED1F34;}
	.st25{clip-path:url(#SVGID_32_);}
	.st26{clip-path:url(#SVGID_37_);}
	.st27{clip-path:url(#SVGID_38_);fill:#231F20;}
	.st28{fill:#B3B3B3;stroke:#000000;stroke-width:4;stroke-miterlimit:10;}
	.st29{fill:#29ABE2;stroke:#000000;stroke-width:3;stroke-miterlimit:10;}
	.st30{fill:#22B573;stroke:#000000;stroke-width:3;stroke-miterlimit:10;}
	.st31{clip-path:url(#SVGID_40_);}
	.st32{fill:none;stroke:#000000;stroke-width:3;stroke-miterlimit:10;}
	.st33{fill:#BDCCD4;stroke:#000000;stroke-width:4;stroke-miterlimit:10;}
	.st34{clip-path:url(#SVGID_42_);}
	.st35{clip-path:url(#SVGID_44_);}
</style>
<rect id="XMLID_272_" x="362" y="147" class="st0" width="1200" height="500"/>
<line id="XMLID_276_" class="st1" x1="362" y1="451" x2="568" y2="451"/>
<line id="XMLID_278_" class="st1" x1="1371" y1="391" x2="1370.3" y2="148.2"/>
<line id="XMLID_279_" class="st1" x1="1115" y1="357" x2="1115" y2="648"/>
<line id="XMLID_280_" class="st1" x1="1115" y1="391" x2="1562" y2="391"/>
<line id="XMLID_281_" class="st1" x1="604" y1="147" x2="604" y2="356"/>
<line id="XMLID_282_" class="st1" x1="976.3" y1="148" x2="977" y2="357"/>
<line id="XMLID_283_" class="st1" x1="568" y1="357" x2="568" y2="647"/>
<line id="XMLID_284_" class="st1" x1="908" y1="354" x2="908" y2="649"/>
<line id="XMLID_285_" class="st1" x1="1370" y1="317" x2="1562" y2="317"/>
<g id="XMLID_286_">
	<path d="M1518.6,187.4l-2.8,4.6l-6.5-3.9l2.9-4.5c0.7-1.1,1.8-1.7,3.1-1.7h0.3c2,0,3.7,1.6,3.7,3.7
		C1519.2,186.2,1519,186.9,1518.6,187.4L1518.6,187.4z M1501.9,213.1v-12.9l-0.2-0.2l2.4-3.7l6.6,4l-8,12.8H1501.9L1501.9,213.1z
		 M1501.9,220.2c-4,0.8-6.9,4.3-6.9,8.5s3,7.7,6.9,8.5v1.9H1436v-1.9c4-0.8,6.9-4.3,6.9-8.5s-3-7.7-6.9-8.5v-3.6h65.9V220.2
		L1501.9,220.2z M1493.2,282.4h-48.5c-4.8,0-8.7-3.9-8.7-8.7V272h55.5v-3.5H1436v-26h65.9v26h-6.9v3.5h6.9v1.7
		C1501.9,278.5,1498,282.4,1493.2,282.4L1493.2,282.4z M1424.2,194.6l6-4.8l16.3,23.3h-9.6L1424.2,194.6L1424.2,194.6z
		 M1418.6,185.4c0-2,1.6-3.6,3.6-3.6h0.6c1.2,0,2.2,0.6,2.9,1.5l2.5,3.5l-6,4.8l-2.9-4.3C1418.9,186.8,1418.6,186.1,1418.6,185.4
		L1418.6,185.4z M1470.7,181.8v3.5h-6.9v3.5h6.9v3.5h-3.5v3.5h3.5v3.5h-6.9v3.5h6.9v3.5h-3.5v3.5h3.5v3.5h-17.3v-31.5H1470.7
		L1470.7,181.8z M1481.1,204.4h10.4v-3.5h-9.8c1.7-2.1,5-6.5,6-12.1h4.1c1,5.6,4.3,10.1,6,12.1h-2.9v3.5h3.5v8.7h-17.3L1481.1,204.4
		L1481.1,204.4z M1488,181.8h1l2.5,2.5v1h-3.5V181.8L1488,181.8z M1507.4,191l6.6,3.9l-1.5,2.4l-6.6-4L1507.4,191L1507.4,191z
		 M1522.7,185.5c0-3.9-3.2-7.1-7.1-7.1h-0.3c-2.4,0-4.7,1.2-6,3.3l-9.9,15.5c-1.9-2.6-4.4-7-4.4-11.9v-2.5l-4.5-4.5h-5.9v6.9
		c0,7.8-6.4,14.3-6.4,14.4l-0.5,0.5V213h-3.5v-34.6h-24.3v33.4l-21.3-30.4c-1.3-1.9-3.5-3-5.8-3h-0.6c-3.9,0-7,3.2-7,7
		c0,1.4,0.4,2.8,1.2,4l16.3,23.7h-3.6v3.5h3.5v6.9h1.7c2.9,0,5.2,2.3,5.2,5.2s-2.3,5.2-5.2,5.2h-1.7v39.9c0,6.7,5.4,12.1,12.1,12.1
		h48.5c6.7,0,12.1-5.4,12.1-12.1v-39.9h-1.7c-2.9,0-5.2-2.3-5.2-5.2s2.3-5.2,5.2-5.2h1.7v-6.9h3.5v-3.5h-2.1l14.9-23.8
		C1522.3,188.1,1522.7,186.8,1522.7,185.5L1522.7,185.5z"/>
	<polygon id="XMLID_500_" points="1494.9,261.6 1498.4,261.6 1498.4,265.1 1494.9,265.1 	"/>
	<polygon id="XMLID_499_" points="1488,261.6 1491.5,261.6 1491.5,265.1 1488,265.1 	"/>
	<polygon id="XMLID_498_" points="1481.1,261.6 1484.5,261.6 1484.5,265.1 1481.1,265.1 	"/>
</g>
<g class="st2">
	<path d="M408.6,412.2h-3.1v-14.4H400v-2.6H414v2.6h-5.5V412.2z"/>
	<path d="M419.5,409.6h8.4v2.6h-11.5v-17h11v2.6h-7.9v4.4h6.8v2.6h-6.8V409.6z"/>
	<path d="M440.9,407.8h-6.4l-1.7,4.3h-3.3l6.7-17h2.8l6.7,17h-3.3L440.9,407.8z M437.7,399.3c-0.6,1.8-1.1,3.3-1.6,4.5l-0.6,1.5h4.4
		l-0.6-1.5C438.9,402.5,438.4,401,437.7,399.3L437.7,399.3z"/>
	<path d="M456.3,397.5c-0.8,0-1.6,0.1-2.3,0.4c-0.7,0.3-1.3,0.7-1.8,1.2s-0.9,1.2-1.2,2c-0.3,0.8-0.4,1.7-0.4,2.7
		c0,1,0.1,1.9,0.4,2.6c0.3,0.8,0.6,1.4,1.1,1.9s1.1,0.9,1.8,1.1c0.7,0.3,1.5,0.4,2.4,0.4c0.6,0,1.3-0.1,2-0.2s1.3-0.3,1.9-0.4v2.7
		c-0.6,0.2-1.2,0.3-1.9,0.4c-0.7,0.1-1.4,0.1-2.1,0.1c-1.4,0-2.7-0.2-3.8-0.6c-1.1-0.4-2-1-2.7-1.7c-0.7-0.8-1.3-1.6-1.7-2.7
		c-0.4-1-0.6-2.2-0.6-3.5c0-1.3,0.2-2.5,0.6-3.6s1-2.1,1.7-2.9c0.7-0.8,1.7-1.5,2.8-1.9s2.4-0.7,3.8-0.7c0.7,0,1.4,0,2,0.1
		c0.6,0.1,1.2,0.2,1.7,0.4v2.6c-0.7-0.2-1.3-0.4-1.9-0.4S456.9,397.5,456.3,397.5z"/>
	<path d="M466.3,402.2h7.9v-7h3.1v17h-3.1v-7.4h-7.9v7.4h-3.1v-17h3.1V402.2z"/>
	<path d="M481.4,412.2v-17h3.1v17H481.4z"/>
	<path d="M497.4,403.1c1.2,1.7,2.2,3.3,3,4.6h0.1c-0.1-2.2-0.2-3.8-0.2-4.8v-7.7h3.1v17h-3.3l-5.5-7.8c-1-1.4-2-2.9-3-4.7h-0.1
		c0.1,2.1,0.2,3.7,0.2,4.8v7.7h-3.1v-17h3.3L497.4,403.1z"/>
	<path d="M518,405.7h-3.8v-2.6h6.9v8.6c-0.3,0.1-0.6,0.2-1,0.3s-0.8,0.2-1.3,0.3c-0.5,0.1-1,0.1-1.5,0.2s-1,0.1-1.5,0.1
		c-1.5,0-2.9-0.2-4-0.6c-1.1-0.4-2.1-1-2.8-1.7s-1.3-1.6-1.7-2.7c-0.4-1-0.6-2.2-0.6-3.4c0-0.9,0.1-1.7,0.3-2.5
		c0.2-0.8,0.5-1.5,0.9-2.2c0.4-0.7,0.9-1.3,1.4-1.8c0.6-0.5,1.2-1,1.9-1.4s1.5-0.7,2.3-0.9c0.8-0.2,1.7-0.3,2.7-0.3
		c0.9,0,1.7,0.1,2.4,0.2c0.8,0.1,1.4,0.3,1.9,0.5v2.6c-0.7-0.2-1.3-0.4-2-0.5s-1.4-0.2-2-0.2c-0.9,0-1.8,0.1-2.6,0.4
		c-0.8,0.3-1.5,0.7-2.1,1.2c-0.6,0.5-1.1,1.2-1.4,2s-0.5,1.7-0.5,2.7c0,2,0.5,3.5,1.6,4.5c1,1,2.5,1.5,4.4,1.5c0.4,0,0.7,0,1.1-0.1
		c0.4,0,0.7-0.1,1-0.1V405.7z"/>
</g>
<g class="st2">
	<path d="M954.5,603v14.4h7.9v2.6h-11.1v-17H954.5z"/>
	<path d="M968.5,617.4h8.4v2.6h-11.5v-17h11v2.6h-7.9v4.4h6.8v2.6h-6.8V617.4z"/>
	<path d="M989.8,615.7h-6.4l-1.7,4.3h-3.3l6.7-17h2.8l6.7,17h-3.3L989.8,615.7z M986.6,607.1c-0.6,1.8-1.1,3.3-1.6,4.5l-0.6,1.5h4.4
		l-0.6-1.5C987.8,610.4,987.3,608.9,986.6,607.1L986.6,607.1z"/>
	<path d="M1009.8,608.1c0,1.2-0.3,2.2-1,3c-0.7,0.8-1.7,1.4-3,1.8v0.1l5.1,7h-3.7l-4.6-6.6h-2.1v6.6h-3.1v-17h5.2
		c0.9,0,1.7,0,2.4,0.1c0.7,0.1,1.4,0.2,1.9,0.4c1,0.4,1.8,0.9,2.3,1.7C1009.5,606,1009.8,607,1009.8,608.1z M1001.8,610.8
		c0.7,0,1.3,0,1.8-0.1c0.5-0.1,0.9-0.2,1.3-0.3c0.6-0.2,1.1-0.6,1.3-1c0.2-0.4,0.4-0.9,0.4-1.4c0-0.5-0.1-0.9-0.3-1.2
		c-0.2-0.4-0.5-0.6-1-0.8c-0.3-0.1-0.7-0.2-1.1-0.3c-0.4-0.1-1-0.1-1.7-0.1h-2.2v5.2H1001.8z"/>
	<path d="M1022.4,610.9c1.2,1.7,2.2,3.3,3,4.6h0.1c-0.1-2.2-0.2-3.8-0.2-4.8V603h3.1v17h-3.3l-5.5-7.8c-1-1.4-2-2.9-3-4.7h-0.1
		c0.1,2.1,0.2,3.7,0.2,4.8v7.7h-3.1v-17h3.3L1022.4,610.9z"/>
	<path d="M1032.4,620v-17h3.1v17H1032.4z"/>
	<path d="M1048.5,610.9c1.2,1.7,2.2,3.3,3,4.6h0.1c-0.1-2.2-0.2-3.8-0.2-4.8V603h3.1v17h-3.3l-5.5-7.8c-1-1.4-2-2.9-3-4.7h-0.1
		c0.1,2.1,0.2,3.7,0.2,4.8v7.7h-3.1v-17h3.3L1048.5,610.9z"/>
	<path d="M1069.1,613.5h-3.8v-2.6h6.9v8.6c-0.3,0.1-0.6,0.2-1,0.3s-0.8,0.2-1.3,0.3c-0.5,0.1-1,0.1-1.5,0.2c-0.5,0.1-1,0.1-1.5,0.1
		c-1.5,0-2.9-0.2-4-0.6c-1.1-0.4-2.1-1-2.8-1.7c-0.8-0.7-1.3-1.6-1.7-2.7c-0.4-1-0.6-2.2-0.6-3.4c0-0.9,0.1-1.7,0.3-2.5
		c0.2-0.8,0.5-1.5,0.9-2.2c0.4-0.7,0.9-1.3,1.4-1.8c0.6-0.5,1.2-1,1.9-1.4c0.7-0.4,1.5-0.7,2.3-0.9c0.8-0.2,1.7-0.3,2.7-0.3
		c0.9,0,1.7,0.1,2.4,0.2c0.8,0.1,1.4,0.3,1.9,0.5v2.6c-0.7-0.2-1.3-0.4-2-0.5s-1.4-0.2-2-0.2c-0.9,0-1.8,0.1-2.6,0.4
		c-0.8,0.3-1.5,0.7-2.1,1.2c-0.6,0.5-1.1,1.2-1.4,2c-0.3,0.8-0.5,1.7-0.5,2.7c0,2,0.5,3.5,1.6,4.5c1,1,2.5,1.5,4.4,1.5
		c0.4,0,0.7,0,1.1-0.1c0.4,0,0.7-0.1,1-0.1V613.5z"/>
</g>
<g class="st2">
	<path d="M1396.6,431.5h-3.8v-2.6h6.9v8.6c-0.3,0.1-0.6,0.2-1,0.3c-0.4,0.1-0.8,0.2-1.3,0.3c-0.5,0.1-1,0.1-1.5,0.2s-1,0.1-1.5,0.1
		c-1.5,0-2.9-0.2-4-0.6c-1.1-0.4-2.1-1-2.8-1.7c-0.8-0.7-1.3-1.6-1.7-2.7c-0.4-1-0.6-2.2-0.6-3.4c0-0.9,0.1-1.7,0.3-2.5
		c0.2-0.8,0.5-1.5,0.9-2.2c0.4-0.7,0.9-1.3,1.4-1.8s1.2-1,1.9-1.4c0.7-0.4,1.5-0.7,2.3-0.9c0.8-0.2,1.7-0.3,2.7-0.3
		c0.9,0,1.7,0.1,2.4,0.2c0.8,0.1,1.4,0.3,1.9,0.5v2.6c-0.7-0.2-1.3-0.4-2-0.5c-0.7-0.1-1.4-0.2-2-0.2c-0.9,0-1.8,0.1-2.6,0.4
		c-0.8,0.3-1.5,0.7-2.1,1.2c-0.6,0.5-1.1,1.2-1.4,2s-0.5,1.7-0.5,2.7c0,2,0.5,3.5,1.6,4.5c1,1,2.5,1.5,4.4,1.5c0.4,0,0.7,0,1.1-0.1
		c0.4,0,0.7-0.1,1-0.1V431.5z"/>
	<path d="M1406.6,435.4h8.4v2.6h-11.5v-17h11v2.6h-7.9v4.4h6.8v2.6h-6.8V435.4z"/>
	<path d="M1426.6,433.1c0-0.4-0.1-0.8-0.3-1c-0.2-0.3-0.5-0.5-0.9-0.7s-0.8-0.3-1.2-0.4c-0.5-0.1-0.9-0.2-1.4-0.3
		c-0.7-0.1-1.3-0.3-1.9-0.5c-0.6-0.2-1.1-0.5-1.6-0.8c-0.5-0.4-0.8-0.8-1.1-1.3s-0.4-1.2-0.4-2c0-0.9,0.2-1.7,0.5-2.3
		c0.3-0.7,0.7-1.2,1.3-1.7c0.5-0.4,1.2-0.8,1.9-1c0.7-0.2,1.5-0.3,2.4-0.3s1.8,0.1,2.7,0.3s1.7,0.4,2.4,0.7v2.7
		c-0.9-0.3-1.7-0.6-2.5-0.8c-0.8-0.2-1.6-0.2-2.3-0.2c-1,0-1.8,0.2-2.4,0.6c-0.6,0.4-0.8,0.9-0.8,1.7c0,0.4,0.1,0.8,0.3,1.1
		c0.2,0.3,0.4,0.5,0.7,0.7c0.3,0.2,0.7,0.3,1.1,0.4s0.8,0.2,1.3,0.3c0.7,0.2,1.4,0.3,2.1,0.5c0.7,0.2,1.2,0.5,1.7,0.8
		s0.9,0.8,1.2,1.4c0.3,0.6,0.4,1.3,0.4,2.2c0,0.9-0.2,1.7-0.5,2.4s-0.8,1.2-1.4,1.7c-0.6,0.4-1.4,0.8-2.3,1s-1.9,0.3-2.9,0.3
		c-0.9,0-1.8-0.1-2.7-0.3c-0.9-0.2-1.6-0.4-2.2-0.8v-2.6c0.8,0.4,1.7,0.6,2.5,0.8c0.8,0.2,1.6,0.2,2.5,0.2c0.5,0,1,0,1.4-0.1
		c0.5-0.1,0.9-0.2,1.3-0.4c0.4-0.2,0.7-0.5,0.9-0.8C1426.5,434,1426.6,433.6,1426.6,433.1z"/>
	<path d="M1438,431.4c-0.3,0-0.6,0-0.8,0s-0.5,0-0.8-0.1v6.6h-3.1v-17h4.9c0.8,0,1.5,0,2.2,0.1c0.6,0.1,1.2,0.2,1.6,0.3
		c1.2,0.4,2.1,0.9,2.7,1.7s0.9,1.8,0.9,3c0,0.8-0.2,1.6-0.5,2.2c-0.3,0.7-0.8,1.2-1.5,1.7s-1.4,0.8-2.4,1.1S1439.2,431.4,1438,431.4
		z M1436.4,428.7c0.2,0,0.4,0,0.7,0.1c0.3,0,0.6,0,0.9,0c0.8,0,1.5-0.1,2.1-0.2s1-0.3,1.4-0.6c0.3-0.2,0.6-0.5,0.7-0.9
		c0.2-0.3,0.2-0.7,0.2-1.1c0-0.5-0.1-0.9-0.3-1.3s-0.6-0.6-1.2-0.9c-0.3-0.1-0.7-0.2-1.1-0.2c-0.4,0-1-0.1-1.6-0.1h-1.8V428.7z"/>
	<path d="M1461.5,426.1c0,1.2-0.3,2.2-1,3c-0.7,0.8-1.7,1.4-3,1.8v0.1l5.1,7h-3.7l-4.6-6.6h-2.1v6.6h-3.1v-17h5.2
		c0.9,0,1.7,0,2.4,0.1c0.7,0.1,1.4,0.2,1.9,0.4c1,0.4,1.8,0.9,2.3,1.7C1461.2,424,1461.5,425,1461.5,426.1z M1453.5,428.8
		c0.7,0,1.3,0,1.8-0.1c0.5-0.1,0.9-0.2,1.3-0.3c0.6-0.2,1.1-0.6,1.3-1c0.2-0.4,0.4-0.9,0.4-1.4c0-0.5-0.1-0.9-0.3-1.2
		c-0.2-0.4-0.5-0.6-1-0.8c-0.3-0.1-0.7-0.2-1.1-0.3c-0.4-0.1-1-0.1-1.7-0.1h-2.2v5.2H1453.5z"/>
	<path d="M1474.9,433.7h-6.4l-1.7,4.3h-3.3l6.7-17h2.8l6.7,17h-3.3L1474.9,433.7z M1467.7,416.8h2.8v2.9h-2.8V416.8z M1471.7,425.1
		c-0.6,1.8-1.1,3.3-1.6,4.5l-0.6,1.5h4.4l-0.6-1.5C1472.9,428.4,1472.4,426.9,1471.7,425.1L1471.7,425.1z M1472.9,416.8h2.8v2.9
		h-2.8V416.8z"/>
	<path d="M1490.3,423.3c-0.8,0-1.6,0.1-2.3,0.4c-0.7,0.3-1.3,0.7-1.8,1.2c-0.5,0.5-0.9,1.2-1.2,2c-0.3,0.8-0.4,1.7-0.4,2.7
		c0,1,0.1,1.9,0.4,2.6c0.3,0.8,0.6,1.4,1.1,1.9s1.1,0.9,1.8,1.1c0.7,0.3,1.5,0.4,2.4,0.4c0.6,0,1.3-0.1,2-0.2s1.3-0.3,1.9-0.4v2.7
		c-0.6,0.2-1.2,0.3-1.9,0.4c-0.7,0.1-1.4,0.1-2.1,0.1c-1.4,0-2.7-0.2-3.8-0.6c-1.1-0.4-2-1-2.7-1.7c-0.7-0.8-1.3-1.6-1.7-2.7
		c-0.4-1-0.6-2.2-0.6-3.5c0-1.3,0.2-2.5,0.6-3.6c0.4-1.1,1-2.1,1.7-2.9c0.7-0.8,1.7-1.5,2.8-1.9c1.1-0.5,2.4-0.7,3.8-0.7
		c0.7,0,1.4,0,2,0.1c0.6,0.1,1.2,0.2,1.7,0.4v2.6c-0.7-0.2-1.3-0.4-1.9-0.4S1490.9,423.3,1490.3,423.3z"/>
	<path d="M1500.4,428h7.9v-7h3.1v17h-3.1v-7.4h-7.9v7.4h-3.1v-17h3.1V428z"/>
</g>
<line id="XMLID_290_" class="st1" x1="1166" y1="148" x2="1166" y2="391"/>
<line id="XMLID_293_" class="st1" x1="1332" y1="391" x2="1332" y2="468"/>
<line id="XMLID_294_" class="st1" x1="1332" y1="468" x2="1332" y2="648"/>
<line id="XMLID_295_" class="st1" x1="908" y1="573" x2="1332" y2="573"/>
<g id="XMLID_296_">
	<path class="st3" d="M870.1,311.2v-13.9l20.8,13.9H870.1z"/>
	<path class="st3" d="M870.3,297.6v13.5h20.2L870.3,297.6z"/>
	<path class="st3" d="M888.3,286.4H913v16.5L888.3,286.4z"/>
	<path class="st3" d="M912.9,286.5h-24.1l24.1,16.1V286.5z"/>
	<path class="st3" d="M870.1,330.5h20.8l-20.8,13.9V330.5z"/>
	<path class="st3" d="M870.3,330.6v13.5l20.2-13.5H870.3z"/>
	<path class="st3" d="M932.3,286.4H957l-24.7,16.5V286.4z"/>
	<path class="st3" d="M956.5,286.5h-24.1v16.1L956.5,286.5z"/>
	<path class="st3" d="M954.4,311.2l20.8-13.9v13.9H954.4z"/>
	<path class="st3" d="M975,311.1v-13.5l-20.2,13.5H975z"/>
	<path class="st3" d="M888.3,355.3l24.7-16.5v16.5H888.3z"/>
	<path class="st3" d="M888.8,355.2h24.1v-16.1L888.8,355.2z"/>
	<path class="st3" d="M954.4,330.5h20.8v13.9L954.4,330.5z"/>
	<path class="st3" d="M975,344.1v-13.5h-20.2L975,344.1z"/>
	<path class="st3" d="M932.3,355.3v-16.5l24.7,16.5H932.3z"/>
	<path class="st3" d="M932.4,355.2h24.1l-24.1-16.1V355.2z"/>
	<path class="st4" d="M956.5,286.5l-24.1,16.1v-16.1h-2.7v27.3H975v-2.7h-20.2l20.2-13.5V288l-34.5,23h-8.1v-6.7l26.7-17.8H956.5z"
		/>
	<path class="st4" d="M888.8,355.2l24.1-16.1v16.1h2.7v-27.3h-45.3v2.7h20.2l-20.2,13.5v9.6l34.5-23h8.1v6.7l-26.7,17.8H888.8z"/>
	<path class="st5" d="M874,355.3l37.3-24.9h1.8v2.6l-33.3,22.3L874,355.3L874,355.3z"/>
	<path class="st5" d="M911.3,330.6l-36.8,24.6h5.2L913,333v-2.4L911.3,330.6L911.3,330.6z"/>
	<path class="st5" d="M899.4,311.2l-29.3-19.6v-3.8l35.1,23.4L899.4,311.2L899.4,311.2z"/>
	<path class="st5" d="M870.3,288.1v3.5l29.2,19.5h5.3L870.3,288.1z"/>
	<path class="st5" d="M940.1,330.5h5.5l29.6,19.8v3.6L940.1,330.5z"/>
	<path class="st5" d="M975,353.6v-3.3l-29.5-19.7h-5L975,353.6z"/>
	<path class="st5" d="M932.3,311.2v-2.6l33.3-22.3h5.7L934,311.2L932.3,311.2L932.3,311.2z"/>
	<g>
		<g>
			<defs>
				<rect id="SVGID_1_" x="866.7" y="282.8" width="111.9" height="76.2"/>
			</defs>
			<clipPath id="SVGID_2_">
				<use xlink:href="#SVGID_1_"  style="overflow:visible;"/>
			</clipPath>
			<path class="st6" d="M934,311.1l36.8-24.6h-5.2l-33.3,22.2v2.4L934,311.1L934,311.1z"/>
		</g>
		<g>
			<defs>
				<rect id="SVGID_3_" x="866.7" y="282.8" width="111.9" height="76.2"/>
			</defs>
			<clipPath id="SVGID_4_">
				<use xlink:href="#SVGID_3_"  style="overflow:visible;"/>
			</clipPath>
			<path class="st7" d="M978.6,357v-72.3l0,0v-0.1c0,0,0,0,0-0.1v-0.1v-0.1v-0.1v-0.1c0,0,0,0,0-0.1c0,0,0-0.1-0.1-0.1l0,0l-0.1-0.1
				l0,0l0,0c0-0.1-0.1-0.1-0.1-0.1s0,0-0.1-0.1c0,0,0,0-0.1-0.1l-0.1-0.1l0,0c0,0-0.1,0-0.1-0.1l0,0c0,0-0.1,0-0.1-0.1
				c0,0,0,0-0.1,0c0,0,0,0-0.1,0h-0.1c0,0,0,0-0.1,0h-0.1l0,0h-0.1c0,0,0,0-0.1,0H977c-0.1,0-0.1,0-0.2,0l0,0H868.5
				c-0.1,0-0.1,0-0.2,0h-0.1l0,0h-0.1l0,0H868l0,0h-0.1c0,0,0,0-0.1,0h-0.1h-0.1c0,0,0,0-0.1,0c0,0-0.1,0-0.1,0.1l0,0l-0.1,0.1
				l-0.1,0.1l0,0l-0.1,0.1l0,0l0,0l-0.1,0.1c0,0,0,0,0,0.1c0,0,0,0.1-0.1,0.1c0,0,0,0,0,0.1v0.1v0.1v0.1v0.1c0,0,0,0,0,0.1v0.1l0,0
				V357l0,0v0.1c0,0,0,0,0,0.1v0.1v0.1v0.1v0.1c0,0,0,0,0,0.1c0,0,0,0.1,0.1,0.1l0,0l0.1,0.1l0,0l0,0c0,0.1,0.1,0.1,0.1,0.2l0,0
				l0.1,0.1c0,0,0,0,0.1,0.1l0.1,0.1l0,0c0.1,0,0.1,0.1,0.2,0.1l0,0c0,0,0.1,0,0.1,0.1c0,0,0,0,0.1,0h0.1c0,0,0,0,0.1,0
				c0,0,0.1,0,0.2,0c0,0,0,0,0.1,0s0.1,0,0.2,0l0,0h108.3l0,0l0,0c0.1,0,0.1,0,0.2,0c0,0,0,0,0.1,0s0.1,0,0.2,0c0,0,0,0,0.1,0h0.1
				c0,0,0,0,0.1,0c0,0,0.1,0,0.1-0.1l0,0c0.1,0,0.1-0.1,0.2-0.1l0,0l0.1-0.1c0,0,0,0,0.1-0.1l0.1-0.1l0,0c0-0.1,0.1-0.1,0.1-0.2l0,0
				l0,0l0.1-0.1l0,0c0,0,0-0.1,0.1-0.1c0,0,0,0,0-0.1v-0.1v-0.1v-0.1v-0.1c0,0,0,0,0-0.1C978.6,357.1,978.6,357.1,978.6,357
				L978.6,357L978.6,357L978.6,357L978.6,357z M932.4,308.7l33.3-22.2h5.2L934,311.1h6.5l34.5-23v25.7h-45.3v-27.3h29.5l-26.7,17.8
				L932.4,308.7L932.4,308.7z M915.6,313.8h-45.3v-17.9l22.7,15.2h6.5l-29.2-19.5v-3.5l34.5,23h6.5l-36.8-24.6h41.2v27.3H915.6z
				 M912.9,333l-33.3,22.2h-5.2l36.8-24.6h-6.5l-34.5,23v-25.7h45.3v27.3h-29.4l26.7-17.8V333H912.9z M929.7,327.9h32.7
				c1,0,1.8-0.8,1.8-1.8s-0.8-1.8-1.8-1.8h-34.5c-1,0-1.8,0.8-1.8,1.8v29.1h-6.9v-29.1c0-1-0.8-1.8-1.8-1.8h-47.1v-6.9h47.1
				c1,0,1.8-0.8,1.8-1.8v-29.1h6.9v29.1c0,1,0.8,1.8,1.8,1.8H975v6.9h-5.4c-1,0-1.8,0.8-1.8,1.8s0.8,1.8,1.8,1.8h5.4V346l-23-15.4
				h-6.5l29.5,19.7v3.3l-34.5-23H934l36.8,24.6h-41.2v-27.3H929.7z"/>
		</g>
	</g>
	<path class="st4" d="M912.9,302.6l-24.1-16.1h-14.3l36.8,24.6H893l-22.7-15.2v1.7l20.2,13.5h-20.2v2.7h45.3v-27.3h-2.7L912.9,302.6
		L912.9,302.6z"/>
	<path class="st4" d="M932.4,339.1l24.1,16.1h14.3L934,330.6h18l23,15.4v-1.9l-20.2-13.5H975v-2.7h-5.4c-1,0-1.8-0.8-1.8-1.8h-3.6
		c0,1-0.8,1.8-1.8,1.8h-32.7v27.3h2.7V339.1z"/>
	<path class="st5" d="M919.1,355.3v-29.2c0-0.9-0.7-1.7-1.7-1.7h-47.3v-7.2h47.3c0.9,0,1.7-0.7,1.7-1.7v-29.2h7.1v29.2
		c0,0.9,0.7,1.7,1.7,1.7h47.3v7.2h-5.6c-0.9,0-1.7,0.7-1.7,1.7v0.1H964v-0.1c0-0.9-0.7-1.7-1.7-1.7h-34.5c-0.9,0-1.7,0.7-1.7,1.7
		v29.2H919.1z"/>
	<path class="st5" d="M967.8,326.1c0-1,0.8-1.8,1.8-1.8h5.4v-6.9h-47.1c-1,0-1.8-0.8-1.8-1.8v-29.1h-6.9v29.1c0,1-0.8,1.8-1.8,1.8
		h-47.1v6.9h47.1c1,0,1.8,0.8,1.8,1.8v29.1h6.9v-29.1c0-1,0.8-1.8,1.8-1.8h34.5c1,0,1.8,0.8,1.8,1.8H967.8z"/>
</g>
<g id="XMLID_297_">
	<path class="st8" d="M656.4,556.3v-0.1c0-0.9-0.7-1.7-1.7-1.7h-85.2v-32.8h105.2v32.8h-12.8c-0.9,0-1.7,0.7-1.7,1.7v0.1H656.4z"/>
	<path class="st8" d="M661.9,554.4h12.7v-32.6h-105v32.6h85c1,0,1.8,0.8,1.8,1.8h3.6C660.1,555.2,660.9,554.4,661.9,554.4
		L661.9,554.4z"/>
	<rect id="XMLID_612_" x="569.5" y="503.6" class="st5" width="105.2" height="14.8"/>
	<rect id="XMLID_611_" x="569.6" y="503.7" class="st5" width="104.9" height="14.5"/>
	<path class="st5" d="M569.5,572.6v-14.8h85.2c0.9,0,1.7-0.7,1.7-1.7V556h3.9v0.1c0,0.9,0.7,1.7,1.7,1.7h12.8v14.8H569.5z"/>
	<g>
		<g>
			<defs>
				<rect id="SVGID_5_" x="566" y="500" width="112.2" height="76.2"/>
			</defs>
			<clipPath id="SVGID_6_">
				<use xlink:href="#SVGID_5_"  style="overflow:visible;"/>
			</clipPath>
			<path class="st9" d="M661.9,558c-1,0-1.8-0.8-1.8-1.8h-3.6c0,1-0.8,1.8-1.8,1.8h-85v14.5h104.9V558H661.9z"/>
		</g>
		<g>
			<defs>
				<rect id="SVGID_7_" x="566" y="500" width="112.2" height="76.2"/>
			</defs>
			<clipPath id="SVGID_8_">
				<use xlink:href="#SVGID_7_"  style="overflow:visible;"/>
			</clipPath>
			<path class="st10" d="M676.4,500.1H567.8c-1,0-1.8,0.8-1.8,1.8v72.4c0,1,0.8,1.8,1.8,1.8h108.6c1,0,1.8-0.8,1.8-1.8v-72.4
				C678.2,500.9,677.4,500.1,676.4,500.1L676.4,500.1z M674.6,503.7v14.5h-105v-14.5H674.6z M569.6,572.5V558h85
				c1,0,1.8-0.8,1.8-1.8s-0.8-1.8-1.8-1.8h-85v-32.6h104.9v32.6h-12.7c-1,0-1.8,0.8-1.8,1.8s0.8,1.8,1.8,1.8h12.7v14.5H569.6z"/>
		</g>
	</g>
</g>
<g id="XMLID_298_">
	<path class="st11" d="M1311.7,439.3v-0.1c0-0.9-0.7-1.7-1.7-1.7h-85.2v-20.8h20.3v0.1c0.1,5.4,4.5,8.8,8.7,10
		c0.2,0,0.3,0.1,0.5,0.1c0.2,0,0.3,0,0.5-0.1c4.2-1.3,8.6-4.6,8.7-10v-0.1h66.6v20.8h-12.8c-0.9,0-1.7,0.7-1.7,1.7v0.1H1311.7z"/>
	<path class="st11" d="M1317.3,437.3h12.7v-20.5h-66.3c-0.1,5.5-4.6,8.9-8.8,10.2c-0.2,0.1-0.4,0.1-0.5,0.1c-0.2,0-0.4,0-0.5-0.1
		c-4.2-1.3-8.7-4.7-8.8-10.2h-20v20.5h85c1,0,1.8,0.8,1.8,1.8h3.6C1315.5,438.2,1316.3,437.3,1317.3,437.3L1317.3,437.3z"/>
	<path class="st5" d="M1224.9,461.6v-20.8h85.2c0.9,0,1.7-0.7,1.7-1.7V439h3.9v0.1c0,0.9,0.7,1.7,1.7,1.7h12.8v20.8H1224.9z"/>
	<path class="st5" d="M1317.3,441c-1,0-1.8-0.8-1.8-1.8h-3.6c0,1-0.8,1.8-1.8,1.8h-85v20.5H1330V441H1317.3z"/>
	<g>
		<g>
			<defs>
				<rect id="SVGID_9_" x="1221.4" y="389" width="112.2" height="76.2"/>
			</defs>
			<clipPath id="SVGID_10_">
				<use xlink:href="#SVGID_9_"  style="overflow:visible;"/>
			</clipPath>
			<path class="st12" d="M1245.1,413.2v-8.4c0-1,0.8-1.8,1.8-1.8h15c1,0,1.8,0.8,1.8,1.8v8.4h66.3v-20.5h-105v20.5H1245.1z"/>
		</g>
		<g>
			<defs>
				<rect id="SVGID_11_" x="1221.4" y="389" width="112.2" height="76.2"/>
			</defs>
			<clipPath id="SVGID_12_">
				<use xlink:href="#SVGID_11_"  style="overflow:visible;"/>
			</clipPath>
			<path class="st13" d="M1331.8,389.1h-108.6c-1,0-1.8,0.8-1.8,1.8v72.4c0,1,0.8,1.8,1.8,1.8h108.6c1,0,1.8-0.8,1.8-1.8v-72.4
				C1333.6,389.9,1332.8,389.1,1331.8,389.1L1331.8,389.1z M1330,392.7v20.5h-66.3v-8.4c0-1-0.8-1.8-1.8-1.8h-15
				c-1,0-1.8,0.8-1.8,1.8v8.4h-20v-20.5H1330z M1260.1,415v1.7c0,4.1-3.8,6-5.7,6.6c-1.8-0.7-5.7-2.5-5.7-6.6v-10.1h11.4V415z
				 M1225,461.5V441h85c1,0,1.8-0.8,1.8-1.8s-0.8-1.8-1.8-1.8h-85v-20.5h20c0.1,5.5,4.6,8.9,8.8,10.2c0.2,0.1,0.4,0.1,0.5,0.1
				c0.2,0,0.4,0,0.5-0.1c4.2-1.3,8.7-4.7,8.8-10.2h66.3v20.5h-12.7c-1,0-1.8,0.8-1.8,1.8s0.8,1.8,1.8,1.8h12.7v20.5H1225z"/>
		</g>
	</g>
	<rect id="XMLID_621_" x="1248.5" y="406.4" class="st11" width="11.6" height="8.7"/>
	<rect id="XMLID_620_" x="1248.7" y="406.6" class="st11" width="11.4" height="8.4"/>
	<path class="st4" d="M1248.7,416.7c0,4.1,3.8,6,5.7,6.6c1.8-0.7,5.7-2.5,5.7-6.6V415h-11.4V416.7z"/>
</g>
<g id="XMLID_299_">
	<path class="st3" d="M1203.3,439.3v-0.1c0-0.9-0.7-1.7-1.7-1.7h-85.2v-20.8h105.2v20.8h-12.8c-0.9,0-1.7,0.7-1.7,1.7v0.1H1203.3z"
		/>
	<path class="st3" d="M1208.8,437.3h12.7v-20.5h-104.9v20.5h85c1,0,1.8,0.8,1.8,1.8h3.6C1207,438.2,1207.8,437.3,1208.8,437.3
		L1208.8,437.3z"/>
	<rect id="XMLID_648_" x="1116.6" y="392.7" class="st4" width="104.9" height="20.5"/>
	<path class="st5" d="M1116.4,461.6v-20.8h85.2c0.9,0,1.7-0.7,1.7-1.7V439h3.9v0.1c0,0.9,0.7,1.7,1.7,1.7h12.8v20.8H1116.4z"/>
	<g>
		<g>
			<defs>
				<rect id="SVGID_13_" x="1113" y="389" width="112.2" height="76.2"/>
			</defs>
			<clipPath id="SVGID_14_">
				<use xlink:href="#SVGID_13_"  style="overflow:visible;"/>
			</clipPath>
			<path class="st14" d="M1208.8,441c-1,0-1.8-0.8-1.8-1.8h-3.6c0,1-0.8,1.8-1.8,1.8h-85v20.5h104.9V441H1208.8z"/>
		</g>
		<g>
			<defs>
				<rect id="SVGID_15_" x="1113" y="389" width="112.2" height="76.2"/>
			</defs>
			<clipPath id="SVGID_16_">
				<use xlink:href="#SVGID_15_"  style="overflow:visible;"/>
			</clipPath>
			<path class="st15" d="M1223.3,389.1h-108.6c-1,0-1.8,0.8-1.8,1.8v72.4c0,1,0.8,1.8,1.8,1.8h108.6c1,0,1.8-0.8,1.8-1.8v-72.4
				C1225.1,389.9,1224.3,389.1,1223.3,389.1L1223.3,389.1z M1221.5,392.7v20.5h-104.9v-20.5H1221.5z M1116.6,461.5V441h85
				c1,0,1.8-0.8,1.8-1.8s-0.8-1.8-1.8-1.8h-85v-20.5h104.9v20.5h-12.7c-1,0-1.8,0.8-1.8,1.8s0.8,1.8,1.8,1.8h12.7v20.5H1116.6z"/>
		</g>
	</g>
</g>
<g id="XMLID_300_">
	<rect id="XMLID_680_" x="569.5" y="576.2" class="st5" width="29.7" height="24.9"/>
	<rect id="XMLID_679_" x="569.6" y="576.4" class="st5" width="29.4" height="24.6"/>
	<rect id="XMLID_678_" x="618.4" y="576.2" class="st5" width="56.3" height="24.9"/>
	<rect id="XMLID_677_" x="618.6" y="576.4" class="st5" width="56" height="24.6"/>
	<rect id="XMLID_676_" x="618.4" y="620.4" class="st5" width="56.3" height="24.9"/>
	<rect id="XMLID_675_" x="618.6" y="620.5" class="st5" width="56" height="24.6"/>
	<rect id="XMLID_674_" x="569.5" y="620.4" class="st5" width="29.7" height="24.9"/>
	<rect id="XMLID_673_" x="569.6" y="620.5" class="st5" width="29.4" height="24.6"/>
	<path class="st4" d="M618.6,576.4h-2.7v27.3h58.7V601h-56V576.4z"/>
	<path class="st4" d="M599,601h-29.4v2.7h5.4c1,0,1.8,0.8,1.8,1.8h3.6c0-1,0.8-1.8,1.8-1.8h19.5v-27.3H599V601z"/>
	<path class="st4" d="M599,645.1h2.7v-27.3h-32.1v2.7H599V645.1z"/>
	<path class="st4" d="M618.6,620.5h56v-2.7h-58.7v27.3h2.7V620.5z"/>
	<path class="st11" d="M605.2,645.3V616c0-0.9-0.7-1.7-1.7-1.7h-34.1v-7.2h5.6c0.9,0,1.7-0.7,1.7-1.7v-0.1h3.9v0.1
		c0,0.9,0.7,1.7,1.7,1.7h21.3c0.9,0,1.7-0.7,1.7-1.7v-29.3h7.2v29.3c0,0.9,0.7,1.7,1.7,1.7h60.7v7.2h-60.7c-0.9,0-1.7,0.7-1.7,1.7
		v29.3H605.2z"/>
	<g>
		<g>
			<defs>
				<rect id="SVGID_17_" x="566" y="572.7" width="112.2" height="76.2"/>
			</defs>
			<clipPath id="SVGID_18_">
				<use xlink:href="#SVGID_17_"  style="overflow:visible;"/>
			</clipPath>
			<path class="st16" d="M575.1,607.3h-5.4v6.9h33.9c1,0,1.8,0.8,1.8,1.8v29.1h6.9V616c0-1,0.8-1.8,1.8-1.8h60.5v-6.9h-60.5
				c-1,0-1.8-0.8-1.8-1.8v-29.1h-6.9v29.1c0,1-0.8,1.8-1.8,1.8h-21.3c-1,0-1.8-0.8-1.8-1.8h-3.6
				C576.9,606.5,576.1,607.3,575.1,607.3L575.1,607.3z"/>
		</g>
		<g>
			<defs>
				<rect id="SVGID_19_" x="566" y="572.7" width="112.2" height="76.2"/>
			</defs>
			<clipPath id="SVGID_20_">
				<use xlink:href="#SVGID_19_"  style="overflow:visible;"/>
			</clipPath>
			<path class="st17" d="M676.4,572.8H567.8c-1,0-1.8,0.8-1.8,1.8V647c0,1,0.8,1.8,1.8,1.8h108.6c1,0,1.8-0.8,1.8-1.8v-72.4
				C678.2,573.6,677.4,572.8,676.4,572.8L676.4,572.8z M601.8,603.7h-19.5c-1,0-1.8,0.8-1.8,1.8s0.8,1.8,1.8,1.8h21.3
				c1,0,1.8-0.8,1.8-1.8v-29.1h6.9v29.1c0,1,0.8,1.8,1.8,1.8h60.5v6.9h-60.5c-1,0-1.8,0.8-1.8,1.8v29.1h-6.9V616
				c0-1-0.8-1.8-1.8-1.8h-33.9v-6.9h5.4c1,0,1.8-0.8,1.8-1.8s-0.8-1.8-1.8-1.8h-5.4v-27.3h32.1V603.7z M674.6,601v2.7h-58.7v-27.3
				h58.7V601z M569.6,620.5v-2.7h32.1v27.3h-32.1V620.5z M615.9,617.8h58.7v27.3h-58.7V617.8z"/>
		</g>
	</g>
</g>
<g id="XMLID_301_">
	<path class="st4" d="M638.4,443.9v-12.7h-32.6V500h32.6v-48.9c0-1,0.8-1.8,1.8-1.8v-3.6C639.2,445.7,638.4,444.9,638.4,443.9
		L638.4,443.9z"/>
	<rect id="XMLID_692_" x="569.5" y="431.1" class="st18" width="32.9" height="69"/>
	<rect id="XMLID_691_" x="569.6" y="431.3" class="st18" width="32.6" height="68.8"/>
	<path class="st5" d="M641.9,500.2v-49c0-0.9-0.7-1.7-1.7-1.7h-0.1v-3.9h0.1c0.9,0,1.7-0.7,1.7-1.7v-12.8h32.8v69h-32.8V500.2z"/>
	<g>
		<g>
			<defs>
				<rect id="SVGID_21_" x="566" y="427.6" width="112.2" height="76.2"/>
			</defs>
			<clipPath id="SVGID_22_">
				<use xlink:href="#SVGID_21_"  style="overflow:visible;"/>
			</clipPath>
			<path class="st19" d="M642,443.9c0,1-0.8,1.8-1.8,1.8v3.6c1,0,1.8,0.8,1.8,1.8V500h32.6v-68.8H642V443.9z"/>
		</g>
		<g>
			<defs>
				<rect id="SVGID_23_" x="566" y="427.6" width="112.2" height="76.2"/>
			</defs>
			<clipPath id="SVGID_24_">
				<use xlink:href="#SVGID_23_"  style="overflow:visible;"/>
			</clipPath>
			<path class="st20" d="M676.4,427.6H567.8c-1,0-1.8,0.8-1.8,1.8v72.4c0,1,0.8,1.8,1.8,1.8h108.6c1,0,1.8-0.8,1.8-1.8v-72.4
				C678.2,428.5,677.4,427.6,676.4,427.6L676.4,427.6z M674.6,500H642v-48.9c0-1-0.8-1.8-1.8-1.8s-1.8,0.8-1.8,1.8V500h-32.6v-68.8
				h32.6v12.7c0,1,0.8,1.8,1.8,1.8s1.8-0.8,1.8-1.8v-12.7h32.6V500z M569.6,431.3h32.6V500h-32.6V431.3z"/>
		</g>
	</g>
</g>
<g id="XMLID_302_">
	<path class="st5" d="M848.5,333.1V333c0-0.9-0.7-1.7-1.7-1.7h-85v-20.8h105.1v20.8H854c-0.9,0-1.7,0.7-1.7,1.7v0.1H848.5z"/>
	<path class="st5" d="M854,331.1h12.6v-20.5H761.9v20.5h84.9c1,0,1.8,0.8,1.8,1.8h3.6C852.2,331.9,853,331.1,854,331.1L854,331.1z"
		/>
	<path class="st8" d="M761.8,355.4v-20.8h85c0.9,0,1.7-0.7,1.7-1.7v-0.1h3.9v0.1c0,0.9,0.7,1.7,1.7,1.7h12.8v20.8H761.8z"/>
	<path class="st8" d="M854,334.7c-1,0-1.8-0.8-1.8-1.8h-3.6c0,1-0.8,1.8-1.8,1.8h-84.9v20.5h104.8v-20.5H854z"/>
	<rect id="XMLID_702_" x="761.8" y="286.4" class="st21" width="105.1" height="20.8"/>
	<g>
		<g>
			<defs>
				<rect id="SVGID_25_" x="758.3" y="282.9" width="112" height="76.1"/>
			</defs>
			<clipPath id="SVGID_26_">
				<use xlink:href="#SVGID_25_"  style="overflow:visible;"/>
			</clipPath>
			<rect id="XMLID_701_" x="761.9" y="286.6" class="st22" width="104.8" height="20.5"/>
		</g>
		<g>
			<defs>
				<rect id="SVGID_27_" x="758.3" y="282.9" width="112" height="76.1"/>
			</defs>
			<clipPath id="SVGID_28_">
				<use xlink:href="#SVGID_27_"  style="overflow:visible;"/>
			</clipPath>
			<path class="st23" d="M868.5,283H760.1c-1,0-1.8,0.8-1.8,1.8V357c0,1,0.8,1.8,1.8,1.8h108.4c1,0,1.8-0.8,1.8-1.8v-72.3
				C870.3,283.8,869.5,283,868.5,283L868.5,283z M866.7,286.6V307H761.9v-20.5h104.8V286.6z M761.9,355.2v-20.5h84.9
				c1,0,1.8-0.8,1.8-1.8s-0.8-1.8-1.8-1.8h-84.9v-20.5h104.8v20.5H854c-1,0-1.8,0.8-1.8,1.8s0.8,1.8,1.8,1.8h12.6v20.5H761.9z"/>
		</g>
	</g>
</g>
<g id="XMLID_303_">
	<path class="st4" d="M638.4,371.3v-12.7h-32.6v68.8h32.6v-48.9c0-1,0.8-1.8,1.8-1.8v-3.6C639.2,373.1,638.4,372.3,638.4,371.3
		L638.4,371.3z"/>
	<rect id="XMLID_722_" x="569.5" y="358.5" class="st11" width="32.9" height="69"/>
	<rect id="XMLID_721_" x="569.6" y="358.6" class="st11" width="32.6" height="68.8"/>
	<path class="st5" d="M641.9,427.5v-49c0-0.9-0.7-1.7-1.7-1.7h-0.1v-3.9h0.1c0.9,0,1.7-0.7,1.7-1.7v-12.8h32.8v69L641.9,427.5
		L641.9,427.5z"/>
	<g>
		<g>
			<defs>
				<rect id="SVGID_29_" x="566" y="354.9" width="112.2" height="76.2"/>
			</defs>
			<clipPath id="SVGID_30_">
				<use xlink:href="#SVGID_29_"  style="overflow:visible;"/>
			</clipPath>
			<path class="st24" d="M642,371.3c0,1-0.8,1.8-1.8,1.8v3.6c1,0,1.8,0.8,1.8,1.8v48.9h32.6v-68.8H642V371.3z"/>
		</g>
		<g>
			<defs>
				<rect id="SVGID_31_" x="566" y="354.9" width="112.2" height="76.2"/>
			</defs>
			<clipPath id="SVGID_32_">
				<use xlink:href="#SVGID_31_"  style="overflow:visible;"/>
			</clipPath>
			<path class="st25" d="M676.4,355H567.8c-1,0-1.8,0.8-1.8,1.8v72.4c0,1,0.8,1.8,1.8,1.8h108.6c1,0,1.8-0.8,1.8-1.8v-72.4
				C678.2,355.8,677.4,355,676.4,355L676.4,355z M674.6,427.4H642v-48.9c0-1-0.8-1.8-1.8-1.8s-1.8,0.8-1.8,1.8v48.9h-32.6v-68.8
				h32.6v12.7c0,1,0.8,1.8,1.8,1.8s1.8-0.8,1.8-1.8v-12.7h32.6V427.4z M569.6,358.6h32.6v68.8h-32.6V358.6z"/>
		</g>
	</g>
</g>
<g id="XMLID_304_">
	<path d="M415.6,542.2h92.7v-36.4h-92.7V542.2L415.6,542.2z M509.9,545.5h-96c-1,0-1.7-0.7-1.7-1.7v-39.7c0-1,0.7-1.7,1.7-1.7h96
		c1,0,1.7,0.7,1.7,1.7v39.7C511.6,544.9,510.9,545.5,509.9,545.5L509.9,545.5z"/>
	<path d="M422.2,542.2h6.6V519h-6.6V542.2L422.2,542.2z M430.5,545.5h-9.9c-1,0-1.7-0.7-1.7-1.7v-26.5c0-1,0.7-1.7,1.7-1.7h9.9
		c1,0,1.7,0.7,1.7,1.7v26.5C432.1,544.9,431.5,545.5,430.5,545.5L430.5,545.5z"/>
	<path d="M452,542.2h6.6v-29.8H452V542.2L452,542.2z M460.3,545.5h-9.9c-1,0-1.7-0.7-1.7-1.7v-33.1c0-1,0.7-1.7,1.7-1.7h9.9
		c1,0,1.7,0.7,1.7,1.7v33.1C461.9,544.9,461.3,545.5,460.3,545.5L460.3,545.5z"/>
	<path d="M432.1,542.2h6.6v-19.9h-6.6V542.2L432.1,542.2z M440.4,545.5h-9.9c-1,0-1.7-0.7-1.7-1.7v-23.2c0-1,0.7-1.7,1.7-1.7h9.9
		c1,0,1.7,0.7,1.7,1.7v23.2C442,544.9,441.4,545.5,440.4,545.5L440.4,545.5z"/>
	<path d="M442,542.2h6.6V519H442V542.2L442,542.2z M450.3,545.5h-9.9c-1,0-1.7-0.7-1.7-1.7v-26.5c0-1,0.7-1.7,1.7-1.7h9.9
		c1,0,1.7,0.7,1.7,1.7v26.5C452,544.9,451.3,545.5,450.3,545.5L450.3,545.5z"/>
	<path d="M415.6,582h92.7v-36.4h-92.7V582L415.6,582z M509.9,585.3h-96c-1,0-1.7-0.7-1.7-1.7v-39.7c0-1,0.7-1.7,1.7-1.7h96
		c1,0,1.7,0.7,1.7,1.7v39.7C511.6,584.6,510.9,585.3,509.9,585.3L509.9,585.3z"/>
	<path d="M415.6,598.5H452v-13.2h-36.4V598.5L415.6,598.5z M453.6,601.8h-39.7c-1,0-1.7-0.7-1.7-1.7v-16.6c0-1,0.7-1.7,1.7-1.7h39.7
		c1,0,1.7,0.7,1.7,1.7v16.6C455.3,601.2,454.6,601.8,453.6,601.8L453.6,601.8z"/>
	<path d="M471.9,598.5h36.4v-13.2h-36.4V598.5L471.9,598.5z M509.9,601.8h-39.7c-1,0-1.7-0.7-1.7-1.7v-16.6c0-1,0.7-1.7,1.7-1.7
		h39.7c1,0,1.7,0.7,1.7,1.7v16.6C511.6,601.2,510.9,601.8,509.9,601.8L509.9,601.8z"/>
	<path id="XMLID_757_" d="M435.4,591.9c0,1-0.7,1.7-1.7,1.7s-1.7-0.7-1.7-1.7s0.7-1.7,1.7-1.7C434.8,590.3,435.4,591.1,435.4,591.9"
		/>
	<path id="XMLID_756_" d="M491.7,591.9c0,1-0.7,1.7-1.7,1.7s-1.7-0.7-1.7-1.7s0.7-1.7,1.7-1.7C491.1,590.3,491.7,591.1,491.7,591.9"
		/>
	<path d="M455.3,598.5h13.2v-13.2h-13.2V598.5L455.3,598.5z M470.2,601.8h-16.6c-1,0-1.7-0.7-1.7-1.7v-16.6c0-1,0.7-1.7,1.7-1.7
		h16.6c1,0,1.7,0.7,1.7,1.7v16.6C471.9,601.2,471.2,601.8,470.2,601.8L470.2,601.8z"/>
	<path d="M422.2,522.4h6.6v-3.3h-6.6V522.4L422.2,522.4z M430.5,525.7h-9.9c-1,0-1.7-0.7-1.7-1.7v-6.6c0-1,0.7-1.7,1.7-1.7h9.9
		c1,0,1.7,0.7,1.7,1.7v6.6C432.1,525,431.5,525.7,430.5,525.7L430.5,525.7z"/>
	<path d="M432.1,525.7h6.6v-3.3h-6.6V525.7L432.1,525.7z M440.4,529h-9.9c-1,0-1.7-0.7-1.7-1.7v-6.6c0-1,0.7-1.7,1.7-1.7h9.9
		c1,0,1.7,0.7,1.7,1.7v6.6C442,528.3,441.4,529,440.4,529L440.4,529z"/>
	<path d="M442,522.4h6.6v-3.3H442V522.4L442,522.4z M450.3,525.7h-9.9c-1,0-1.7-0.7-1.7-1.7v-6.6c0-1,0.7-1.7,1.7-1.7h9.9
		c1,0,1.7,0.7,1.7,1.7v6.6C452,525,451.3,525.7,450.3,525.7L450.3,525.7z"/>
	<path d="M452,515.7h6.6v-3.3H452V515.7L452,515.7z M460.3,519.1h-9.9c-1,0-1.7-0.7-1.7-1.7v-6.6c0-1,0.7-1.7,1.7-1.7h9.9
		c1,0,1.7,0.7,1.7,1.7v6.6C461.9,518.4,461.3,519.1,460.3,519.1L460.3,519.1z"/>
	<path d="M465.4,520.9l10.6,20.9l5.5-2.8l-9.9-20.9L465.4,520.9L465.4,520.9z M475.2,545.5c-0.7,0-1.2-0.3-1.5-0.8l-12.1-23.8
		c-0.2-0.3-0.2-0.8-0.2-1.3c0.2-0.5,0.5-0.8,0.8-1l8.9-4.3c0.3-0.2,0.8-0.2,1.3,0s0.8,0.5,1,0.8l11.4,23.8c0.3,0.8,0,1.8-0.8,2.2
		l-8.3,4.1C475.7,545.5,475.5,545.5,475.2,545.5L475.2,545.5z"/>
	<path d="M462.4,514.9l1.5,3l6-2.8l-1.5-3L462.4,514.9L462.4,514.9z M463.1,521.7c-0.7,0-1.2-0.3-1.5-1l-2.8-6
		c-0.3-0.8,0-1.8,0.8-2.2l8.9-4.3c0.3-0.2,0.8-0.2,1.3,0c0.3,0.2,0.7,0.3,0.8,0.8l2.8,6c0.3,0.8,0,1.8-0.8,2.2l-8.9,4.3
		C463.6,521.7,463.4,521.7,463.1,521.7L463.1,521.7z"/>
	<path d="M425.5,582h9.9v-26.5h-9.9V582L425.5,582z M437.1,585.3h-13.3c-1,0-1.7-0.7-1.7-1.7v-29.8c0-1,0.7-1.7,1.7-1.7H437
		c1,0,1.7,0.7,1.7,1.7v29.8C438.7,584.6,438.1,585.3,437.1,585.3L437.1,585.3z"/>
	<path d="M425.5,558.8h9.9v-3.3h-9.9V558.8L425.5,558.8z M437.1,562.1h-13.3c-1,0-1.7-0.7-1.7-1.7v-6.6c0-1,0.7-1.7,1.7-1.7H437
		c1,0,1.7,0.7,1.7,1.7v6.6C438.7,561.4,438.1,562.1,437.1,562.1L437.1,562.1z"/>
	<path d="M438.7,582h9.9v-29.8h-9.9V582L438.7,582z M450.3,585.3h-13.2c-1,0-1.7-0.7-1.7-1.7v-33.1c0-1,0.7-1.7,1.7-1.7h13.2
		c1,0,1.7,0.7,1.7,1.7v33.1C452,584.6,451.3,585.3,450.3,585.3L450.3,585.3z"/>
	<path d="M438.7,555.5h9.9v-3.3h-9.9V555.5L438.7,555.5z M450.3,558.8h-13.2c-1,0-1.7-0.7-1.7-1.7v-6.6c0-1,0.7-1.7,1.7-1.7h13.2
		c1,0,1.7,0.7,1.7,1.7v6.6C452,558.1,451.3,558.8,450.3,558.8L450.3,558.8z"/>
	<path id="XMLID_733_" d="M430.5,578.7c-1,0-1.7-0.7-1.7-1.7v-9.9c0-1,0.7-1.7,1.7-1.7s1.7,0.7,1.7,1.7v9.9
		C432.1,578,431.5,578.7,430.5,578.7L430.5,578.7z"/>
	<path id="XMLID_732_" d="M443.7,578.7c-1,0-1.7-0.7-1.7-1.7v-13.2c0-1,0.7-1.7,1.7-1.7s1.7,0.7,1.7,1.7V577
		C445.4,578,444.7,578.7,443.7,578.7L443.7,578.7z"/>
	<path d="M461.3,582h32.1c1.8,0,3.3-1.5,3.3-3.3s-1.5-3.3-3.3-3.3h-32.1C461.9,577.5,461.9,579.8,461.3,582L461.3,582z M493.4,585.3
		h-34.8c-0.7,0-1.2-0.3-1.5-0.8c-0.3-0.5-0.3-1.2,0-1.7c1.7-2.5,1.7-5.6,0-8.1c-0.3-0.5-0.3-1.2,0-1.7c0.3-0.5,0.8-0.8,1.5-0.8h34.8
		c3.6,0,6.6,3,6.6,6.6C500,582.5,497,585.3,493.4,585.3L493.4,585.3z"/>
	<path d="M466.2,572h32.1c1.8,0,3.3-1.5,3.3-3.3s-1.5-3.3-3.3-3.3h-32.1C466.9,567.6,466.9,569.9,466.2,572L466.2,572z M498.3,575.3
		h-34.8c-0.7,0-1.2-0.3-1.5-0.8s-0.3-1.2,0-1.7c1.7-2.5,1.7-5.6,0-8.1c-0.3-0.5-0.3-1.2,0-1.7s0.8-0.8,1.5-0.8h34.8
		c3.6,0,6.6,3,6.6,6.6C505,572.5,502,575.3,498.3,575.3L498.3,575.3z"/>
	<path d="M461.3,562.1h32.1c1.8,0,3.3-1.5,3.3-3.3c0-1.8-1.5-3.3-3.3-3.3h-32.1C461.9,557.6,461.9,560,461.3,562.1L461.3,562.1z
		 M493.4,565.4h-34.8c-0.7,0-1.2-0.3-1.5-0.8c-0.3-0.5-0.3-1.2,0-1.7c1.7-2.5,1.7-5.6,0-8.1c-0.3-0.5-0.3-1.2,0-1.7
		c0.3-0.5,0.8-0.8,1.5-0.8h34.8c3.6,0,6.6,3,6.6,6.6C500,562.6,497,565.4,493.4,565.4L493.4,565.4z"/>
</g>
<g id="XMLID_305_">
	<g>
		<g>
			<defs>
				<rect id="SVGID_33_" x="399.6" y="195.6" width="168.5" height="168.5"/>
			</defs>
			<clipPath id="SVGID_34_">
				<use xlink:href="#SVGID_33_"  style="overflow:visible;"/>
			</clipPath>
		</g>
		<g>
			<defs>
				<rect id="SVGID_35_" x="399.6" y="195.6" width="168.5" height="168.5"/>
			</defs>
			<defs>
				<rect id="SVGID_36_" x="399.6" y="195.6" width="168.5" height="168.5"/>
			</defs>
			<clipPath id="SVGID_37_">
				<use xlink:href="#SVGID_35_"  style="overflow:visible;"/>
			</clipPath>
			<clipPath id="SVGID_38_" class="st26">
				<use xlink:href="#SVGID_36_"  style="overflow:visible;"/>
			</clipPath>
			<path class="st27" d="M445.2,207.3c-0.6,0-1.2-0.3-1.6-0.8s-0.5-1.1-0.4-1.8c0.2-0.9,1.1-1.5,2.1-1.5h15c1,0,1.8,0.7,2.1,1.5
				c0.2,0.6,0,1.3-0.4,1.8s-1,0.8-1.6,0.8H445.2L445.2,207.3z M497.1,224.4c-0.6,0-1.2-0.3-1.6-0.8c-0.4-0.5-0.5-1.1-0.4-1.8
				c0.2-0.9,1.1-1.5,2.1-1.5h21.3c1,0,1.8,0.6,2.1,1.5c0.2,0.6,0,1.3-0.4,1.8c-0.4,0.5-1,0.8-1.6,0.8H497.1L497.1,224.4z M497.1,240
				c-0.6,0-1.2-0.3-1.6-0.8c-0.4-0.5-0.5-1.1-0.4-1.8c0.2-0.9,1.1-1.5,2.1-1.5H528c1,0,1.8,0.7,2.1,1.5c0.2,0.6,0,1.3-0.4,1.8
				s-1,0.8-1.6,0.8H497.1L497.1,240z M445.5,256.1c0.1,0.7,0.4,1.5,0.6,2.2c2.3,5.9,7.9,9.8,14.4,9.8h1.6l0.8-0.1l-0.6-2.4
				c-2.3-5.7-8.2-9.8-14.5-9.8C446.5,255.9,445.9,256,445.5,256.1L445.5,256.1z M441.4,257.4c-0.7,0.3-1.4,0.6-2.1,1
				c-4.3,2.9-6.9,7.7-6.9,12.8c0,8.5,6.9,15.4,15.4,15.4c7.3,0,13.6-5.2,15.1-12.3c0.2-0.8,0.3-1.6,0.4-2.4l-0.4,0.1
				c-0.2,0-0.5,0.1-0.7,0.1c-0.3,0-0.7,0.1-1,0.1s-0.5,0-0.7,0c-8.3,0-15.7-5.2-18.4-12.9L441.4,257.4L441.4,257.4z M447.7,290.8
				c-9.4-0.1-17.4-6.9-19.1-16.1c-1.7-9.8,4.2-19.3,13.8-22.1h0.1c1.7-0.5,3.5-0.7,5.3-0.7c9.8,0,18,7,19.3,16.7
				c0.1,0.9,0.2,1.9,0.2,2.8c0,10.8-8.8,19.5-19.5,19.5L447.7,290.8L447.7,290.8z M404.7,310.3c-0.2,0-0.3,0-0.5-0.1
				c-0.9-0.2-1.5-1.1-1.5-2.1v-85.3c0-1.1,0.9-2.1,2.1-2.1h56.1c1,0,1.8,0.6,2.1,1.5c0.2,0.6,0,1.3-0.4,1.8s-1,0.8-1.6,0.8h-54.2
				v83.3C406.8,309.4,405.8,310.3,404.7,310.3L404.7,310.3z M489.1,207.3c-5.1,0-9.2,4.1-9.2,9.2V260l2.7-1.7l9.1-5.1
				c0.3-0.2,0.7-0.3,1-0.3h46.9c5.1,0,9.2-4.1,9.2-9.2v-27.1c0-5.1-4.1-9.2-9.2-9.2L489.1,207.3L489.1,207.3z M507.1,344.2
				c-0.6,0-1.2-0.3-1.6-0.8c-0.4-0.5-0.5-1.1-0.4-1.8c0.2-0.9,1.1-1.5,2.1-1.5H564V224.9h-11v18.8c0,7.4-6,13.3-13.3,13.3h-45.8
				h-0.2l-0.5,0.1l-0.2,0.1l-13.9,7.8c-0.3,0.2-0.7,0.3-1,0.3c-0.4,0-0.7-0.1-1-0.3c-0.6-0.4-1-1.1-1-1.8v-46.6
				c0-7.4,6-13.3,13.3-13.3h50.4c7.4,0,13.3,6,13.3,13.3v4.2H566c1.1,0,2.1,0.9,2.1,2.1v119.3c0,1.1-0.9,2.1-2.1,2.1L507.1,344.2
				L507.1,344.2z M446.2,314.7l1.4,2l1.5-2l4.5-6.2l2-2.9h-16.1L446.2,314.7L446.2,314.7z M401.6,356.6c-0.3,0-0.5,0-0.8-0.2
				c-0.5-0.2-0.9-0.6-1.1-1.1c-0.2-0.5-0.2-1.1,0-1.6l10.7-26.3c4.5-11.1,12.6-25.9,30.4-25.9H455c17.8,0,25.8,14.8,30.4,25.9
				l1.4,3.4l1,2.4l2-1.7l28.7-26.5c0.4-0.4,0.9-0.5,1.4-0.5c0.6,0,1.1,0.2,1.5,0.7c0.4,0.4,0.6,0.9,0.5,1.5c0,0.6-0.3,1.1-0.7,1.4
				l-32.8,30.3c-0.4,0.4-0.9,0.5-1.4,0.5c-0.2,0-0.3,0-0.4,0c-0.7-0.1-1.2-0.6-1.5-1.2l-3.5-8.6c-5.4-13.2-11.5-20.1-19.8-22.5
				l-1-0.3l-0.3-0.1l-0.7,1l-10.4,14.2c-0.4,0.5-1,0.8-1.7,0.8c-0.7,0-1.3-0.3-1.7-0.8l-11-15.1l-1.4,0.3
				c-8.1,2.4-14.2,9.3-19.4,22.4l-10.7,26.3c-0.3,0.6-0.7,1.1-1.3,1.3C402,356.5,401.8,356.6,401.6,356.6L401.6,356.6z"/>
		</g>
	</g>
</g>
<line id="XMLID_274_" class="st1" x1="1115" y1="463" x2="1563" y2="463"/>
<line id="XMLID_275_" class="st1" x1="362" y1="357" x2="1166" y2="357"/>
<path id="XMLID_329_" d="M1522.8,637c-0.8,0-1.5-0.5-1.8-1.2l-9-22.4c-4.9-12-10.6-18-18.5-19.5l-1.6-0.3l-2.3,10.8l2.6,23.6
	c0.1,0.7-0.2,1.3-0.7,1.7l-5.8,4.6c-0.3,0.3-0.8,0.4-1.2,0.4h-2.1c-0.4,0-0.9-0.1-1.2-0.4l-5.8-4.6c-0.5-0.4-0.8-1-0.7-1.7l2.6-23.6
	l-2.3-10.8l-1.6,0.3c-7.9,1.4-13.7,7.5-18.5,19.5l-9.1,22.4c-0.3,0.7-1,1.2-1.8,1.2c-0.2,0-0.5,0-0.7-0.1c-0.5-0.2-0.8-0.6-1-1
	c-0.2-0.5-0.2-1,0-1.5l9.1-22.4c3.7-9.2,10.4-21.6,24.9-22.2h0.1h0.1c0.1,0,0.1,0,0.2,0h13.6c0.1,0,0.2,0,0.2,0h0.1h0.1
	c14.5,0.6,21.1,12.9,24.9,22.2l9,22.5c0.2,0.5,0.2,1,0,1.5s-0.6,0.8-1,1C1523.3,637,1523,637,1522.8,637z M1478.7,627.4l4.8,3.9
	l4.8-3.9l-2.4-21.2h-4.9L1478.7,627.4z M1480.9,602.4h5.2l1.9-8.9h-8.9L1480.9,602.4z M1375.2,637c-0.2,0-0.5,0-0.7-0.1
	c-0.5-0.2-0.8-0.6-1-1c-0.2-0.5-0.2-1,0-1.5l9-22.1c3.8-9.4,10.6-21.9,25.7-21.9h11.9c8.1,0,14.7,3.6,19.8,10.7
	c0.1,0.1,0.5,0.7,1,1.4c1.5,2.1,2.1,2.9,2.3,3.1c0.3,0.4,0.4,0.9,0.3,1.4s-0.4,0.9-0.8,1.2c-0.3,0.2-0.7,0.3-1,0.3
	c-0.6,0-1.2-0.3-1.6-0.8c-0.2-0.3-1.1-1.5-2-2.8l-0.2-0.2c-0.5-0.7-1-1.3-1-1.4c-2.7-3.8-5.7-6.3-9.2-7.8l-1.2-0.5l-10.6,14.6
	c-0.4,0.5-0.9,0.8-1.5,0.8s-1.2-0.3-1.5-0.8l-10.6-14.6l-1.2,0.5c-6,2.4-10.6,8.2-14.7,18.1l-9,22.1
	C1376.7,636.6,1376,637,1375.2,637z M1414,605.3l8.1-11.1H1406L1414,605.3z M1390.3,637c-1.1,0-1.9-0.9-1.9-1.9
	c0-1.1,0.9-1.9,1.9-1.9h38.2c1.1,0,1.9,0.9,1.9,1.9c0,1.1-0.9,1.9-1.9,1.9H1390.3z M1499.9,610.9c-1.1,0-1.9-0.9-1.9-1.9v-0.4
	c0-1.1,0.9-1.9,1.9-1.9c1.1,0,1.9,0.9,1.9,1.9v0.4C1501.8,610,1500.9,610.9,1499.9,610.9z M1414,581.7c-9.1,0-16.6-7.4-16.6-16.6
	c0-7.3,4.9-13.8,11.9-15.9h0.1c1.1-0.3,2.2-0.5,3.4-0.6h0.1l0,0h0.1h0.1h0.1h0.1l0,0h0.1l0,0h0.1l0,0c0.1,0,0.3,0,0.4,0h0.3
	c8,0.1,14.8,5.9,16.1,13.8c0.2,0.9,0.2,1.8,0.2,2.8c0,4.4-1.7,8.6-4.9,11.7C1422.6,580,1418.4,581.7,1414,581.7z M1406.6,554.9
	c-3.3,2.4-5.3,6.3-5.3,10.3c0,7,5.7,12.7,12.7,12.7c5.8,0,10.9-4,12.4-9.6l0.5-2.1h-2.3c-7,0-13-4.1-15.5-10.6l-0.8-2L1406.6,554.9z
	 M1412.9,554.8c2,4.4,6.2,7.3,11.1,7.5l2.7,0.1l-1.1-2.5c-2-4.4-6.2-7.3-11.1-7.5l-2.7-0.1L1412.9,554.8z M1483.5,580.9
	c-9.2,0-16.8-7.5-16.8-16.8c0-9.3,7.5-16.8,16.8-16.8c1.1,0,2.2,0.1,3.2,0.3c0,0,0.1,0,0.2,0c7.8,1.6,13.4,8.5,13.4,16.4
	C1500.3,573.4,1492.8,580.9,1483.5,580.9z M1476.2,553.5c-3.5,2.4-5.6,6.4-5.6,10.7c0,7.1,5.8,13,13,13s13-5.8,13-13
	c0-5.2-3.1-9.8-7.8-11.9l-1.2-0.5l-0.8,1c-1.4,1.8-3.1,3.2-5.1,4.3c-0.3,0.2-0.6,0.2-0.9,0.2c-0.7,0-1.3-0.4-1.7-1
	c-0.3-0.5-0.3-0.9-0.2-1.2l0.7-3.9L1476.2,553.5z M1398.4,543.3c-0.3,0-0.7-0.1-1-0.3c-0.6-0.3-0.9-1-0.9-1.6V509
	c0-5.4,4.4-9.7,9.7-9.7h12.8c1.1,0,1.9,0.9,1.9,1.9c0,1.1-0.9,1.9-1.9,1.9h-12.8c-3.3,0-5.9,2.7-5.9,5.9v29.1l7.5-4.2
	c0.3-0.2,0.6-0.2,0.9-0.2h31.2c1.1,0,1.9,0.9,1.9,1.9c0,1.1-0.9,1.9-1.9,1.9h-30.7l-9.9,5.5C1399,543.2,1398.7,543.3,1398.4,543.3z
	 M1483.6,535.9c-0.5,0-1.1-0.2-1.4-0.6l-11.6-12.7h-29.8c-5.4,0-9.7-4.4-9.7-9.7v-18.8c0-5.4,4.4-9.7,9.7-9.7h35
	c5.4,0,9.7,4.4,9.7,9.7V534c0,0.8-0.5,1.5-1.2,1.8C1484,535.8,1483.8,535.9,1483.6,535.9z M1440.8,488.1c-3.3,0-5.9,2.7-5.9,5.9
	v18.8c0,3.3,2.7,5.9,5.9,5.9h30.7c0.5,0,1,0.2,1.4,0.6l8.8,9.7v-35c0-3.3-2.7-5.9-5.9-5.9H1440.8z M1411.7,516.7
	c-1.1,0-1.9-0.9-1.9-1.9c0-1.1,0.9-1.9,1.9-1.9h6.5c1.1,0,1.9,0.9,1.9,1.9c0,1.1-0.9,1.9-1.9,1.9H1411.7z M1454.6,501.9
	c-1.1,0-1.9-0.9-1.9-1.9c0-1.1,0.9-1.9,1.9-1.9h14.8c1.1,0,1.9,0.9,1.9,1.9c0,1.1-0.9,1.9-1.9,1.9H1454.6z"/>
<g id="XMLID_333_">
	<path id="XMLID_358_" d="M929.8,549.8c-1,0-1.8-0.8-1.8-1.8s0.8-1.8,1.8-1.8h0.4c1,0,1.8,0.8,1.8,1.8s-0.8,1.8-1.8,1.8H929.8z"/>
	<path id="XMLID_357_" d="M944.1,510.6c-8.9,0-16.1-7.2-16.1-16.1v-96c0-8.9,7.2-16.1,16.1-16.1h135.1c8.9,0,16.1,7.2,16.1,16.1v96
		c0,5.7-3.1,11.1-8,13.9c-0.3,0.2-0.6,0.2-0.9,0.2c-0.7,0-1.3-0.4-1.6-0.9c-0.5-0.9-0.2-2,0.7-2.5c3.8-2.2,6.2-6.3,6.2-10.7v-96
		c0-6.8-5.6-12.4-12.4-12.4H944.1c-6.8,0-12.4,5.6-12.4,12.4v96c0,6.8,5.6,12.4,12.4,12.4h7.1c1,0,1.8,0.8,1.8,1.8s-0.8,1.8-1.8,1.8
		h-7.1V510.6z"/>
	<path id="XMLID_356_" d="M993.7,432.4c-1,0-1.8-0.8-1.8-1.8s0.8-1.8,1.8-1.8h0.4c1,0,1.8,0.8,1.8,1.8s-0.8,1.8-1.8,1.8H993.7z"/>
	<path id="XMLID_355_" d="M1072.1,496.4c-1,0-1.8-0.8-1.8-1.8s0.8-1.8,1.8-1.8c2.9,0,5.3-2.4,5.3-5.3v-81.8c0-2.9-2.4-5.3-5.3-5.3
		H951.2c-2.9,0-5.3,2.4-5.3,5.3v81.8c0,2.9,2.4,5.3,5.3,5.3h7.1c1,0,1.8,0.8,1.8,1.8s-0.8,1.8-1.8,1.8h-7.1c-4.9,0-9-4-9-9v-81.8
		c0-4.9,4-9,9-9h120.9c4.9,0,9,4,9,9v81.8C1081,492.4,1077,496.4,1072.1,496.4z"/>
	<path id="XMLID_350_" d="M1004.7,432.4c-1,0-1.8-0.8-1.8-1.8s0.8-1.8,1.8-1.8h24.9c1,0,1.8,0.8,1.8,1.8s-0.8,1.8-1.8,1.8H1004.7z"
		/>
	<path id="XMLID_335_" d="M940.5,549.8c-1,0-1.8-0.8-1.8-1.8s0.8-1.8,1.8-1.8h15.9V523c0-13.5,8.1-25.7,20.5-31.1h0.1
		c0.1,0,0.2-0.1,0.3-0.1h0.1c0.5-0.2,0.9-0.4,1.3-0.5l1.7-0.6l-1.5-0.9c-6.4-3.7-10.7-10.2-11.5-17.5l-0.1-0.7h-8.9
		c-1,0-1.8-0.8-1.8-1.8v-7.1c0-8.9,7.2-16.1,16.1-16.1h17.8c12.8,0,23.2,10.4,23.2,23.2c0,8.2-4.5,15.9-11.6,20.1l-1.5,0.9l1.6,0.6
		c0.5,0.2,1,0.4,1.3,0.5l0,0c0,0,0,0,0.1,0c5,2.1,9.5,5.4,12.9,9.6l0.6,0.8l0.6-0.8c3.4-4.1,7.8-7.4,12.7-9.5h0.1
		c0.1,0,0.2-0.1,0.3-0.1h0.1c0.5-0.2,0.9-0.4,1.3-0.5l1.7-0.6l-1.5-0.9c-7.2-4.1-11.6-11.8-11.6-20.1c0-12.8,10.4-23.2,23.2-23.2
		s23.2,10.4,23.2,23.2c0,8.2-4.5,15.9-11.6,20.1l-1.5,0.9l1.7,0.6c0.4,0.1,0.8,0.3,1.3,0.5h0.1c0.1,0,0.2,0.1,0.3,0.1h0.1
		c12.5,5.4,20.5,17.6,20.5,31.1v23.1h5.3c0.5,0,1,0.2,1.3,0.5s0.5,0.8,0.5,1.3c0,1-0.8,1.8-1.8,1.8H940.5z M1028.9,496.8
		c-9.5,5.4-15.4,15.4-15.4,26.3v23.1h60.3V523c0-10.9-5.9-20.9-15.4-26.3l-0.9-0.5l-0.3,1c-1.9,5.9-7.4,9.9-13.6,9.9
		c-6.2,0-11.7-4-13.6-9.9l-0.3-1L1028.9,496.8z M975.5,496.8c-9.5,5.4-15.4,15.4-15.4,26.3v23.1h49.7V523c0-6,1.6-12,4.7-17.2
		l0.3-0.5l-0.3-0.4c-2.5-3.4-5.7-6.1-9.4-8.2l-0.9-0.5l-0.3,1c-1.9,5.9-7.4,9.9-13.6,9.9c-6.2,0-11.7-4-13.6-9.9l-0.3-1L975.5,496.8
		z M1043.6,492.9c-3.3,0-6.6,0.5-9.7,1.6l-0.7,0.2l0.2,0.7c1.2,4.7,5.4,7.9,10.3,7.9c4.8,0,9.1-3.3,10.3-7.9l0.2-0.7l-0.7-0.2
		C1050.2,493.4,1047,492.9,1043.6,492.9z M990.3,492.9c-3.3,0-6.6,0.5-9.7,1.6l-0.7,0.2l0.2,0.7c1.2,4.7,5.4,7.9,10.3,7.9
		c4.8,0,9.1-3.3,10.3-7.9l0.2-0.7l-0.7-0.2C996.9,493.4,993.6,492.9,990.3,492.9z M1050.6,472c-3,6.7-9,11.6-16.2,13.2l-2.1,0.5
		l1.9,1.1c2.9,1.6,6.1,2.5,9.4,2.5c9.6,0,17.9-7.2,19.3-16.7l0.1-0.9h-12.3L1050.6,472z M997.2,472c-3,6.7-9,11.6-16.2,13.2
		l-2.1,0.5l1.9,1.1c2.9,1.6,6.1,2.5,9.4,2.5c9.6,0,17.9-7.2,19.3-16.7l0.1-0.9h-12.3L997.2,472z M1043.6,450.2
		c-10.7,0-19.5,8.7-19.5,19.5c0,4.4,1.5,8.6,4.2,12.1l0.3,0.4l0.5-0.1c0.1,0,0.2,0,0.3,0c10.7,0,19.5-8.7,19.5-19.5
		c0-1,0.8-1.8,1.8-1.8s1.8,0.8,1.8,1.8c0,1.4-0.1,2.9-0.4,4.3l-0.2,1h11.1l-0.1-0.9C1061.6,457.4,1053.3,450.2,1043.6,450.2z
		 M971,472.5c0.5,3.4,1.9,6.6,4,9.3l0.3,0.4l0.5-0.1c0.1,0,0.2,0,0.3,0c10.7,0,19.5-8.7,19.5-19.5c0-1,0.8-1.8,1.8-1.8
		s1.8,0.8,1.8,1.8c0,1.4-0.1,2.9-0.4,4.3l-0.2,1h11.1l-0.1-0.9c-1.4-9.5-9.7-16.7-19.3-16.7h-1.7v5.3c0,8.9-7.2,16.1-16.1,16.1h-1.6
		L971,472.5z M972.5,450.2c-6.8,0-12.4,5.6-12.4,12.4v5.3h12.4c6.8,0,12.4-5.6,12.4-12.4v-5.3H972.5z"/>
	<path id="XMLID_334_" d="M981.4,418.2c-1,0-1.8-0.8-1.8-1.8s0.8-1.8,1.8-1.8h60.5c1,0,1.8,0.8,1.8,1.8s-0.8,1.8-1.8,1.8H981.4z"/>
</g>
<line id="XMLID_328_" class="st1" x1="676" y1="449" x2="908" y2="449"/>
<g class="st2">
	<path d="M690,414.2h-3.1v-17h10.8v2.6H690v4.4h6.6v2.6H690V414.2z"/>
	<path d="M713,402.3c0,1.2-0.3,2.2-1,3c-0.7,0.8-1.7,1.4-3,1.8v0.1l5.1,7h-3.7l-4.6-6.6h-2.1v6.6h-3.1v-17h5.2c0.9,0,1.7,0,2.4,0.1
		c0.7,0.1,1.4,0.2,1.9,0.4c1,0.4,1.8,0.9,2.3,1.7C712.7,400.2,713,401.1,713,402.3z M705.1,405c0.7,0,1.3,0,1.8-0.1
		c0.5-0.1,0.9-0.2,1.3-0.3c0.6-0.2,1.1-0.6,1.3-1c0.2-0.4,0.4-0.9,0.4-1.4c0-0.5-0.1-0.9-0.3-1.2c-0.2-0.4-0.5-0.6-1-0.8
		c-0.3-0.1-0.7-0.2-1.1-0.3c-0.4-0.1-1-0.1-1.7-0.1h-2.2v5.2H705.1z"/>
	<path d="M719.9,411.6h8.4v2.6h-11.5v-17h11v2.6h-7.9v4.4h6.8v2.6h-6.8V411.6z"/>
	<path d="M740.3,409.6c0.4-1.3,0.8-2.8,1.4-4.3l2.9-8.1h4.4v17h-3.1v-8.6c0-1.3,0.1-2.7,0.2-4.4h-0.1c-0.1,0.5-0.3,1-0.5,1.6
		s-0.4,1.2-0.6,1.8l-3.5,9.6h-2l-3.5-9.6c-0.2-0.6-0.4-1.2-0.6-1.8s-0.4-1.1-0.5-1.6h-0.1c0.1,1.6,0.2,3,0.2,4.4v8.6h-3.1v-17h4.3
		l2.9,8.1C739.3,406.6,739.8,408.1,740.3,409.6L740.3,409.6z"/>
	<path d="M753,414.2v-17h4.5c0.4,0,0.8,0,1.2,0s0.8,0.1,1.2,0.1s0.8,0.1,1.1,0.2c0.4,0.1,0.7,0.2,1,0.3c0.9,0.3,1.7,0.7,2.4,1.2
		s1.3,1.1,1.7,1.7s0.8,1.4,1.1,2.2c0.2,0.8,0.4,1.7,0.4,2.7c0,0.9-0.1,1.8-0.3,2.6c-0.2,0.8-0.5,1.5-0.9,2.2s-0.9,1.2-1.6,1.7
		c-0.6,0.5-1.4,0.9-2.2,1.2c-0.7,0.3-1.5,0.5-2.5,0.6s-1.9,0.2-3.1,0.2H753z M757.4,411.6c1.8,0,3.2-0.3,4.3-0.7
		c0.9-0.4,1.6-1.1,2.1-2s0.7-1.9,0.7-3.3c0-0.7-0.1-1.3-0.2-1.9s-0.4-1.1-0.7-1.5c-0.3-0.4-0.6-0.8-1-1.1s-0.9-0.6-1.4-0.8
		c-0.5-0.2-1-0.3-1.6-0.4s-1.3-0.1-2-0.1h-1.4v11.8H757.4z"/>
	<path d="M779.3,409.3c0-0.4-0.1-0.8-0.3-1c-0.2-0.3-0.5-0.5-0.9-0.7s-0.8-0.3-1.2-0.4c-0.5-0.1-0.9-0.2-1.4-0.3
		c-0.7-0.1-1.3-0.3-1.9-0.5c-0.6-0.2-1.1-0.5-1.6-0.8c-0.5-0.4-0.8-0.8-1.1-1.3s-0.4-1.2-0.4-2c0-0.9,0.2-1.7,0.5-2.3
		c0.3-0.7,0.7-1.2,1.3-1.7c0.5-0.4,1.2-0.8,1.9-1c0.7-0.2,1.5-0.3,2.4-0.3s1.8,0.1,2.7,0.3s1.7,0.4,2.4,0.7v2.7
		c-0.9-0.3-1.7-0.6-2.5-0.8c-0.8-0.2-1.6-0.2-2.3-0.2c-1,0-1.8,0.2-2.4,0.6s-0.8,0.9-0.8,1.7c0,0.4,0.1,0.8,0.3,1.1s0.4,0.5,0.7,0.7
		c0.3,0.2,0.7,0.3,1.1,0.4s0.8,0.2,1.3,0.3c0.7,0.2,1.4,0.3,2.1,0.5c0.7,0.2,1.2,0.5,1.7,0.8s0.9,0.8,1.2,1.4
		c0.3,0.6,0.4,1.3,0.4,2.2c0,0.9-0.2,1.7-0.5,2.4s-0.8,1.2-1.4,1.7c-0.6,0.4-1.4,0.8-2.3,1s-1.9,0.3-2.9,0.3c-0.9,0-1.8-0.1-2.7-0.3
		c-0.9-0.2-1.6-0.4-2.2-0.8v-2.6c0.8,0.4,1.7,0.6,2.5,0.8c0.8,0.2,1.6,0.2,2.5,0.2c0.5,0,1,0,1.4-0.1c0.5-0.1,0.9-0.2,1.3-0.4
		s0.7-0.5,0.9-0.8C779.2,410.2,779.3,409.8,779.3,409.3z"/>
	<path d="M790.6,407.6c-0.3,0-0.6,0-0.8,0s-0.5,0-0.8-0.1v6.6h-3.1v-17h4.9c0.8,0,1.5,0,2.2,0.1c0.6,0.1,1.2,0.2,1.6,0.3
		c1.2,0.4,2.1,0.9,2.7,1.7s0.9,1.8,0.9,3c0,0.8-0.2,1.6-0.5,2.2c-0.3,0.7-0.8,1.2-1.5,1.7s-1.4,0.8-2.4,1.1S791.9,407.6,790.6,407.6
		z M789,404.9c0.2,0,0.4,0,0.7,0.1c0.3,0,0.6,0,0.9,0c0.8,0,1.5-0.1,2.1-0.2s1-0.3,1.4-0.6c0.3-0.2,0.6-0.5,0.7-0.9
		c0.2-0.3,0.2-0.7,0.2-1.1c0-0.5-0.1-0.9-0.3-1.3s-0.6-0.6-1.2-0.9c-0.3-0.1-0.7-0.2-1.1-0.2c-0.4,0-1-0.1-1.6-0.1H789V404.9z"/>
	<path d="M814.1,402.3c0,1.2-0.3,2.2-1,3c-0.7,0.8-1.7,1.4-3,1.8v0.1l5.1,7h-3.7l-4.6-6.6h-2.1v6.6h-3.1v-17h5.2
		c0.9,0,1.7,0,2.4,0.1c0.7,0.1,1.4,0.2,1.9,0.4c1,0.4,1.8,0.9,2.3,1.7C813.9,400.2,814.1,401.1,814.1,402.3z M806.2,405
		c0.7,0,1.3,0,1.8-0.1c0.5-0.1,0.9-0.2,1.3-0.3c0.6-0.2,1.1-0.6,1.3-1c0.2-0.4,0.4-0.9,0.4-1.4c0-0.5-0.1-0.9-0.3-1.2
		c-0.2-0.4-0.5-0.6-1-0.8c-0.3-0.1-0.7-0.2-1.1-0.3c-0.4-0.1-1-0.1-1.7-0.1h-2.2v5.2H806.2z"/>
	<path d="M827.6,409.8h-6.4l-1.7,4.3h-3.3l6.7-17h2.8l6.7,17h-3.3L827.6,409.8z M824.4,401.3c-0.6,1.8-1.1,3.3-1.6,4.5l-0.6,1.5h4.4
		l-0.6-1.5C825.6,404.5,825,403,824.4,401.3L824.4,401.3z"/>
	<path d="M843,399.5c-0.8,0-1.6,0.1-2.3,0.4s-1.3,0.7-1.8,1.2s-0.9,1.2-1.2,2c-0.3,0.8-0.4,1.7-0.4,2.7c0,1,0.1,1.9,0.4,2.6
		c0.3,0.8,0.6,1.4,1.1,1.9s1.1,0.9,1.8,1.1c0.7,0.3,1.5,0.4,2.4,0.4c0.6,0,1.3-0.1,2-0.2s1.3-0.3,1.9-0.4v2.7
		c-0.6,0.2-1.2,0.3-1.9,0.4c-0.7,0.1-1.4,0.1-2.1,0.1c-1.4,0-2.7-0.2-3.8-0.6c-1.1-0.4-2-1-2.7-1.7c-0.7-0.8-1.3-1.6-1.7-2.7
		c-0.4-1-0.6-2.2-0.6-3.5c0-1.3,0.2-2.5,0.6-3.6s1-2.1,1.7-2.9s1.7-1.5,2.8-1.9s2.4-0.7,3.8-0.7c0.7,0,1.4,0,2,0.1
		c0.6,0.1,1.2,0.2,1.7,0.4v2.6c-0.7-0.2-1.3-0.4-1.9-0.4S843.5,399.5,843,399.5z"/>
	<path d="M853,404.2h7.9v-7h3.1v17h-3.1v-7.4H853v7.4h-3.1v-17h3.1V404.2z"/>
	<path d="M871.2,411.6h8.4v2.6h-11.5v-17h11v2.6h-7.9v4.4h6.8v2.6h-6.8V411.6z"/>
	<path d="M891.7,405.1c1.2,1.7,2.2,3.3,3,4.6h0.1c-0.1-2.2-0.2-3.8-0.2-4.8v-7.7h3.1v17h-3.3l-5.5-7.8c-1-1.4-2-2.9-3-4.7h-0.1
		c0.1,2.1,0.2,3.7,0.2,4.8v7.7h-3.1v-17h3.3L891.7,405.1z"/>
</g>
<path id="XMLID_362_" d="M781.7,613.9c-19.8,0-38.7-9.6-50.5-25.6l-0.1-0.1l-0.1-0.1c-0.1-0.1-0.2-0.2-0.3-0.4v-0.1l-0.1-0.1
	c-7.7-10.7-11.7-23.3-11.7-36.4c0-13.2,4-25.8,11.7-36.4l0.1-0.1v-0.1c0.1-0.1,0.2-0.2,0.3-0.3l0.1-0.1l0.1-0.1
	c11.8-16,30.7-25.6,50.5-25.6c25.1,0,47.7,14.9,57.6,37.9c0.2,0.5,0.2,1,0,1.4c-0.2,0.5-0.5,0.8-1,1c-0.2,0.1-0.5,0.2-0.7,0.2
	c-0.8,0-1.4-0.4-1.7-1.1c-1.4-3.2-3-6.2-4.9-9.1l-0.7-1.1l-1.2,0.4c-6.9,2.2-14.3,3.9-21.9,5l-1.7,0.3l0.3,1.7
	c1.3,7.1,2.1,14.7,2.3,22.6v1.6h6.8c1,0,1.9,0.8,1.9,1.9c0,1-0.8,1.9-1.9,1.9H808v1.6c-0.3,15.1-2.9,29.4-7.3,40.2
	C795.8,607.1,789,613.9,781.7,613.9z M781.7,581.1c-5.8,0-11.6,0.3-17.2,0.9l-1.9,0.2l0.5,1.9c4.3,16,11.4,26,18.6,26
	s14.4-10,18.6-26l0.5-1.9l-1.9-0.2C793.3,581.4,787.5,581.1,781.7,581.1z M757.3,582.9c-6.6,1-13.1,2.4-19.3,4.2l-2.5,0.7l1.7,2
	c7.8,9,17.9,15.3,29.3,18.3l4.6,1.2l-2.8-3.8c-2.1-2.9-4-6.5-5.7-10.6c-1.3-3.3-2.5-6.9-3.5-10.7l-0.4-1.5L757.3,582.9z
	 M722.9,554.8c0.6,10.2,4,20.2,9.6,28.7l0.7,1l1.2-0.4c6.9-2.2,14.3-3.8,21.9-5l1.7-0.3l-0.3-1.7c-1.3-7.1-2.1-14.7-2.3-22.6v-1.6
	h-32.5V554.8z M759.1,554.8c0.2,7.8,1,15.3,2.3,22.2l0.3,1.5l1.5-0.2c6-0.7,12.3-1,18.5-1c6.2,0,12.4,0.3,18.4,1l1.5,0.2l0.3-1.5
	c1.3-6.9,2.1-14.4,2.3-22.2v-1.7H759L759.1,554.8z M761.4,525.4c-1.3,6.9-2.1,14.4-2.3,22.2v1.7h45.2v-1.7
	c-0.2-7.8-0.9-15.2-2.3-22.2l-0.3-1.5l-1.5,0.2c-6,0.7-12.2,1-18.4,1s-12.4-0.3-18.4-1l-1.5-0.2L761.4,525.4z M732.5,518.8
	c-5.7,8.6-9,18.5-9.6,28.7l-0.1,1.8h32.5v-1.6c0.2-7.9,0.9-15.5,2.3-22.6l0.3-1.7l-1.7-0.3c-7.6-1.2-14.9-2.8-21.9-5l-1.2-0.4
	L732.5,518.8z M781.7,492.3c-7.2,0-14.4,10-18.6,26l-0.5,1.9l1.9,0.2c5.6,0.6,11.4,0.9,17.2,0.9s11.6-0.3,17.2-0.9l1.9-0.2l-0.5-1.9
	C796.1,502.3,788.9,492.3,781.7,492.3z M766.6,494.2c-11.4,3-21.5,9.4-29.3,18.3l-1.7,2l2.5,0.7c6.1,1.8,12.6,3.2,19.3,4.2l1.5,0.2
	l0.4-1.5c1-3.9,2.2-7.5,3.5-10.7c1.7-4.2,3.6-7.8,5.7-10.6l2.8-3.8L766.6,494.2z M795,496.8c2.1,2.9,4,6.5,5.7,10.6
	c1.3,3.3,2.5,6.9,3.5,10.7l0.4,1.5l1.5-0.2c6.7-1,13.2-2.4,19.3-4.2l2.5-0.7l-1.7-2c-7.8-9-17.9-15.3-29.4-18.3l-4.5-1.2L795,496.8z
	 M810.3,613.6c-0.2,0-0.3,0-0.5-0.1c-0.2,0-0.3-0.1-0.4-0.2c-0.3-0.2-0.5-0.4-0.7-0.7c-0.1-0.2-0.2-0.4-0.3-0.7c0-0.2,0-0.4,0-0.7
	c0-0.1,0.1-0.3,0.1-0.4l6.8-16.8c2.9-7.3,8.2-16.9,19.9-16.9h9c11.7,0,17,9.6,19.9,16.9l6.8,16.8c0.4,0.9,0,1.9-0.8,2.4h-0.3l0,0
	l0,0l0,0l0,0l0,0l-0.1,0.1l-0.4,0.1L810.3,613.6z M835.3,581.1c-7.3,0-12.3,4.5-16.4,14.5l-5.8,14.2h53.4l-5.8-14.2
	c-4.1-10.1-9.1-14.5-16.4-14.5H835.3z M839.8,568.3c-7.7,0-13.9-6.2-13.9-13.9c0-7.7,6.2-13.9,13.9-13.9s13.9,6.2,13.9,13.9
	C853.7,562.1,847.5,568.3,839.8,568.3z M839.8,544.3c-5.6,0-10.1,4.5-10.1,10.1c0,5.6,4.5,10.1,10.1,10.1c5.6,0,10.1-4.5,10.1-10.1
	C849.9,548.8,845.4,544.3,839.8,544.3z"/>
<rect id="XMLID_361_" x="604" y="147" class="st28" width="72.3" height="210"/>
<rect id="XMLID_363_" x="1115" y="357.4" class="st29" width="50.6" height="33.1"/>
<rect id="XMLID_364_" x="1371.3" y="317.3" class="st30" width="190" height="73.3"/>
<g id="XMLID_365_">
	<g>
		<g>
			<defs>
				<rect id="SVGID_39_" x="816.2" y="168.7" width="109.4" height="96.3"/>
			</defs>
			<clipPath id="SVGID_40_">
				<use xlink:href="#SVGID_39_"  style="overflow:visible;"/>
			</clipPath>
			<path class="st31" d="M923.9,175.9h-5.1v-5.3c0-1-0.8-1.8-1.8-1.8h-39.4c-2.5,0-4.9,1-6.7,2.7c-1.8-1.7-4.2-2.7-6.7-2.7h-39.4
				c-1,0-1.8,0.8-1.8,1.8v5.3h-5.1c-1,0-1.8,0.8-1.8,1.8v61.5c0,4.8,3.9,8.8,8.8,8.8h33.7v13.3H851c-1,0-1.8,0.8-1.8,1.8
				s0.8,1.8,1.8,1.8h39.7c1,0,1.8-0.8,1.8-1.8s-0.8-1.8-1.8-1.8h-7.6v-8c0-1-0.8-1.8-1.8-1.8s-1.8,0.8-1.8,1.8v8H862V248h54.7
				c4.8,0,8.8-3.9,8.8-8.8v-61.5C925.7,176.7,924.9,175.9,923.9,175.9L923.9,175.9z M922.2,179.4v49.8h-3.4v-49.8H922.2z
				 M826.5,172.4h37.7c2.1,0,4.1,1.1,5.3,2.8c0.3,0.5,0.9,0.8,1.5,0.8s1.1-0.3,1.5-0.8c1.2-1.8,3.1-2.8,5.3-2.8h37.7v56.8h-88.8
				v-56.8H826.5z M823,179.4v49.8h-3.4v-49.8H823z M916.9,244.4h-92c-2.9,0-5.3-2.4-5.3-5.3v-6.5h102.5v6.5
				C922.2,242.1,919.8,244.4,916.9,244.4L916.9,244.4z"/>
		</g>
	</g>
	<path d="M870.9,225.7c1,0,1.8-0.8,1.8-1.8v-42.6c0-1-0.8-1.8-1.8-1.8s-1.8,0.8-1.8,1.8V224C869.2,224.9,870,225.7,870.9,225.7
		L870.9,225.7z"/>
	<path d="M834.3,181.7h26.9c1,0,1.8-0.8,1.8-1.8s-0.8-1.8-1.8-1.8h-26.9c-1,0-1.8,0.8-1.8,1.8C832.5,181,833.3,181.7,834.3,181.7
		L834.3,181.7z"/>
	<path d="M834.3,190.1h26.9c1,0,1.8-0.8,1.8-1.8s-0.8-1.8-1.8-1.8h-26.9c-1,0-1.8,0.8-1.8,1.8C832.5,189.3,833.3,190.1,834.3,190.1
		L834.3,190.1z"/>
	<path d="M834.3,198.4h13.4c1,0,1.8-0.8,1.8-1.8s-0.8-1.8-1.8-1.8h-13.4c-1,0-1.8,0.8-1.8,1.8S833.3,198.4,834.3,198.4L834.3,198.4z
		"/>
	<path d="M834.3,206.7h26.9c1,0,1.8-0.8,1.8-1.8s-0.8-1.8-1.8-1.8h-26.9c-1,0-1.8,0.8-1.8,1.8S833.3,206.7,834.3,206.7L834.3,206.7z
		"/>
	<path d="M834.3,215h26.9c1,0,1.8-0.8,1.8-1.8s-0.8-1.8-1.8-1.8h-26.9c-1,0-1.8,0.8-1.8,1.8C832.5,214.3,833.3,215,834.3,215
		L834.3,215z"/>
	<path d="M834.3,223.4h13.4c1,0,1.8-0.8,1.8-1.8s-0.8-1.8-1.8-1.8h-13.4c-1,0-1.8,0.8-1.8,1.8S833.3,223.4,834.3,223.4L834.3,223.4z
		"/>
	<path d="M880.7,181.7h26.9c1,0,1.8-0.8,1.8-1.8s-0.8-1.8-1.8-1.8h-26.9c-1,0-1.8,0.8-1.8,1.8C879,181,879.7,181.7,880.7,181.7
		L880.7,181.7z"/>
	<path d="M880.7,190.1h26.9c1,0,1.8-0.8,1.8-1.8s-0.8-1.8-1.8-1.8h-26.9c-1,0-1.8,0.8-1.8,1.8C879,189.3,879.7,190.1,880.7,190.1
		L880.7,190.1z"/>
	<path d="M880.7,198.4h13.4c1,0,1.8-0.8,1.8-1.8s-0.8-1.8-1.8-1.8h-13.4c-1,0-1.8,0.8-1.8,1.8C879,197.6,879.7,198.4,880.7,198.4
		L880.7,198.4z"/>
	<path d="M880.7,206.7h26.9c1,0,1.8-0.8,1.8-1.8s-0.8-1.8-1.8-1.8h-26.9c-1,0-1.8,0.8-1.8,1.8C879,205.9,879.7,206.7,880.7,206.7
		L880.7,206.7z"/>
	<path d="M880.7,215h26.9c1,0,1.8-0.8,1.8-1.8s-0.8-1.8-1.8-1.8h-26.9c-1,0-1.8,0.8-1.8,1.8C879,214.3,879.7,215,880.7,215
		L880.7,215z"/>
	<path d="M880.7,223.4h13.4c1,0,1.8-0.8,1.8-1.8s-0.8-1.8-1.8-1.8h-13.4c-1,0-1.8,0.8-1.8,1.8C879,222.6,879.7,223.4,880.7,223.4
		L880.7,223.4z"/>
</g>
<line id="XMLID_397_" class="st32" x1="1166" y1="209.5" x2="1370" y2="209.5"/>
<g id="XMLID_399_">
	<path id="XMLID_416_" d="M1268,333.5c-6.2,0-11.2-5-11.2-11.2c0-6.2,5-11.2,11.2-11.2s11.2,5,11.2,11.2
		C1279.2,328.5,1274.2,333.5,1268,333.5z M1268,314.6c-4.2,0-7.6,3.4-7.6,7.6s3.4,7.6,7.6,7.6s7.6-3.4,7.6-7.6
		S1272.2,314.6,1268,314.6z"/>
	<path id="XMLID_394_" d="M1225.4,279.9c-1,0-1.8-0.8-1.8-1.8s0.8-1.8,1.8-1.8h85.2c1,0,1.8,0.8,1.8,1.8s-0.8,1.8-1.8,1.8H1225.4z"
		/>
	<path id="XMLID_393_" d="M1225.4,294.4c-1,0-1.8-0.8-1.8-1.8s0.8-1.8,1.8-1.8h85.2c1,0,1.8,0.8,1.8,1.8s-0.8,1.8-1.8,1.8H1225.4z"
		/>
	<path id="XMLID_392_" d="M1235.1,304.5c-1,0-1.8-0.8-1.8-1.8s0.8-1.8,1.8-1.8h65.8c1,0,1.8,0.8,1.8,1.8s-0.8,1.8-1.8,1.8H1235.1z"
		/>
	<path id="XMLID_391_" d="M1232.7,324c-1,0-1.8-0.8-1.8-1.8s0.8-1.8,1.8-1.8h16.8c1,0,1.8,0.8,1.8,1.8s-0.8,1.8-1.8,1.8H1232.7z"/>
	<path id="XMLID_390_" d="M1286.5,324c-1,0-1.8-0.8-1.8-1.8s0.8-1.8,1.8-1.8h16.8c1,0,1.8,0.8,1.8,1.8s-0.8,1.8-1.8,1.8H1286.5z"/>
	<path id="XMLID_400_" d="M1202.1,351.9c-1,0-1.8-0.8-1.8-1.8v-95.3c0-1,0.8-1.8,1.8-1.8H1334c1,0,1.8,0.8,1.8,1.8v95.3
		c0,1-0.8,1.8-1.8,1.8H1202.1z M1331.1,333.4c-7,1.2-12.5,6.7-13.7,13.7l-0.2,1.1h15v-15L1331.1,333.4z M1221.8,344.6
		c0.3,0.9,0.5,1.9,0.6,2.9l0.1,0.8h91l0.1-0.8c0.1-1,0.3-2,0.6-2.9l0.3-1.2h-93L1221.8,344.6z M1203.9,348.2h15l-0.2-1.1
		c-1.2-7-6.7-12.5-13.7-13.7l-1.1-0.2V348.2z M1219.5,265.4c-1.7,2.7-4,5.1-6.8,6.8l-0.4,0.3v59.8l0.4,0.3c2.7,1.7,5.1,4,6.8,6.8
		l0.3,0.4h96.4l0.3-0.4c1.7-2.7,4-5.1,6.8-6.8l0.4-0.3v-59.8l-0.4-0.3c-2.7-1.7-5.1-4-6.8-6.8l-0.3-0.4h-96.4L1219.5,265.4z
		 M1207.6,274.5c-0.9,0.3-1.9,0.5-2.9,0.6l-0.8,0.1v54.5l0.8,0.1c1,0.1,1.9,0.3,2.9,0.6l1.2,0.3v-56.5L1207.6,274.5z M1327.3,330.6
		l1.2-0.3c0.9-0.3,1.9-0.5,2.9-0.6l0.8-0.1v-54.5l-0.8-0.1c-1-0.1-1.9-0.3-2.9-0.6l-1.2-0.3V330.6z M1317.3,257.6
		c1.2,7,6.7,12.5,13.7,13.7l1.1,0.2v-15h-15L1317.3,257.6z M1203.9,271.5l1.1-0.2c7-1.2,12.5-6.7,13.7-13.7l0.2-1.1h-15V271.5z
		 M1222.4,257.3c-0.1,0.9-0.3,1.9-0.6,2.9l-0.3,1.2h93l-0.3-1.2c-0.3-0.9-0.5-1.9-0.6-2.9l-0.1-0.8h-91L1222.4,257.3z"/>
</g>
<g class="st2">
	<path d="M1193,188v-17h3.1v7.7h0.1l6.4-7.7h3.9l-7.1,8.4l7.7,8.6h-4l-6.9-7.7h-0.1v7.7H1193z"/>
	<path d="M1218.3,178.9c1.2,1.7,2.2,3.3,3,4.6h0.1c-0.1-2.2-0.2-3.8-0.2-4.8V171h3.1v17h-3.3l-5.5-7.8c-1-1.4-2-2.9-3-4.7h-0.1
		c0.1,2.1,0.2,3.7,0.2,4.8v7.7h-3.1v-17h3.3L1218.3,178.9z"/>
	<path d="M1244.2,179.5c0,1.3-0.2,2.5-0.6,3.6c-0.4,1.1-0.9,2-1.6,2.8c-0.7,0.8-1.6,1.4-2.6,1.8c-1,0.4-2.2,0.6-3.5,0.6
		s-2.5-0.2-3.5-0.6c-1-0.4-1.9-1-2.6-1.8c-0.7-0.8-1.2-1.7-1.6-2.8c-0.4-1.1-0.6-2.3-0.6-3.6s0.2-2.5,0.6-3.6c0.4-1.1,0.9-2,1.6-2.8
		c0.7-0.8,1.6-1.4,2.6-1.8c1-0.4,2.2-0.6,3.5-0.6s2.5,0.2,3.5,0.6c1,0.4,1.9,1,2.6,1.8c0.7,0.8,1.2,1.7,1.6,2.8
		C1244,177,1244.2,178.2,1244.2,179.5z M1241,179.5c0-1-0.1-1.9-0.4-2.7c-0.3-0.8-0.6-1.4-1.1-1.9s-1-0.9-1.6-1.2s-1.3-0.4-2-0.4
		s-1.4,0.1-2,0.4s-1.2,0.6-1.6,1.2s-0.8,1.2-1.1,1.9c-0.3,0.8-0.4,1.7-0.4,2.7s0.1,1.9,0.4,2.7c0.3,0.8,0.6,1.4,1.1,1.9
		c0.4,0.5,1,0.9,1.6,1.2c0.6,0.3,1.3,0.4,2,0.4s1.4-0.1,2-0.4c0.6-0.3,1.2-0.6,1.6-1.2c0.4-0.5,0.8-1.2,1.1-1.9
		C1240.8,181.4,1241,180.5,1241,179.5z"/>
	<path d="M1257.2,175.5c-0.3,1.6-0.7,3.2-1.1,4.9l-1.9,7.6h-3.1l-5.4-17h3.3l2,6.8c0.6,2.1,1.1,4,1.5,5.8h0.1
		c0.4-1.8,0.8-3.7,1.3-5.7l1.8-6.9h3.2l1.8,6.9c0.5,1.9,0.9,3.8,1.3,5.7h0.1c0.5-2,1-4,1.5-5.8l2-6.8h3.3l-5.4,17h-3.1l-1.9-7.6
		C1258,178.7,1257.6,177,1257.2,175.5L1257.2,175.5z"/>
	<path d="M1274.2,171v14.4h7.9v2.6h-11.1v-17H1274.2z"/>
	<path d="M1288.2,185.4h8.4v2.6h-11.5v-17h11v2.6h-7.9v4.4h6.8v2.6h-6.8V185.4z"/>
	<path d="M1299.9,188v-17h4.5c0.4,0,0.8,0,1.2,0c0.4,0,0.8,0.1,1.2,0.1s0.8,0.1,1.1,0.2c0.4,0.1,0.7,0.2,1,0.3
		c0.9,0.3,1.7,0.7,2.4,1.2s1.3,1.1,1.7,1.7c0.5,0.7,0.8,1.4,1.1,2.2c0.2,0.8,0.4,1.7,0.4,2.7c0,0.9-0.1,1.8-0.3,2.6
		c-0.2,0.8-0.5,1.5-0.9,2.2s-0.9,1.2-1.6,1.7c-0.6,0.5-1.4,0.9-2.2,1.2c-0.7,0.3-1.5,0.5-2.5,0.6s-1.9,0.2-3.1,0.2H1299.9z
		 M1304.3,185.4c1.8,0,3.2-0.3,4.3-0.7c0.9-0.4,1.6-1.1,2.1-2s0.7-1.9,0.7-3.3c0-0.7-0.1-1.3-0.2-1.9s-0.4-1.1-0.7-1.5
		c-0.3-0.4-0.6-0.8-1-1.1c-0.4-0.3-0.9-0.6-1.4-0.8c-0.5-0.2-1-0.3-1.6-0.4s-1.3-0.1-2-0.1h-1.4v11.8H1304.3z"/>
	<path d="M1328.4,181.5h-3.8v-2.6h6.9v8.6c-0.3,0.1-0.6,0.2-1,0.3c-0.4,0.1-0.8,0.2-1.3,0.3c-0.5,0.1-1,0.1-1.5,0.2s-1,0.1-1.5,0.1
		c-1.5,0-2.9-0.2-4-0.6c-1.1-0.4-2.1-1-2.8-1.7c-0.8-0.7-1.3-1.6-1.7-2.7c-0.4-1-0.6-2.2-0.6-3.4c0-0.9,0.1-1.7,0.3-2.5
		c0.2-0.8,0.5-1.5,0.9-2.2c0.4-0.7,0.9-1.3,1.4-1.8s1.2-1,1.9-1.4c0.7-0.4,1.5-0.7,2.3-0.9c0.8-0.2,1.7-0.3,2.7-0.3
		c0.9,0,1.7,0.1,2.4,0.2c0.8,0.1,1.4,0.3,1.9,0.5v2.6c-0.7-0.2-1.3-0.4-2-0.5c-0.7-0.1-1.4-0.2-2-0.2c-0.9,0-1.8,0.1-2.6,0.4
		c-0.8,0.3-1.5,0.7-2.1,1.2c-0.6,0.5-1.1,1.2-1.4,2s-0.5,1.7-0.5,2.7c0,2,0.5,3.5,1.6,4.5c1,1,2.5,1.5,4.4,1.5c0.4,0,0.7,0,1.1-0.1
		c0.4,0,0.7-0.1,1-0.1V181.5z"/>
	<path d="M1338.4,185.4h8.4v2.6h-11.5v-17h11v2.6h-7.9v4.4h6.8v2.6h-6.8V185.4z"/>
</g>
<line id="XMLID_360_" class="st1" x1="676.3" y1="357" x2="676" y2="147"/>
<line id="XMLID_401_" class="st1" x1="1166" y1="285" x2="676" y2="285"/>
<line id="XMLID_402_" class="st1" x1="1223" y1="573" x2="1223" y2="647"/>
<rect id="XMLID_403_" x="1115" y="573" class="st33" width="217" height="74"/>
<line id="XMLID_422_" class="st1" x1="1293" y1="463" x2="1293" y2="573"/>
<line id="XMLID_440_" class="st1" x1="1006" y1="266" x2="1035" y2="266"/>
<line id="XMLID_277_" class="st1" x1="1031" y1="251" x2="1060" y2="251"/>
<line id="XMLID_426_" class="st1" x1="1008" y1="266" x2="1008" y2="285"/>
<line id="XMLID_427_" class="st1" x1="1033" y1="249" x2="1033" y2="268"/>
<line id="XMLID_428_" class="st1" x1="1058" y1="234" x2="1058" y2="253"/>
<line id="XMLID_429_" class="st1" x1="1083" y1="219" x2="1083" y2="238"/>
<line id="XMLID_430_" class="st1" x1="1108" y1="204" x2="1108" y2="223"/>
<line id="XMLID_431_" class="st1" x1="1133" y1="189" x2="1133" y2="208"/>
<line id="XMLID_432_" class="st1" x1="1056" y1="236" x2="1085" y2="236"/>
<line id="XMLID_433_" class="st1" x1="1081" y1="221" x2="1110" y2="221"/>
<line id="XMLID_434_" class="st1" x1="1106" y1="206" x2="1135" y2="206"/>
<line id="XMLID_435_" class="st1" x1="1135" y1="191" x2="1164" y2="191"/>
<g id="XMLID_414_">
	<g id="XMLID_417_">
		<g id="XMLID_419_">
			<g id="XMLID_437_">
				<path id="XMLID_438_" d="M1032.3,206.9c-5.4,0-9.7-4.2-9.7-9.7c0-5.4,4.2-9.7,9.7-9.7c5.4,0,9.7,4.2,9.7,9.7
					C1042,202.6,1037.7,206.9,1032.3,206.9z M1032.3,191.4c-3.1,0-5.8,2.7-5.8,5.8c0,3.1,2.7,5.8,5.8,5.8c3.1,0,5.8-2.7,5.8-5.8
					S1035.4,191.4,1032.3,191.4z"/>
			</g>
			<g id="XMLID_421_">
				<path id="XMLID_423_" d="M1035,230h-5c-2.3,0-4.6-1.9-4.6-4.6v-3.9c-1.5-0.4-3.1-1.2-4.6-1.9c-0.4,0-0.8,0-0.8,0l-2.7,2.7
					c-1.5,1.5-4.6,1.5-6.6,0l-3.9-3.9c-1.9-1.9-1.9-4.6,0-6.6l2.7-2.7c0.4-0.4,0-0.8,0-0.8c-0.8-1.2-1.2-2.7-1.5-3.9
					c0-0.4-0.4-0.4-0.8-0.4h-3.5c-2.3,0-4.6-1.9-4.6-4.6v-5c0-2.3,1.9-4.6,4.6-4.6h3.5c0.4,0,0.4-0.4,0.8-0.4
					c0.4-1.5,1.2-2.7,1.5-3.9c0-0.4,0-0.4,0-0.8l-2.7-2.7c-1.9-1.9-1.9-4.6,0-6.6l3.9-3.9c1.5-1.5,4.6-1.5,6.6,0l2.7,2.7
					c0.4,0.4,0.4,0.4,0.8,0c1.2-0.8,2.7-1.2,3.9-1.5c0.4,0,0.4-0.4,0.4-0.8v-3.5c0-2.3,1.9-4.6,4.6-4.6h5c2.3,0,4.6,1.9,4.6,4.6v3.5
					c0,0.4,0.4,0.4,0.4,0.8c1.2,0.4,2.7,1.2,3.9,1.5c0.4,0,0.8,0,0.8,0l2.7-2.7c1.5-1.5,4.6-1.5,6.6,0l3.9,3.9
					c1.9,1.9,1.9,4.6,0,6.6l-2.7,2.7c-0.4,0.4,0,0.8,0,0.8c0.8,1.2,1.2,2.7,1.5,3.9c0,0.4,0.4,0.4,0.8,0.4h3.5
					c2.3,0,4.6,1.9,4.6,4.6v5c0,2.3-1.9,4.6-4.6,4.6h-3.7c-0.4,0-0.4,0.4-0.8,0.4c-0.4,1.5-1.2,2.7-1.5,3.9c0,0.4,0,0.4,0,0.8
					l2.7,2.7c1.9,1.9,1.9,4.6,0,6.6l-3.9,3.9c-1.5,1.5-4.6,1.5-6.6,0l-2.7-2.7c-0.4-0.4-0.4-0.4-0.8,0c-1.2,0.8-2.7,1.2-3.9,1.5
					c-0.4,0-0.4,0.4-0.4,0.8v3.5C1039.3,228.1,1037.4,230,1035,230z M1020.4,215.7c0.8,0,1.5,0,2.3,0.4c1.5,0.8,3.5,1.5,5,1.9
					c0.8,0.4,1.5,1.2,1.5,1.9v5.4c0,0.4,0.4,0.8,0.8,0.8h5c0.4,0,0.8-0.4,0.8-0.8v-3.5c0-1.9,1.2-3.9,3.1-4.2
					c1.2-0.4,2.3-0.8,3.5-1.5c1.9-0.8,3.9-0.8,5.4,0.8l2.7,2.7c0.4,0.4,0.8,0.4,0.8,0l3.9-3.9c0.4-0.4,0.4-0.8,0-0.8l-2.7-2.7
					c-1.5-1.5-1.5-3.5-0.8-5.4c0.4-1.2,1.2-2.3,1.5-3.5c0.8-1.9,2.3-3.1,4.2-3.1h3.5c0.4,0,0.8-0.4,0.8-0.8v-5
					c0-0.4-0.4-0.8-0.8-0.8h-3.5c-1.9,0-3.9-1.2-4.2-3.1c-0.4-1.2-0.8-2.3-1.5-3.5c-0.8-1.9-0.8-3.9,0.8-5.4l2.7-2.7
					c0.4-0.4,0.4-0.8,0-0.8l-3.9-3.9c-0.4-0.4-0.8-0.4-0.8,0l-2.7,2.7c-1.5,1.2-3.5,1.5-5.4,0.8c-1.2-0.4-2.3-1.2-3.5-1.5
					c-1.9-0.8-3.1-2.3-3.1-4.2v-3.5c0-0.4-0.4-0.8-0.8-0.8h-5c-0.4,0-0.8,0.4-0.8,0.8v3.5c0,1.9-1.2,3.9-3.1,4.2
					c-1.2,0.4-2.3,0.8-3.5,1.5c-1.9,0.8-3.9,0.8-5.4-0.8l-2.7-2.7c-0.4-0.4-0.8-0.4-0.8,0l-3.9,3.9c-0.4,0.4-0.4,0.8,0,0.8l2.7,2.7
					c1.5,1.5,1.5,3.5,0.8,5.4c-0.4,1.2-1.2,2.3-1.5,3.5c-0.8,1.9-2.3,3.1-4.2,3.1h-3.5c-0.4,0-0.8,0.4-0.8,0.8v5
					c0,0.4,0.4,0.8,0.8,0.8h3.5c1.9,0,3.9,1.2,4.2,3.1c0.4,1.2,0.8,2.3,1.5,3.5c0.8,1.9,0.8,3.9-0.8,5.4l-2.7,2.7
					c-0.4,0.4-0.4,0.8,0,0.8l3.9,3.9c0.4,0.4,0.8,0.4,0.8,0l2.7-2.7C1018.1,216.1,1019.2,215.7,1020.4,215.7z"/>
			</g>
		</g>
	</g>
</g>
<g id="XMLID_455_">
	<path id="XMLID_458_" d="M1242.5,526.5V496c0-2.7-2.3-5-5-5h-8.4v-5c0-2.7-2.3-5-5-5h-3.4c-2.7,0-5,2.3-5,5v5h-16.8v-5
		c0-2.7-2.3-5-5-5h-3.4c-2.7,0-5,2.3-5,5v5h-8.4c-2.7,0-5,2.3-5,5v53.6c0,2.7,2.3,5,5,5h42.9c3.4,4,8.4,6.7,14.1,6.7
		c10.1,0,18.4-8.4,18.4-18.4C1252.5,535.9,1248.5,529.6,1242.5,526.5z M1217.7,534.6h-8.7v-13.4h13.4v7.7
		C1220.4,530.2,1219,532.2,1217.7,534.6z M1192.2,534.6v-13.4h13.4v13.4H1192.2z M1205.6,537.9v13.4h-13.4v-13.4H1205.6z
		 M1222.4,504.4v13.4H1209v-13.4H1222.4z M1205.6,517.8h-13.4v-13.4h13.4V517.8z M1188.9,517.8h-13.4v-13.4h13.4V517.8z
		 M1188.9,521.2v13.4h-13.4v-13.4H1188.9z M1225.7,521.2h13.4v4c-1.7-0.3-3.4-0.7-5-0.7c-3,0-5.7,0.7-8.4,2V521.2z M1239.1,517.8
		h-13.4v-13.4h13.4V517.8z M1219,486c0-1,0.7-1.7,1.7-1.7h3.4c1,0,1.7,0.7,1.7,1.7v6.7c0,1-0.7,1.7-1.7,1.7h-3.4
		c-1,0-1.7-0.7-1.7-1.7V486z M1188.9,486c0-1,0.7-1.7,1.7-1.7h3.4c1,0,1.7,0.7,1.7,1.7v6.7c0,1-0.7,1.7-1.7,1.7h-3.4
		c-1,0-1.7-0.7-1.7-1.7V486z M1177.2,494.4h8.7c0.7,2,2.7,3.4,4.7,3.4h3.4c2.3,0,4-1.3,4.7-3.4h17.3c0.7,2,2.7,3.4,4.7,3.4h3.4
		c2.3,0,4-1.3,4.7-3.4h8.7c1,0,1.7,0.7,1.7,1.7v5h-63.7v-5C1175.5,495,1176.2,494.4,1177.2,494.4z M1175.5,549.7V538h13.4v13.4
		h-11.7C1176.2,551.3,1175.5,550.7,1175.5,549.7z M1209,551.3v-13.4h7.4c-0.3,1.7-0.7,3.4-0.7,5c0,3,0.7,5.7,2,8.4H1209z
		 M1234.1,558c-8.4,0-15.1-6.7-15.1-15.1c0-8.4,6.7-15.1,15.1-15.1s15.1,6.7,15.1,15.1C1249.2,551.3,1242.5,558,1234.1,558z"/>
	<g id="XMLID_456_">
		<path id="XMLID_412_" d="M1230.8,551.3c-0.3,0-1-0.3-1.3-0.3l-6.7-6.7c-0.7-0.7-0.7-1.7,0-2.3c0.7-0.6,1.7-0.7,2.3,0l5.4,5.4
			l9-11.7c0.7-0.7,1.7-1,2.3-0.3c0.7,0.7,1,1.7,0.3,2.3l-10,13.3C1231.8,551,1231.4,551.3,1230.8,551.3L1230.8,551.3z"/>
	</g>
</g>
<g id="XMLID_407_">
	<path d="M763.8,203.3h-33.1c-0.9,0-1.7-0.7-1.7-1.7c0-0.9,0.7-1.7,1.7-1.7h33.1c0.9,0,1.7,0.7,1.7,1.7
		C765.5,202.5,764.7,203.3,763.8,203.3L763.8,203.3z"/>
	<path d="M755.9,210.7h-25.2c-0.9,0-1.7-0.7-1.7-1.7c0-0.9,0.7-1.7,1.7-1.7h25.2c0.9,0,1.7,0.7,1.7,1.7S756.8,210.7,755.9,210.7
		L755.9,210.7z"/>
	<path d="M739,233h-8.3c-0.9,0-1.7-0.7-1.7-1.7c0-0.9,0.7-1.7,1.7-1.7h8.3c0.9,0,1.7,0.7,1.7,1.7S740,233,739,233L739,233z"/>
	<g>
		<g>
			<defs>
				<rect id="SVGID_41_" x="720.5" y="179.9" width="74.9" height="76.6"/>
			</defs>
			<clipPath id="SVGID_42_">
				<use xlink:href="#SVGID_41_"  style="overflow:visible;"/>
			</clipPath>
			<path class="st34" d="M735.4,240.4h-4.7c-0.9,0-1.7-0.7-1.7-1.7c0-0.9,0.7-1.7,1.7-1.7h4.7c0.9,0,1.7,0.7,1.7,1.7
				C737.1,239.7,736.3,240.4,735.4,240.4L735.4,240.4z"/>
		</g>
		<g>
			<defs>
				<rect id="SVGID_43_" x="720.5" y="179.9" width="74.9" height="76.6"/>
			</defs>
			<clipPath id="SVGID_44_">
				<use xlink:href="#SVGID_43_"  style="overflow:visible;"/>
			</clipPath>
			<path class="st35" d="M793.4,187.6l-3.8-2.8c-1-0.7-2.1-1-3.3-0.8c-1.2,0.2-2.2,0.8-2.9,1.7l0,0l-9.4,12.7v-12.6
				c0-0.9-0.7-1.7-1.7-1.7h-6.9v-2.5c0-0.9-0.7-1.7-1.7-1.7c-0.9,0-1.7,0.7-1.7,1.7v2.5h-5v-2.5c0-0.9-0.7-1.7-1.7-1.7
				c-0.9,0-1.7,0.7-1.7,1.7v2.5h-5v-2.5c0-0.9-0.7-1.7-1.7-1.7c-0.9,0-1.7,0.7-1.7,1.7v2.5h-5v-2.5c0-0.9-0.7-1.7-1.7-1.7
				c-0.9,0-1.7,0.7-1.7,1.7v2.5h-5v-2.5c0-0.9-0.7-1.7-1.7-1.7c-0.9,0-1.7,0.7-1.7,1.7v2.5h-6.9c-0.9,0-1.7,0.7-1.7,1.7v68.8
				c0,0.9,0.7,1.7,1.7,1.7h50.2c0.9,0,1.7-0.7,1.7-1.7v-33.1l20.3-27.7l0,0C795.7,191.9,795.3,189.1,793.4,187.6L793.4,187.6z
				 M770.7,253h-46.8v-65.6h5.2v2.6c0,0.9,0.7,1.7,1.7,1.7c0.9,0,1.7-0.7,1.7-1.7v-2.5h5v2.5c0,0.9,0.7,1.7,1.7,1.7
				c0.9,0,1.7-0.7,1.7-1.7v-2.5h5v2.5c0,0.9,0.7,1.7,1.7,1.7c0.9,0,1.7-0.7,1.7-1.7v-2.5h5v2.5c0,0.9,0.7,1.7,1.7,1.7
				c0.9,0,1.7-0.7,1.7-1.7v-2.5h5v2.5c0,0.9,0.7,1.7,1.7,1.7c0.9,0,1.7-0.7,1.7-1.7v-2.5h5.2V203l-9.3,11.8h-31.3
				c-0.9,0-1.7,0.7-1.7,1.7c0,0.9,0.7,1.7,1.7,1.7h28.9l-9.4,12.9l0,0c-0.1,0.1-0.2,0.3-0.2,0.5l-3.8,13h-15.4
				c-0.9,0-1.7,0.7-1.7,1.7c0,0.9,0.7,1.7,1.7,1.7h16.7l0,0c0.3,0,0.6-0.1,0.9-0.3l12.4-8c0.2-0.1,0.3-0.2,0.4-0.4l9.6-13.1V253
				H770.7z M752.4,234.8l4.4,3.3l-6.6,4.3L752.4,234.8z M759.4,235.9l-5.6-4.2l26.2-35.9l5.6,4.2L759.4,235.9z M787.5,197.3
				l-5.6-4.2l1.8-2.4l5.6,4.2L787.5,197.3z M791.6,191.8L791.6,191.8l-0.3,0.4l-5.6-4.2l0.3-0.4l0,0c0.2-0.2,0.4-0.4,0.7-0.4
				s0.6,0,0.8,0.2l3.8,2.8C791.9,190.6,792,191.3,791.6,191.8L791.6,191.8z"/>
		</g>
	</g>
</g>
<g class="st2">
	<path d="M1030.8,315.2c-0.8,0-1.6,0.1-2.3,0.4c-0.7,0.3-1.3,0.7-1.8,1.2c-0.5,0.5-0.9,1.2-1.2,2c-0.3,0.8-0.4,1.7-0.4,2.7
		c0,1,0.1,1.9,0.4,2.6c0.3,0.8,0.6,1.4,1.1,1.9c0.5,0.5,1.1,0.9,1.8,1.1c0.7,0.3,1.5,0.4,2.4,0.4c0.6,0,1.3-0.1,2-0.2
		c0.7-0.1,1.3-0.3,1.9-0.4v2.7c-0.6,0.2-1.2,0.3-1.9,0.4c-0.7,0.1-1.4,0.1-2.1,0.1c-1.4,0-2.7-0.2-3.8-0.6c-1.1-0.4-2-1-2.7-1.7
		c-0.7-0.8-1.3-1.6-1.7-2.7c-0.4-1-0.6-2.2-0.6-3.5c0-1.3,0.2-2.5,0.6-3.6s1-2.1,1.7-2.9c0.7-0.8,1.7-1.5,2.8-1.9
		c1.1-0.5,2.4-0.7,3.8-0.7c0.7,0,1.4,0,2,0.1c0.6,0.1,1.2,0.2,1.7,0.4v2.6c-0.7-0.2-1.3-0.4-1.9-0.4S1031.4,315.2,1030.8,315.2z"/>
	<path d="M1053.5,321.4c0,1.3-0.2,2.5-0.6,3.6c-0.4,1.1-0.9,2-1.6,2.8c-0.7,0.8-1.6,1.4-2.6,1.8s-2.2,0.6-3.5,0.6
		c-1.3,0-2.5-0.2-3.5-0.6s-1.9-1-2.6-1.8c-0.7-0.8-1.2-1.7-1.6-2.8c-0.4-1.1-0.6-2.3-0.6-3.6s0.2-2.5,0.6-3.6c0.4-1.1,0.9-2,1.6-2.8
		c0.7-0.8,1.6-1.4,2.6-1.8s2.2-0.6,3.5-0.6c1.3,0,2.5,0.2,3.5,0.6s1.9,1,2.6,1.8c0.7,0.8,1.2,1.7,1.6,2.8
		C1053.3,318.9,1053.5,320.1,1053.5,321.4z M1050.3,321.4c0-1-0.1-1.9-0.4-2.7c-0.3-0.8-0.6-1.4-1.1-1.9c-0.4-0.5-1-0.9-1.6-1.2
		c-0.6-0.3-1.3-0.4-2-0.4s-1.4,0.1-2,0.4c-0.6,0.3-1.2,0.6-1.6,1.2c-0.4,0.5-0.8,1.2-1.1,1.9c-0.3,0.8-0.4,1.7-0.4,2.7
		s0.1,1.9,0.4,2.7c0.3,0.8,0.6,1.4,1.1,1.9c0.4,0.5,1,0.9,1.6,1.2c0.6,0.3,1.3,0.4,2,0.4s1.4-0.1,2-0.4c0.6-0.3,1.2-0.6,1.6-1.2
		c0.4-0.5,0.8-1.2,1.1-1.9C1050.2,323.3,1050.3,322.4,1050.3,321.4z"/>
	<path d="M1063.9,330.2c-0.9,0-1.7-0.1-2.4-0.3c-0.7-0.2-1.3-0.4-1.9-0.7c-0.5-0.3-1-0.7-1.4-1.2c-0.4-0.5-0.7-1-0.9-1.6
		c-0.2-0.5-0.3-1-0.4-1.6c-0.1-0.6-0.1-1.2-0.1-1.9v-10h3.1v9.7c0,1.2,0.1,2.1,0.4,2.8c0.3,0.8,0.8,1.3,1.4,1.6
		c0.6,0.3,1.3,0.5,2.2,0.5s1.6-0.2,2.2-0.5c0.6-0.3,1.1-0.9,1.4-1.6c0.3-0.7,0.4-1.6,0.4-2.8v-9.7h3.1v10c0,0.7,0,1.4-0.1,1.9
		c-0.1,0.6-0.2,1.1-0.4,1.6c-0.2,0.6-0.5,1.1-0.9,1.6c-0.4,0.5-0.9,0.9-1.4,1.2c-0.6,0.3-1.2,0.6-1.9,0.7
		C1065.5,330.1,1064.7,330.2,1063.9,330.2z"/>
	<path d="M1087.6,318c0,1.2-0.3,2.2-1,3c-0.7,0.8-1.7,1.4-3,1.8v0.1l5.1,7h-3.7l-4.6-6.6h-2.1v6.6h-3.1v-17h5.2c0.9,0,1.7,0,2.4,0.1
		c0.7,0.1,1.4,0.2,1.9,0.4c1,0.4,1.8,0.9,2.3,1.7C1087.3,315.9,1087.6,316.8,1087.6,318z M1079.7,320.7c0.7,0,1.3,0,1.8-0.1
		c0.5-0.1,0.9-0.2,1.3-0.3c0.6-0.2,1.1-0.6,1.3-1c0.2-0.4,0.4-0.9,0.4-1.4c0-0.5-0.1-0.9-0.3-1.2c-0.2-0.4-0.5-0.6-1-0.8
		c-0.3-0.1-0.7-0.2-1.1-0.3c-0.4-0.1-1-0.1-1.7-0.1h-2.2v5.2H1079.7z"/>
	<path d="M1099.7,325c0-0.4-0.1-0.8-0.3-1c-0.2-0.3-0.5-0.5-0.9-0.7c-0.4-0.2-0.8-0.3-1.2-0.4c-0.5-0.1-0.9-0.2-1.4-0.3
		c-0.7-0.1-1.3-0.3-1.9-0.5c-0.6-0.2-1.1-0.5-1.6-0.8c-0.5-0.4-0.8-0.8-1.1-1.3c-0.3-0.5-0.4-1.2-0.4-2c0-0.9,0.2-1.7,0.5-2.3
		c0.3-0.7,0.7-1.2,1.3-1.7c0.5-0.4,1.2-0.8,1.9-1c0.7-0.2,1.5-0.3,2.4-0.3c0.9,0,1.8,0.1,2.7,0.3s1.7,0.4,2.4,0.7v2.7
		c-0.9-0.3-1.7-0.6-2.5-0.8c-0.8-0.2-1.6-0.2-2.3-0.2c-1,0-1.8,0.2-2.4,0.6c-0.6,0.4-0.8,0.9-0.8,1.7c0,0.4,0.1,0.8,0.3,1.1
		c0.2,0.3,0.4,0.5,0.7,0.7c0.3,0.2,0.7,0.3,1.1,0.4s0.8,0.2,1.3,0.3c0.7,0.2,1.4,0.3,2.1,0.5c0.7,0.2,1.2,0.5,1.7,0.8
		s0.9,0.8,1.2,1.4c0.3,0.6,0.4,1.3,0.4,2.2c0,0.9-0.2,1.7-0.5,2.4c-0.3,0.7-0.8,1.2-1.4,1.7c-0.6,0.4-1.4,0.8-2.3,1
		s-1.9,0.3-2.9,0.3c-0.9,0-1.8-0.1-2.7-0.3c-0.9-0.2-1.6-0.4-2.2-0.8v-2.6c0.8,0.4,1.7,0.6,2.5,0.8c0.8,0.2,1.6,0.2,2.5,0.2
		c0.5,0,1,0,1.4-0.1c0.5-0.1,0.9-0.2,1.3-0.4c0.4-0.2,0.7-0.5,0.9-0.8C1099.6,325.9,1099.7,325.5,1099.7,325z"/>
	<path d="M1109.5,327.2h8.4v2.6h-11.5v-17h11v2.6h-7.9v4.4h6.8v2.6h-6.8V327.2z"/>
</g>
<g id="XMLID_469_">
	<path id="XMLID_470_" d="M709.4,358.2c-1,0-1.8-0.8-1.8-1.8V326c0,0,0,0,0-0.1c0,0,0,0,0-0.1c0-1,0.8-1.8,1.8-1.8h36.1v-16.2H737
		c-1,0-1.8-0.8-1.8-1.8s0.8-1.8,1.8-1.8h10.2c1,0,1.8,0.8,1.8,1.8v19.7c0,1-0.8,1.8-1.8,1.8h-36.1v28.8
		C711.1,357.4,710.4,358.2,709.4,358.2L709.4,358.2z M690.5,358.2c-1,0-1.8-0.8-1.8-1.8v-58.7c0-1,0.8-1.8,1.8-1.8h37.8
		c1,0,1.8,0.8,1.8,1.8v19.7c0,1-0.8,1.8-1.8,1.8h-36.1v37.2C692.2,357.4,691.4,358.2,690.5,358.2L690.5,358.2z M692.2,315.6h34.3
		v-16.2h-34.3V315.6z M709.4,312.3c-2.6,0-4.8-2.1-4.8-4.8c0-2.6,2.1-4.8,4.8-4.8c2.6,0,4.8,2.1,4.8,4.8
		C714.2,310.2,712,312.3,709.4,312.3L709.4,312.3z M709.4,306.3c-0.7,0-1.3,0.6-1.3,1.3s0.6,1.3,1.3,1.3c0.7,0,1.3-0.6,1.3-1.3
		C710.6,306.9,710.1,306.3,709.4,306.3L709.4,306.3z"/>
</g>
</svg>
