<?xml version="1.0" encoding="utf-8"?>
<!-- Generator: Adobe Illustrator 19.0.0, SVG Export Plug-In . SVG Version: 6.00 Build 0)  -->
<svg version="1.1" id="Layer_1" xmlns="http://www.w3.org/2000/svg" xmlns:xlink="http://www.w3.org/1999/xlink" x="0px" y="0px"
	 viewBox="359.5 142.1 1204 504" style="enable-background:new 359.5 142.1 1204 504;" xml:space="preserve">
<style type="text/css">
	.st0{fill:#FFFFFF;stroke:#000000;stroke-width:4;stroke-miterlimit:10;}
	.st1{fill:none;stroke:#000000;stroke-width:4;stroke-miterlimit:10;}
	.st2{enable-background:new    ;}
	.st3{fill:#103B9B;}
	.st4{fill:#FFFFFF;}
	.st5{fill:#ED1F34;}
	.st6{clip-path:url(#SVGID_2_);fill:#ED1F34;}
	.st7{clip-path:url(#SVGID_4_);}
	.st8{fill:#FFE000;}
	.st9{clip-path:url(#SVGID_6_);fill:#ED1F34;}
	.st10{clip-path:url(#SVGID_8_);}
	.st11{fill:#164FCE;}
	.st12{clip-path:url(#SVGID_10_);fill:#FFFFFF;}
	.st13{clip-path:url(#SVGID_12_);}
	.st14{clip-path:url(#SVGID_14_);fill:#ED1F34;}
	.st15{clip-path:url(#SVGID_16_);}
	.st16{clip-path:url(#SVGID_18_);fill:#164FCE;}
	.st17{clip-path:url(#SVGID_20_);}
	.st18{fill:#259245;}
	.st19{clip-path:url(#SVGID_22_);fill:#ED1F34;}
	.st20{clip-path:url(#SVGID_24_);}
	.st21{fill:#333333;}
	.st22{clip-path:url(#SVGID_26_);fill:#333333;}
	.st23{clip-path:url(#SVGID_28_);}
	.st24{clip-path:url(#SVGID_30_);fill:#ED1F34;}
	.st25{clip-path:url(#SVGID_32_);}
	.st26{clip-path:url(#SVGID_37_);}
	.st27{clip-path:url(#SVGID_38_);fill:#231F20;}
	.st28{fill:#B3B3B3;stroke:#000000;stroke-width:4;stroke-miterlimit:10;}
	.st29{fill:#29ABE2;stroke:#000000;stroke-width:3;stroke-miterlimit:10;}
	.st30{fill:#22B573;stroke:#000000;stroke-width:3;stroke-miterlimit:10;}
	.st31{clip-path:url(#SVGID_40_);}
	.st32{fill:none;stroke:#000000;stroke-width:3;stroke-miterlimit:10;}
	.st33{fill:#BDCCD4;stroke:#000000;stroke-width:4;stroke-miterlimit:10;}
	.st34{clip-path:url(#SVGID_42_);}
	.st35{clip-path:url(#SVGID_44_);}
</style>
<g>
	<rect id="XMLID_272_" x="361.5" y="144.1" class="st0" width="1200" height="500"/>
	<line id="XMLID_276_" class="st1" x1="361.5" y1="448.1" x2="567.5" y2="448.1"/>
	<line id="XMLID_278_" class="st1" x1="1370.5" y1="388.1" x2="1369.8" y2="145.3"/>
	<line id="XMLID_279_" class="st1" x1="1114.5" y1="354.1" x2="1114.5" y2="645.1"/>
	<line id="XMLID_280_" class="st1" x1="1114.5" y1="388.1" x2="1561.5" y2="388.1"/>
	<line id="XMLID_281_" class="st1" x1="603.5" y1="144.1" x2="603.5" y2="353.1"/>
	<line id="XMLID_282_" class="st1" x1="975.8" y1="145.1" x2="976.5" y2="354.1"/>
	<line id="XMLID_283_" class="st1" x1="567.5" y1="354.1" x2="567.5" y2="644.1"/>
	<line id="XMLID_284_" class="st1" x1="907.5" y1="351.1" x2="907.5" y2="646.1"/>
	<line id="XMLID_285_" class="st1" x1="1369.5" y1="314.1" x2="1561.5" y2="314.1"/>
	<g id="XMLID_286_">
		<path d="M1518.1,184.5l-2.8,4.6l-6.5-3.9l2.9-4.5c0.7-1.1,1.8-1.7,3.1-1.7h0.3c2,0,3.7,1.6,3.7,3.7
			C1518.7,183.3,1518.5,184,1518.1,184.5L1518.1,184.5z M1501.4,210.2v-12.9l-0.2-0.2l2.4-3.7l6.6,4l-8,12.8L1501.4,210.2
			L1501.4,210.2z M1501.4,217.3c-4,0.8-6.9,4.3-6.9,8.5s3,7.7,6.9,8.5v1.9h-65.9v-1.9c4-0.8,6.9-4.3,6.9-8.5s-3-7.7-6.9-8.5v-3.6
			h65.9V217.3L1501.4,217.3z M1492.7,279.5h-48.5c-4.8,0-8.7-3.9-8.7-8.7v-1.7h55.5v-3.5h-55.5v-26h65.9v26h-6.9v3.5h6.9v1.7
			C1501.4,275.6,1497.5,279.5,1492.7,279.5L1492.7,279.5z M1423.7,191.7l6-4.8l16.3,23.3h-9.6L1423.7,191.7L1423.7,191.7z
			 M1418.1,182.5c0-2,1.6-3.6,3.6-3.6h0.6c1.2,0,2.2,0.6,2.9,1.5l2.5,3.5l-6,4.8l-2.9-4.3C1418.4,183.9,1418.1,183.2,1418.1,182.5
			L1418.1,182.5z M1470.2,178.9v3.5h-6.9v3.5h6.9v3.5h-3.5v3.5h3.5v3.5h-6.9v3.5h6.9v3.5h-3.5v3.5h3.5v3.5h-17.3v-31.5H1470.2
			L1470.2,178.9z M1480.6,201.5h10.4V198h-9.8c1.7-2.1,5-6.5,6-12.1h4.1c1,5.6,4.3,10.1,6,12.1h-2.9v3.5h3.5v8.7h-17.3L1480.6,201.5
			L1480.6,201.5z M1487.5,178.9h1l2.5,2.5v1h-3.5V178.9L1487.5,178.9z M1506.9,188.1l6.6,3.9l-1.5,2.4l-6.6-4L1506.9,188.1
			L1506.9,188.1z M1522.2,182.6c0-3.9-3.2-7.1-7.1-7.1h-0.3c-2.4,0-4.7,1.2-6,3.3l-9.9,15.5c-1.9-2.6-4.4-7-4.4-11.9v-2.5l-4.5-4.5
			h-5.9v6.9c0,7.8-6.4,14.3-6.4,14.4l-0.5,0.5v12.9h-3.5v-34.6h-24.3v33.4l-21.3-30.4c-1.3-1.9-3.5-3-5.8-3h-0.6c-3.9,0-7,3.2-7,7
			c0,1.4,0.4,2.8,1.2,4l16.3,23.7h-3.6v3.5h3.5v6.9h1.7c2.9,0,5.2,2.3,5.2,5.2s-2.3,5.2-5.2,5.2h-1.7v39.9c0,6.7,5.4,12.1,12.1,12.1
			h48.5c6.7,0,12.1-5.4,12.1-12.1V231h-1.7c-2.9,0-5.2-2.3-5.2-5.2s2.3-5.2,5.2-5.2h1.7v-6.9h3.5v-3.5h-2.1l14.9-23.8
			C1521.8,185.2,1522.2,183.9,1522.2,182.6L1522.2,182.6z"/>
		<polygon id="XMLID_500_" points="1494.4,258.7 1497.9,258.7 1497.9,262.2 1494.4,262.2 		"/>
		<polygon id="XMLID_499_" points="1487.5,258.7 1491,258.7 1491,262.2 1487.5,262.2 		"/>
		<polygon id="XMLID_498_" points="1480.6,258.7 1484,258.7 1484,262.2 1480.6,262.2 		"/>
	</g>
	<g class="st2">
		<path d="M408.1,409.3H405v-14.4h-5.5v-2.6h14v2.6H408v14.4H408.1z"/>
		<path d="M419,406.7h8.4v2.6h-11.5v-17h11v2.6H419v4.4h6.8v2.6H419V406.7z"/>
		<path d="M440.4,404.9H434l-1.7,4.3H429l6.7-17h2.8l6.7,17h-3.3L440.4,404.9z M437.2,396.4c-0.6,1.8-1.1,3.3-1.6,4.5l-0.6,1.5h4.4
			l-0.6-1.5C438.4,399.6,437.9,398.1,437.2,396.4L437.2,396.4z"/>
		<path d="M455.8,394.6c-0.8,0-1.6,0.1-2.3,0.4c-0.7,0.3-1.3,0.7-1.8,1.2s-0.9,1.2-1.2,2c-0.3,0.8-0.4,1.7-0.4,2.7s0.1,1.9,0.4,2.6
			c0.3,0.8,0.6,1.4,1.1,1.9s1.1,0.9,1.8,1.1c0.7,0.3,1.5,0.4,2.4,0.4c0.6,0,1.3-0.1,2-0.2s1.3-0.3,1.9-0.4v2.7
			c-0.6,0.2-1.2,0.3-1.9,0.4c-0.7,0.1-1.4,0.1-2.1,0.1c-1.4,0-2.7-0.2-3.8-0.6c-1.1-0.4-2-1-2.7-1.7c-0.7-0.8-1.3-1.6-1.7-2.7
			c-0.4-1-0.6-2.2-0.6-3.5s0.2-2.5,0.6-3.6s1-2.1,1.7-2.9s1.7-1.5,2.8-1.9s2.4-0.7,3.8-0.7c0.7,0,1.4,0,2,0.1s1.2,0.2,1.7,0.4v2.6
			c-0.7-0.2-1.3-0.4-1.9-0.4S456.4,394.6,455.8,394.6z"/>
		<path d="M465.8,399.3h7.9v-7h3.1v17h-3.1v-7.4h-7.9v7.4h-3.1v-17h3.1V399.3z"/>
		<path d="M480.9,409.3v-17h3.1v17H480.9z"/>
		<path d="M496.9,400.2c1.2,1.7,2.2,3.3,3,4.6h0.1c-0.1-2.2-0.2-3.8-0.2-4.8v-7.7h3.1v17h-3.3l-5.5-7.8c-1-1.4-2-2.9-3-4.7H491
			c0.1,2.1,0.2,3.7,0.2,4.8v7.7h-3.1v-17h3.3L496.9,400.2z"/>
		<path d="M517.5,402.8h-3.8v-2.6h6.9v8.6c-0.3,0.1-0.6,0.2-1,0.3s-0.8,0.2-1.3,0.3c-0.5,0.1-1,0.1-1.5,0.2s-1,0.1-1.5,0.1
			c-1.5,0-2.9-0.2-4-0.6c-1.1-0.4-2.1-1-2.8-1.7s-1.3-1.6-1.7-2.7c-0.4-1-0.6-2.2-0.6-3.4c0-0.9,0.1-1.7,0.3-2.5
			c0.2-0.8,0.5-1.5,0.9-2.2s0.9-1.3,1.4-1.8c0.6-0.5,1.2-1,1.9-1.4s1.5-0.7,2.3-0.9c0.8-0.2,1.7-0.3,2.7-0.3c0.9,0,1.7,0.1,2.4,0.2
			c0.8,0.1,1.4,0.3,1.9,0.5v2.6c-0.7-0.2-1.3-0.4-2-0.5s-1.4-0.2-2-0.2c-0.9,0-1.8,0.1-2.6,0.4s-1.5,0.7-2.1,1.2s-1.1,1.2-1.4,2
			s-0.5,1.7-0.5,2.7c0,2,0.5,3.5,1.6,4.5c1,1,2.5,1.5,4.4,1.5c0.4,0,0.7,0,1.1-0.1c0.4,0,0.7-0.1,1-0.1L517.5,402.8L517.5,402.8z"/>
	</g>
	<g class="st2">
		<path d="M954,600.1v14.4h7.9v2.6h-11.1v-17H954z"/>
		<path d="M968,614.5h8.4v2.6h-11.5v-17h11v2.6H968v4.4h6.8v2.6H968V614.5z"/>
		<path d="M989.3,612.8h-6.4l-1.7,4.3h-3.3l6.7-17h2.8l6.7,17h-3.3L989.3,612.8z M986.1,604.2c-0.6,1.8-1.1,3.3-1.6,4.5l-0.6,1.5
			h4.4l-0.6-1.5C987.3,607.5,986.8,606,986.1,604.2L986.1,604.2z"/>
		<path d="M1009.3,605.2c0,1.2-0.3,2.2-1,3c-0.7,0.8-1.7,1.4-3,1.8v0.1l5.1,7h-3.7l-4.6-6.6h-2.1v6.6h-3.1v-17h5.2
			c0.9,0,1.7,0,2.4,0.1s1.4,0.2,1.9,0.4c1,0.4,1.8,0.9,2.3,1.7C1009,603.1,1009.3,604.1,1009.3,605.2z M1001.3,607.9
			c0.7,0,1.3,0,1.8-0.1s0.9-0.2,1.3-0.3c0.6-0.2,1.1-0.6,1.3-1s0.4-0.9,0.4-1.4s-0.1-0.9-0.3-1.2c-0.2-0.4-0.5-0.6-1-0.8
			c-0.3-0.1-0.7-0.2-1.1-0.3c-0.4-0.1-1-0.1-1.7-0.1h-2.2v5.2H1001.3L1001.3,607.9z"/>
		<path d="M1021.9,608c1.2,1.7,2.2,3.3,3,4.6h0.1c-0.1-2.2-0.2-3.8-0.2-4.8v-7.7h3.1v17h-3.3l-5.5-7.8c-1-1.4-2-2.9-3-4.7h-0.1
			c0.1,2.1,0.2,3.7,0.2,4.8v7.7h-3.1v-17h3.3L1021.9,608z"/>
		<path d="M1031.9,617.1v-17h3.1v17H1031.9z"/>
		<path d="M1048,608c1.2,1.7,2.2,3.3,3,4.6h0.1c-0.1-2.2-0.2-3.8-0.2-4.8v-7.7h3.1v17h-3.3l-5.5-7.8c-1-1.4-2-2.9-3-4.7h-0.1
			c0.1,2.1,0.2,3.7,0.2,4.8v7.7h-3.1v-17h3.3L1048,608z"/>
		<path d="M1068.6,610.6h-3.8V608h6.9v8.6c-0.3,0.1-0.6,0.2-1,0.3s-0.8,0.2-1.3,0.3s-1,0.1-1.5,0.2c-0.5,0.1-1,0.1-1.5,0.1
			c-1.5,0-2.9-0.2-4-0.6c-1.1-0.4-2.1-1-2.8-1.7c-0.8-0.7-1.3-1.6-1.7-2.7c-0.4-1-0.6-2.2-0.6-3.4c0-0.9,0.1-1.7,0.3-2.5
			c0.2-0.8,0.5-1.5,0.9-2.2c0.4-0.7,0.9-1.3,1.4-1.8c0.6-0.5,1.2-1,1.9-1.4c0.7-0.4,1.5-0.7,2.3-0.9c0.8-0.2,1.7-0.3,2.7-0.3
			c0.9,0,1.7,0.1,2.4,0.2c0.8,0.1,1.4,0.3,1.9,0.5v2.6c-0.7-0.2-1.3-0.4-2-0.5s-1.4-0.2-2-0.2c-0.9,0-1.8,0.1-2.6,0.4
			c-0.8,0.3-1.5,0.7-2.1,1.2s-1.1,1.2-1.4,2c-0.3,0.8-0.5,1.7-0.5,2.7c0,2,0.5,3.5,1.6,4.5c1,1,2.5,1.5,4.4,1.5c0.4,0,0.7,0,1.1-0.1
			c0.4,0,0.7-0.1,1-0.1L1068.6,610.6L1068.6,610.6z"/>
	</g>
	<g class="st2">
		<path d="M1396.1,428.6h-3.8V426h6.9v8.6c-0.3,0.1-0.6,0.2-1,0.3c-0.4,0.1-0.8,0.2-1.3,0.3c-0.5,0.1-1,0.1-1.5,0.2s-1,0.1-1.5,0.1
			c-1.5,0-2.9-0.2-4-0.6s-2.1-1-2.8-1.7c-0.8-0.7-1.3-1.6-1.7-2.7c-0.4-1-0.6-2.2-0.6-3.4c0-0.9,0.1-1.7,0.3-2.5
			c0.2-0.8,0.5-1.5,0.9-2.2s0.9-1.3,1.4-1.8s1.2-1,1.9-1.4c0.7-0.4,1.5-0.7,2.3-0.9c0.8-0.2,1.7-0.3,2.7-0.3c0.9,0,1.7,0.1,2.4,0.2
			c0.8,0.1,1.4,0.3,1.9,0.5v2.6c-0.7-0.2-1.3-0.4-2-0.5s-1.4-0.2-2-0.2c-0.9,0-1.8,0.1-2.6,0.4c-0.8,0.3-1.5,0.7-2.1,1.2
			s-1.1,1.2-1.4,2s-0.5,1.7-0.5,2.7c0,2,0.5,3.5,1.6,4.5c1,1,2.5,1.5,4.4,1.5c0.4,0,0.7,0,1.1-0.1c0.4,0,0.7-0.1,1-0.1L1396.1,428.6
			L1396.1,428.6z"/>
		<path d="M1406.1,432.5h8.4v2.6H1403v-17h11v2.6h-7.9v4.4h6.8v2.6h-6.8V432.5z"/>
		<path d="M1426.1,430.2c0-0.4-0.1-0.8-0.3-1c-0.2-0.3-0.5-0.5-0.9-0.7s-0.8-0.3-1.2-0.4c-0.5-0.1-0.9-0.2-1.4-0.3
			c-0.7-0.1-1.3-0.3-1.9-0.5s-1.1-0.5-1.6-0.8c-0.5-0.4-0.8-0.8-1.1-1.3s-0.4-1.2-0.4-2c0-0.9,0.2-1.7,0.5-2.3
			c0.3-0.7,0.7-1.2,1.3-1.7c0.5-0.4,1.2-0.8,1.9-1c0.7-0.2,1.5-0.3,2.4-0.3s1.8,0.1,2.7,0.3s1.7,0.4,2.4,0.7v2.7
			c-0.9-0.3-1.7-0.6-2.5-0.8c-0.8-0.2-1.6-0.2-2.3-0.2c-1,0-1.8,0.2-2.4,0.6s-0.8,0.9-0.8,1.7c0,0.4,0.1,0.8,0.3,1.1
			c0.2,0.3,0.4,0.5,0.7,0.7c0.3,0.2,0.7,0.3,1.1,0.4s0.8,0.2,1.3,0.3c0.7,0.2,1.4,0.3,2.1,0.5s1.2,0.5,1.7,0.8s0.9,0.8,1.2,1.4
			c0.3,0.6,0.4,1.3,0.4,2.2c0,0.9-0.2,1.7-0.5,2.4s-0.8,1.2-1.4,1.7c-0.6,0.4-1.4,0.8-2.3,1s-1.9,0.3-2.9,0.3
			c-0.9,0-1.8-0.1-2.7-0.3c-0.9-0.2-1.6-0.4-2.2-0.8V432c0.8,0.4,1.7,0.6,2.5,0.8c0.8,0.2,1.6,0.2,2.5,0.2c0.5,0,1,0,1.4-0.1
			c0.5-0.1,0.9-0.2,1.3-0.4c0.4-0.2,0.7-0.5,0.9-0.8C1426,431.1,1426.1,430.7,1426.1,430.2z"/>
		<path d="M1437.5,428.5c-0.3,0-0.6,0-0.8,0s-0.5,0-0.8-0.1v6.6h-3.1v-17h4.9c0.8,0,1.5,0,2.2,0.1c0.6,0.1,1.2,0.2,1.6,0.3
			c1.2,0.4,2.1,0.9,2.7,1.7s0.9,1.8,0.9,3c0,0.8-0.2,1.6-0.5,2.2c-0.3,0.7-0.8,1.2-1.5,1.7s-1.4,0.8-2.4,1.1
			S1438.7,428.5,1437.5,428.5z M1435.9,425.8c0.2,0,0.4,0,0.7,0.1c0.3,0,0.6,0,0.9,0c0.8,0,1.5-0.1,2.1-0.2s1-0.3,1.4-0.6
			c0.3-0.2,0.6-0.5,0.7-0.9c0.2-0.3,0.2-0.7,0.2-1.1c0-0.5-0.1-0.9-0.3-1.3s-0.6-0.6-1.2-0.9c-0.3-0.1-0.7-0.2-1.1-0.2
			s-1-0.1-1.6-0.1h-1.8L1435.9,425.8L1435.9,425.8z"/>
		<path d="M1461,423.2c0,1.2-0.3,2.2-1,3s-1.7,1.4-3,1.8v0.1l5.1,7h-3.7l-4.6-6.6h-2.1v6.6h-3.1v-17h5.2c0.9,0,1.7,0,2.4,0.1
			c0.7,0.1,1.4,0.2,1.9,0.4c1,0.4,1.8,0.9,2.3,1.7C1460.7,421.1,1461,422.1,1461,423.2z M1453,425.9c0.7,0,1.3,0,1.8-0.1
			s0.9-0.2,1.3-0.3c0.6-0.2,1.1-0.6,1.3-1c0.2-0.4,0.4-0.9,0.4-1.4s-0.1-0.9-0.3-1.2c-0.2-0.4-0.5-0.6-1-0.8
			c-0.3-0.1-0.7-0.2-1.1-0.3c-0.4-0.1-1-0.1-1.7-0.1h-2.2v5.2L1453,425.9L1453,425.9z"/>
		<path d="M1474.4,430.8h-6.4l-1.7,4.3h-3.3l6.7-17h2.8l6.7,17h-3.3L1474.4,430.8z M1467.2,413.9h2.8v2.9h-2.8V413.9z M1471.2,422.2
			c-0.6,1.8-1.1,3.3-1.6,4.5l-0.6,1.5h4.4l-0.6-1.5C1472.4,425.5,1471.9,424,1471.2,422.2L1471.2,422.2z M1472.4,413.9h2.8v2.9h-2.8
			V413.9z"/>
		<path d="M1489.8,420.4c-0.8,0-1.6,0.1-2.3,0.4c-0.7,0.3-1.3,0.7-1.8,1.2s-0.9,1.2-1.2,2c-0.3,0.8-0.4,1.7-0.4,2.7s0.1,1.9,0.4,2.6
			c0.3,0.8,0.6,1.4,1.1,1.9s1.1,0.9,1.8,1.1c0.7,0.3,1.5,0.4,2.4,0.4c0.6,0,1.3-0.1,2-0.2s1.3-0.3,1.9-0.4v2.7
			c-0.6,0.2-1.2,0.3-1.9,0.4c-0.7,0.1-1.4,0.1-2.1,0.1c-1.4,0-2.7-0.2-3.8-0.6c-1.1-0.4-2-1-2.7-1.7c-0.7-0.8-1.3-1.6-1.7-2.7
			c-0.4-1-0.6-2.2-0.6-3.5s0.2-2.5,0.6-3.6s1-2.1,1.7-2.9s1.7-1.5,2.8-1.9c1.1-0.5,2.4-0.7,3.8-0.7c0.7,0,1.4,0,2,0.1
			s1.2,0.2,1.7,0.4v2.6c-0.7-0.2-1.3-0.4-1.9-0.4S1490.4,420.4,1489.8,420.4z"/>
		<path d="M1499.9,425.1h7.9v-7h3.1v17h-3.1v-7.4h-7.9v7.4h-3.1v-17h3.1V425.1z"/>
	</g>
	<line id="XMLID_290_" class="st1" x1="1165.5" y1="145.1" x2="1165.5" y2="388.1"/>
	<line id="XMLID_293_" class="st1" x1="1331.5" y1="388.1" x2="1331.5" y2="465.1"/>
	<line id="XMLID_294_" class="st1" x1="1331.5" y1="465.1" x2="1331.5" y2="645.1"/>
	<line id="XMLID_295_" class="st1" x1="907.5" y1="570.1" x2="1331.5" y2="570.1"/>
	<g id="XMLID_296_">
		<path class="st3" d="M869.6,308.3v-13.9l20.8,13.9H869.6z"/>
		<path class="st3" d="M869.8,294.7v13.5H890L869.8,294.7z"/>
		<path class="st3" d="M887.8,283.5h24.7V300L887.8,283.5z"/>
		<path class="st3" d="M912.4,283.6h-24.1l24.1,16.1V283.6z"/>
		<path class="st3" d="M869.6,327.6h20.8l-20.8,13.9V327.6z"/>
		<path class="st3" d="M869.8,327.7v13.5l20.2-13.5H869.8z"/>
		<path class="st3" d="M931.8,283.5h24.7L931.8,300V283.5z"/>
		<path class="st3" d="M956,283.6h-24.1v16.1L956,283.6z"/>
		<path class="st3" d="M953.9,308.3l20.8-13.9v13.9H953.9z"/>
		<path class="st3" d="M974.5,308.2v-13.5l-20.2,13.5H974.5z"/>
		<path class="st3" d="M887.8,352.4l24.7-16.5v16.5H887.8z"/>
		<path class="st3" d="M888.3,352.3h24.1v-16.1L888.3,352.3z"/>
		<path class="st3" d="M953.9,327.6h20.8v13.9L953.9,327.6z"/>
		<path class="st3" d="M974.5,341.2v-13.5h-20.2L974.5,341.2z"/>
		<path class="st3" d="M931.8,352.4v-16.5l24.7,16.5H931.8z"/>
		<path class="st3" d="M931.9,352.3H956l-24.1-16.1V352.3z"/>
		<path class="st4" d="M956,283.6l-24.1,16.1v-16.1h-2.7v27.3h45.3v-2.7h-20.2l20.2-13.5v-9.6l-34.5,23h-8.1v-6.7l26.7-17.8H956z"/>
		<path class="st4" d="M888.3,352.3l24.1-16.1v16.1h2.7V325h-45.3v2.7H890l-20.2,13.5v9.6l34.5-23h8.1v6.7l-26.7,17.8L888.3,352.3
			L888.3,352.3z"/>
		<path class="st5" d="M873.5,352.4l37.3-24.9h1.8v2.6l-33.3,22.3H873.5L873.5,352.4z"/>
		<path class="st5" d="M910.8,327.7L874,352.3h5.2l33.3-22.2v-2.4H910.8L910.8,327.7z"/>
		<path class="st5" d="M898.9,308.3l-29.3-19.6v-3.8l35.1,23.4H898.9L898.9,308.3z"/>
		<path class="st5" d="M869.8,285.2v3.5l29.2,19.5h5.3L869.8,285.2z"/>
		<path class="st5" d="M939.6,327.6h5.5l29.6,19.8v3.6L939.6,327.6z"/>
		<path class="st5" d="M974.5,350.7v-3.3L945,327.7h-5L974.5,350.7z"/>
		<path class="st5" d="M931.8,308.3v-2.6l33.3-22.3h5.7l-37.3,24.9H931.8L931.8,308.3z"/>
		<g>
			<g>
				<g>
					<defs>
						<rect id="SVGID_1_" x="866.2" y="279.9" width="111.9" height="76.2"/>
					</defs>
					<clipPath id="SVGID_2_">
						<use xlink:href="#SVGID_1_"  style="overflow:visible;"/>
					</clipPath>
					<path class="st6" d="M933.5,308.2l36.8-24.6h-5.2l-33.3,22.2v2.4H933.5L933.5,308.2z"/>
				</g>
			</g>
			<g>
				<g>
					<defs>
						<rect id="SVGID_3_" x="866.2" y="279.9" width="111.9" height="76.2"/>
					</defs>
					<clipPath id="SVGID_4_">
						<use xlink:href="#SVGID_3_"  style="overflow:visible;"/>
					</clipPath>
					<path class="st7" d="M978.1,354.1v-72.3l0,0v-0.1c0,0,0,0,0-0.1v-0.1v-0.1v-0.1v-0.1c0,0,0,0,0-0.1c0,0,0-0.1-0.1-0.1l0,0
						l-0.1-0.1l0,0l0,0c0-0.1-0.1-0.1-0.1-0.1s0,0-0.1-0.1c0,0,0,0-0.1-0.1l-0.1-0.1l0,0c0,0-0.1,0-0.1-0.1l0,0c0,0-0.1,0-0.1-0.1
						c0,0,0,0-0.1,0c0,0,0,0-0.1,0H977c0,0,0,0-0.1,0h-0.1l0,0h-0.1c0,0,0,0-0.1,0h-0.1c-0.1,0-0.1,0-0.2,0l0,0H868
						c-0.1,0-0.1,0-0.2,0h-0.1l0,0h-0.1l0,0h-0.1l0,0h-0.1c0,0,0,0-0.1,0h-0.1h-0.1c0,0,0,0-0.1,0c0,0-0.1,0-0.1,0.1l0,0l-0.1,0.1
						l-0.1,0.1l0,0l-0.1,0.1l0,0l0,0l-0.1,0.1c0,0,0,0,0,0.1c0,0,0,0.1-0.1,0.1c0,0,0,0,0,0.1v0.1v0.1v0.1v0.1c0,0,0,0,0,0.1v0.1
						l0,0v72.4l0,0v0.1c0,0,0,0,0,0.1v0.1v0.1v0.1v0.1c0,0,0,0,0,0.1c0,0,0,0.1,0.1,0.1l0,0l0.1,0.1l0,0l0,0c0,0.1,0.1,0.1,0.1,0.2
						l0,0l0.1,0.1c0,0,0,0,0.1,0.1l0.1,0.1l0,0c0.1,0,0.1,0.1,0.2,0.1l0,0c0,0,0.1,0,0.1,0.1c0,0,0,0,0.1,0h0.1c0,0,0,0,0.1,0
						c0,0,0.1,0,0.2,0c0,0,0,0,0.1,0s0.1,0,0.2,0l0,0h108.3l0,0l0,0c0.1,0,0.1,0,0.2,0c0,0,0,0,0.1,0s0.1,0,0.2,0c0,0,0,0,0.1,0h0.1
						c0,0,0,0,0.1,0c0,0,0.1,0,0.1-0.1l0,0c0.1,0,0.1-0.1,0.2-0.1l0,0l0.1-0.1c0,0,0,0,0.1-0.1l0.1-0.1l0,0c0-0.1,0.1-0.1,0.1-0.2
						l0,0l0,0l0.1-0.1l0,0c0,0,0-0.1,0.1-0.1c0,0,0,0,0-0.1v-0.1v-0.1v-0.1v-0.1c0,0,0,0,0-0.1C978.1,354.2,978.1,354.2,978.1,354.1
						L978.1,354.1L978.1,354.1L978.1,354.1L978.1,354.1z M931.9,305.8l33.3-22.2h5.2l-36.9,24.6h6.5l34.5-23v25.7h-45.3v-27.3h29.5
						L932,301.4L931.9,305.8L931.9,305.8z M915.1,310.9h-45.3V293l22.7,15.2h6.5l-29.2-19.5v-3.5l34.5,23h6.5L874,283.6h41.2v27.3
						H915.1z M912.4,330.1l-33.3,22.2h-5.2l36.8-24.6h-6.5l-34.5,23V325H915v27.3h-29.4l26.7-17.8v-4.4H912.4z M929.2,325h32.7
						c1,0,1.8-0.8,1.8-1.8s-0.8-1.8-1.8-1.8h-34.5c-1,0-1.8,0.8-1.8,1.8v29.1h-6.9v-29.1c0-1-0.8-1.8-1.8-1.8h-47.1v-6.9h47.1
						c1,0,1.8-0.8,1.8-1.8v-29.1h6.9v29.1c0,1,0.8,1.8,1.8,1.8h47.1v6.9h-5.4c-1,0-1.8,0.8-1.8,1.8s0.8,1.8,1.8,1.8h5.4v18.1
						l-23-15.4H945l29.5,19.7v3.3l-34.5-23h-6.5l36.8,24.6h-41.2V325L929.2,325L929.2,325z"/>
				</g>
			</g>
		</g>
		<path class="st4" d="M912.4,299.7l-24.1-16.1H874l36.8,24.6h-18.3L869.8,293v1.7l20.2,13.5h-20.2v2.7h45.3v-27.3h-2.7L912.4,299.7
			L912.4,299.7z"/>
		<path class="st4" d="M931.9,336.2l24.1,16.1h14.3l-36.8-24.6h18l23,15.4v-1.9l-20.2-13.5h20.2V325h-5.4c-1,0-1.8-0.8-1.8-1.8h-3.6
			c0,1-0.8,1.8-1.8,1.8h-32.7v27.3h2.7V336.2z"/>
		<path class="st5" d="M918.6,352.4v-29.2c0-0.9-0.7-1.7-1.7-1.7h-47.3v-7.2h47.3c0.9,0,1.7-0.7,1.7-1.7v-29.2h7.1v29.2
			c0,0.9,0.7,1.7,1.7,1.7h47.3v7.2h-5.6c-0.9,0-1.7,0.7-1.7,1.7v0.1h-3.9v-0.1c0-0.9-0.7-1.7-1.7-1.7h-34.5c-0.9,0-1.7,0.7-1.7,1.7
			v29.2H918.6z"/>
		<path class="st5" d="M967.3,323.2c0-1,0.8-1.8,1.8-1.8h5.4v-6.9h-47.1c-1,0-1.8-0.8-1.8-1.8v-29.1h-6.9v29.1c0,1-0.8,1.8-1.8,1.8
			h-47.1v6.9h47.1c1,0,1.8,0.8,1.8,1.8v29.1h6.9v-29.1c0-1,0.8-1.8,1.8-1.8h34.5c1,0,1.8,0.8,1.8,1.8H967.3z"/>
	</g>
	<g id="XMLID_297_">
		<path class="st8" d="M655.9,553.4L655.9,553.4c0-1-0.7-1.8-1.7-1.8H569v-32.8h105.2v32.8h-12.8c-0.9,0-1.7,0.7-1.7,1.7v0.1H655.9z
			"/>
		<path class="st8" d="M661.4,551.5h12.7v-32.6h-105v32.6h85c1,0,1.8,0.8,1.8,1.8h3.6C659.6,552.3,660.4,551.5,661.4,551.5
			L661.4,551.5z"/>
		<rect id="XMLID_612_" x="569" y="500.7" class="st5" width="105.2" height="14.8"/>
		<rect id="XMLID_611_" x="569.1" y="500.8" class="st5" width="104.9" height="14.5"/>
		<path class="st5" d="M569,569.7v-14.8h85.2c0.9,0,1.7-0.7,1.7-1.7v-0.1h3.9v0.1c0,0.9,0.7,1.7,1.7,1.7h12.8v14.8H569z"/>
		<g>
			<g>
				<g>
					<defs>
						<rect id="SVGID_5_" x="565.5" y="497.1" width="112.2" height="76.2"/>
					</defs>
					<clipPath id="SVGID_6_">
						<use xlink:href="#SVGID_5_"  style="overflow:visible;"/>
					</clipPath>
					<path class="st9" d="M661.4,555.1c-1,0-1.8-0.8-1.8-1.8H656c0,1-0.8,1.8-1.8,1.8h-85v14.5h104.9v-14.5H661.4z"/>
				</g>
			</g>
			<g>
				<g>
					<defs>
						<rect id="SVGID_7_" x="565.5" y="497.1" width="112.2" height="76.2"/>
					</defs>
					<clipPath id="SVGID_8_">
						<use xlink:href="#SVGID_7_"  style="overflow:visible;"/>
					</clipPath>
					<path class="st10" d="M675.9,497.2H567.3c-1,0-1.8,0.8-1.8,1.8v72.4c0,1,0.8,1.8,1.8,1.8h108.6c1,0,1.8-0.8,1.8-1.8V499
						C677.7,498,676.9,497.2,675.9,497.2L675.9,497.2z M674.1,500.8v14.5h-105v-14.5H674.1z M569.1,569.6v-14.5h85
						c1,0,1.8-0.8,1.8-1.8s-0.8-1.8-1.8-1.8h-85v-32.6H674v32.6h-12.7c-1,0-1.8,0.8-1.8,1.8s0.8,1.8,1.8,1.8H674v14.5H569.1z"/>
				</g>
			</g>
		</g>
	</g>
	<g id="XMLID_298_">
		<path class="st11" d="M1311.2,436.4v-0.1c0-0.9-0.7-1.7-1.7-1.7h-85.2v-20.8h20.3v0.1c0.1,5.4,4.5,8.8,8.7,10
			c0.2,0,0.3,0.1,0.5,0.1s0.3,0,0.5-0.1c4.2-1.3,8.6-4.6,8.7-10v-0.1h66.6v20.8h-12.8c-0.9,0-1.7,0.7-1.7,1.7v0.1H1311.2z"/>
		<path class="st11" d="M1316.8,434.4h12.7v-20.5h-66.3c-0.1,5.5-4.6,8.9-8.8,10.2c-0.2,0.1-0.4,0.1-0.5,0.1c-0.2,0-0.4,0-0.5-0.1
			c-4.2-1.3-8.7-4.7-8.8-10.2h-20v20.5h85c1,0,1.8,0.8,1.8,1.8h3.6C1315,435.3,1315.8,434.4,1316.8,434.4L1316.8,434.4z"/>
		<path class="st5" d="M1224.4,458.7v-20.8h85.2c0.9,0,1.7-0.7,1.7-1.7v-0.1h3.9v0.1c0,0.9,0.7,1.7,1.7,1.7h12.8v20.8H1224.4z"/>
		<path class="st5" d="M1316.8,438.1c-1,0-1.8-0.8-1.8-1.8h-3.6c0,1-0.8,1.8-1.8,1.8h-85v20.5h104.9v-20.5H1316.8z"/>
		<g>
			<g>
				<g>
					<defs>
						<rect id="SVGID_9_" x="1220.9" y="386.1" width="112.2" height="76.2"/>
					</defs>
					<clipPath id="SVGID_10_">
						<use xlink:href="#SVGID_9_"  style="overflow:visible;"/>
					</clipPath>
					<path class="st12" d="M1244.6,410.3v-8.4c0-1,0.8-1.8,1.8-1.8h15c1,0,1.8,0.8,1.8,1.8v8.4h66.3v-20.5h-105v20.5H1244.6z"/>
				</g>
			</g>
			<g>
				<g>
					<defs>
						<rect id="SVGID_11_" x="1220.9" y="386.1" width="112.2" height="76.2"/>
					</defs>
					<clipPath id="SVGID_12_">
						<use xlink:href="#SVGID_11_"  style="overflow:visible;"/>
					</clipPath>
					<path class="st13" d="M1331.3,386.2h-108.6c-1,0-1.8,0.8-1.8,1.8v72.4c0,1,0.8,1.8,1.8,1.8h108.6c1,0,1.8-0.8,1.8-1.8V388
						C1333.1,387,1332.3,386.2,1331.3,386.2L1331.3,386.2z M1329.5,389.8v20.5h-66.3v-8.4c0-1-0.8-1.8-1.8-1.8h-15
						c-1,0-1.8,0.8-1.8,1.8v8.4h-20v-20.5H1329.5z M1259.6,412.1v1.7c0,4.1-3.8,6-5.7,6.6c-1.8-0.7-5.7-2.5-5.7-6.6v-10.1h11.4
						L1259.6,412.1L1259.6,412.1z M1224.5,458.6v-20.5h85c1,0,1.8-0.8,1.8-1.8s-0.8-1.8-1.8-1.8h-85V414h20
						c0.1,5.5,4.6,8.9,8.8,10.2c0.2,0.1,0.4,0.1,0.5,0.1c0.2,0,0.4,0,0.5-0.1c4.2-1.3,8.7-4.7,8.8-10.2h66.3v20.5h-12.7
						c-1,0-1.8,0.8-1.8,1.8s0.8,1.8,1.8,1.8h12.7v20.5H1224.5z"/>
				</g>
			</g>
		</g>
		<rect id="XMLID_621_" x="1248" y="403.5" class="st11" width="11.6" height="8.7"/>
		<rect id="XMLID_620_" x="1248.2" y="403.7" class="st11" width="11.4" height="8.4"/>
		<path class="st4" d="M1248.2,413.8c0,4.1,3.8,6,5.7,6.6c1.8-0.7,5.7-2.5,5.7-6.6v-1.7h-11.4L1248.2,413.8L1248.2,413.8z"/>
	</g>
	<g id="XMLID_299_">
		<path class="st3" d="M1202.8,436.4v-0.1c0-0.9-0.7-1.7-1.7-1.7h-85.2v-20.8h105.2v20.8h-12.8c-0.9,0-1.7,0.7-1.7,1.7v0.1H1202.8z"
			/>
		<path class="st3" d="M1208.3,434.4h12.7v-20.5h-104.9v20.5h85c1,0,1.8,0.8,1.8,1.8h3.6C1206.5,435.3,1207.3,434.4,1208.3,434.4
			L1208.3,434.4z"/>
		<rect id="XMLID_648_" x="1116.1" y="389.8" class="st4" width="104.9" height="20.5"/>
		<path class="st5" d="M1115.9,458.7v-20.8h85.2c0.9,0,1.7-0.7,1.7-1.7v-0.1h3.9v0.1c0,0.9,0.7,1.7,1.7,1.7h12.8v20.8H1115.9z"/>
		<g>
			<g>
				<g>
					<defs>
						<rect id="SVGID_13_" x="1112.5" y="386.1" width="112.2" height="76.2"/>
					</defs>
					<clipPath id="SVGID_14_">
						<use xlink:href="#SVGID_13_"  style="overflow:visible;"/>
					</clipPath>
					<path class="st14" d="M1208.3,438.1c-1,0-1.8-0.8-1.8-1.8h-3.6c0,1-0.8,1.8-1.8,1.8h-85v20.5H1221v-20.5H1208.3z"/>
				</g>
			</g>
			<g>
				<g>
					<defs>
						<rect id="SVGID_15_" x="1112.5" y="386.1" width="112.2" height="76.2"/>
					</defs>
					<clipPath id="SVGID_16_">
						<use xlink:href="#SVGID_15_"  style="overflow:visible;"/>
					</clipPath>
					<path class="st15" d="M1222.8,386.2h-108.6c-1,0-1.8,0.8-1.8,1.8v72.4c0,1,0.8,1.8,1.8,1.8h108.6c1,0,1.8-0.8,1.8-1.8V388
						C1224.6,387,1223.8,386.2,1222.8,386.2L1222.8,386.2z M1221,389.8v20.5h-104.9v-20.5H1221z M1116.1,458.6v-20.5h85
						c1,0,1.8-0.8,1.8-1.8s-0.8-1.8-1.8-1.8h-85V414H1221v20.5h-12.7c-1,0-1.8,0.8-1.8,1.8s0.8,1.8,1.8,1.8h12.7v20.5H1116.1z"/>
				</g>
			</g>
		</g>
	</g>
	<g id="XMLID_300_">
		<rect id="XMLID_680_" x="569" y="573.3" class="st5" width="29.7" height="24.9"/>
		<rect id="XMLID_679_" x="569.1" y="573.5" class="st5" width="29.4" height="24.6"/>
		<rect id="XMLID_678_" x="617.9" y="573.3" class="st5" width="56.3" height="24.9"/>
		<rect id="XMLID_677_" x="618.1" y="573.5" class="st5" width="56" height="24.6"/>
		<rect id="XMLID_676_" x="617.9" y="617.5" class="st5" width="56.3" height="24.9"/>
		<rect id="XMLID_675_" x="618.1" y="617.6" class="st5" width="56" height="24.6"/>
		<rect id="XMLID_674_" x="569" y="617.5" class="st5" width="29.7" height="24.9"/>
		<rect id="XMLID_673_" x="569.1" y="617.6" class="st5" width="29.4" height="24.6"/>
		<path class="st4" d="M618.1,573.5h-2.7v27.3h58.7v-2.7h-56V573.5z"/>
		<path class="st4" d="M598.5,598.1h-29.4v2.7h5.4c1,0,1.8,0.8,1.8,1.8h3.6c0-1,0.8-1.8,1.8-1.8h19.5v-27.3h-2.7V598.1z"/>
		<path class="st4" d="M598.5,642.2h2.7v-27.3h-32.1v2.7h29.4V642.2z"/>
		<path class="st4" d="M618.1,617.6h56v-2.7h-58.7v27.3h2.7V617.6z"/>
		<path class="st11" d="M604.7,642.4v-29.3c0-0.9-0.7-1.7-1.7-1.7h-34.1v-7.2h5.6c0.9,0,1.7-0.7,1.7-1.7v-0.1h3.9v0.1
			c0,0.9,0.7,1.7,1.7,1.7h21.3c0.9,0,1.7-0.7,1.7-1.7v-29.3h7.2v29.3c0,0.9,0.7,1.7,1.7,1.7h60.7v7.2h-60.7c-0.9,0-1.7,0.7-1.7,1.7
			v29.3H604.7z"/>
		<g>
			<g>
				<g>
					<defs>
						<rect id="SVGID_17_" x="565.5" y="569.8" width="112.2" height="76.2"/>
					</defs>
					<clipPath id="SVGID_18_">
						<use xlink:href="#SVGID_17_"  style="overflow:visible;"/>
					</clipPath>
					<path class="st16" d="M574.6,604.4h-5.4v6.9h33.9c1,0,1.8,0.8,1.8,1.8v29.1h6.9v-29.1c0-1,0.8-1.8,1.8-1.8h60.5v-6.9h-60.5
						c-1,0-1.8-0.8-1.8-1.8v-29.1h-6.9v29.1c0,1-0.8,1.8-1.8,1.8h-21.3c-1,0-1.8-0.8-1.8-1.8h-3.6
						C576.4,603.6,575.6,604.4,574.6,604.4L574.6,604.4z"/>
				</g>
			</g>
			<g>
				<g>
					<defs>
						<rect id="SVGID_19_" x="565.5" y="569.8" width="112.2" height="76.2"/>
					</defs>
					<clipPath id="SVGID_20_">
						<use xlink:href="#SVGID_19_"  style="overflow:visible;"/>
					</clipPath>
					<path class="st17" d="M675.9,569.9H567.3c-1,0-1.8,0.8-1.8,1.8v72.4c0,1,0.8,1.8,1.8,1.8h108.6c1,0,1.8-0.8,1.8-1.8v-72.4
						C677.7,570.7,676.9,569.9,675.9,569.9L675.9,569.9z M601.3,600.8h-19.5c-1,0-1.8,0.8-1.8,1.8s0.8,1.8,1.8,1.8h21.3
						c1,0,1.8-0.8,1.8-1.8v-29.1h6.9v29.1c0,1,0.8,1.8,1.8,1.8h60.5v6.9h-60.5c-1,0-1.8,0.8-1.8,1.8v29.1h-6.9v-29.1
						c0-1-0.8-1.8-1.8-1.8h-33.9v-6.9h5.4c1,0,1.8-0.8,1.8-1.8s-0.8-1.8-1.8-1.8h-5.4v-27.3h32.1L601.3,600.8L601.3,600.8z
						 M674.1,598.1v2.7h-58.7v-27.3h58.7V598.1z M569.1,617.6v-2.7h32.1v27.3h-32.1V617.6z M615.4,614.9h58.7v27.3h-58.7V614.9z"/>
				</g>
			</g>
		</g>
	</g>
	<g id="XMLID_301_">
		<path class="st4" d="M637.9,441v-12.7h-32.6v68.8h32.6v-48.9c0-1,0.8-1.8,1.8-1.8v-3.6C638.7,442.8,637.9,442,637.9,441L637.9,441
			z"/>
		<rect id="XMLID_692_" x="569" y="428.2" class="st18" width="32.9" height="69"/>
		<rect id="XMLID_691_" x="569.1" y="428.4" class="st18" width="32.6" height="68.8"/>
		<path class="st5" d="M641.4,497.3v-49c0-0.9-0.7-1.7-1.7-1.7h-0.1v-3.9h0.1c0.9,0,1.7-0.7,1.7-1.7v-12.8h32.8v69h-32.8V497.3z"/>
		<g>
			<g>
				<g>
					<defs>
						<rect id="SVGID_21_" x="565.5" y="424.7" width="112.2" height="76.2"/>
					</defs>
					<clipPath id="SVGID_22_">
						<use xlink:href="#SVGID_21_"  style="overflow:visible;"/>
					</clipPath>
					<path class="st19" d="M641.5,441c0,1-0.8,1.8-1.8,1.8v3.6c1,0,1.8,0.8,1.8,1.8v48.9h32.6v-68.8h-32.6V441z"/>
				</g>
			</g>
			<g>
				<g>
					<defs>
						<rect id="SVGID_23_" x="565.5" y="424.7" width="112.2" height="76.2"/>
					</defs>
					<clipPath id="SVGID_24_">
						<use xlink:href="#SVGID_23_"  style="overflow:visible;"/>
					</clipPath>
					<path class="st20" d="M675.9,424.7H567.3c-1,0-1.8,0.8-1.8,1.8v72.4c0,1,0.8,1.8,1.8,1.8h108.6c1,0,1.8-0.8,1.8-1.8v-72.4
						C677.7,425.6,676.9,424.7,675.9,424.7L675.9,424.7z M674.1,497.1h-32.6v-48.9c0-1-0.8-1.8-1.8-1.8s-1.8,0.8-1.8,1.8v48.9h-32.6
						v-68.8h32.6V441c0,1,0.8,1.8,1.8,1.8s1.8-0.8,1.8-1.8v-12.7h32.6V497.1z M569.1,428.4h32.6v68.7h-32.6V428.4z"/>
				</g>
			</g>
		</g>
	</g>
	<g id="XMLID_302_">
		<path class="st5" d="M848,330.2v-0.1c0-0.9-0.7-1.7-1.7-1.7h-85v-20.8h105.1v20.8h-12.9c-0.9,0-1.7,0.7-1.7,1.7v0.1H848z"/>
		<path class="st5" d="M853.5,328.2h12.6v-20.5H761.4v20.5h84.9c1,0,1.8,0.8,1.8,1.8h3.6C851.7,329,852.5,328.2,853.5,328.2
			L853.5,328.2z"/>
		<path class="st8" d="M761.3,352.5v-20.8h85c0.9,0,1.7-0.7,1.7-1.7v-0.1h3.9v0.1c0,0.9,0.7,1.7,1.7,1.7h12.8v20.8H761.3z"/>
		<path class="st8" d="M853.5,331.8c-1,0-1.8-0.8-1.8-1.8h-3.6c0,1-0.8,1.8-1.8,1.8h-84.9v20.5h104.8v-20.5H853.5z"/>
		<rect id="XMLID_702_" x="761.3" y="283.5" class="st21" width="105.1" height="20.8"/>
		<g>
			<g>
				<g>
					<defs>
						<rect id="SVGID_25_" x="757.8" y="280" width="112" height="76.1"/>
					</defs>
					<clipPath id="SVGID_26_">
						<use xlink:href="#SVGID_25_"  style="overflow:visible;"/>
					</clipPath>
					<rect id="XMLID_701_" x="761.4" y="283.7" class="st22" width="104.8" height="20.5"/>
				</g>
			</g>
			<g>
				<g>
					<defs>
						<rect id="SVGID_27_" x="757.8" y="280" width="112" height="76.1"/>
					</defs>
					<clipPath id="SVGID_28_">
						<use xlink:href="#SVGID_27_"  style="overflow:visible;"/>
					</clipPath>
					<path class="st23" d="M868,280.1H759.6c-1,0-1.8,0.8-1.8,1.8v72.2c0,1,0.8,1.8,1.8,1.8H868c1,0,1.8-0.8,1.8-1.8v-72.3
						C869.8,280.9,869,280.1,868,280.1L868,280.1z M866.2,283.7v20.4H761.4v-20.5h104.8V283.7z M761.4,352.3v-20.5h84.9
						c1,0,1.8-0.8,1.8-1.8s-0.8-1.8-1.8-1.8h-84.9v-20.5h104.8v20.5h-12.7c-1,0-1.8,0.8-1.8,1.8s0.8,1.8,1.8,1.8h12.6v20.5H761.4z"
						/>
				</g>
			</g>
		</g>
	</g>
	<g id="XMLID_303_">
		<path class="st4" d="M637.9,368.4v-12.7h-32.6v68.8h32.6v-48.9c0-1,0.8-1.8,1.8-1.8v-3.6C638.7,370.2,637.9,369.4,637.9,368.4
			L637.9,368.4z"/>
		<rect id="XMLID_722_" x="569" y="355.6" class="st11" width="32.9" height="69"/>
		<rect id="XMLID_721_" x="569.1" y="355.7" class="st11" width="32.6" height="68.8"/>
		<path class="st5" d="M641.4,424.6v-49c0-0.9-0.7-1.7-1.7-1.7h-0.1V370h0.1c0.9,0,1.7-0.7,1.7-1.7v-12.8h32.8v69L641.4,424.6
			L641.4,424.6z"/>
		<g>
			<g>
				<g>
					<defs>
						<rect id="SVGID_29_" x="565.5" y="352" width="112.2" height="76.2"/>
					</defs>
					<clipPath id="SVGID_30_">
						<use xlink:href="#SVGID_29_"  style="overflow:visible;"/>
					</clipPath>
					<path class="st24" d="M641.5,368.4c0,1-0.8,1.8-1.8,1.8v3.6c1,0,1.8,0.8,1.8,1.8v48.9h32.6v-68.8h-32.6V368.4z"/>
				</g>
			</g>
			<g>
				<g>
					<defs>
						<rect id="SVGID_31_" x="565.5" y="352" width="112.2" height="76.2"/>
					</defs>
					<clipPath id="SVGID_32_">
						<use xlink:href="#SVGID_31_"  style="overflow:visible;"/>
					</clipPath>
					<path class="st25" d="M675.9,352.1H567.3c-1,0-1.8,0.8-1.8,1.8v72.4c0,1,0.8,1.8,1.8,1.8h108.6c1,0,1.8-0.8,1.8-1.8v-72.4
						C677.7,352.9,676.9,352.1,675.9,352.1L675.9,352.1z M674.1,424.5h-32.6v-48.9c0-1-0.8-1.8-1.8-1.8s-1.8,0.8-1.8,1.8v48.9h-32.6
						v-68.8h32.6v12.7c0,1,0.8,1.8,1.8,1.8s1.8-0.8,1.8-1.8v-12.7h32.6V424.5z M569.1,355.7h32.6v68.8h-32.6V355.7z"/>
				</g>
			</g>
		</g>
	</g>
	<g id="XMLID_304_">
		<path d="M415.1,539.3h92.7v-36.4h-92.7L415.1,539.3L415.1,539.3z M509.4,542.6h-96c-1,0-1.7-0.7-1.7-1.7v-39.7
			c0-1,0.7-1.7,1.7-1.7h96c1,0,1.7,0.7,1.7,1.7v39.7C511.1,542,510.4,542.6,509.4,542.6L509.4,542.6z"/>
		<path d="M421.7,539.3h6.6v-23.2h-6.6V539.3L421.7,539.3z M430,542.6h-9.9c-1,0-1.7-0.7-1.7-1.7v-26.5c0-1,0.7-1.7,1.7-1.7h9.9
			c1,0,1.7,0.7,1.7,1.7v26.5C431.6,542,431,542.6,430,542.6L430,542.6z"/>
		<path d="M451.5,539.3h6.6v-29.8h-6.6V539.3L451.5,539.3z M459.8,542.6h-9.9c-1,0-1.7-0.7-1.7-1.7v-33.1c0-1,0.7-1.7,1.7-1.7h9.9
			c1,0,1.7,0.7,1.7,1.7v33.1C461.4,542,460.8,542.6,459.8,542.6L459.8,542.6z"/>
		<path d="M431.6,539.3h6.6v-19.9h-6.6V539.3L431.6,539.3z M439.9,542.6H430c-1,0-1.7-0.7-1.7-1.7v-23.2c0-1,0.7-1.7,1.7-1.7h9.9
			c1,0,1.7,0.7,1.7,1.7v23.2C441.5,542,440.9,542.6,439.9,542.6L439.9,542.6z"/>
		<path d="M441.5,539.3h6.6v-23.2h-6.6V539.3L441.5,539.3z M449.8,542.6h-9.9c-1,0-1.7-0.7-1.7-1.7v-26.5c0-1,0.7-1.7,1.7-1.7h9.9
			c1,0,1.7,0.7,1.7,1.7v26.5C451.5,542,450.8,542.6,449.8,542.6L449.8,542.6z"/>
		<path d="M415.1,579.1h92.7v-36.4h-92.7L415.1,579.1L415.1,579.1z M509.4,582.4h-96c-1,0-1.7-0.7-1.7-1.7V541c0-1,0.7-1.7,1.7-1.7
			h96c1,0,1.7,0.7,1.7,1.7v39.7C511.1,581.7,510.4,582.4,509.4,582.4L509.4,582.4z"/>
		<path d="M415.1,595.6h36.4v-13.2h-36.4V595.6L415.1,595.6z M453.1,598.9h-39.7c-1,0-1.7-0.7-1.7-1.7v-16.6c0-1,0.7-1.7,1.7-1.7
			h39.7c1,0,1.7,0.7,1.7,1.7v16.6C454.8,598.3,454.1,598.9,453.1,598.9L453.1,598.9z"/>
		<path d="M471.4,595.6h36.4v-13.2h-36.4V595.6L471.4,595.6z M509.4,598.9h-39.7c-1,0-1.7-0.7-1.7-1.7v-16.6c0-1,0.7-1.7,1.7-1.7
			h39.7c1,0,1.7,0.7,1.7,1.7v16.6C511.1,598.3,510.4,598.9,509.4,598.9L509.4,598.9z"/>
		<path id="XMLID_757_" d="M434.9,589c0,1-0.7,1.7-1.7,1.7s-1.7-0.7-1.7-1.7s0.7-1.7,1.7-1.7C434.3,587.4,434.9,588.2,434.9,589"/>
		<path id="XMLID_756_" d="M491.2,589c0,1-0.7,1.7-1.7,1.7s-1.7-0.7-1.7-1.7s0.7-1.7,1.7-1.7C490.6,587.4,491.2,588.2,491.2,589"/>
		<path d="M454.8,595.6H468v-13.2h-13.2V595.6L454.8,595.6z M469.7,598.9h-16.6c-1,0-1.7-0.7-1.7-1.7v-16.6c0-1,0.7-1.7,1.7-1.7
			h16.6c1,0,1.7,0.7,1.7,1.7v16.6C471.4,598.3,470.7,598.9,469.7,598.9L469.7,598.9z"/>
		<path d="M421.7,519.5h6.6v-3.3h-6.6V519.5L421.7,519.5z M430,522.8h-9.9c-1,0-1.7-0.7-1.7-1.7v-6.6c0-1,0.7-1.7,1.7-1.7h9.9
			c1,0,1.7,0.7,1.7,1.7v6.6C431.6,522.1,431,522.8,430,522.8L430,522.8z"/>
		<path d="M431.6,522.8h6.6v-3.3h-6.6V522.8L431.6,522.8z M439.9,526.1H430c-1,0-1.7-0.7-1.7-1.7v-6.6c0-1,0.7-1.7,1.7-1.7h9.9
			c1,0,1.7,0.7,1.7,1.7v6.6C441.5,525.4,440.9,526.1,439.9,526.1L439.9,526.1z"/>
		<path d="M441.5,519.5h6.6v-3.3h-6.6V519.5L441.5,519.5z M449.8,522.8h-9.9c-1,0-1.7-0.7-1.7-1.7v-6.6c0-1,0.7-1.7,1.7-1.7h9.9
			c1,0,1.7,0.7,1.7,1.7v6.6C451.5,522.1,450.8,522.8,449.8,522.8L449.8,522.8z"/>
		<path d="M451.5,512.8h6.6v-3.3h-6.6V512.8L451.5,512.8z M459.8,516.2h-9.9c-1,0-1.7-0.7-1.7-1.7v-6.6c0-1,0.7-1.7,1.7-1.7h9.9
			c1,0,1.7,0.7,1.7,1.7v6.6C461.4,515.5,460.8,516.2,459.8,516.2L459.8,516.2z"/>
		<path d="M464.9,518l10.6,20.9l5.5-2.8l-9.9-20.9L464.9,518L464.9,518z M474.7,542.6c-0.7,0-1.2-0.3-1.5-0.8L461.1,518
			c-0.2-0.3-0.2-0.8-0.2-1.3c0.2-0.5,0.5-0.8,0.8-1l8.9-4.3c0.3-0.2,0.8-0.2,1.3,0s0.8,0.5,1,0.8l11.4,23.8c0.3,0.8,0,1.8-0.8,2.2
			l-8.3,4.1C475.2,542.6,475,542.6,474.7,542.6L474.7,542.6z"/>
		<path d="M461.9,512l1.5,3l6-2.8l-1.5-3L461.9,512L461.9,512z M462.6,518.8c-0.7,0-1.2-0.3-1.5-1l-2.8-6c-0.3-0.8,0-1.8,0.8-2.2
			l8.9-4.3c0.3-0.2,0.8-0.2,1.3,0c0.3,0.2,0.7,0.3,0.8,0.8l2.8,6c0.3,0.8,0,1.8-0.8,2.2l-8.9,4.3
			C463.1,518.8,462.9,518.8,462.6,518.8L462.6,518.8z"/>
		<path d="M425,579.1h9.9v-26.5H425V579.1L425,579.1z M436.6,582.4h-13.3c-1,0-1.7-0.7-1.7-1.7v-29.8c0-1,0.7-1.7,1.7-1.7h13.2
			c1,0,1.7,0.7,1.7,1.7v29.8C438.2,581.7,437.6,582.4,436.6,582.4L436.6,582.4z"/>
		<path d="M425,555.9h9.9v-3.3H425V555.9L425,555.9z M436.6,559.2h-13.3c-1,0-1.7-0.7-1.7-1.7v-6.6c0-1,0.7-1.7,1.7-1.7h13.2
			c1,0,1.7,0.7,1.7,1.7v6.6C438.2,558.5,437.6,559.2,436.6,559.2L436.6,559.2z"/>
		<path d="M438.2,579.1h9.9v-29.8h-9.9V579.1L438.2,579.1z M449.8,582.4h-13.2c-1,0-1.7-0.7-1.7-1.7v-33.1c0-1,0.7-1.7,1.7-1.7h13.2
			c1,0,1.7,0.7,1.7,1.7v33.1C451.5,581.7,450.8,582.4,449.8,582.4L449.8,582.4z"/>
		<path d="M438.2,552.6h9.9v-3.3h-9.9V552.6L438.2,552.6z M449.8,555.9h-13.2c-1,0-1.7-0.7-1.7-1.7v-6.6c0-1,0.7-1.7,1.7-1.7h13.2
			c1,0,1.7,0.7,1.7,1.7v6.6C451.5,555.2,450.8,555.9,449.8,555.9L449.8,555.9z"/>
		<path id="XMLID_733_" d="M430,575.8c-1,0-1.7-0.7-1.7-1.7v-9.9c0-1,0.7-1.7,1.7-1.7s1.7,0.7,1.7,1.7v9.9
			C431.6,575.1,431,575.8,430,575.8L430,575.8z"/>
		<path id="XMLID_732_" d="M443.2,575.8c-1,0-1.7-0.7-1.7-1.7v-13.2c0-1,0.7-1.7,1.7-1.7s1.7,0.7,1.7,1.7v13.2
			C444.9,575.1,444.2,575.8,443.2,575.8L443.2,575.8z"/>
		<path d="M460.8,579.1h32.1c1.8,0,3.3-1.5,3.3-3.3c0-1.8-1.5-3.3-3.3-3.3h-32.1C461.4,574.6,461.4,576.9,460.8,579.1L460.8,579.1z
			 M492.9,582.4h-34.8c-0.7,0-1.2-0.3-1.5-0.8s-0.3-1.2,0-1.7c1.7-2.5,1.7-5.6,0-8.1c-0.3-0.5-0.3-1.2,0-1.7s0.8-0.8,1.5-0.8h34.8
			c3.6,0,6.6,3,6.6,6.6C499.5,579.6,496.5,582.4,492.9,582.4L492.9,582.4z"/>
		<path d="M465.7,569.1h32.1c1.8,0,3.3-1.5,3.3-3.3c0-1.8-1.5-3.3-3.3-3.3h-32.1C466.4,564.7,466.4,567,465.7,569.1L465.7,569.1z
			 M497.8,572.4H463c-0.7,0-1.2-0.3-1.5-0.8s-0.3-1.2,0-1.7c1.7-2.5,1.7-5.6,0-8.1c-0.3-0.5-0.3-1.2,0-1.7s0.8-0.8,1.5-0.8h34.8
			c3.6,0,6.6,3,6.6,6.6C504.5,569.6,501.5,572.4,497.8,572.4L497.8,572.4z"/>
		<path d="M460.8,559.2h32.1c1.8,0,3.3-1.5,3.3-3.3c0-1.8-1.5-3.3-3.3-3.3h-32.1C461.4,554.7,461.4,557.1,460.8,559.2L460.8,559.2z
			 M492.9,562.5h-34.8c-0.7,0-1.2-0.3-1.5-0.8s-0.3-1.2,0-1.7c1.7-2.5,1.7-5.6,0-8.1c-0.3-0.5-0.3-1.2,0-1.7s0.8-0.8,1.5-0.8h34.8
			c3.6,0,6.6,3,6.6,6.6C499.5,559.7,496.5,562.5,492.9,562.5L492.9,562.5z"/>
	</g>
	<g id="XMLID_305_">
		<g>
			<g>
				<g>
					<defs>
						<rect id="SVGID_33_" x="399.1" y="192.7" width="168.5" height="168.5"/>
					</defs>
					<clipPath id="SVGID_34_">
						<use xlink:href="#SVGID_33_"  style="overflow:visible;"/>
					</clipPath>
				</g>
				<g>
					<defs>
						<rect id="SVGID_35_" x="399.1" y="192.7" width="168.5" height="168.5"/>
					</defs>
					<defs>
						<rect id="SVGID_36_" x="399.1" y="192.7" width="168.5" height="168.5"/>
					</defs>
					<clipPath id="SVGID_37_">
						<use xlink:href="#SVGID_35_"  style="overflow:visible;"/>
					</clipPath>
					<clipPath id="SVGID_38_" class="st26">
						<use xlink:href="#SVGID_36_"  style="overflow:visible;"/>
					</clipPath>
					<path class="st27" d="M444.7,204.4c-0.6,0-1.2-0.3-1.6-0.8s-0.5-1.1-0.4-1.8c0.2-0.9,1.1-1.5,2.1-1.5h15c1,0,1.8,0.7,2.1,1.5
						c0.2,0.6,0,1.3-0.4,1.8s-1,0.8-1.6,0.8H444.7L444.7,204.4z M496.6,221.5c-0.6,0-1.2-0.3-1.6-0.8s-0.5-1.1-0.4-1.8
						c0.2-0.9,1.1-1.5,2.1-1.5H518c1,0,1.8,0.6,2.1,1.5c0.2,0.6,0,1.3-0.4,1.8s-1,0.8-1.6,0.8H496.6L496.6,221.5z M496.6,237.1
						c-0.6,0-1.2-0.3-1.6-0.8s-0.5-1.1-0.4-1.8c0.2-0.9,1.1-1.5,2.1-1.5h30.8c1,0,1.8,0.7,2.1,1.5c0.2,0.6,0,1.3-0.4,1.8
						s-1,0.8-1.6,0.8H496.6L496.6,237.1z M445,253.2c0.1,0.7,0.4,1.5,0.6,2.2c2.3,5.9,7.9,9.8,14.4,9.8h1.6l0.8-0.1l-0.6-2.4
						c-2.3-5.7-8.2-9.8-14.5-9.8C446,253,445.4,253.1,445,253.2L445,253.2z M440.9,254.5c-0.7,0.3-1.4,0.6-2.1,1
						c-4.3,2.9-6.9,7.7-6.9,12.8c0,8.5,6.9,15.4,15.4,15.4c7.3,0,13.6-5.2,15.1-12.3c0.2-0.8,0.3-1.6,0.4-2.4l-0.4,0.1
						c-0.2,0-0.5,0.1-0.7,0.1c-0.3,0-0.7,0.1-1,0.1s-0.5,0-0.7,0c-8.3,0-15.7-5.2-18.4-12.9L440.9,254.5L440.9,254.5z M447.2,287.9
						c-9.4-0.1-17.4-6.9-19.1-16.1c-1.7-9.8,4.2-19.3,13.8-22.1h0.1c1.7-0.5,3.5-0.7,5.3-0.7c9.8,0,18,7,19.3,16.7
						c0.1,0.9,0.2,1.9,0.2,2.8C466.8,279.3,458,288,447.2,287.9L447.2,287.9L447.2,287.9z M404.2,307.4c-0.2,0-0.3,0-0.5-0.1
						c-0.9-0.2-1.5-1.1-1.5-2.1v-85.3c0-1.1,0.9-2.1,2.1-2.1h56.1c1,0,1.8,0.6,2.1,1.5c0.2,0.6,0,1.3-0.4,1.8s-1,0.8-1.6,0.8h-54.2
						v83.3C406.3,306.5,405.3,307.4,404.2,307.4L404.2,307.4z M488.6,204.4c-5.1,0-9.2,4.1-9.2,9.2v43.5l2.7-1.7l9.1-5.1
						c0.3-0.2,0.7-0.3,1-0.3h46.9c5.1,0,9.2-4.1,9.2-9.2v-27.1c0-5.1-4.1-9.2-9.2-9.2L488.6,204.4L488.6,204.4z M506.6,341.3
						c-0.6,0-1.2-0.3-1.6-0.8s-0.5-1.1-0.4-1.8c0.2-0.9,1.1-1.5,2.1-1.5h56.8V222h-11v18.8c0,7.4-6,13.3-13.3,13.3h-45.8h-0.2
						l-0.5,0.1l-0.2,0.1l-13.9,7.8c-0.3,0.2-0.7,0.3-1,0.3c-0.4,0-0.7-0.1-1-0.3c-0.6-0.4-1-1.1-1-1.8v-46.6c0-7.4,6-13.3,13.3-13.3
						h50.4c7.4,0,13.3,6,13.3,13.3v4.2h12.9c1.1,0,2.1,0.9,2.1,2.1v119.3c0,1.1-0.9,2.1-2.1,2.1L506.6,341.3L506.6,341.3z
						 M445.7,311.8l1.4,2l1.5-2l4.5-6.2l2-2.9H439L445.7,311.8L445.7,311.8z M401.1,353.7c-0.3,0-0.5,0-0.8-0.2
						c-0.5-0.2-0.9-0.6-1.1-1.1s-0.2-1.1,0-1.6l10.7-26.3c4.5-11.1,12.6-25.9,30.4-25.9h14.2c17.8,0,25.8,14.8,30.4,25.9l1.4,3.4
						l1,2.4l2-1.7l28.7-26.5c0.4-0.4,0.9-0.5,1.4-0.5c0.6,0,1.1,0.2,1.5,0.7c0.4,0.4,0.6,0.9,0.5,1.5c0,0.6-0.3,1.1-0.7,1.4
						l-32.8,30.3c-0.4,0.4-0.9,0.5-1.4,0.5c-0.2,0-0.3,0-0.4,0c-0.7-0.1-1.2-0.6-1.5-1.2l-3.5-8.6c-5.4-13.2-11.5-20.1-19.8-22.5
						l-1-0.3l-0.3-0.1l-0.7,1l-10.4,14.2c-0.4,0.5-1,0.8-1.7,0.8s-1.3-0.3-1.7-0.8l-11-15.1l-1.4,0.3c-8.1,2.4-14.2,9.3-19.4,22.4
						L403,352.4c-0.3,0.6-0.7,1.1-1.3,1.3C401.5,353.6,401.3,353.7,401.1,353.7L401.1,353.7z"/>
				</g>
			</g>
		</g>
	</g>
	<line id="XMLID_274_" class="st1" x1="1114.5" y1="460.1" x2="1562.5" y2="460.1"/>
	<line id="XMLID_275_" class="st1" x1="361.5" y1="354.1" x2="1165.5" y2="354.1"/>
	<path id="XMLID_329_" d="M1522.3,634.1c-0.8,0-1.5-0.5-1.8-1.2l-9-22.4c-4.9-12-10.6-18-18.5-19.5l-1.6-0.3l-2.3,10.8l2.6,23.6
		c0.1,0.7-0.2,1.3-0.7,1.7l-5.8,4.6c-0.3,0.3-0.8,0.4-1.2,0.4h-2.1c-0.4,0-0.9-0.1-1.2-0.4l-5.8-4.6c-0.5-0.4-0.8-1-0.7-1.7
		l2.6-23.6l-2.3-10.8l-1.6,0.3c-7.9,1.4-13.7,7.5-18.5,19.5l-9.1,22.4c-0.3,0.7-1,1.2-1.8,1.2c-0.2,0-0.5,0-0.7-0.1
		c-0.5-0.2-0.8-0.6-1-1c-0.2-0.5-0.2-1,0-1.5l9.1-22.4c3.7-9.2,10.4-21.6,24.9-22.2h0.1h0.1c0.1,0,0.1,0,0.2,0h13.6
		c0.1,0,0.2,0,0.2,0h0.1h0.1c14.5,0.6,21.1,12.9,24.9,22.2l9,22.5c0.2,0.5,0.2,1,0,1.5s-0.6,0.8-1,1
		C1522.8,634.1,1522.5,634.1,1522.3,634.1z M1478.2,624.5l4.8,3.9l4.8-3.9l-2.4-21.2h-4.9L1478.2,624.5z M1480.4,599.5h5.2l1.9-8.9
		h-8.9L1480.4,599.5z M1374.7,634.1c-0.2,0-0.5,0-0.7-0.1c-0.5-0.2-0.8-0.6-1-1c-0.2-0.5-0.2-1,0-1.5l9-22.1
		c3.8-9.4,10.6-21.9,25.7-21.9h11.9c8.1,0,14.7,3.6,19.8,10.7c0.1,0.1,0.5,0.7,1,1.4c1.5,2.1,2.1,2.9,2.3,3.1
		c0.3,0.4,0.4,0.9,0.3,1.4s-0.4,0.9-0.8,1.2c-0.3,0.2-0.7,0.3-1,0.3c-0.6,0-1.2-0.3-1.6-0.8c-0.2-0.3-1.1-1.5-2-2.8l-0.2-0.2
		c-0.5-0.7-1-1.3-1-1.4c-2.7-3.8-5.7-6.3-9.2-7.8l-1.2-0.5l-10.6,14.6c-0.4,0.5-0.9,0.8-1.5,0.8s-1.2-0.3-1.5-0.8l-10.6-14.6
		l-1.2,0.5c-6,2.4-10.6,8.2-14.7,18.1l-9,22.1C1376.2,633.7,1375.5,634.1,1374.7,634.1z M1413.5,602.4l8.1-11.1h-16.1L1413.5,602.4z
		 M1389.8,634.1c-1.1,0-1.9-0.9-1.9-1.9c0-1.1,0.9-1.9,1.9-1.9h38.2c1.1,0,1.9,0.9,1.9,1.9c0,1.1-0.9,1.9-1.9,1.9H1389.8z
		 M1499.4,608c-1.1,0-1.9-0.9-1.9-1.9v-0.4c0-1.1,0.9-1.9,1.9-1.9c1.1,0,1.9,0.9,1.9,1.9v0.4C1501.3,607.1,1500.4,608,1499.4,608z
		 M1413.5,578.8c-9.1,0-16.6-7.4-16.6-16.6c0-7.3,4.9-13.8,11.9-15.9h0.1c1.1-0.3,2.2-0.5,3.4-0.6h0.1l0,0h0.1h0.1h0.1h0.1l0,0h0.1
		l0,0h0.1l0,0c0.1,0,0.3,0,0.4,0h0.3c8,0.1,14.8,5.9,16.1,13.8c0.2,0.9,0.2,1.8,0.2,2.8c0,4.4-1.7,8.6-4.9,11.7
		C1422.1,577.1,1417.9,578.8,1413.5,578.8z M1406.1,552c-3.3,2.4-5.3,6.3-5.3,10.3c0,7,5.7,12.7,12.7,12.7c5.8,0,10.9-4,12.4-9.6
		l0.5-2.1h-2.3c-7,0-13-4.1-15.5-10.6l-0.8-2L1406.1,552z M1412.4,551.9c2,4.4,6.2,7.3,11.1,7.5l2.7,0.1l-1.1-2.5
		c-2-4.4-6.2-7.3-11.1-7.5l-2.7-0.1L1412.4,551.9z M1483,578c-9.2,0-16.8-7.5-16.8-16.8c0-9.3,7.5-16.8,16.8-16.8
		c1.1,0,2.2,0.1,3.2,0.3c0,0,0.1,0,0.2,0c7.8,1.6,13.4,8.5,13.4,16.4C1499.8,570.5,1492.3,578,1483,578z M1475.7,550.6
		c-3.5,2.4-5.6,6.4-5.6,10.7c0,7.1,5.8,13,13,13s13-5.8,13-13c0-5.2-3.1-9.8-7.8-11.9l-1.2-0.5l-0.8,1c-1.4,1.8-3.1,3.2-5.1,4.3
		c-0.3,0.2-0.6,0.2-0.9,0.2c-0.7,0-1.3-0.4-1.7-1c-0.3-0.5-0.3-0.9-0.2-1.2l0.7-3.9L1475.7,550.6z M1397.9,540.4
		c-0.3,0-0.7-0.1-1-0.3c-0.6-0.3-0.9-1-0.9-1.6v-32.4c0-5.4,4.4-9.7,9.7-9.7h12.8c1.1,0,1.9,0.9,1.9,1.9c0,1.1-0.9,1.9-1.9,1.9
		h-12.8c-3.3,0-5.9,2.7-5.9,5.9v29.1l7.5-4.2c0.3-0.2,0.6-0.2,0.9-0.2h31.2c1.1,0,1.9,0.9,1.9,1.9c0,1.1-0.9,1.9-1.9,1.9h-30.7
		l-9.9,5.5C1398.5,540.3,1398.2,540.4,1397.9,540.4z M1483.1,533c-0.5,0-1.1-0.2-1.4-0.6l-11.6-12.7h-29.8c-5.4,0-9.7-4.4-9.7-9.7
		v-18.8c0-5.4,4.4-9.7,9.7-9.7h35c5.4,0,9.7,4.4,9.7,9.7v39.9c0,0.8-0.5,1.5-1.2,1.8C1483.5,532.9,1483.3,533,1483.1,533z
		 M1440.3,485.2c-3.3,0-5.9,2.7-5.9,5.9v18.8c0,3.3,2.7,5.9,5.9,5.9h30.7c0.5,0,1,0.2,1.4,0.6l8.8,9.7v-35c0-3.3-2.7-5.9-5.9-5.9
		H1440.3z M1411.2,513.8c-1.1,0-1.9-0.9-1.9-1.9c0-1.1,0.9-1.9,1.9-1.9h6.5c1.1,0,1.9,0.9,1.9,1.9c0,1.1-0.9,1.9-1.9,1.9H1411.2z
		 M1454.1,499c-1.1,0-1.9-0.9-1.9-1.9c0-1.1,0.9-1.9,1.9-1.9h14.8c1.1,0,1.9,0.9,1.9,1.9c0,1.1-0.9,1.9-1.9,1.9H1454.1z"/>
	<g id="XMLID_333_">
		<path id="XMLID_358_" d="M929.3,546.9c-1,0-1.8-0.8-1.8-1.8s0.8-1.8,1.8-1.8h0.4c1,0,1.8,0.8,1.8,1.8s-0.8,1.8-1.8,1.8H929.3z"/>
		<path id="XMLID_357_" d="M943.6,507.7c-8.9,0-16.1-7.2-16.1-16.1v-96c0-8.9,7.2-16.1,16.1-16.1h135.1c8.9,0,16.1,7.2,16.1,16.1v96
			c0,5.7-3.1,11.1-8,13.9c-0.3,0.2-0.6,0.2-0.9,0.2c-0.7,0-1.3-0.4-1.6-0.9c-0.5-0.9-0.2-2,0.7-2.5c3.8-2.2,6.2-6.3,6.2-10.7v-96
			c0-6.8-5.6-12.4-12.4-12.4H943.6c-6.8,0-12.4,5.6-12.4,12.4v96c0,6.8,5.6,12.4,12.4,12.4h7.1c1,0,1.8,0.8,1.8,1.8
			s-0.8,1.8-1.8,1.8h-7.1V507.7z"/>
		<path id="XMLID_356_" d="M993.2,429.5c-1,0-1.8-0.8-1.8-1.8s0.8-1.8,1.8-1.8h0.4c1,0,1.8,0.8,1.8,1.8s-0.8,1.8-1.8,1.8H993.2z"/>
		<path id="XMLID_355_" d="M1071.6,493.5c-1,0-1.8-0.8-1.8-1.8s0.8-1.8,1.8-1.8c2.9,0,5.3-2.4,5.3-5.3v-81.8c0-2.9-2.4-5.3-5.3-5.3
			H950.7c-2.9,0-5.3,2.4-5.3,5.3v81.8c0,2.9,2.4,5.3,5.3,5.3h7.1c1,0,1.8,0.8,1.8,1.8s-0.8,1.8-1.8,1.8h-7.1c-4.9,0-9-4-9-9v-81.8
			c0-4.9,4-9,9-9h120.9c4.9,0,9,4,9,9v81.8C1080.5,489.5,1076.5,493.5,1071.6,493.5z"/>
		<path id="XMLID_350_" d="M1004.2,429.5c-1,0-1.8-0.8-1.8-1.8s0.8-1.8,1.8-1.8h24.9c1,0,1.8,0.8,1.8,1.8s-0.8,1.8-1.8,1.8H1004.2z"
			/>
		<path id="XMLID_335_" d="M940,546.9c-1,0-1.8-0.8-1.8-1.8s0.8-1.8,1.8-1.8h15.9v-23.2c0-13.5,8.1-25.7,20.5-31.1h0.1
			c0.1,0,0.2-0.1,0.3-0.1h0.1c0.5-0.2,0.9-0.4,1.3-0.5l1.7-0.6l-1.5-0.9c-6.4-3.7-10.7-10.2-11.5-17.5l-0.1-0.7h-8.9
			c-1,0-1.8-0.8-1.8-1.8v-7.1c0-8.9,7.2-16.1,16.1-16.1H990c12.8,0,23.2,10.4,23.2,23.2c0,8.2-4.5,15.9-11.6,20.1l-1.5,0.9l1.6,0.6
			c0.5,0.2,1,0.4,1.3,0.5l0,0c0,0,0,0,0.1,0c5,2.1,9.5,5.4,12.9,9.6l0.6,0.8l0.6-0.8c3.4-4.1,7.8-7.4,12.7-9.5h0.1
			c0.1,0,0.2-0.1,0.3-0.1h0.1c0.5-0.2,0.9-0.4,1.3-0.5l1.7-0.6l-1.5-0.9c-7.2-4.1-11.6-11.8-11.6-20.1c0-12.8,10.4-23.2,23.2-23.2
			s23.2,10.4,23.2,23.2c0,8.2-4.5,15.9-11.6,20.1l-1.5,0.9l1.7,0.6c0.4,0.1,0.8,0.3,1.3,0.5h0.1c0.1,0,0.2,0.1,0.3,0.1h0.1
			c12.5,5.4,20.5,17.6,20.5,31.1v23.1h5.3c0.5,0,1,0.2,1.3,0.5c0.3,0.3,0.5,0.8,0.5,1.3c0,1-0.8,1.8-1.8,1.8L940,546.9L940,546.9z
			 M1028.4,493.9c-9.5,5.4-15.4,15.4-15.4,26.3v23.1h60.3v-23.2c0-10.9-5.9-20.9-15.4-26.3l-0.9-0.5l-0.3,1
			c-1.9,5.9-7.4,9.9-13.6,9.9s-11.7-4-13.6-9.9l-0.3-1L1028.4,493.9z M975,493.9c-9.5,5.4-15.4,15.4-15.4,26.3v23.1h49.7v-23.2
			c0-6,1.6-12,4.7-17.2l0.3-0.5l-0.3-0.4c-2.5-3.4-5.7-6.1-9.4-8.2l-0.9-0.5l-0.3,1c-1.9,5.9-7.4,9.9-13.6,9.9
			c-6.2,0-11.7-4-13.6-9.9l-0.3-1L975,493.9z M1043.1,490c-3.3,0-6.6,0.5-9.7,1.6l-0.7,0.2l0.2,0.7c1.2,4.7,5.4,7.9,10.3,7.9
			c4.8,0,9.1-3.3,10.3-7.9l0.2-0.7l-0.7-0.2C1049.7,490.5,1046.5,490,1043.1,490z M989.8,490c-3.3,0-6.6,0.5-9.7,1.6l-0.7,0.2
			l0.2,0.7c1.2,4.7,5.4,7.9,10.3,7.9c4.8,0,9.1-3.3,10.3-7.9l0.2-0.7l-0.7-0.2C996.4,490.5,993.1,490,989.8,490z M1050.1,469.1
			c-3,6.7-9,11.6-16.2,13.2l-2.1,0.5l1.9,1.1c2.9,1.6,6.1,2.5,9.4,2.5c9.6,0,17.9-7.2,19.3-16.7l0.1-0.9h-12.3L1050.1,469.1z
			 M996.7,469.1c-3,6.7-9,11.6-16.2,13.2l-2.1,0.5l1.9,1.1c2.9,1.6,6.1,2.5,9.4,2.5c9.6,0,17.9-7.2,19.3-16.7l0.1-0.9h-12.3
			L996.7,469.1z M1043.1,447.3c-10.7,0-19.5,8.7-19.5,19.5c0,4.4,1.5,8.6,4.2,12.1l0.3,0.4l0.5-0.1c0.1,0,0.2,0,0.3,0
			c10.7,0,19.5-8.7,19.5-19.5c0-1,0.8-1.8,1.8-1.8s1.8,0.8,1.8,1.8c0,1.4-0.1,2.9-0.4,4.3l-0.2,1h11.1l-0.1-0.9
			C1061.1,454.5,1052.8,447.3,1043.1,447.3z M970.5,469.6c0.5,3.4,1.9,6.6,4,9.3l0.3,0.4l0.5-0.1c0.1,0,0.2,0,0.3,0
			c10.7,0,19.5-8.7,19.5-19.5c0-1,0.8-1.8,1.8-1.8s1.8,0.8,1.8,1.8c0,1.4-0.1,2.9-0.4,4.3l-0.2,1h11.1l-0.1-0.9
			c-1.4-9.5-9.7-16.7-19.3-16.7h-1.7v5.3c0,8.9-7.2,16.1-16.1,16.1h-1.6L970.5,469.6z M972,447.3c-6.8,0-12.4,5.6-12.4,12.4v5.3H972
			c6.8,0,12.4-5.6,12.4-12.4v-5.3H972z"/>
		<path id="XMLID_334_" d="M980.9,415.3c-1,0-1.8-0.8-1.8-1.8s0.8-1.8,1.8-1.8h60.5c1,0,1.8,0.8,1.8,1.8s-0.8,1.8-1.8,1.8H980.9z"/>
	</g>
	<line id="XMLID_328_" class="st1" x1="675.5" y1="446.1" x2="907.5" y2="446.1"/>
	<g class="st2">
		<path d="M689.5,411.3h-3.1v-17h10.8v2.6h-7.7v4.4h6.6v2.6h-6.6V411.3z"/>
		<path d="M712.5,399.4c0,1.2-0.3,2.2-1,3s-1.7,1.4-3,1.8v0.1l5.1,7h-3.7l-4.6-6.6h-2.1v6.6h-3.1v-17h5.2c0.9,0,1.7,0,2.4,0.1
			s1.4,0.2,1.9,0.4c1,0.4,1.8,0.9,2.3,1.7C712.2,397.3,712.5,398.2,712.5,399.4z M704.6,402.1c0.7,0,1.3,0,1.8-0.1s0.9-0.2,1.3-0.3
			c0.6-0.2,1.1-0.6,1.3-1s0.4-0.9,0.4-1.4s-0.1-0.9-0.3-1.2c-0.2-0.4-0.5-0.6-1-0.8c-0.3-0.1-0.7-0.2-1.1-0.3
			c-0.4-0.1-1-0.1-1.7-0.1h-2.2v5.2L704.6,402.1L704.6,402.1z"/>
		<path d="M719.4,408.7h8.4v2.6h-11.5v-17h11v2.6h-7.9v4.4h6.8v2.6h-6.8V408.7z"/>
		<path d="M739.8,406.7c0.4-1.3,0.8-2.8,1.4-4.3l2.9-8.1h4.4v17h-3.1v-8.6c0-1.3,0.1-2.7,0.2-4.4h-0.1c-0.1,0.5-0.3,1-0.5,1.6
			s-0.4,1.2-0.6,1.8l-3.5,9.6h-2l-3.5-9.6c-0.2-0.6-0.4-1.2-0.6-1.8s-0.4-1.1-0.5-1.6h-0.1c0.1,1.6,0.2,3,0.2,4.4v8.6h-3.1v-17h4.3
			l2.9,8.1C738.8,403.7,739.3,405.2,739.8,406.7L739.8,406.7z"/>
		<path d="M752.5,411.3v-17h4.5c0.4,0,0.8,0,1.2,0s0.8,0.1,1.2,0.1s0.8,0.1,1.1,0.2c0.4,0.1,0.7,0.2,1,0.3c0.9,0.3,1.7,0.7,2.4,1.2
			s1.3,1.1,1.7,1.7s0.8,1.4,1.1,2.2c0.2,0.8,0.4,1.7,0.4,2.7c0,0.9-0.1,1.8-0.3,2.6c-0.2,0.8-0.5,1.5-0.9,2.2s-0.9,1.2-1.6,1.7
			c-0.6,0.5-1.4,0.9-2.2,1.2c-0.7,0.3-1.5,0.5-2.5,0.6s-1.9,0.2-3.1,0.2L752.5,411.3L752.5,411.3z M756.9,408.7
			c1.8,0,3.2-0.3,4.3-0.7c0.9-0.4,1.6-1.1,2.1-2s0.7-1.9,0.7-3.3c0-0.7-0.1-1.3-0.2-1.9s-0.4-1.1-0.7-1.5s-0.6-0.8-1-1.1
			s-0.9-0.6-1.4-0.8c-0.5-0.2-1-0.3-1.6-0.4s-1.3-0.1-2-0.1h-1.4v11.8H756.9z"/>
		<path d="M778.8,406.4c0-0.4-0.1-0.8-0.3-1c-0.2-0.3-0.5-0.5-0.9-0.7s-0.8-0.3-1.2-0.4c-0.5-0.1-0.9-0.2-1.4-0.3
			c-0.7-0.1-1.3-0.3-1.9-0.5c-0.6-0.2-1.1-0.5-1.6-0.8c-0.5-0.4-0.8-0.8-1.1-1.3s-0.4-1.2-0.4-2c0-0.9,0.2-1.7,0.5-2.3
			c0.3-0.7,0.7-1.2,1.3-1.7c0.5-0.4,1.2-0.8,1.9-1s1.5-0.3,2.4-0.3s1.8,0.1,2.7,0.3s1.7,0.4,2.4,0.7v2.7c-0.9-0.3-1.7-0.6-2.5-0.8
			c-0.8-0.2-1.6-0.2-2.3-0.2c-1,0-1.8,0.2-2.4,0.6s-0.8,0.9-0.8,1.7c0,0.4,0.1,0.8,0.3,1.1s0.4,0.5,0.7,0.7s0.7,0.3,1.1,0.4
			s0.8,0.2,1.3,0.3c0.7,0.2,1.4,0.3,2.1,0.5c0.7,0.2,1.2,0.5,1.7,0.8s0.9,0.8,1.2,1.4s0.4,1.3,0.4,2.2c0,0.9-0.2,1.7-0.5,2.4
			s-0.8,1.2-1.4,1.7c-0.6,0.4-1.4,0.8-2.3,1s-1.9,0.3-2.9,0.3c-0.9,0-1.8-0.1-2.7-0.3c-0.9-0.2-1.6-0.4-2.2-0.8v-2.6
			c0.8,0.4,1.7,0.6,2.5,0.8c0.8,0.2,1.6,0.2,2.5,0.2c0.5,0,1,0,1.4-0.1c0.5-0.1,0.9-0.2,1.3-0.4s0.7-0.5,0.9-0.8
			C778.7,407.3,778.8,406.9,778.8,406.4z"/>
		<path d="M790.1,404.7c-0.3,0-0.6,0-0.8,0s-0.5,0-0.8-0.1v6.6h-3.1v-17h4.9c0.8,0,1.5,0,2.2,0.1c0.6,0.1,1.2,0.2,1.6,0.3
			c1.2,0.4,2.1,0.9,2.7,1.7s0.9,1.8,0.9,3c0,0.8-0.2,1.6-0.5,2.2c-0.3,0.7-0.8,1.2-1.5,1.7s-1.4,0.8-2.4,1.1
			S791.4,404.7,790.1,404.7z M788.5,402c0.2,0,0.4,0,0.7,0.1c0.3,0,0.6,0,0.9,0c0.8,0,1.5-0.1,2.1-0.2s1-0.3,1.4-0.6
			c0.3-0.2,0.6-0.5,0.7-0.9c0.2-0.3,0.2-0.7,0.2-1.1c0-0.5-0.1-0.9-0.3-1.3s-0.6-0.6-1.2-0.9c-0.3-0.1-0.7-0.2-1.1-0.2
			c-0.4,0-1-0.1-1.6-0.1h-1.8V402z"/>
		<path d="M813.6,399.4c0,1.2-0.3,2.2-1,3s-1.7,1.4-3,1.8v0.1l5.1,7H811l-4.6-6.6h-2.1v6.6h-3.1v-17h5.2c0.9,0,1.7,0,2.4,0.1
			s1.4,0.2,1.9,0.4c1,0.4,1.8,0.9,2.3,1.7C813.4,397.3,813.6,398.2,813.6,399.4z M805.7,402.1c0.7,0,1.3,0,1.8-0.1s0.9-0.2,1.3-0.3
			c0.6-0.2,1.1-0.6,1.3-1s0.4-0.9,0.4-1.4s-0.1-0.9-0.3-1.2c-0.2-0.4-0.5-0.6-1-0.8c-0.3-0.1-0.7-0.2-1.1-0.3
			c-0.4-0.1-1-0.1-1.7-0.1h-2.2v5.2L805.7,402.1L805.7,402.1z"/>
		<path d="M827.1,406.9h-6.4l-1.7,4.3h-3.3l6.7-17h2.8l6.7,17h-3.3L827.1,406.9z M823.9,398.4c-0.6,1.8-1.1,3.3-1.6,4.5l-0.6,1.5
			h4.4l-0.6-1.5C825.1,401.6,824.5,400.1,823.9,398.4L823.9,398.4z"/>
		<path d="M842.5,396.6c-0.8,0-1.6,0.1-2.3,0.4s-1.3,0.7-1.8,1.2s-0.9,1.2-1.2,2s-0.4,1.7-0.4,2.7s0.1,1.9,0.4,2.6
			c0.3,0.8,0.6,1.4,1.1,1.9s1.1,0.9,1.8,1.1c0.7,0.3,1.5,0.4,2.4,0.4c0.6,0,1.3-0.1,2-0.2s1.3-0.3,1.9-0.4v2.7
			c-0.6,0.2-1.2,0.3-1.9,0.4s-1.4,0.1-2.1,0.1c-1.4,0-2.7-0.2-3.8-0.6s-2-1-2.7-1.7c-0.7-0.8-1.3-1.6-1.7-2.7
			c-0.4-1-0.6-2.2-0.6-3.5s0.2-2.5,0.6-3.6s1-2.1,1.7-2.9s1.7-1.5,2.8-1.9s2.4-0.7,3.8-0.7c0.7,0,1.4,0,2,0.1s1.2,0.2,1.7,0.4v2.6
			c-0.7-0.2-1.3-0.4-1.9-0.4S843,396.6,842.5,396.6z"/>
		<path d="M852.5,401.3h7.9v-7h3.1v17h-3.1v-7.4h-7.9v7.4h-3.1v-17h3.1V401.3z"/>
		<path d="M870.7,408.7h8.4v2.6h-11.5v-17h11v2.6h-7.9v4.4h6.8v2.6h-6.8V408.7z"/>
		<path d="M891.2,402.2c1.2,1.7,2.2,3.3,3,4.6h0.1c-0.1-2.2-0.2-3.8-0.2-4.8v-7.7h3.1v17h-3.3l-5.5-7.8c-1-1.4-2-2.9-3-4.7h-0.1
			c0.1,2.1,0.2,3.7,0.2,4.8v7.7h-3.1v-17h3.3L891.2,402.2z"/>
	</g>
	<path id="XMLID_362_" d="M781.2,611c-19.8,0-38.7-9.6-50.5-25.6l-0.1-0.1l-0.1-0.1c-0.1-0.1-0.2-0.2-0.3-0.4v-0.1l-0.1-0.1
		c-7.7-10.7-11.7-23.3-11.7-36.4c0-13.2,4-25.8,11.7-36.4l0.1-0.1v-0.1c0.1-0.1,0.2-0.2,0.3-0.3l0.1-0.1l0.1-0.1
		c11.8-16,30.7-25.6,50.5-25.6c25.1,0,47.7,14.9,57.6,37.9c0.2,0.5,0.2,1,0,1.4c-0.2,0.5-0.5,0.8-1,1c-0.2,0.1-0.5,0.2-0.7,0.2
		c-0.8,0-1.4-0.4-1.7-1.1c-1.4-3.2-3-6.2-4.9-9.1l-0.7-1.1l-1.2,0.4c-6.9,2.2-14.3,3.9-21.9,5l-1.7,0.3l0.3,1.7
		c1.3,7.1,2.1,14.7,2.3,22.6v1.6h6.8c1,0,1.9,0.8,1.9,1.9c0,1-0.8,1.9-1.9,1.9h-6.9v1.6c-0.3,15.1-2.9,29.4-7.3,40.2
		C795.3,604.2,788.5,611,781.2,611z M781.2,578.2c-5.8,0-11.6,0.3-17.2,0.9l-1.9,0.2l0.5,1.9c4.3,16,11.4,26,18.6,26
		s14.4-10,18.6-26l0.5-1.9l-1.9-0.2C792.8,578.5,787,578.2,781.2,578.2z M756.8,580c-6.6,1-13.1,2.4-19.3,4.2l-2.5,0.7l1.7,2
		c7.8,9,17.9,15.3,29.3,18.3l4.6,1.2l-2.8-3.8c-2.1-2.9-4-6.5-5.7-10.6c-1.3-3.3-2.5-6.9-3.5-10.7l-0.4-1.5L756.8,580z M722.4,551.9
		c0.6,10.2,4,20.2,9.6,28.7l0.7,1l1.2-0.4c6.9-2.2,14.3-3.8,21.9-5l1.7-0.3l-0.3-1.7c-1.3-7.1-2.1-14.7-2.3-22.6V550h-32.5
		L722.4,551.9L722.4,551.9z M758.6,551.9c0.2,7.8,1,15.3,2.3,22.2l0.3,1.5l1.5-0.2c6-0.7,12.3-1,18.5-1s12.4,0.3,18.4,1l1.5,0.2
		l0.3-1.5c1.3-6.9,2.1-14.4,2.3-22.2v-1.7h-45.2L758.6,551.9z M760.9,522.5c-1.3,6.9-2.1,14.4-2.3,22.2v1.7h45.2v-1.7
		c-0.2-7.8-0.9-15.2-2.3-22.2l-0.3-1.5l-1.5,0.2c-6,0.7-12.2,1-18.4,1s-12.4-0.3-18.4-1l-1.5-0.2L760.9,522.5z M732,515.9
		c-5.7,8.6-9,18.5-9.6,28.7l-0.1,1.8h32.5v-1.6c0.2-7.9,0.9-15.5,2.3-22.6l0.3-1.7l-1.7-0.3c-7.6-1.2-14.9-2.8-21.9-5l-1.2-0.4
		L732,515.9z M781.2,489.4c-7.2,0-14.4,10-18.6,26l-0.5,1.9l1.9,0.2c5.6,0.6,11.4,0.9,17.2,0.9s11.6-0.3,17.2-0.9l1.9-0.2l-0.5-1.9
		C795.6,499.4,788.4,489.4,781.2,489.4z M766.1,491.3c-11.4,3-21.5,9.4-29.3,18.3l-1.7,2l2.5,0.7c6.1,1.8,12.6,3.2,19.3,4.2l1.5,0.2
		l0.4-1.5c1-3.9,2.2-7.5,3.5-10.7c1.7-4.2,3.6-7.8,5.7-10.6l2.8-3.8L766.1,491.3z M794.5,493.9c2.1,2.9,4,6.5,5.7,10.6
		c1.3,3.3,2.5,6.9,3.5,10.7l0.4,1.5l1.5-0.2c6.7-1,13.2-2.4,19.3-4.2l2.5-0.7l-1.7-2c-7.8-9-17.9-15.3-29.4-18.3l-4.5-1.2
		L794.5,493.9z M809.8,610.7c-0.2,0-0.3,0-0.5-0.1c-0.2,0-0.3-0.1-0.4-0.2c-0.3-0.2-0.5-0.4-0.7-0.7c-0.1-0.2-0.2-0.4-0.3-0.7
		c0-0.2,0-0.4,0-0.7c0-0.1,0.1-0.3,0.1-0.4l6.8-16.8c2.9-7.3,8.2-16.9,19.9-16.9h9c11.7,0,17,9.6,19.9,16.9l6.8,16.8
		c0.4,0.9,0,1.9-0.8,2.4h-0.3l0,0l0,0l0,0l0,0l0,0l-0.1,0.1l-0.4,0.1L809.8,610.7z M834.8,578.2c-7.3,0-12.3,4.5-16.4,14.5
		l-5.8,14.2H866l-5.8-14.2c-4.1-10.1-9.1-14.5-16.4-14.5H834.8z M839.3,565.4c-7.7,0-13.9-6.2-13.9-13.9c0-7.7,6.2-13.9,13.9-13.9
		s13.9,6.2,13.9,13.9C853.2,559.2,847,565.4,839.3,565.4z M839.3,541.4c-5.6,0-10.1,4.5-10.1,10.1s4.5,10.1,10.1,10.1
		s10.1-4.5,10.1-10.1C849.4,545.9,844.9,541.4,839.3,541.4z"/>
	<rect id="XMLID_361_" x="603.5" y="144.1" class="st28" width="72.3" height="210"/>
	<rect id="XMLID_363_" x="1114.5" y="354.5" class="st29" width="50.6" height="33.1"/>
	<rect id="XMLID_364_" x="1370.8" y="314.4" class="st30" width="190" height="73.3"/>
	<g id="XMLID_365_">
		<g>
			<g>
				<g>
					<defs>
						<rect id="SVGID_39_" x="815.7" y="165.8" width="109.4" height="96.3"/>
					</defs>
					<clipPath id="SVGID_40_">
						<use xlink:href="#SVGID_39_"  style="overflow:visible;"/>
					</clipPath>
					<path class="st31" d="M923.4,173h-5.1v-5.3c0-1-0.8-1.8-1.8-1.8h-39.4c-2.5,0-4.9,1-6.7,2.7c-1.8-1.7-4.2-2.7-6.7-2.7h-39.4
						c-1,0-1.8,0.8-1.8,1.8v5.3h-5.1c-1,0-1.8,0.8-1.8,1.8v61.5c0,4.8,3.9,8.8,8.8,8.8h33.7v13.3h-7.6c-1,0-1.8,0.8-1.8,1.8
						s0.8,1.8,1.8,1.8h39.7c1,0,1.8-0.8,1.8-1.8s-0.8-1.8-1.8-1.8h-7.6v-8c0-1-0.8-1.8-1.8-1.8s-1.8,0.8-1.8,1.8v8h-17.5v-13.3h54.7
						c4.8,0,8.8-3.9,8.8-8.8v-61.5C925.2,173.8,924.4,173,923.4,173L923.4,173z M921.7,176.5v49.8h-3.4v-49.8H921.7z M826,169.5
						h37.7c2.1,0,4.1,1.1,5.3,2.8c0.3,0.5,0.9,0.8,1.5,0.8s1.1-0.3,1.5-0.8c1.2-1.8,3.1-2.8,5.3-2.8H915v56.8h-88.8v-56.8H826z
						 M822.5,176.5v49.8h-3.4v-49.8H822.5z M916.4,241.5h-92c-2.9,0-5.3-2.4-5.3-5.3v-6.5h102.5v6.5
						C921.7,239.2,919.3,241.5,916.4,241.5L916.4,241.5z"/>
				</g>
			</g>
		</g>
		<path d="M870.4,222.8c1,0,1.8-0.8,1.8-1.8v-42.6c0-1-0.8-1.8-1.8-1.8s-1.8,0.8-1.8,1.8v42.7C868.7,222,869.5,222.8,870.4,222.8
			L870.4,222.8z"/>
		<path d="M833.8,178.8h26.9c1,0,1.8-0.8,1.8-1.8s-0.8-1.8-1.8-1.8h-26.9c-1,0-1.8,0.8-1.8,1.8C832,178.1,832.8,178.8,833.8,178.8
			L833.8,178.8z"/>
		<path d="M833.8,187.2h26.9c1,0,1.8-0.8,1.8-1.8s-0.8-1.8-1.8-1.8h-26.9c-1,0-1.8,0.8-1.8,1.8S832.8,187.2,833.8,187.2L833.8,187.2
			z"/>
		<path d="M833.8,195.5h13.4c1,0,1.8-0.8,1.8-1.8s-0.8-1.8-1.8-1.8h-13.4c-1,0-1.8,0.8-1.8,1.8S832.8,195.5,833.8,195.5L833.8,195.5
			z"/>
		<path d="M833.8,203.8h26.9c1,0,1.8-0.8,1.8-1.8s-0.8-1.8-1.8-1.8h-26.9c-1,0-1.8,0.8-1.8,1.8S832.8,203.8,833.8,203.8L833.8,203.8
			z"/>
		<path d="M833.8,212.1h26.9c1,0,1.8-0.8,1.8-1.8s-0.8-1.8-1.8-1.8h-26.9c-1,0-1.8,0.8-1.8,1.8C832,211.4,832.8,212.1,833.8,212.1
			L833.8,212.1z"/>
		<path d="M833.8,220.5h13.4c1,0,1.8-0.8,1.8-1.8s-0.8-1.8-1.8-1.8h-13.4c-1,0-1.8,0.8-1.8,1.8S832.8,220.5,833.8,220.5L833.8,220.5
			z"/>
		<path d="M880.2,178.8h26.9c1,0,1.8-0.8,1.8-1.8s-0.8-1.8-1.8-1.8h-26.9c-1,0-1.8,0.8-1.8,1.8C878.5,178.1,879.2,178.8,880.2,178.8
			L880.2,178.8z"/>
		<path d="M880.2,187.2h26.9c1,0,1.8-0.8,1.8-1.8s-0.8-1.8-1.8-1.8h-26.9c-1,0-1.8,0.8-1.8,1.8C878.5,186.4,879.2,187.2,880.2,187.2
			L880.2,187.2z"/>
		<path d="M880.2,195.5h13.4c1,0,1.8-0.8,1.8-1.8s-0.8-1.8-1.8-1.8h-13.4c-1,0-1.8,0.8-1.8,1.8C878.5,194.7,879.2,195.5,880.2,195.5
			L880.2,195.5z"/>
		<path d="M880.2,203.8h26.9c1,0,1.8-0.8,1.8-1.8s-0.8-1.8-1.8-1.8h-26.9c-1,0-1.8,0.8-1.8,1.8C878.5,203,879.2,203.8,880.2,203.8
			L880.2,203.8z"/>
		<path d="M880.2,212.1h26.9c1,0,1.8-0.8,1.8-1.8s-0.8-1.8-1.8-1.8h-26.9c-1,0-1.8,0.8-1.8,1.8C878.5,211.4,879.2,212.1,880.2,212.1
			L880.2,212.1z"/>
		<path d="M880.2,220.5h13.4c1,0,1.8-0.8,1.8-1.8s-0.8-1.8-1.8-1.8h-13.4c-1,0-1.8,0.8-1.8,1.8C878.5,219.7,879.2,220.5,880.2,220.5
			L880.2,220.5z"/>
	</g>
	<line id="XMLID_397_" class="st32" x1="1165.5" y1="206.6" x2="1369.5" y2="206.6"/>
	<g id="XMLID_399_">
		<path id="XMLID_416_" d="M1267.5,330.6c-6.2,0-11.2-5-11.2-11.2s5-11.2,11.2-11.2s11.2,5,11.2,11.2S1273.7,330.6,1267.5,330.6z
			 M1267.5,311.7c-4.2,0-7.6,3.4-7.6,7.6s3.4,7.6,7.6,7.6s7.6-3.4,7.6-7.6S1271.7,311.7,1267.5,311.7z"/>
		<path id="XMLID_394_" d="M1224.9,277c-1,0-1.8-0.8-1.8-1.8s0.8-1.8,1.8-1.8h85.2c1,0,1.8,0.8,1.8,1.8s-0.8,1.8-1.8,1.8H1224.9z"/>
		<path id="XMLID_393_" d="M1224.9,291.5c-1,0-1.8-0.8-1.8-1.8s0.8-1.8,1.8-1.8h85.2c1,0,1.8,0.8,1.8,1.8s-0.8,1.8-1.8,1.8H1224.9z"
			/>
		<path id="XMLID_392_" d="M1234.6,301.6c-1,0-1.8-0.8-1.8-1.8s0.8-1.8,1.8-1.8h65.8c1,0,1.8,0.8,1.8,1.8s-0.8,1.8-1.8,1.8H1234.6z"
			/>
		<path id="XMLID_391_" d="M1232.2,321.1c-1,0-1.8-0.8-1.8-1.8s0.8-1.8,1.8-1.8h16.8c1,0,1.8,0.8,1.8,1.8s-0.8,1.8-1.8,1.8H1232.2z"
			/>
		<path id="XMLID_390_" d="M1286,321.1c-1,0-1.8-0.8-1.8-1.8s0.8-1.8,1.8-1.8h16.8c1,0,1.8,0.8,1.8,1.8s-0.8,1.8-1.8,1.8H1286z"/>
		<path id="XMLID_400_" d="M1201.6,349c-1,0-1.8-0.8-1.8-1.8v-95.3c0-1,0.8-1.8,1.8-1.8h131.9c1,0,1.8,0.8,1.8,1.8v95.3
			c0,1-0.8,1.8-1.8,1.8H1201.6z M1330.6,330.5c-7,1.2-12.5,6.7-13.7,13.7l-0.2,1.1h15v-15L1330.6,330.5z M1221.3,341.7
			c0.3,0.9,0.5,1.9,0.6,2.9l0.1,0.8h91l0.1-0.8c0.1-1,0.3-2,0.6-2.9l0.3-1.2h-93L1221.3,341.7z M1203.4,345.3h15l-0.2-1.1
			c-1.2-7-6.7-12.5-13.7-13.7l-1.1-0.2L1203.4,345.3L1203.4,345.3z M1219,262.5c-1.7,2.7-4,5.1-6.8,6.8l-0.4,0.3v59.8l0.4,0.3
			c2.7,1.7,5.1,4,6.8,6.8l0.3,0.4h96.4l0.3-0.4c1.7-2.7,4-5.1,6.8-6.8l0.4-0.3v-59.8l-0.4-0.3c-2.7-1.7-5.1-4-6.8-6.8l-0.3-0.4
			h-96.4L1219,262.5z M1207.1,271.6c-0.9,0.3-1.9,0.5-2.9,0.6l-0.8,0.1v54.5l0.8,0.1c1,0.1,1.9,0.3,2.9,0.6l1.2,0.3v-56.5
			L1207.1,271.6z M1326.8,327.7l1.2-0.3c0.9-0.3,1.9-0.5,2.9-0.6l0.8-0.1v-54.5l-0.8-0.1c-1-0.1-1.9-0.3-2.9-0.6l-1.2-0.3V327.7z
			 M1316.8,254.7c1.2,7,6.7,12.5,13.7,13.7l1.1,0.2v-15h-15L1316.8,254.7z M1203.4,268.6l1.1-0.2c7-1.2,12.5-6.7,13.7-13.7l0.2-1.1
			h-15L1203.4,268.6L1203.4,268.6z M1221.9,254.4c-0.1,0.9-0.3,1.9-0.6,2.9l-0.3,1.2h93l-0.3-1.2c-0.3-0.9-0.5-1.9-0.6-2.9l-0.1-0.8
			h-91L1221.9,254.4z"/>
	</g>
	<g class="st2">
		<path d="M1192.5,185.1v-17h3.1v7.7h0.1l6.4-7.7h3.9l-7.1,8.4l7.7,8.6h-4l-6.9-7.7h-0.1v7.7H1192.5z"/>
		<path d="M1217.8,176c1.2,1.7,2.2,3.3,3,4.6h0.1c-0.1-2.2-0.2-3.8-0.2-4.8v-7.7h3.1v17h-3.3l-5.5-7.8c-1-1.4-2-2.9-3-4.7h-0.1
			c0.1,2.1,0.2,3.7,0.2,4.8v7.7h-3.1v-17h3.3L1217.8,176z"/>
		<path d="M1243.7,176.6c0,1.3-0.2,2.5-0.6,3.6s-0.9,2-1.6,2.8s-1.6,1.4-2.6,1.8c-1,0.4-2.2,0.6-3.5,0.6s-2.5-0.2-3.5-0.6
			c-1-0.4-1.9-1-2.6-1.8s-1.2-1.7-1.6-2.8s-0.6-2.3-0.6-3.6s0.2-2.5,0.6-3.6s0.9-2,1.6-2.8s1.6-1.4,2.6-1.8c1-0.4,2.2-0.6,3.5-0.6
			s2.5,0.2,3.5,0.6c1,0.4,1.9,1,2.6,1.8s1.2,1.7,1.6,2.8S1243.7,175.3,1243.7,176.6z M1240.5,176.6c0-1-0.1-1.9-0.4-2.7
			s-0.6-1.4-1.1-1.9s-1-0.9-1.6-1.2s-1.3-0.4-2-0.4s-1.4,0.1-2,0.4s-1.2,0.6-1.6,1.2s-0.8,1.2-1.1,1.9c-0.3,0.8-0.4,1.7-0.4,2.7
			s0.1,1.9,0.4,2.7s0.6,1.4,1.1,1.9c0.4,0.5,1,0.9,1.6,1.2s1.3,0.4,2,0.4s1.4-0.1,2-0.4c0.6-0.3,1.2-0.6,1.6-1.2
			c0.4-0.5,0.8-1.2,1.1-1.9C1240.3,178.5,1240.5,177.6,1240.5,176.6z"/>
		<path d="M1256.7,172.6c-0.3,1.6-0.7,3.2-1.1,4.9l-1.9,7.6h-3.1l-5.4-17h3.3l2,6.8c0.6,2.1,1.1,4,1.5,5.8h0.1
			c0.4-1.8,0.8-3.7,1.3-5.7l1.8-6.9h3.2l1.8,6.9c0.5,1.9,0.9,3.8,1.3,5.7h0.1c0.5-2,1-4,1.5-5.8l2-6.8h3.3l-5.4,17h-3.1l-1.9-7.6
			C1257.5,175.8,1257.1,174.1,1256.7,172.6L1256.7,172.6z"/>
		<path d="M1273.7,168.1v14.4h7.9v2.6h-11.1v-17H1273.7z"/>
		<path d="M1287.7,182.5h8.4v2.6h-11.5v-17h11v2.6h-7.9v4.4h6.8v2.6h-6.8V182.5z"/>
		<path d="M1299.4,185.1v-17h4.5c0.4,0,0.8,0,1.2,0c0.4,0,0.8,0.1,1.2,0.1s0.8,0.1,1.1,0.2c0.4,0.1,0.7,0.2,1,0.3
			c0.9,0.3,1.7,0.7,2.4,1.2s1.3,1.1,1.7,1.7c0.5,0.7,0.8,1.4,1.1,2.2c0.2,0.8,0.4,1.7,0.4,2.7c0,0.9-0.1,1.8-0.3,2.6
			c-0.2,0.8-0.5,1.5-0.9,2.2s-0.9,1.2-1.6,1.7c-0.6,0.5-1.4,0.9-2.2,1.2c-0.7,0.3-1.5,0.5-2.5,0.6s-1.9,0.2-3.1,0.2h-4V185.1z
			 M1303.8,182.5c1.8,0,3.2-0.3,4.3-0.7c0.9-0.4,1.6-1.1,2.1-2s0.7-1.9,0.7-3.3c0-0.7-0.1-1.3-0.2-1.9s-0.4-1.1-0.7-1.5
			c-0.3-0.4-0.6-0.8-1-1.1s-0.9-0.6-1.4-0.8s-1-0.3-1.6-0.4s-1.3-0.1-2-0.1h-1.4v11.8H1303.8z"/>
		<path d="M1327.9,178.6h-3.8V176h6.9v8.6c-0.3,0.1-0.6,0.2-1,0.3s-0.8,0.2-1.3,0.3s-1,0.1-1.5,0.2s-1,0.1-1.5,0.1
			c-1.5,0-2.9-0.2-4-0.6c-1.1-0.4-2.1-1-2.8-1.7c-0.8-0.7-1.3-1.6-1.7-2.7c-0.4-1-0.6-2.2-0.6-3.4c0-0.9,0.1-1.7,0.3-2.5
			c0.2-0.8,0.5-1.5,0.9-2.2s0.9-1.3,1.4-1.8s1.2-1,1.9-1.4c0.7-0.4,1.5-0.7,2.3-0.9s1.7-0.3,2.7-0.3c0.9,0,1.7,0.1,2.4,0.2
			c0.8,0.1,1.4,0.3,1.9,0.5v2.6c-0.7-0.2-1.3-0.4-2-0.5s-1.4-0.2-2-0.2c-0.9,0-1.8,0.1-2.6,0.4c-0.8,0.3-1.5,0.7-2.1,1.2
			s-1.1,1.2-1.4,2s-0.5,1.7-0.5,2.7c0,2,0.5,3.5,1.6,4.5c1,1,2.5,1.5,4.4,1.5c0.4,0,0.7,0,1.1-0.1c0.4,0,0.7-0.1,1-0.1L1327.9,178.6
			L1327.9,178.6z"/>
		<path d="M1337.9,182.5h8.4v2.6h-11.5v-17h11v2.6h-7.9v4.4h6.8v2.6h-6.8V182.5z"/>
	</g>
	<line id="XMLID_360_" class="st1" x1="675.8" y1="354.1" x2="675.5" y2="144.1"/>
	<line id="XMLID_401_" class="st1" x1="1165.5" y1="282.1" x2="675.5" y2="282.1"/>
	<line id="XMLID_402_" class="st1" x1="1222.5" y1="570.1" x2="1222.5" y2="644.1"/>
	<rect id="XMLID_403_" x="1114.5" y="570.1" class="st33" width="217" height="74"/>
	<line id="XMLID_422_" class="st1" x1="1292.5" y1="460.1" x2="1292.5" y2="570.1"/>
	<line id="XMLID_440_" class="st1" x1="1005.5" y1="263.1" x2="1034.5" y2="263.1"/>
	<line id="XMLID_277_" class="st1" x1="1030.5" y1="248.1" x2="1059.5" y2="248.1"/>
	<line id="XMLID_426_" class="st1" x1="1007.5" y1="263.1" x2="1007.5" y2="282.1"/>
	<line id="XMLID_427_" class="st1" x1="1032.5" y1="246.1" x2="1032.5" y2="265.1"/>
	<line id="XMLID_428_" class="st1" x1="1057.5" y1="231.1" x2="1057.5" y2="250.1"/>
	<line id="XMLID_429_" class="st1" x1="1082.5" y1="216.1" x2="1082.5" y2="235.1"/>
	<line id="XMLID_430_" class="st1" x1="1107.5" y1="201.1" x2="1107.5" y2="220.1"/>
	<line id="XMLID_431_" class="st1" x1="1132.5" y1="186.1" x2="1132.5" y2="205.1"/>
	<line id="XMLID_432_" class="st1" x1="1055.5" y1="233.1" x2="1084.5" y2="233.1"/>
	<line id="XMLID_433_" class="st1" x1="1080.5" y1="218.1" x2="1109.5" y2="218.1"/>
	<line id="XMLID_434_" class="st1" x1="1105.5" y1="203.1" x2="1134.5" y2="203.1"/>
	<line id="XMLID_435_" class="st1" x1="1134.5" y1="188.1" x2="1163.5" y2="188.1"/>
	<g id="XMLID_414_">
		<g id="XMLID_417_">
			<g id="XMLID_419_">
				<g id="XMLID_437_">
					<path id="XMLID_438_" d="M1031.8,204c-5.4,0-9.7-4.2-9.7-9.7c0-5.4,4.2-9.7,9.7-9.7c5.4,0,9.7,4.2,9.7,9.7
						C1041.5,199.7,1037.2,204,1031.8,204z M1031.8,188.5c-3.1,0-5.8,2.7-5.8,5.8s2.7,5.8,5.8,5.8c3.1,0,5.8-2.7,5.8-5.8
						S1034.9,188.5,1031.8,188.5z"/>
				</g>
				<g id="XMLID_421_">
					<path id="XMLID_423_" d="M1034.5,227.1h-5c-2.3,0-4.6-1.9-4.6-4.6v-3.9c-1.5-0.4-3.1-1.2-4.6-1.9c-0.4,0-0.8,0-0.8,0l-2.7,2.7
						c-1.5,1.5-4.6,1.5-6.6,0l-3.9-3.9c-1.9-1.9-1.9-4.6,0-6.6l2.7-2.7c0.4-0.4,0-0.8,0-0.8c-0.8-1.2-1.2-2.7-1.5-3.9
						c0-0.4-0.4-0.4-0.8-0.4h-3.5c-2.3,0-4.6-1.9-4.6-4.6v-5c0-2.3,1.9-4.6,4.6-4.6h3.5c0.4,0,0.4-0.4,0.8-0.4
						c0.4-1.5,1.2-2.7,1.5-3.9c0-0.4,0-0.4,0-0.8l-2.7-2.7c-1.9-1.9-1.9-4.6,0-6.6l3.9-3.9c1.5-1.5,4.6-1.5,6.6,0l2.7,2.7
						c0.4,0.4,0.4,0.4,0.8,0c1.2-0.8,2.7-1.2,3.9-1.5c0.4,0,0.4-0.4,0.4-0.8v-3.5c0-2.3,1.9-4.6,4.6-4.6h5c2.3,0,4.6,1.9,4.6,4.6
						v3.5c0,0.4,0.4,0.4,0.4,0.8c1.2,0.4,2.7,1.2,3.9,1.5c0.4,0,0.8,0,0.8,0l2.7-2.7c1.5-1.5,4.6-1.5,6.6,0l3.9,3.9
						c1.9,1.9,1.9,4.6,0,6.6l-2.7,2.7c-0.4,0.4,0,0.8,0,0.8c0.8,1.2,1.2,2.7,1.5,3.9c0,0.4,0.4,0.4,0.8,0.4h3.5
						c2.3,0,4.6,1.9,4.6,4.6v5c0,2.3-1.9,4.6-4.6,4.6h-3.7c-0.4,0-0.4,0.4-0.8,0.4c-0.4,1.5-1.2,2.7-1.5,3.9c0,0.4,0,0.4,0,0.8
						l2.7,2.7c1.9,1.9,1.9,4.6,0,6.6l-3.9,3.9c-1.5,1.5-4.6,1.5-6.6,0l-2.7-2.7c-0.4-0.4-0.4-0.4-0.8,0c-1.2,0.8-2.7,1.2-3.9,1.5
						c-0.4,0-0.4,0.4-0.4,0.8v3.5C1038.8,225.2,1036.9,227.1,1034.5,227.1z M1019.9,212.8c0.8,0,1.5,0,2.3,0.4
						c1.5,0.8,3.5,1.5,5,1.9c0.8,0.4,1.5,1.2,1.5,1.9v5.4c0,0.4,0.4,0.8,0.8,0.8h5c0.4,0,0.8-0.4,0.8-0.8v-3.5
						c0-1.9,1.2-3.9,3.1-4.2c1.2-0.4,2.3-0.8,3.5-1.5c1.9-0.8,3.9-0.8,5.4,0.8l2.7,2.7c0.4,0.4,0.8,0.4,0.8,0l3.9-3.9
						c0.4-0.4,0.4-0.8,0-0.8l-2.7-2.7c-1.5-1.5-1.5-3.5-0.8-5.4c0.4-1.2,1.2-2.3,1.5-3.5c0.8-1.9,2.3-3.1,4.2-3.1h3.5
						c0.4,0,0.8-0.4,0.8-0.8v-5c0-0.4-0.4-0.8-0.8-0.8h-3.5c-1.9,0-3.9-1.2-4.2-3.1c-0.4-1.2-0.8-2.3-1.5-3.5
						c-0.8-1.9-0.8-3.9,0.8-5.4l2.7-2.7c0.4-0.4,0.4-0.8,0-0.8l-3.9-3.9c-0.4-0.4-0.8-0.4-0.8,0l-2.7,2.7c-1.5,1.2-3.5,1.5-5.4,0.8
						c-1.2-0.4-2.3-1.2-3.5-1.5c-1.9-0.8-3.1-2.3-3.1-4.2v-3.5c0-0.4-0.4-0.8-0.8-0.8h-5c-0.4,0-0.8,0.4-0.8,0.8v3.5
						c0,1.9-1.2,3.9-3.1,4.2c-1.2,0.4-2.3,0.8-3.5,1.5c-1.9,0.8-3.9,0.8-5.4-0.8l-2.7-2.7c-0.4-0.4-0.8-0.4-0.8,0l-3.9,3.9
						c-0.4,0.4-0.4,0.8,0,0.8l2.7,2.7c1.5,1.5,1.5,3.5,0.8,5.4c-0.4,1.2-1.2,2.3-1.5,3.5c-0.8,1.9-2.3,3.1-4.2,3.1h-3.5
						c-0.4,0-0.8,0.4-0.8,0.8v5c0,0.4,0.4,0.8,0.8,0.8h3.5c1.9,0,3.9,1.2,4.2,3.1c0.4,1.2,0.8,2.3,1.5,3.5c0.8,1.9,0.8,3.9-0.8,5.4
						l-2.7,2.7c-0.4,0.4-0.4,0.8,0,0.8l3.9,3.9c0.4,0.4,0.8,0.4,0.8,0l2.7-2.7C1017.6,213.2,1018.7,212.8,1019.9,212.8z"/>
				</g>
			</g>
		</g>
	</g>
	<g id="XMLID_455_">
		<path id="XMLID_458_" d="M1242,523.6v-30.5c0-2.7-2.3-5-5-5h-8.4v-5c0-2.7-2.3-5-5-5h-3.4c-2.7,0-5,2.3-5,5v5h-16.8v-5
			c0-2.7-2.3-5-5-5h-3.4c-2.7,0-5,2.3-5,5v5h-8.4c-2.7,0-5,2.3-5,5v53.6c0,2.7,2.3,5,5,5h42.9c3.4,4,8.4,6.7,14.1,6.7
			c10.1,0,18.4-8.4,18.4-18.4C1252,533,1248,526.7,1242,523.6z M1217.2,531.7h-8.7v-13.4h13.4v7.7
			C1219.9,527.3,1218.5,529.3,1217.2,531.7z M1191.7,531.7v-13.4h13.4v13.4H1191.7z M1205.1,535v13.4h-13.4V535H1205.1z
			 M1221.9,501.5v13.4h-13.4v-13.4H1221.9z M1205.1,514.9h-13.4v-13.4h13.4V514.9z M1188.4,514.9H1175v-13.4h13.4V514.9z
			 M1188.4,518.3v13.4H1175v-13.4H1188.4z M1225.2,518.3h13.4v4c-1.7-0.3-3.4-0.7-5-0.7c-3,0-5.7,0.7-8.4,2V518.3z M1238.6,514.9
			h-13.4v-13.4h13.4V514.9z M1218.5,483.1c0-1,0.7-1.7,1.7-1.7h3.4c1,0,1.7,0.7,1.7,1.7v6.7c0,1-0.7,1.7-1.7,1.7h-3.4
			c-1,0-1.7-0.7-1.7-1.7V483.1z M1188.4,483.1c0-1,0.7-1.7,1.7-1.7h3.4c1,0,1.7,0.7,1.7,1.7v6.7c0,1-0.7,1.7-1.7,1.7h-3.4
			c-1,0-1.7-0.7-1.7-1.7V483.1z M1176.7,491.5h8.7c0.7,2,2.7,3.4,4.7,3.4h3.4c2.3,0,4-1.3,4.7-3.4h17.3c0.7,2,2.7,3.4,4.7,3.4h3.4
			c2.3,0,4-1.3,4.7-3.4h8.7c1,0,1.7,0.7,1.7,1.7v5H1175v-5C1175,492.1,1175.7,491.5,1176.7,491.5z M1175,546.8v-11.7h13.4v13.4
			h-11.7C1175.7,548.4,1175,547.8,1175,546.8z M1208.5,548.4V535h7.4c-0.3,1.7-0.7,3.4-0.7,5c0,3,0.7,5.7,2,8.4H1208.5z
			 M1233.6,555.1c-8.4,0-15.1-6.7-15.1-15.1s6.7-15.1,15.1-15.1s15.1,6.7,15.1,15.1C1248.7,548.4,1242,555.1,1233.6,555.1z"/>
		<g id="XMLID_456_">
			<path id="XMLID_412_" d="M1230.3,548.4c-0.3,0-1-0.3-1.3-0.3l-6.7-6.7c-0.7-0.7-0.7-1.7,0-2.3s1.7-0.7,2.3,0l5.4,5.4l9-11.7
				c0.7-0.7,1.7-1,2.3-0.3c0.7,0.7,1,1.7,0.3,2.3l-10,13.3C1231.3,548.1,1230.9,548.4,1230.3,548.4L1230.3,548.4z"/>
		</g>
	</g>
	<g id="XMLID_407_">
		<path d="M763.3,200.4h-33.1c-0.9,0-1.7-0.7-1.7-1.7c0-0.9,0.7-1.7,1.7-1.7h33.1c0.9,0,1.7,0.7,1.7,1.7
			C765,199.6,764.2,200.4,763.3,200.4L763.3,200.4z"/>
		<path d="M755.4,207.8h-25.2c-0.9,0-1.7-0.7-1.7-1.7c0-0.9,0.7-1.7,1.7-1.7h25.2c0.9,0,1.7,0.7,1.7,1.7S756.3,207.8,755.4,207.8
			L755.4,207.8z"/>
		<path d="M738.5,230.1h-8.3c-0.9,0-1.7-0.7-1.7-1.7c0-0.9,0.7-1.7,1.7-1.7h8.3c0.9,0,1.7,0.7,1.7,1.7S739.5,230.1,738.5,230.1
			L738.5,230.1z"/>
		<g>
			<g>
				<g>
					<defs>
						<rect id="SVGID_41_" x="720" y="177" width="74.9" height="76.6"/>
					</defs>
					<clipPath id="SVGID_42_">
						<use xlink:href="#SVGID_41_"  style="overflow:visible;"/>
					</clipPath>
					<path class="st34" d="M734.9,237.5h-4.7c-0.9,0-1.7-0.7-1.7-1.7c0-0.9,0.7-1.7,1.7-1.7h4.7c0.9,0,1.7,0.7,1.7,1.7
						C736.6,236.8,735.8,237.5,734.9,237.5L734.9,237.5z"/>
				</g>
			</g>
			<g>
				<g>
					<defs>
						<rect id="SVGID_43_" x="720" y="177" width="74.9" height="76.6"/>
					</defs>
					<clipPath id="SVGID_44_">
						<use xlink:href="#SVGID_43_"  style="overflow:visible;"/>
					</clipPath>
					<path class="st35" d="M792.9,184.7l-3.8-2.8c-1-0.7-2.1-1-3.3-0.8s-2.2,0.8-2.9,1.7l0,0l-9.4,12.7v-12.6c0-0.9-0.7-1.7-1.7-1.7
						h-6.9v-2.5c0-0.9-0.7-1.7-1.7-1.7c-0.9,0-1.7,0.7-1.7,1.7v2.5h-5v-2.5c0-0.9-0.7-1.7-1.7-1.7c-0.9,0-1.7,0.7-1.7,1.7v2.5h-5
						v-2.5c0-0.9-0.7-1.7-1.7-1.7c-0.9,0-1.7,0.7-1.7,1.7v2.5h-5v-2.5c0-0.9-0.7-1.7-1.7-1.7c-0.9,0-1.7,0.7-1.7,1.7v2.5h-5v-2.5
						c0-0.9-0.7-1.7-1.7-1.7c-0.9,0-1.7,0.7-1.7,1.7v2.5H721c-0.9,0-1.7,0.7-1.7,1.7v68.8c0,0.9,0.7,1.7,1.7,1.7h50.2
						c0.9,0,1.7-0.7,1.7-1.7v-33.1l20.3-27.7l0,0C795.2,189,794.8,186.2,792.9,184.7L792.9,184.7z M770.2,250.1h-46.8v-65.6h5.2v2.6
						c0,0.9,0.7,1.7,1.7,1.7c0.9,0,1.7-0.7,1.7-1.7v-2.5h5v2.5c0,0.9,0.7,1.7,1.7,1.7c0.9,0,1.7-0.7,1.7-1.7v-2.5h5v2.5
						c0,0.9,0.7,1.7,1.7,1.7c0.9,0,1.7-0.7,1.7-1.7v-2.5h5v2.5c0,0.9,0.7,1.7,1.7,1.7c0.9,0,1.7-0.7,1.7-1.7v-2.5h5v2.5
						c0,0.9,0.7,1.7,1.7,1.7c0.9,0,1.7-0.7,1.7-1.7v-2.5h5.2v15.5l-9.3,11.8h-31.3c-0.9,0-1.7,0.7-1.7,1.7c0,0.9,0.7,1.7,1.7,1.7
						h28.9l-9.4,12.9l0,0c-0.1,0.1-0.2,0.3-0.2,0.5l-3.8,13h-15.4c-0.9,0-1.7,0.7-1.7,1.7c0,0.9,0.7,1.7,1.7,1.7H747l0,0
						c0.3,0,0.6-0.1,0.9-0.3l12.4-8c0.2-0.1,0.3-0.2,0.4-0.4l9.6-13.1v26.8H770.2z M751.9,231.9l4.4,3.3l-6.6,4.3L751.9,231.9z
						 M758.9,233l-5.6-4.2l26.2-35.9l5.6,4.2L758.9,233z M787,194.4l-5.6-4.2l1.8-2.4l5.6,4.2L787,194.4z M791.1,188.9L791.1,188.9
						l-0.3,0.4l-5.6-4.2l0.3-0.4l0,0c0.2-0.2,0.4-0.4,0.7-0.4s0.6,0,0.8,0.2l3.8,2.8C791.4,187.7,791.5,188.4,791.1,188.9
						L791.1,188.9z"/>
				</g>
			</g>
		</g>
	</g>
	<g class="st2">
		<path d="M1030.3,312.3c-0.8,0-1.6,0.1-2.3,0.4c-0.7,0.3-1.3,0.7-1.8,1.2s-0.9,1.2-1.2,2c-0.3,0.8-0.4,1.7-0.4,2.7s0.1,1.9,0.4,2.6
			c0.3,0.8,0.6,1.4,1.1,1.9s1.1,0.9,1.8,1.1c0.7,0.3,1.5,0.4,2.4,0.4c0.6,0,1.3-0.1,2-0.2s1.3-0.3,1.9-0.4v2.7
			c-0.6,0.2-1.2,0.3-1.9,0.4c-0.7,0.1-1.4,0.1-2.1,0.1c-1.4,0-2.7-0.2-3.8-0.6c-1.1-0.4-2-1-2.7-1.7c-0.7-0.8-1.3-1.6-1.7-2.7
			c-0.4-1-0.6-2.2-0.6-3.5s0.2-2.5,0.6-3.6s1-2.1,1.7-2.9c0.7-0.8,1.7-1.5,2.8-1.9c1.1-0.5,2.4-0.7,3.8-0.7c0.7,0,1.4,0,2,0.1
			s1.2,0.2,1.7,0.4v2.6c-0.7-0.2-1.3-0.4-1.9-0.4S1030.9,312.3,1030.3,312.3z"/>
		<path d="M1053,318.5c0,1.3-0.2,2.5-0.6,3.6s-0.9,2-1.6,2.8s-1.6,1.4-2.6,1.8s-2.2,0.6-3.5,0.6s-2.5-0.2-3.5-0.6s-1.9-1-2.6-1.8
			s-1.2-1.7-1.6-2.8c-0.4-1.1-0.6-2.3-0.6-3.6s0.2-2.5,0.6-3.6s0.9-2,1.6-2.8s1.6-1.4,2.6-1.8s2.2-0.6,3.5-0.6s2.5,0.2,3.5,0.6
			s1.9,1,2.6,1.8s1.2,1.7,1.6,2.8C1052.8,316,1053,317.2,1053,318.5z M1049.8,318.5c0-1-0.1-1.9-0.4-2.7c-0.3-0.8-0.6-1.4-1.1-1.9
			c-0.4-0.5-1-0.9-1.6-1.2c-0.6-0.3-1.3-0.4-2-0.4s-1.4,0.1-2,0.4s-1.2,0.6-1.6,1.2c-0.4,0.5-0.8,1.2-1.1,1.9
			c-0.3,0.8-0.4,1.7-0.4,2.7s0.1,1.9,0.4,2.7c0.3,0.8,0.6,1.4,1.1,1.9c0.4,0.5,1,0.9,1.6,1.2c0.6,0.3,1.3,0.4,2,0.4s1.4-0.1,2-0.4
			s1.2-0.6,1.6-1.2c0.4-0.5,0.8-1.2,1.1-1.9C1049.7,320.4,1049.8,319.5,1049.8,318.5z"/>
		<path d="M1063.4,327.3c-0.9,0-1.7-0.1-2.4-0.3c-0.7-0.2-1.3-0.4-1.9-0.7c-0.5-0.3-1-0.7-1.4-1.2s-0.7-1-0.9-1.6
			c-0.2-0.5-0.3-1-0.4-1.6s-0.1-1.2-0.1-1.9v-10h3.1v9.7c0,1.2,0.1,2.1,0.4,2.8c0.3,0.8,0.8,1.3,1.4,1.6c0.6,0.3,1.3,0.5,2.2,0.5
			s1.6-0.2,2.2-0.5s1.1-0.9,1.4-1.6s0.4-1.6,0.4-2.8V310h3.1v10c0,0.7,0,1.4-0.1,1.9c-0.1,0.6-0.2,1.1-0.4,1.6
			c-0.2,0.6-0.5,1.1-0.9,1.6s-0.9,0.9-1.4,1.2c-0.6,0.3-1.2,0.6-1.9,0.7C1065,327.2,1064.2,327.3,1063.4,327.3z"/>
		<path d="M1087.1,315.1c0,1.2-0.3,2.2-1,3s-1.7,1.4-3,1.8v0.1l5.1,7h-3.7l-4.6-6.6h-2.1v6.6h-3.1v-17h5.2c0.9,0,1.7,0,2.4,0.1
			c0.7,0.1,1.4,0.2,1.9,0.4c1,0.4,1.8,0.9,2.3,1.7C1086.8,313,1087.1,313.9,1087.1,315.1z M1079.2,317.8c0.7,0,1.3,0,1.8-0.1
			s0.9-0.2,1.3-0.3c0.6-0.2,1.1-0.6,1.3-1c0.2-0.4,0.4-0.9,0.4-1.4s-0.1-0.9-0.3-1.2c-0.2-0.4-0.5-0.6-1-0.8
			c-0.3-0.1-0.7-0.2-1.1-0.3c-0.4-0.1-1-0.1-1.7-0.1h-2.2v5.2L1079.2,317.8L1079.2,317.8z"/>
		<path d="M1099.2,322.1c0-0.4-0.1-0.8-0.3-1c-0.2-0.3-0.5-0.5-0.9-0.7s-0.8-0.3-1.2-0.4c-0.5-0.1-0.9-0.2-1.4-0.3
			c-0.7-0.1-1.3-0.3-1.9-0.5s-1.1-0.5-1.6-0.8c-0.5-0.4-0.8-0.8-1.1-1.3c-0.3-0.5-0.4-1.2-0.4-2c0-0.9,0.2-1.7,0.5-2.3
			c0.3-0.7,0.7-1.2,1.3-1.7c0.5-0.4,1.2-0.8,1.9-1c0.7-0.2,1.5-0.3,2.4-0.3s1.8,0.1,2.7,0.3s1.7,0.4,2.4,0.7v2.7
			c-0.9-0.3-1.7-0.6-2.5-0.8c-0.8-0.2-1.6-0.2-2.3-0.2c-1,0-1.8,0.2-2.4,0.6s-0.8,0.9-0.8,1.7c0,0.4,0.1,0.8,0.3,1.1
			c0.2,0.3,0.4,0.5,0.7,0.7c0.3,0.2,0.7,0.3,1.1,0.4s0.8,0.2,1.3,0.3c0.7,0.2,1.4,0.3,2.1,0.5s1.2,0.5,1.7,0.8s0.9,0.8,1.2,1.4
			c0.3,0.6,0.4,1.3,0.4,2.2c0,0.9-0.2,1.7-0.5,2.4c-0.3,0.7-0.8,1.2-1.4,1.7c-0.6,0.4-1.4,0.8-2.3,1s-1.9,0.3-2.9,0.3
			c-0.9,0-1.8-0.1-2.7-0.3c-0.9-0.2-1.6-0.4-2.2-0.8v-2.6c0.8,0.4,1.7,0.6,2.5,0.8c0.8,0.2,1.6,0.2,2.5,0.2c0.5,0,1,0,1.4-0.1
			c0.5-0.1,0.9-0.2,1.3-0.4c0.4-0.2,0.7-0.5,0.9-0.8C1099.1,323,1099.2,322.6,1099.2,322.1z"/>
		<path d="M1109,324.3h8.4v2.6h-11.5v-17h11v2.6h-7.9v4.4h6.8v2.6h-6.8V324.3z"/>
	</g>
	<g id="XMLID_469_">
		<path id="XMLID_470_" d="M708.9,355.3c-1,0-1.8-0.8-1.8-1.8v-30.4c0,0,0,0,0-0.1c0,0,0,0,0-0.1c0-1,0.8-1.8,1.8-1.8H745v-16.2
			h-8.5c-1,0-1.8-0.8-1.8-1.8s0.8-1.8,1.8-1.8h10.2c1,0,1.8,0.8,1.8,1.8v19.7c0,1-0.8,1.8-1.8,1.8h-36.1v28.8
			C710.6,354.5,709.9,355.3,708.9,355.3L708.9,355.3z M690,355.3c-1,0-1.8-0.8-1.8-1.8v-58.7c0-1,0.8-1.8,1.8-1.8h37.8
			c1,0,1.8,0.8,1.8,1.8v19.7c0,1-0.8,1.8-1.8,1.8h-36.1v37.2C691.7,354.5,690.9,355.3,690,355.3L690,355.3z M691.7,312.7H726v-16.2
			h-34.3V312.7z M708.9,309.4c-2.6,0-4.8-2.1-4.8-4.8c0-2.6,2.1-4.8,4.8-4.8c2.6,0,4.8,2.1,4.8,4.8
			C713.7,307.3,711.5,309.4,708.9,309.4L708.9,309.4z M708.9,303.4c-0.7,0-1.3,0.6-1.3,1.3s0.6,1.3,1.3,1.3s1.3-0.6,1.3-1.3
			C710.1,304,709.6,303.4,708.9,303.4L708.9,303.4z"/>
	</g>
</g>
</svg>
