<?xml version="1.0" encoding="utf-8"?>
<!-- Generator: Adobe Illustrator 19.0.0, SVG Export Plug-In . SVG Version: 6.00 Build 0)  -->
<svg version="1.1" id="Layer_1" xmlns="http://www.w3.org/2000/svg" xmlns:xlink="http://www.w3.org/1999/xlink" x="0px" y="0px"
	 viewBox="0 0 1204.1 504" style="enable-background:new 0 0 1204.1 504;" xml:space="preserve">
<style type="text/css">
	.st0{fill:#FFFFFF;stroke:#000000;stroke-width:4;stroke-miterlimit:10;}
	.st1{fill:none;stroke:#000000;stroke-width:4;stroke-miterlimit:10;}
	.st2{fill:#103B9B;}
	.st3{fill:#FFFFFF;}
	.st4{fill:#ED1F34;}
	.st5{clip-path:url(#XMLID_978_);fill:#ED1F34;}
	.st6{clip-path:url(#XMLID_978_);}
	.st7{fill:#FFE000;}
	.st8{clip-path:url(#XMLID_979_);fill:#ED1F34;}
	.st9{clip-path:url(#XMLID_979_);}
	.st10{fill:#164FCE;}
	.st11{clip-path:url(#XMLID_980_);fill:#FFFFFF;}
	.st12{clip-path:url(#XMLID_980_);}
	.st13{clip-path:url(#XMLID_981_);fill:#ED1F34;}
	.st14{clip-path:url(#XMLID_981_);}
	.st15{clip-path:url(#XMLID_982_);fill:#164FCE;}
	.st16{clip-path:url(#XMLID_982_);}
	.st17{fill:#259245;}
	.st18{clip-path:url(#XMLID_983_);fill:#ED1F34;}
	.st19{clip-path:url(#XMLID_983_);}
	.st20{fill:#333333;}
	.st21{clip-path:url(#XMLID_984_);fill:#333333;}
	.st22{clip-path:url(#XMLID_984_);}
	.st23{clip-path:url(#XMLID_985_);fill:#ED1F34;}
	.st24{clip-path:url(#XMLID_985_);}
	.st25{clip-path:url(#XMLID_986_);}
	.st26{clip-path:url(#XMLID_987_);fill:#231F20;}
	.st27{fill:#B3B3B3;stroke:#000000;stroke-width:4;stroke-miterlimit:10;}
	.st28{fill:#5398AB;stroke:#000000;stroke-width:4;stroke-miterlimit:10;}
	.st29{fill:#22B573;stroke:#000000;stroke-width:4;stroke-miterlimit:10;}
	.st30{clip-path:url(#XMLID_988_);}
	.st31{fill:#BDCCD4;stroke:#000000;stroke-width:4;stroke-miterlimit:10;}
</style>
<rect id="XMLID_272_" x="2.1" y="2" class="st0" width="1200" height="500"/>
<line id="XMLID_276_" class="st1" x1="110.1" y1="378" x2="316.1" y2="378"/>
<line id="XMLID_279_" class="st1" x1="686.1" y1="213" x2="686.1" y2="504"/>
<line id="XMLID_280_" class="st1" x1="685.1" y1="246" x2="887.1" y2="246"/>
<line id="XMLID_282_" class="st1" x1="527.4" y1="4" x2="528.1" y2="213"/>
<line id="XMLID_283_" class="st1" x1="316.1" y1="211" x2="316.1" y2="501"/>
<line id="XMLID_284_" class="st1" x1="476.1" y1="212" x2="476.1" y2="503"/>
<line id="XMLID_285_" class="st1" x1="984.1" y1="174" x2="1202.1" y2="174"/>
<g id="XMLID_588_">
	<path id="XMLID_589_" d="M345.6,268.5h-3.1v-14.4H337v-2.6H351v2.6h-5.5V268.5z"/>
	<path id="XMLID_591_" d="M356.6,265.9h8.4v2.6h-11.5v-17h11v2.6h-7.9v4.4h6.8v2.6h-6.8V265.9z"/>
	<path id="XMLID_593_" d="M377.9,264.2h-6.4l-1.7,4.3h-3.3l6.7-17h2.8l6.7,17h-3.3L377.9,264.2z M374.7,255.6
		c-0.6,1.8-1.1,3.3-1.6,4.5l-0.6,1.5h4.4l-0.6-1.5C375.9,258.9,375.4,257.4,374.7,255.6L374.7,255.6z"/>
	<path id="XMLID_596_" d="M393.3,253.8c-0.8,0-1.6,0.1-2.3,0.4s-1.3,0.7-1.8,1.2s-0.9,1.2-1.2,2c-0.3,0.8-0.4,1.7-0.4,2.7
		c0,1,0.1,1.9,0.4,2.6c0.3,0.8,0.6,1.4,1.1,1.9s1.1,0.9,1.8,1.1c0.7,0.3,1.5,0.4,2.4,0.4c0.6,0,1.3-0.1,2-0.2s1.3-0.3,1.9-0.4v2.7
		c-0.6,0.2-1.2,0.3-1.9,0.4c-0.7,0.1-1.4,0.1-2.1,0.1c-1.4,0-2.7-0.2-3.8-0.6c-1.1-0.4-2-1-2.7-1.7c-0.7-0.8-1.3-1.6-1.7-2.7
		c-0.4-1-0.6-2.2-0.6-3.5c0-1.3,0.2-2.5,0.6-3.6s1-2.1,1.7-2.9s1.7-1.5,2.8-1.9c1.1-0.5,2.4-0.7,3.8-0.7c0.7,0,1.4,0,2,0.1
		c0.6,0.1,1.2,0.2,1.7,0.4v2.6c-0.7-0.2-1.3-0.4-1.9-0.4S393.9,253.8,393.3,253.8z"/>
	<path id="XMLID_598_" d="M403.4,258.5h7.9v-7h3.1v17h-3.1v-7.4h-7.9v7.4h-3.1v-17h3.1V258.5z"/>
	<path id="XMLID_600_" d="M418.4,268.5v-17h3.1v17H418.4z"/>
	<path id="XMLID_602_" d="M434.4,259.4c1.2,1.7,2.2,3.3,3,4.6h0.1c-0.1-2.2-0.2-3.8-0.2-4.8v-7.7h3.1v17h-3.3l-5.5-7.8
		c-1-1.4-2-2.9-3-4.7h-0.1c0.1,2.1,0.2,3.7,0.2,4.8v7.7h-3.1v-17h3.3L434.4,259.4z"/>
	<path id="XMLID_604_" d="M455.1,262h-3.8v-2.6h6.9v8.6c-0.3,0.1-0.6,0.2-1,0.3s-0.8,0.2-1.3,0.3c-0.5,0.1-1,0.1-1.5,0.2
		s-1,0.1-1.5,0.1c-1.5,0-2.9-0.2-4-0.6c-1.1-0.4-2.1-1-2.8-1.7s-1.3-1.6-1.7-2.7c-0.4-1-0.6-2.2-0.6-3.4c0-0.9,0.1-1.7,0.3-2.5
		c0.2-0.8,0.5-1.5,0.9-2.2c0.4-0.7,0.9-1.3,1.4-1.8s1.2-1,1.9-1.4c0.7-0.4,1.5-0.7,2.3-0.9c0.8-0.2,1.7-0.3,2.7-0.3
		c0.9,0,1.7,0.1,2.4,0.2c0.8,0.1,1.4,0.3,1.9,0.5v2.6c-0.7-0.2-1.3-0.4-2-0.5s-1.4-0.2-2-0.2c-0.9,0-1.8,0.1-2.6,0.4
		c-0.8,0.3-1.5,0.7-2.1,1.2c-0.6,0.5-1.1,1.2-1.4,2s-0.5,1.7-0.5,2.7c0,2,0.5,3.5,1.6,4.5c1,1,2.5,1.5,4.4,1.5c0.4,0,0.7,0,1.1-0.1
		c0.4,0,0.7-0.1,1-0.1V262z"/>
</g>
<g id="XMLID_569_">
	<path id="XMLID_570_" d="M516.5,458v14.4h7.9v2.6h-11.1v-17H516.5z"/>
	<path id="XMLID_572_" d="M530.5,472.4h8.4v2.6h-11.5v-17h11v2.6h-7.9v4.4h6.8v2.6h-6.8V472.4z"/>
	<path id="XMLID_574_" d="M551.8,470.7h-6.4l-1.7,4.3h-3.3l6.7-17h2.8l6.7,17h-3.3L551.8,470.7z M548.6,462.1
		c-0.6,1.8-1.1,3.3-1.6,4.5l-0.6,1.5h4.4l-0.6-1.5C549.8,465.4,549.3,463.9,548.6,462.1L548.6,462.1z"/>
	<path id="XMLID_577_" d="M571.8,463.1c0,1.2-0.3,2.2-1,3c-0.7,0.8-1.7,1.4-3,1.8v0.1l5.1,7h-3.7l-4.6-6.6h-2.1v6.6h-3.1v-17h5.2
		c0.9,0,1.7,0,2.4,0.1c0.7,0.1,1.4,0.2,1.9,0.4c1,0.4,1.8,0.9,2.3,1.7C571.5,461,571.8,462,571.8,463.1z M563.9,465.8
		c0.7,0,1.3,0,1.8-0.1c0.5-0.1,0.9-0.2,1.3-0.3c0.6-0.2,1.1-0.6,1.3-1c0.2-0.4,0.4-0.9,0.4-1.4c0-0.5-0.1-0.9-0.3-1.2
		c-0.2-0.4-0.5-0.6-1-0.8c-0.3-0.1-0.7-0.2-1.1-0.3c-0.4-0.1-1-0.1-1.7-0.1h-2.2v5.2H563.9z"/>
	<path id="XMLID_580_" d="M584.4,465.9c1.2,1.7,2.2,3.3,3,4.6h0.1c-0.1-2.2-0.2-3.8-0.2-4.8V458h3.1v17h-3.3l-5.5-7.8
		c-1-1.4-2-2.9-3-4.7h-0.1c0.1,2.1,0.2,3.7,0.2,4.8v7.7h-3.1v-17h3.3L584.4,465.9z"/>
	<path id="XMLID_582_" d="M594.4,475v-17h3.1v17H594.4z"/>
	<path id="XMLID_584_" d="M610.5,465.9c1.2,1.7,2.2,3.3,3,4.6h0.1c-0.1-2.2-0.2-3.8-0.2-4.8V458h3.1v17h-3.3l-5.5-7.8
		c-1-1.4-2-2.9-3-4.7h-0.1c0.1,2.1,0.2,3.7,0.2,4.8v7.7h-3.1v-17h3.3L610.5,465.9z"/>
	<path id="XMLID_586_" d="M631.1,468.5h-3.8v-2.6h6.9v8.6c-0.3,0.1-0.6,0.2-1,0.3s-0.8,0.2-1.3,0.3c-0.5,0.1-1,0.1-1.5,0.2
		c-0.5,0.1-1,0.1-1.5,0.1c-1.5,0-2.9-0.2-4-0.6c-1.1-0.4-2.1-1-2.8-1.7c-0.8-0.7-1.3-1.6-1.7-2.7c-0.4-1-0.6-2.2-0.6-3.4
		c0-0.9,0.1-1.7,0.3-2.5c0.2-0.8,0.5-1.5,0.9-2.2c0.4-0.7,0.9-1.3,1.4-1.8c0.6-0.5,1.2-1,1.9-1.4c0.7-0.4,1.5-0.7,2.3-0.9
		c0.8-0.2,1.7-0.3,2.7-0.3c0.9,0,1.7,0.1,2.4,0.2c0.8,0.1,1.4,0.3,1.9,0.5v2.6c-0.7-0.2-1.3-0.4-2-0.5s-1.4-0.2-2-0.2
		c-0.9,0-1.8,0.1-2.6,0.4c-0.8,0.3-1.5,0.7-2.1,1.2c-0.6,0.5-1.1,1.2-1.4,2c-0.3,0.8-0.5,1.7-0.5,2.7c0,2,0.5,3.5,1.6,4.5
		c1,1,2.5,1.5,4.4,1.5c0.4,0,0.7,0,1.1-0.1c0.4,0,0.7-0.1,1-0.1V468.5z"/>
</g>
<g id="XMLID_530_">
	<path id="XMLID_531_" d="M738.4,283.9h-3.8v-2.6h6.9v8.6c-0.3,0.1-0.6,0.2-1,0.3s-0.8,0.2-1.3,0.3c-0.5,0.1-1,0.1-1.5,0.2
		c-0.5,0.1-1,0.1-1.5,0.1c-1.5,0-2.9-0.2-4-0.6c-1.1-0.4-2.1-1-2.8-1.7c-0.8-0.7-1.3-1.6-1.7-2.7c-0.4-1-0.6-2.2-0.6-3.4
		c0-0.9,0.1-1.7,0.3-2.5c0.2-0.8,0.5-1.5,0.9-2.2c0.4-0.7,0.9-1.3,1.4-1.8c0.5-0.5,1.2-1,1.9-1.4c0.7-0.4,1.5-0.7,2.3-0.9
		c0.8-0.2,1.7-0.3,2.7-0.3c0.9,0,1.7,0.1,2.4,0.2c0.8,0.1,1.4,0.3,1.9,0.5v2.6c-0.7-0.2-1.3-0.4-2-0.5s-1.4-0.2-2-0.2
		c-0.9,0-1.8,0.1-2.6,0.4c-0.8,0.3-1.5,0.7-2.1,1.2c-0.6,0.5-1.1,1.2-1.4,2c-0.3,0.8-0.5,1.7-0.5,2.7c0,2,0.5,3.5,1.6,4.5
		c1,1,2.5,1.5,4.4,1.5c0.4,0,0.7,0,1.1-0.1c0.4,0,0.7-0.1,1-0.1V283.9z"/>
	<path id="XMLID_533_" d="M748.4,287.8h8.4v2.6h-11.5v-17h11v2.6h-7.9v4.4h6.8v2.6h-6.8V287.8z"/>
	<path id="XMLID_535_" d="M768.4,285.5c0-0.4-0.1-0.8-0.3-1c-0.2-0.3-0.5-0.5-0.9-0.7c-0.4-0.2-0.8-0.3-1.2-0.4
		c-0.5-0.1-0.9-0.2-1.4-0.3c-0.7-0.1-1.3-0.3-1.9-0.5c-0.6-0.2-1.1-0.5-1.6-0.8c-0.5-0.4-0.8-0.8-1.1-1.3c-0.3-0.5-0.4-1.2-0.4-2
		c0-0.9,0.2-1.7,0.5-2.3c0.3-0.7,0.7-1.2,1.3-1.7c0.5-0.4,1.2-0.8,1.9-1s1.5-0.3,2.4-0.3c0.9,0,1.8,0.1,2.7,0.3s1.7,0.4,2.4,0.7v2.7
		c-0.9-0.3-1.7-0.6-2.5-0.8c-0.8-0.2-1.6-0.2-2.3-0.2c-1,0-1.8,0.2-2.4,0.6c-0.6,0.4-0.8,0.9-0.8,1.7c0,0.4,0.1,0.8,0.3,1.1
		c0.2,0.3,0.4,0.5,0.7,0.7c0.3,0.2,0.7,0.3,1.1,0.4s0.8,0.2,1.3,0.3c0.7,0.2,1.4,0.3,2.1,0.5c0.7,0.2,1.2,0.5,1.7,0.8
		s0.9,0.8,1.2,1.4c0.3,0.6,0.4,1.3,0.4,2.2c0,0.9-0.2,1.7-0.5,2.4c-0.3,0.7-0.8,1.2-1.4,1.7c-0.6,0.4-1.4,0.8-2.3,1
		s-1.9,0.3-2.9,0.3c-0.9,0-1.8-0.1-2.7-0.3c-0.9-0.2-1.6-0.4-2.2-0.8v-2.6c0.8,0.4,1.7,0.6,2.5,0.8c0.8,0.2,1.6,0.2,2.5,0.2
		c0.5,0,1,0,1.4-0.1c0.5-0.1,0.9-0.2,1.3-0.4c0.4-0.2,0.7-0.5,0.9-0.8C768.3,286.4,768.4,286,768.4,285.5z"/>
	<path id="XMLID_537_" d="M779.7,283.8c-0.3,0-0.6,0-0.8,0c-0.3,0-0.5,0-0.8-0.1v6.6H775v-17h4.9c0.8,0,1.5,0,2.2,0.1
		c0.6,0.1,1.2,0.2,1.6,0.3c1.2,0.4,2.1,0.9,2.7,1.7c0.6,0.8,0.9,1.8,0.9,3c0,0.8-0.2,1.6-0.5,2.2c-0.3,0.7-0.8,1.2-1.5,1.7
		c-0.7,0.5-1.4,0.8-2.4,1.1S781,283.8,779.7,283.8z M778.2,281.2c0.2,0,0.4,0,0.7,0.1c0.3,0,0.6,0,0.9,0c0.8,0,1.5-0.1,2.1-0.2
		c0.6-0.1,1-0.3,1.4-0.6c0.3-0.2,0.6-0.5,0.7-0.9c0.2-0.3,0.2-0.7,0.2-1.1c0-0.5-0.1-0.9-0.3-1.3s-0.6-0.6-1.2-0.9
		c-0.3-0.1-0.7-0.2-1.1-0.2c-0.4,0-1-0.1-1.6-0.1h-1.8V281.2z"/>
	<path id="XMLID_540_" d="M803.2,278.5c0,1.2-0.3,2.2-1,3c-0.7,0.8-1.7,1.4-3,1.8v0.1l5.1,7h-3.7l-4.6-6.6h-2.1v6.6h-3.1v-17h5.2
		c0.9,0,1.7,0,2.4,0.1c0.7,0.1,1.4,0.2,1.9,0.4c1,0.4,1.8,0.9,2.3,1.7C803,276.5,803.2,277.4,803.2,278.5z M795.3,281.2
		c0.7,0,1.3,0,1.8-0.1c0.5-0.1,0.9-0.2,1.3-0.3c0.6-0.2,1.1-0.6,1.3-1c0.2-0.4,0.4-0.9,0.4-1.4c0-0.5-0.1-0.9-0.3-1.2
		c-0.2-0.4-0.5-0.6-1-0.8c-0.3-0.1-0.7-0.2-1.1-0.3c-0.4-0.1-1-0.1-1.7-0.1h-2.2v5.2H795.3z"/>
	<path id="XMLID_543_" d="M816.7,286.1h-6.4l-1.7,4.3h-3.3l6.7-17h2.8l6.7,17h-3.3L816.7,286.1z M809.4,269.2h2.8v2.9h-2.8V269.2z
		 M813.5,277.5c-0.6,1.8-1.1,3.3-1.6,4.5l-0.6,1.5h4.4l-0.6-1.5C814.7,280.8,814.1,279.3,813.5,277.5L813.5,277.5z M814.7,269.2h2.8
		v2.9h-2.8V269.2z"/>
	<path id="XMLID_565_" d="M832.1,275.7c-0.8,0-1.6,0.1-2.3,0.4c-0.7,0.3-1.3,0.7-1.8,1.2c-0.5,0.5-0.9,1.2-1.2,2
		c-0.3,0.8-0.4,1.7-0.4,2.7c0,1,0.1,1.9,0.4,2.6c0.3,0.8,0.6,1.4,1.1,1.9c0.5,0.5,1.1,0.9,1.8,1.1c0.7,0.3,1.5,0.4,2.4,0.4
		c0.6,0,1.3-0.1,2-0.2c0.7-0.1,1.3-0.3,1.9-0.4v2.7c-0.6,0.2-1.2,0.3-1.9,0.4c-0.7,0.1-1.4,0.1-2.1,0.1c-1.4,0-2.7-0.2-3.8-0.6
		c-1.1-0.4-2-1-2.7-1.7c-0.7-0.8-1.3-1.6-1.7-2.7c-0.4-1-0.6-2.2-0.6-3.5c0-1.3,0.2-2.5,0.6-3.6s1-2.1,1.7-2.9
		c0.7-0.8,1.7-1.5,2.8-1.9c1.1-0.5,2.4-0.7,3.8-0.7c0.7,0,1.4,0,2,0.1c0.6,0.1,1.2,0.2,1.7,0.4v2.6c-0.7-0.2-1.3-0.4-1.9-0.4
		S832.6,275.7,832.1,275.7z"/>
	<path id="XMLID_567_" d="M842.1,280.4h7.9v-7h3.1v17H850V283h-7.9v7.4H839v-17h3.1V280.4z"/>
</g>
<line id="XMLID_290_" class="st1" x1="711.1" y1="2" x2="711.1" y2="246"/>
<line id="XMLID_294_" class="st1" x1="984.1" y1="2" x2="984.1" y2="318"/>
<line id="XMLID_295_" class="st1" x1="476.1" y1="429" x2="686.1" y2="429"/>
<g id="XMLID_296_">
	<path class="st2" d="M3.6,311v-13.9L24.3,311H3.6z M3.6,311"/>
	<path class="st2" d="M3.7,297.4v13.5h20.2L3.7,297.4z M3.7,297.4"/>
	<path class="st2" d="M21.7,286.1h24.7v16.5L21.7,286.1z M21.7,286.1"/>
	<path class="st2" d="M46.3,286.3H22.2l24.1,16.1V286.3z M46.3,286.3"/>
	<path class="st2" d="M3.6,330.3h20.8L3.6,344.1V330.3z M3.6,330.3"/>
	<path class="st2" d="M3.7,330.4v13.5l20.2-13.5H3.7z M3.7,330.4"/>
	<path class="st2" d="M65.7,286.1h24.7l-24.7,16.5V286.1z M65.7,286.1"/>
	<path class="st2" d="M90,286.3H65.8v16.1L90,286.3z M90,286.3"/>
	<path class="st2" d="M87.8,311l20.8-13.9V311H87.8z M87.8,311"/>
	<path class="st2" d="M108.5,310.9v-13.5l-20.2,13.5H108.5z M108.5,310.9"/>
	<path class="st2" d="M21.7,355.1l24.7-16.5v16.5H21.7z M21.7,355.1"/>
	<path class="st2" d="M22.2,355h24.1v-16.1L22.2,355z M22.2,355"/>
	<path class="st2" d="M87.8,330.3h20.8v13.9L87.8,330.3z M87.8,330.3"/>
	<path class="st2" d="M108.5,343.9v-13.5H88.3L108.5,343.9z M108.5,343.9"/>
	<path class="st2" d="M65.7,355.1v-16.5l24.7,16.5H65.7z M65.7,355.1"/>
	<path class="st2" d="M65.8,355H90l-24.1-16.1V355z M65.8,355"/>
	<path class="st3" d="M90,286.3l-24.1,16.1v-16.1h-2.7v27.3h45.3v-2.7H88.3l20.2-13.5v-9.6l-34.5,23h-8.1v-6.7l26.7-17.8H90z
		 M90,286.3"/>
	<path class="st3" d="M22.2,355l24.1-16.1V355H49v-27.3H3.7v2.7h20.2L3.7,343.9v9.6l34.5-23h8.1v6.7L19.6,355H22.2z M22.2,355"/>
	<path class="st4" d="M7.4,355.1l37.3-24.9h1.8v2.6l-33.3,22.3H7.4z M7.4,355.1"/>
	<path class="st4" d="M44.7,330.4L7.9,355h5.2l33.3-22.2v-2.4H44.7z M44.7,330.4"/>
	<path class="st4" d="M32.9,311L3.6,291.4v-3.8L38.7,311H32.9z M32.9,311"/>
	<path class="st4" d="M3.7,287.9v3.5l29.2,19.5h5.3L3.7,287.9z M3.7,287.9"/>
	<path class="st4" d="M73.5,330.3H79l29.6,19.8v3.6L73.5,330.3z M73.5,330.3"/>
	<path class="st4" d="M108.5,353.4v-3.3L79,330.4h-5L108.5,353.4z M108.5,353.4"/>
	<path class="st4" d="M65.7,311v-2.6l33.3-22.3h5.7L67.5,311H65.7z M65.7,311"/>
	<g>
		<defs>
			<rect id="XMLID_609_" x="0.1" y="282.6" width="111.9" height="76.2"/>
		</defs>
		<clipPath id="XMLID_978_">
			<use xlink:href="#XMLID_609_"  style="overflow:visible;"/>
		</clipPath>
		<path class="st5" d="M67.5,310.9l36.8-24.6h-5.2l-33.3,22.2v2.4H67.5z M67.5,310.9"/>
		<path class="st6" d="M112.1,356.8v-72.3c0,0,0,0,0,0c0,0,0-0.1,0-0.1c0,0,0,0,0-0.1c0,0,0-0.1,0-0.1c0,0,0-0.1,0-0.1
			c0,0,0-0.1,0-0.1c0,0,0-0.1,0-0.1c0,0,0,0,0-0.1c0,0,0-0.1-0.1-0.1c0,0,0,0,0,0c0,0-0.1-0.1-0.1-0.1c0,0,0,0,0,0c0,0,0,0,0,0
			c0-0.1-0.1-0.1-0.1-0.1c0,0,0,0-0.1-0.1c0,0,0,0-0.1-0.1c0,0-0.1-0.1-0.1-0.1c0,0,0,0,0,0c0,0-0.1,0-0.1-0.1c0,0,0,0,0,0
			c0,0-0.1,0-0.1-0.1c0,0,0,0-0.1,0c0,0,0,0-0.1,0c0,0-0.1,0-0.1,0c0,0,0,0-0.1,0c0,0-0.1,0-0.1,0c0,0,0,0,0,0c0,0-0.1,0-0.1,0
			c0,0,0,0-0.1,0c0,0-0.1,0-0.1,0c-0.1,0-0.1,0-0.2,0c0,0,0,0,0,0H1.9c-0.1,0-0.1,0-0.2,0c0,0-0.1,0-0.1,0c0,0,0,0,0,0
			c0,0-0.1,0-0.1,0c0,0,0,0,0,0c0,0-0.1,0-0.1,0c0,0,0,0,0,0c0,0-0.1,0-0.1,0c0,0,0,0-0.1,0c0,0-0.1,0-0.1,0c0,0-0.1,0-0.1,0
			c0,0,0,0-0.1,0c0,0-0.1,0-0.1,0.1c0,0,0,0,0,0c0,0-0.1,0.1-0.1,0.1c0,0-0.1,0.1-0.1,0.1c0,0,0,0,0,0c0,0-0.1,0.1-0.1,0.1
			c0,0,0,0,0,0c0,0,0,0,0,0c0,0-0.1,0.1-0.1,0.1c0,0,0,0,0,0.1c0,0,0,0.1-0.1,0.1c0,0,0,0,0,0.1c0,0,0,0.1,0,0.1c0,0,0,0.1,0,0.1
			c0,0,0,0.1,0,0.1c0,0,0,0.1,0,0.1c0,0,0,0,0,0.1c0,0,0,0.1,0,0.1c0,0,0,0,0,0v72.3c0,0,0,0,0,0c0,0,0,0.1,0,0.1c0,0,0,0,0,0.1
			c0,0,0,0.1,0,0.1c0,0,0,0.1,0,0.1c0,0,0,0.1,0,0.1c0,0,0,0.1,0,0.1c0,0,0,0,0,0.1c0,0,0,0.1,0.1,0.1c0,0,0,0,0,0
			c0,0,0.1,0.1,0.1,0.1c0,0,0,0,0,0c0,0,0,0,0,0c0,0.1,0.1,0.1,0.1,0.2c0,0,0,0,0,0c0,0,0.1,0.1,0.1,0.1c0,0,0,0,0.1,0.1
			c0,0,0.1,0.1,0.1,0.1c0,0,0,0,0,0c0.1,0,0.1,0.1,0.2,0.1c0,0,0,0,0,0c0,0,0.1,0,0.1,0.1c0,0,0,0,0.1,0c0,0,0.1,0,0.1,0
			c0,0,0,0,0.1,0c0,0,0.1,0,0.2,0c0,0,0,0,0.1,0c0.1,0,0.1,0,0.2,0c0,0,0,0,0,0h108.3c0,0,0,0,0,0c0,0,0,0,0,0c0.1,0,0.1,0,0.2,0
			c0,0,0,0,0.1,0c0.1,0,0.1,0,0.2,0c0,0,0,0,0.1,0c0,0,0.1,0,0.1,0c0,0,0,0,0.1,0c0,0,0.1,0,0.1-0.1c0,0,0,0,0,0
			c0.1,0,0.1-0.1,0.2-0.1c0,0,0,0,0,0c0,0,0.1-0.1,0.1-0.1c0,0,0,0,0.1-0.1c0,0,0.1-0.1,0.1-0.1c0,0,0,0,0,0c0-0.1,0.1-0.1,0.1-0.2
			c0,0,0,0,0,0c0,0,0,0,0,0c0,0,0.1-0.1,0.1-0.1c0,0,0,0,0,0c0,0,0-0.1,0.1-0.1c0,0,0,0,0-0.1c0,0,0-0.1,0-0.1c0,0,0-0.1,0-0.1
			c0,0,0-0.1,0-0.1c0,0,0-0.1,0-0.1c0,0,0,0,0-0.1C112.1,356.9,112.1,356.9,112.1,356.8C112.1,356.8,112.1,356.8,112.1,356.8
			L112.1,356.8C112.1,356.8,112.1,356.8,112.1,356.8L112.1,356.8z M65.8,308.5l33.3-22.2h5.2l-36.8,24.6H74l34.5-23v25.7H63.1v-27.3
			h29.5l-26.7,17.8V308.5z M49,313.6H3.7v-17.9l22.7,15.2h6.5L3.7,291.3v-3.5l34.5,23h6.5L7.9,286.3H49V313.6z M46.3,332.8L13.1,355
			H7.9l36.8-24.6h-6.5l-34.5,23v-25.7H49V355H19.6l26.7-17.8V332.8z M63.1,327.7h32.7c1,0,1.8-0.8,1.8-1.8c0-1-0.8-1.8-1.8-1.8H61.3
			c-1,0-1.8,0.8-1.8,1.8V355h-6.9v-29.1c0-1-0.8-1.8-1.8-1.8H3.7v-6.9h47.1c1,0,1.8-0.8,1.8-1.8v-29.1h6.9v29.1c0,1,0.8,1.8,1.8,1.8
			h47.1v6.9H103c-1,0-1.8,0.8-1.8,1.8c0,1,0.8,1.8,1.8,1.8h5.4v18.1l-23-15.4H79l29.5,19.7v3.3l-34.5-23h-6.5l36.8,24.6H63.1V327.7z
			 M63.1,327.7"/>
	</g>
	<path class="st3" d="M46.3,302.4l-24.1-16.1H7.9l36.8,24.6H26.4L3.7,295.7v1.7l20.2,13.5H3.7v2.7H49v-27.3h-2.7V302.4z M46.3,302.4
		"/>
	<path class="st3" d="M65.8,338.9L90,355h14.3l-36.8-24.6h18l23,15.4v-1.9l-20.2-13.5h20.2v-2.7H103c-1,0-1.8-0.8-1.8-1.8h-3.6
		c0,1-0.8,1.8-1.8,1.8H63.1V355h2.7V338.9z M65.8,338.9"/>
	<path class="st4" d="M52.5,355.1v-29.2c0-0.9-0.7-1.7-1.7-1.7H3.6v-7.2h47.3c0.9,0,1.7-0.7,1.7-1.7v-29.2h7.1v29.2
		c0,0.9,0.7,1.7,1.7,1.7h47.3v7.2H103c-0.9,0-1.7,0.7-1.7,1.7v0.1h-3.9v-0.1c0-0.9-0.7-1.7-1.7-1.7H61.3c-0.9,0-1.7,0.7-1.7,1.7
		v29.2H52.5z M52.5,355.1"/>
	<path class="st4" d="M101.2,325.9c0-1,0.8-1.8,1.8-1.8h5.4v-6.9H61.3c-1,0-1.8-0.8-1.8-1.8v-29.1h-6.9v29.1c0,1-0.8,1.8-1.8,1.8
		H3.7v6.9h47.1c1,0,1.8,0.8,1.8,1.8V355h6.9v-29.1c0-1,0.8-1.8,1.8-1.8h34.5c1,0,1.8,0.8,1.8,1.8H101.2z M101.2,325.9"/>
</g>
<g id="XMLID_297_">
	<path class="st7" d="M1072.8,300.1V300c0-0.9-0.7-1.7-1.7-1.7H986v-32.8h105.2v32.8h-12.8c-0.9,0-1.7,0.7-1.7,1.7v0.1H1072.8z
		 M1072.8,300.1"/>
	<path class="st7" d="M1078.4,298.2h12.7v-32.6H986.1v32.6h85c1,0,1.8,0.8,1.8,1.8h3.6C1076.6,299,1077.4,298.2,1078.4,298.2
		L1078.4,298.2z M1078.4,298.2"/>
	<rect id="XMLID_679_" x="986" y="247.4" class="st4" width="105.2" height="14.8"/>
	<rect id="XMLID_678_" x="986.1" y="247.5" class="st4" width="104.9" height="14.5"/>
	<path class="st4" d="M986,316.4v-14.8h85.2c0.9,0,1.7-0.7,1.7-1.7v-0.1h3.9v0.1c0,0.9,0.7,1.7,1.7,1.7h12.8v14.8H986z M986,316.4"
		/>
	<g>
		<defs>
			<rect id="XMLID_669_" x="982.5" y="243.8" width="112.2" height="76.2"/>
		</defs>
		<clipPath id="XMLID_979_">
			<use xlink:href="#XMLID_669_"  style="overflow:visible;"/>
		</clipPath>
		<path class="st8" d="M1078.4,301.8c-1,0-1.8-0.8-1.8-1.8h-3.6c0,1-0.8,1.8-1.8,1.8h-85v14.5H1091v-14.5H1078.4z M1078.4,301.8"/>
		<path class="st9" d="M1092.8,243.9H984.3c-1,0-1.8,0.8-1.8,1.8v72.4c0,1,0.8,1.8,1.8,1.8h108.6c1,0,1.8-0.8,1.8-1.8v-72.4
			C1094.7,244.7,1093.8,243.9,1092.8,243.9L1092.8,243.9z M1091,247.5V262H986.1v-14.5H1091z M986.1,316.3v-14.5h85
			c1,0,1.8-0.8,1.8-1.8c0-1-0.8-1.8-1.8-1.8h-85v-32.6H1091v32.6h-12.7c-1,0-1.8,0.8-1.8,1.8s0.8,1.8,1.8,1.8h12.7v14.5H986.1z
			 M986.1,316.3"/>
	</g>
</g>
<g id="XMLID_298_">
	<path class="st10" d="M1181.9,221.1V221c0-0.9-0.7-1.7-1.7-1.7H1095v-20.8h20.3l0,0.1c0.1,5.4,4.5,8.8,8.7,10
		c0.2,0,0.3,0.1,0.5,0.1c0.2,0,0.3,0,0.5-0.1c4.2-1.3,8.6-4.6,8.7-10l0-0.1h66.6v20.8h-12.8c-0.9,0-1.7,0.7-1.7,1.7v0.1H1181.9z
		 M1181.9,221.1"/>
	<path class="st10" d="M1187.4,219.2h12.7v-20.5h-66.3c-0.1,5.5-4.6,8.9-8.8,10.2c-0.2,0.1-0.4,0.1-0.5,0.1c-0.2,0-0.4,0-0.5-0.1
		c-4.2-1.3-8.7-4.7-8.8-10.2h-20v20.5h85c1,0,1.8,0.8,1.8,1.8h3.6C1185.6,220,1186.4,219.2,1187.4,219.2L1187.4,219.2z
		 M1187.4,219.2"/>
	<path class="st4" d="M1095,243.5v-20.8h85.2c0.9,0,1.7-0.7,1.7-1.7v-0.1h3.9v0.1c0,0.9,0.7,1.7,1.7,1.7h12.8v20.8H1095z
		 M1095,243.5"/>
	<path class="st4" d="M1187.4,222.8c-1,0-1.8-0.8-1.8-1.8h-3.6c0,1-0.8,1.8-1.8,1.8h-85v20.5h104.9v-20.5H1187.4z M1187.4,222.8"/>
	<g>
		<defs>
			<rect id="XMLID_689_" x="1091.6" y="170.9" width="112.2" height="76.2"/>
		</defs>
		<clipPath id="XMLID_980_">
			<use xlink:href="#XMLID_689_"  style="overflow:visible;"/>
		</clipPath>
		<path class="st11" d="M1115.2,195.1v-8.4c0-1,0.8-1.8,1.8-1.8h15c1,0,1.8,0.8,1.8,1.8v8.4h66.3v-20.5h-104.9v20.5H1115.2z
			 M1115.2,195.1"/>
		<path class="st12" d="M1201.9,170.9h-108.6c-1,0-1.8,0.8-1.8,1.8v72.4c0,1,0.8,1.8,1.8,1.8h108.6c1,0,1.8-0.8,1.8-1.8v-72.4
			C1203.7,171.7,1202.9,170.9,1201.9,170.9L1201.9,170.9z M1200.1,174.6v20.5h-66.3v-8.4c0-1-0.8-1.8-1.8-1.8h-15
			c-1,0-1.8,0.8-1.8,1.8v8.4h-20v-20.5H1200.1z M1130.2,196.9v1.7c0,4.1-3.8,6-5.7,6.6c-1.8-0.7-5.7-2.5-5.7-6.6v-10.1h11.4V196.9z
			 M1095.2,243.3v-20.5h85c1,0,1.8-0.8,1.8-1.8c0-1-0.8-1.8-1.8-1.8h-85v-20.5h20c0.1,5.5,4.6,8.9,8.8,10.2c0.2,0.1,0.4,0.1,0.5,0.1
			c0.2,0,0.4,0,0.5-0.1c4.2-1.3,8.7-4.7,8.8-10.2h66.3v20.5h-12.7c-1,0-1.8,0.8-1.8,1.8c0,1,0.8,1.8,1.8,1.8h12.7v20.5H1095.2z
			 M1095.2,243.3"/>
	</g>
	<rect id="XMLID_688_" x="1118.7" y="188.3" class="st10" width="11.6" height="8.7"/>
	<rect id="XMLID_687_" x="1118.8" y="188.4" class="st10" width="11.4" height="8.4"/>
	<path class="st3" d="M1118.8,198.6c0,4.1,3.8,6,5.7,6.6c1.8-0.7,5.7-2.5,5.7-6.6v-1.7h-11.4V198.6z M1118.8,198.6"/>
</g>
<g id="XMLID_299_">
	<path class="st2" d="M1072.8,221.1V221c0-0.9-0.7-1.7-1.7-1.7H986v-20.8h105.2v20.8h-12.8c-0.9,0-1.7,0.7-1.7,1.7v0.1H1072.8z
		 M1072.8,221.1"/>
	<path class="st2" d="M1078.4,219.2h12.7v-20.5H986.1v20.5h85c1,0,1.8,0.8,1.8,1.8h3.6C1076.6,220,1077.4,219.2,1078.4,219.2
		L1078.4,219.2z M1078.4,219.2"/>
	<rect id="XMLID_715_" x="986.1" y="174.6" class="st3" width="104.9" height="20.5"/>
	<path class="st4" d="M986,243.5v-20.8h85.2c0.9,0,1.7-0.7,1.7-1.7v-0.1h3.9v0.1c0,0.9,0.7,1.7,1.7,1.7h12.8v20.8H986z M986,243.5"
		/>
	<g>
		<defs>
			<rect id="XMLID_706_" x="982.5" y="170.9" width="112.2" height="76.2"/>
		</defs>
		<clipPath id="XMLID_981_">
			<use xlink:href="#XMLID_706_"  style="overflow:visible;"/>
		</clipPath>
		<path class="st13" d="M1078.4,222.8c-1,0-1.8-0.8-1.8-1.8h-3.6c0,1-0.8,1.8-1.8,1.8h-85v20.5H1091v-20.5H1078.4z M1078.4,222.8"/>
		<path class="st14" d="M1092.8,170.9H984.3c-1,0-1.8,0.8-1.8,1.8v72.4c0,1,0.8,1.8,1.8,1.8h108.6c1,0,1.8-0.8,1.8-1.8v-72.4
			C1094.7,171.7,1093.8,170.9,1092.8,170.9L1092.8,170.9z M1091,174.6v20.5H986.1v-20.5H1091z M986.1,243.3v-20.5h85
			c1,0,1.8-0.8,1.8-1.8c0-1-0.8-1.8-1.8-1.8h-85v-20.5H1091v20.5h-12.7c-1,0-1.8,0.8-1.8,1.8c0,1,0.8,1.8,1.8,1.8h12.7v20.5H986.1z
			 M986.1,243.3"/>
	</g>
</g>
<g id="XMLID_300_">
	<rect id="XMLID_747_" x="1095" y="247.4" class="st4" width="29.7" height="24.9"/>
	<rect id="XMLID_746_" x="1095.2" y="247.5" class="st4" width="29.4" height="24.6"/>
	<rect id="XMLID_745_" x="1144" y="247.4" class="st4" width="56.3" height="24.9"/>
	<rect id="XMLID_744_" x="1144.1" y="247.5" class="st4" width="56" height="24.6"/>
	<rect id="XMLID_743_" x="1144" y="291.5" class="st4" width="56.3" height="24.9"/>
	<rect id="XMLID_742_" x="1144.1" y="291.7" class="st4" width="56" height="24.6"/>
	<rect id="XMLID_741_" x="1095" y="291.5" class="st4" width="29.7" height="24.9"/>
	<rect id="XMLID_740_" x="1095.2" y="291.7" class="st4" width="29.4" height="24.6"/>
	<path class="st3" d="M1144.1,247.5h-2.7v27.3h58.7v-2.7h-56V247.5z M1144.1,247.5"/>
	<path class="st3" d="M1124.6,272.1h-29.4v2.7h5.4c1,0,1.8,0.8,1.8,1.8h3.6c0-1,0.8-1.8,1.8-1.8h19.5v-27.3h-2.7V272.1z
		 M1124.6,272.1"/>
	<path class="st3" d="M1124.6,316.3h2.7v-27.3h-32.1v2.7h29.4V316.3z M1124.6,316.3"/>
	<path class="st3" d="M1144.1,291.7h56v-2.7h-58.7v27.3h2.7V291.7z M1144.1,291.7"/>
	<path class="st10" d="M1130.8,316.4v-29.3c0-0.9-0.7-1.7-1.7-1.7H1095v-7.2h5.6c0.9,0,1.7-0.7,1.7-1.7v-0.1h3.9v0.1
		c0,0.9,0.7,1.7,1.7,1.7h21.3c0.9,0,1.7-0.7,1.7-1.7v-29.3h7.2v29.3c0,0.9,0.7,1.7,1.7,1.7h60.7v7.2h-60.7c-0.9,0-1.7,0.7-1.7,1.7
		v29.3H1130.8z M1130.8,316.4"/>
	<g>
		<defs>
			<rect id="XMLID_721_" x="1091.6" y="243.8" width="112.2" height="76.2"/>
		</defs>
		<clipPath id="XMLID_982_">
			<use xlink:href="#XMLID_721_"  style="overflow:visible;"/>
		</clipPath>
		<path class="st15" d="M1100.6,278.5h-5.4v6.9h33.9c1,0,1.8,0.8,1.8,1.8v29.1h6.9v-29.1c0-1,0.8-1.8,1.8-1.8h60.5v-6.9h-60.5
			c-1,0-1.8-0.8-1.8-1.8v-29.1h-6.9v29.1c0,1-0.8,1.8-1.8,1.8h-21.3c-1,0-1.8-0.8-1.8-1.8h-3.6
			C1102.4,277.6,1101.6,278.5,1100.6,278.5L1100.6,278.5z M1100.6,278.5"/>
		<path class="st16" d="M1201.9,243.9h-108.6c-1,0-1.8,0.8-1.8,1.8v72.4c0,1,0.8,1.8,1.8,1.8h108.6c1,0,1.8-0.8,1.8-1.8v-72.4
			C1203.7,244.7,1202.9,243.9,1201.9,243.9L1201.9,243.9z M1127.3,274.8h-19.5c-1,0-1.8,0.8-1.8,1.8c0,1,0.8,1.8,1.8,1.8h21.3
			c1,0,1.8-0.8,1.8-1.8v-29.1h6.9v29.1c0,1,0.8,1.8,1.8,1.8h60.5v6.9h-60.5c-1,0-1.8,0.8-1.8,1.8v29.1h-6.9v-29.1
			c0-1-0.8-1.8-1.8-1.8h-33.9v-6.9h5.4c1,0,1.8-0.8,1.8-1.8c0-1-0.8-1.8-1.8-1.8h-5.4v-27.3h32.1V274.8z M1200.1,272.1v2.7h-58.7
			v-27.3h58.7V272.1z M1095.2,291.7v-2.7h32.1v27.3h-32.1V291.7z M1141.4,288.9h58.7v27.3h-58.7V288.9z M1141.4,288.9"/>
	</g>
</g>
<g id="XMLID_301_">
	<path class="st3" d="M72.4,443.9v-12.7H39.8V500h32.6v-48.9c0-1,0.8-1.8,1.8-1.8v-3.6C73.2,445.7,72.4,444.9,72.4,443.9L72.4,443.9
		z M72.4,443.9"/>
	<rect id="XMLID_759_" x="3.5" y="431.1" class="st17" width="32.9" height="69"/>
	<rect id="XMLID_758_" x="3.6" y="431.2" class="st17" width="32.6" height="68.8"/>
	<path class="st4" d="M75.9,500.1v-49c0-0.9-0.7-1.7-1.7-1.7H74v-3.9h0.1c0.9,0,1.7-0.7,1.7-1.7v-12.8h32.8v69H75.9z M75.9,500.1"/>
	<g>
		<defs>
			<rect id="XMLID_749_" x="0" y="427.5" width="112.2" height="76.2"/>
		</defs>
		<clipPath id="XMLID_983_">
			<use xlink:href="#XMLID_749_"  style="overflow:visible;"/>
		</clipPath>
		<path class="st18" d="M76,443.9c0,1-0.8,1.8-1.8,1.8v3.6c1,0,1.8,0.8,1.8,1.8V500h32.6v-68.8H76V443.9z M76,443.9"/>
		<path class="st19" d="M110.4,427.6H1.8c-1,0-1.8,0.8-1.8,1.8v72.4c0,1,0.8,1.8,1.8,1.8h108.6c1,0,1.8-0.8,1.8-1.8v-72.4
			C112.2,428.4,111.4,427.6,110.4,427.6L110.4,427.6z M108.6,500H76v-48.9c0-1-0.8-1.8-1.8-1.8c-1,0-1.8,0.8-1.8,1.8V500H39.8v-68.8
			h32.6v12.7c0,1,0.8,1.8,1.8,1.8c1,0,1.8-0.8,1.8-1.8v-12.7h32.6V500z M3.6,431.2h32.6V500H3.6V431.2z M3.6,431.2"/>
	</g>
</g>
<g id="XMLID_302_">
	<path class="st4" d="M90.3,260.3v-0.1c0-0.9-0.7-1.7-1.7-1.7h-85v-20.8h105.1v20.8H95.8c-0.9,0-1.7,0.7-1.7,1.7v0.1H90.3z
		 M90.3,260.3"/>
	<path class="st4" d="M95.8,258.3h12.6v-20.5H3.7v20.5h84.9c1,0,1.8,0.8,1.8,1.8H94C94,259.1,94.8,258.3,95.8,258.3L95.8,258.3z
		 M95.8,258.3"/>
	<path class="st7" d="M3.6,282.6v-20.8h85c0.9,0,1.7-0.7,1.7-1.7V260h3.9v0.1c0,0.9,0.7,1.7,1.7,1.7h12.8v20.8H3.6z M3.6,282.6"/>
	<path class="st7" d="M95.8,261.9c-1,0-1.8-0.8-1.8-1.8h-3.6c0,1-0.8,1.8-1.8,1.8H3.7v20.5h104.8v-20.5H95.8z M95.8,261.9"/>
	<rect id="XMLID_769_" x="3.6" y="213.6" class="st20" width="105.1" height="20.8"/>
	<g>
		<defs>
			<rect id="XMLID_763_" x="0.1" y="210.1" width="112" height="76.1"/>
		</defs>
		<clipPath id="XMLID_984_">
			<use xlink:href="#XMLID_763_"  style="overflow:visible;"/>
		</clipPath>
		<rect id="XMLID_768_" x="3.7" y="213.8" class="st21" width="104.8" height="20.5"/>
		<path class="st22" d="M110.3,210.2H1.9c-1,0-1.8,0.8-1.8,1.8v72.3c0,1,0.8,1.8,1.8,1.8h108.4c1,0,1.8-0.8,1.8-1.8V212
			C112.1,211,111.3,210.2,110.3,210.2L110.3,210.2z M108.5,213.8v20.5H3.7v-20.5H108.5z M3.7,282.4v-20.5h84.9c1,0,1.8-0.8,1.8-1.8
			c0-1-0.8-1.8-1.8-1.8H3.7v-20.5h104.8v20.5H95.8c-1,0-1.8,0.8-1.8,1.8c0,1,0.8,1.8,1.8,1.8h12.6v20.5H3.7z M3.7,282.4"/>
	</g>
</g>
<g id="XMLID_303_">
	<path class="st3" d="M72.4,371.2v-12.7H39.8v68.8h32.6v-48.9c0-1,0.8-1.8,1.8-1.8V373C73.2,373,72.4,372.2,72.4,371.2L72.4,371.2z
		 M72.4,371.2"/>
	<rect id="XMLID_789_" x="3.5" y="358.4" class="st10" width="32.9" height="69"/>
	<rect id="XMLID_788_" x="3.6" y="358.5" class="st10" width="32.6" height="68.8"/>
	<path class="st4" d="M75.9,427.4v-49c0-0.9-0.7-1.7-1.7-1.7H74v-3.9h0.1c0.9,0,1.7-0.7,1.7-1.7v-12.8h32.8v69H75.9z M75.9,427.4"/>
	<g>
		<defs>
			<rect id="XMLID_779_" x="0" y="354.8" width="112.2" height="76.2"/>
		</defs>
		<clipPath id="XMLID_985_">
			<use xlink:href="#XMLID_779_"  style="overflow:visible;"/>
		</clipPath>
		<path class="st23" d="M76,371.2c0,1-0.8,1.8-1.8,1.8v3.6c1,0,1.8,0.8,1.8,1.8v48.9h32.6v-68.8H76V371.2z M76,371.2"/>
		<path class="st24" d="M110.4,354.9H1.8c-1,0-1.8,0.8-1.8,1.8v72.4c0,1,0.8,1.8,1.8,1.8h108.6c1,0,1.8-0.8,1.8-1.8v-72.4
			C112.2,355.7,111.4,354.9,110.4,354.9L110.4,354.9z M108.6,427.3H76v-48.9c0-1-0.8-1.8-1.8-1.8c-1,0-1.8,0.8-1.8,1.8v48.9H39.8
			v-68.8h32.6v12.7c0,1,0.8,1.8,1.8,1.8c1,0,1.8-0.8,1.8-1.8v-12.7h32.6V427.3z M3.6,358.5h32.6v68.8H3.6V358.5z M3.6,358.5"/>
	</g>
</g>
<g id="XMLID_304_">
	<path d="M350.7,394.6h92.7v-36.4h-92.7V394.6L350.7,394.6z M445.1,397.9h-96c-1,0-1.7-0.7-1.7-1.7v-39.7c0-1,0.7-1.7,1.7-1.7h96
		c1,0,1.7,0.7,1.7,1.7v39.7C446.8,397.3,446.1,397.9,445.1,397.9L445.1,397.9z"/>
	<path d="M357.4,394.6h6.6v-23.2h-6.6V394.6L357.4,394.6z M365.6,397.9h-9.9c-1,0-1.7-0.7-1.7-1.7v-26.5c0-1,0.7-1.7,1.7-1.7h9.9
		c1,0,1.7,0.7,1.7,1.7v26.5C367.3,397.3,366.6,397.9,365.6,397.9L365.6,397.9z"/>
	<path d="M387.2,394.6h6.6v-29.8h-6.6V394.6L387.2,394.6z M395.4,397.9h-9.9c-1,0-1.7-0.7-1.7-1.7v-33.1c0-1,0.7-1.7,1.7-1.7h9.9
		c1,0,1.7,0.7,1.7,1.7v33.1C397.1,397.3,396.4,397.9,395.4,397.9L395.4,397.9z"/>
	<path d="M367.3,394.6h6.6v-19.9h-6.6V394.6L367.3,394.6z M375.6,397.9h-9.9c-1,0-1.7-0.7-1.7-1.7v-23.2c0-1,0.7-1.7,1.7-1.7h9.9
		c1,0,1.7,0.7,1.7,1.7v23.2C377.2,397.3,376.6,397.9,375.6,397.9L375.6,397.9z"/>
	<path d="M377.2,394.6h6.6v-23.2h-6.6V394.6L377.2,394.6z M385.5,397.9h-9.9c-1,0-1.7-0.7-1.7-1.7v-26.5c0-1,0.7-1.7,1.7-1.7h9.9
		c1,0,1.7,0.7,1.7,1.7v26.5C387.2,397.3,386.5,397.9,385.5,397.9L385.5,397.9z"/>
	<path d="M350.7,434.3h92.7v-36.4h-92.7V434.3L350.7,434.3z M445.1,437.7h-96c-1,0-1.7-0.7-1.7-1.7v-39.7c0-1,0.7-1.7,1.7-1.7h96
		c1,0,1.7,0.7,1.7,1.7V436C446.8,437,446.1,437.7,445.1,437.7L445.1,437.7z"/>
	<path d="M350.7,450.9h36.4v-13.2h-36.4V450.9L350.7,450.9z M388.8,454.2h-39.7c-1,0-1.7-0.7-1.7-1.7V436c0-1,0.7-1.7,1.7-1.7h39.7
		c1,0,1.7,0.7,1.7,1.7v16.6C390.5,453.6,389.8,454.2,388.8,454.2L388.8,454.2z"/>
	<path d="M407,450.9h36.4v-13.2H407V450.9L407,450.9z M445.1,454.2h-39.7c-1,0-1.7-0.7-1.7-1.7V436c0-1,0.7-1.7,1.7-1.7h39.7
		c1,0,1.7,0.7,1.7,1.7v16.6C446.8,453.6,446.1,454.2,445.1,454.2L445.1,454.2z"/>
	<path id="XMLID_824_" d="M370.6,444.3c0,1-0.7,1.7-1.7,1.7s-1.7-0.7-1.7-1.7s0.7-1.7,1.7-1.7S370.6,443.5,370.6,444.3"/>
	<path id="XMLID_823_" d="M426.9,444.3c0,1-0.7,1.7-1.7,1.7s-1.7-0.7-1.7-1.7s0.7-1.7,1.7-1.7S426.9,443.5,426.9,444.3"/>
	<path d="M390.5,450.9h13.2v-13.2h-13.2V450.9L390.5,450.9z M405.4,454.2h-16.6c-1,0-1.7-0.7-1.7-1.7V436c0-1,0.7-1.7,1.7-1.7h16.6
		c1,0,1.7,0.7,1.7,1.7v16.6C407,453.6,406.4,454.2,405.4,454.2L405.4,454.2z"/>
	<path d="M357.4,374.7h6.6v-3.3h-6.6V374.7L357.4,374.7z M365.6,378.1h-9.9c-1,0-1.7-0.7-1.7-1.7v-6.6c0-1,0.7-1.7,1.7-1.7h9.9
		c1,0,1.7,0.7,1.7,1.7v6.6C367.3,377.4,366.6,378.1,365.6,378.1L365.6,378.1z"/>
	<path d="M367.3,378.1h6.6v-3.3h-6.6V378.1L367.3,378.1z M375.6,381.4h-9.9c-1,0-1.7-0.7-1.7-1.7v-6.6c0-1,0.7-1.7,1.7-1.7h9.9
		c1,0,1.7,0.7,1.7,1.7v6.6C377.2,380.7,376.6,381.4,375.6,381.4L375.6,381.4z"/>
	<path d="M377.2,374.7h6.6v-3.3h-6.6V374.7L377.2,374.7z M385.5,378.1h-9.9c-1,0-1.7-0.7-1.7-1.7v-6.6c0-1,0.7-1.7,1.7-1.7h9.9
		c1,0,1.7,0.7,1.7,1.7v6.6C387.2,377.4,386.5,378.1,385.5,378.1L385.5,378.1z"/>
	<path d="M387.2,368.1h6.6v-3.3h-6.6V368.1L387.2,368.1z M395.4,371.4h-9.9c-1,0-1.7-0.7-1.7-1.7v-6.6c0-1,0.7-1.7,1.7-1.7h9.9
		c1,0,1.7,0.7,1.7,1.7v6.6C397.1,370.8,396.4,371.4,395.4,371.4L395.4,371.4z"/>
	<path d="M400.6,373.2l10.6,20.9l5.5-2.8l-9.9-20.9L400.6,373.2L400.6,373.2z M410.3,397.9c-0.7,0-1.2-0.3-1.5-0.8l-12.1-23.8
		c-0.2-0.3-0.2-0.8-0.2-1.3c0.2-0.5,0.5-0.8,0.8-1l8.9-4.3c0.3-0.2,0.8-0.2,1.3,0c0.5,0.2,0.8,0.5,1,0.8l11.4,23.8
		c0.3,0.8,0,1.8-0.8,2.2l-8.3,4.1C410.8,397.9,410.7,397.9,410.3,397.9L410.3,397.9z"/>
	<path d="M397.6,367.3l1.5,3l6-2.8l-1.5-3L397.6,367.3L397.6,367.3z M398.3,374.1c-0.7,0-1.2-0.3-1.5-1l-2.8-6
		c-0.3-0.8,0-1.8,0.8-2.2l8.9-4.3c0.3-0.2,0.8-0.2,1.3,0c0.3,0.2,0.7,0.3,0.8,0.8l2.8,6c0.3,0.8,0,1.8-0.8,2.2l-8.9,4.3
		C398.7,374.1,398.6,374.1,398.3,374.1L398.3,374.1z"/>
	<path d="M360.7,434.3h9.9v-26.5h-9.9V434.3L360.7,434.3z M372.3,437.7H359c-1,0-1.7-0.7-1.7-1.7v-29.8c0-1,0.7-1.7,1.7-1.7h13.2
		c1,0,1.7,0.7,1.7,1.7V436C373.9,437,373.3,437.7,372.3,437.7L372.3,437.7z"/>
	<path d="M360.7,411.2h9.9v-3.3h-9.9V411.2L360.7,411.2z M372.3,414.5H359c-1,0-1.7-0.7-1.7-1.7v-6.6c0-1,0.7-1.7,1.7-1.7h13.2
		c1,0,1.7,0.7,1.7,1.7v6.6C373.9,413.8,373.3,414.5,372.3,414.5L372.3,414.5z"/>
	<path d="M373.9,434.3h9.9v-29.8h-9.9V434.3L373.9,434.3z M385.5,437.7h-13.2c-1,0-1.7-0.7-1.7-1.7v-33.1c0-1,0.7-1.7,1.7-1.7h13.2
		c1,0,1.7,0.7,1.7,1.7V436C387.2,437,386.5,437.7,385.5,437.7L385.5,437.7z"/>
	<path d="M373.9,407.9h9.9v-3.3h-9.9V407.9L373.9,407.9z M385.5,411.2h-13.2c-1,0-1.7-0.7-1.7-1.7v-6.6c0-1,0.7-1.7,1.7-1.7h13.2
		c1,0,1.7,0.7,1.7,1.7v6.6C387.2,410.5,386.5,411.2,385.5,411.2L385.5,411.2z"/>
	<path id="XMLID_800_" d="M365.6,431c-1,0-1.7-0.7-1.7-1.7v-9.9c0-1,0.7-1.7,1.7-1.7c1,0,1.7,0.7,1.7,1.7v9.9
		C367.3,430.4,366.6,431,365.6,431L365.6,431z"/>
	<path id="XMLID_799_" d="M378.9,431c-1,0-1.7-0.7-1.7-1.7v-13.2c0-1,0.7-1.7,1.7-1.7s1.7,0.7,1.7,1.7v13.2
		C380.5,430.4,379.9,431,378.9,431L378.9,431z"/>
	<path d="M396.4,434.3h32.1c1.8,0,3.3-1.5,3.3-3.3c0-1.8-1.5-3.3-3.3-3.3h-32.1C397.1,429.9,397.1,432.2,396.4,434.3L396.4,434.3z
		 M428.5,437.7h-34.8c-0.7,0-1.2-0.3-1.5-0.8c-0.3-0.5-0.3-1.2,0-1.7c1.7-2.5,1.7-5.6,0-8.1c-0.3-0.5-0.3-1.2,0-1.7
		c0.3-0.5,0.8-0.8,1.5-0.8h34.8c3.6,0,6.6,3,6.6,6.6C435.2,434.8,432.2,437.7,428.5,437.7L428.5,437.7z"/>
	<path d="M401.4,424.4h32.1c1.8,0,3.3-1.5,3.3-3.3c0-1.8-1.5-3.3-3.3-3.3h-32.1C402.1,419.9,402.1,422.3,401.4,424.4L401.4,424.4z
		 M433.5,427.7h-34.8c-0.7,0-1.2-0.3-1.5-0.8c-0.3-0.5-0.3-1.2,0-1.7c1.7-2.5,1.7-5.6,0-8.1c-0.3-0.5-0.3-1.2,0-1.7
		c0.3-0.5,0.8-0.8,1.5-0.8h34.8c3.6,0,6.6,3,6.6,6.6C440.1,424.9,437.2,427.7,433.5,427.7L433.5,427.7z"/>
	<path d="M396.4,414.5h32.1c1.8,0,3.3-1.5,3.3-3.3c0-1.8-1.5-3.3-3.3-3.3h-32.1C397.1,410,397.1,412.3,396.4,414.5L396.4,414.5z
		 M428.5,417.8h-34.8c-0.7,0-1.2-0.3-1.5-0.8c-0.3-0.5-0.3-1.2,0-1.7c1.7-2.5,1.7-5.6,0-8.1c-0.3-0.5-0.3-1.2,0-1.7
		c0.3-0.5,0.8-0.8,1.5-0.8h34.8c3.6,0,6.6,3,6.6,6.6C435.2,415,432.2,417.8,428.5,417.8L428.5,417.8z"/>
</g>
<g id="XMLID_305_">
	<g>
		<defs>
			<polygon id="XMLID_854_" points="338.6,52.8 507.1,52.8 507.1,221.3 338.6,221.3 338.6,52.8 			"/>
		</defs>
		<defs>
			<rect id="XMLID_853_" x="338.6" y="52.7" width="168.5" height="168.5"/>
		</defs>
		<clipPath id="XMLID_986_">
			<use xlink:href="#XMLID_854_"  style="overflow:visible;"/>
		</clipPath>
		<clipPath id="XMLID_987_" class="st25">
			<use xlink:href="#XMLID_853_"  style="overflow:visible;"/>
		</clipPath>
		<path class="st26" d="M384.2,64.4c-0.6,0-1.2-0.3-1.6-0.8c-0.4-0.5-0.5-1.1-0.4-1.8c0.2-0.9,1.1-1.5,2.1-1.5h15
			c1,0,1.8,0.7,2.1,1.5c0.2,0.6,0,1.3-0.4,1.8c-0.4,0.5-1,0.8-1.6,0.8H384.2L384.2,64.4z M436.1,81.5c-0.6,0-1.2-0.3-1.6-0.8
			c-0.4-0.5-0.5-1.1-0.4-1.8c0.2-0.9,1.1-1.5,2.1-1.5h21.3c1,0,1.8,0.6,2.1,1.5c0.2,0.6,0,1.3-0.4,1.8c-0.4,0.5-1,0.8-1.6,0.8H436.1
			L436.1,81.5z M436.1,97.1c-0.6,0-1.2-0.3-1.6-0.8c-0.4-0.5-0.5-1.1-0.4-1.8c0.2-0.9,1.1-1.5,2.1-1.5H467c1,0,1.8,0.7,2.1,1.5
			c0.2,0.6,0,1.3-0.4,1.8c-0.4,0.5-1,0.8-1.6,0.8H436.1L436.1,97.1z M384.5,113.2c0.1,0.7,0.4,1.5,0.6,2.2c2.3,5.9,7.9,9.8,14.4,9.8
			h1.6l0.8-0.1l-0.6-2.4c-2.3-5.7-8.2-9.8-14.5-9.8C385.6,113,384.9,113.1,384.5,113.2L384.5,113.2z M380.4,114.5
			c-0.7,0.3-1.4,0.6-2.1,1c-4.3,2.9-6.9,7.7-6.9,12.8c0,8.5,6.9,15.4,15.4,15.4c7.3,0,13.6-5.2,15.1-12.3c0.2-0.8,0.3-1.6,0.4-2.4
			l-0.4,0.1c-0.2,0-0.5,0.1-0.7,0.1c-0.3,0-0.7,0.1-1,0.1c-0.3,0-0.5,0-0.7,0c-8.3,0-15.7-5.2-18.4-12.9L380.4,114.5L380.4,114.5z
			 M386.7,147.9c-9.4-0.1-17.4-6.9-19.1-16.1c-1.7-9.8,4.2-19.3,13.8-22.1l0.1,0c1.7-0.5,3.5-0.7,5.3-0.7c9.8,0,18,7,19.3,16.7
			c0.1,0.9,0.2,1.9,0.2,2.8c0,10.8-8.8,19.5-19.5,19.5L386.7,147.9L386.7,147.9z M343.7,167.4c-0.2,0-0.3,0-0.5-0.1
			c-0.9-0.2-1.5-1.1-1.5-2.1V80c0-1.1,0.9-2.1,2.1-2.1h56.1c1,0,1.8,0.6,2.1,1.5c0.2,0.6,0,1.3-0.4,1.8c-0.4,0.5-1,0.8-1.6,0.8
			h-54.2v83.3C345.8,166.5,344.9,167.4,343.7,167.4L343.7,167.4z M428.2,64.4c-5.1,0-9.2,4.1-9.2,9.2v43.5l2.7-1.7l9.1-5.1
			c0.3-0.2,0.7-0.3,1-0.3h46.9c5.1,0,9.2-4.1,9.2-9.2V73.7c0-5.1-4.1-9.2-9.2-9.2H428.2L428.2,64.4z M446.2,201.3
			c-0.6,0-1.2-0.3-1.6-0.8c-0.4-0.5-0.5-1.1-0.4-1.8c0.2-0.9,1.1-1.5,2.1-1.5H503V82h-11v18.8c0,7.4-6,13.3-13.3,13.3h-45.8l-0.2,0
			l-0.5,0.1l-0.2,0.1l-13.9,7.8c-0.3,0.2-0.7,0.3-1,0.3c-0.4,0-0.7-0.1-1-0.3c-0.6-0.4-1-1.1-1-1.8V73.7c0-7.4,6-13.3,13.3-13.3
			h50.4c7.4,0,13.3,6,13.3,13.3v4.2H505c1.1,0,2.1,0.9,2.1,2.1v119.3c0,1.1-0.9,2.1-2.1,2.1H446.2L446.2,201.3z M385.2,171.8l1.4,2
			l1.5-2l4.5-6.2l2-2.9h-16.1L385.2,171.8L385.2,171.8z M340.7,213.7c-0.3,0-0.5,0-0.8-0.2c-0.5-0.2-0.9-0.6-1.1-1.1
			c-0.2-0.5-0.2-1.1,0-1.6l10.7-26.3c4.5-11.1,12.6-25.9,30.4-25.9H394c17.8,0,25.8,14.8,30.4,25.9l1.4,3.4l1,2.4l2-1.7l28.7-26.5
			c0.4-0.4,0.9-0.5,1.4-0.5c0.6,0,1.1,0.2,1.5,0.7c0.4,0.4,0.6,0.9,0.5,1.5c0,0.6-0.3,1.1-0.7,1.4l-32.8,30.3
			c-0.4,0.4-0.9,0.5-1.4,0.5c-0.2,0-0.3,0-0.4,0c-0.7-0.1-1.2-0.6-1.5-1.2l-3.5-8.6c-5.4-13.2-11.5-20.1-19.8-22.5l-1-0.3l-0.3-0.1
			l-0.7,1l-10.4,14.2c-0.4,0.5-1,0.8-1.7,0.8c-0.7,0-1.3-0.3-1.7-0.8l-11-15.1l-1.4,0.3c-8.1,2.4-14.2,9.3-19.4,22.4l-10.7,26.3
			c-0.3,0.6-0.7,1.1-1.3,1.3C341.1,213.7,340.9,213.7,340.7,213.7L340.7,213.7z"/>
	</g>
</g>
<line id="XMLID_274_" class="st1" x1="685.1" y1="318" x2="1203.1" y2="318"/>
<line id="XMLID_275_" class="st1" x1="2.1" y1="212" x2="711.1" y2="212"/>
<path id="XMLID_329_" d="M861.5,492.2c-0.8,0-1.5-0.5-1.8-1.2l-9-22.4c-4.9-12-10.6-18-18.5-19.5l-1.6-0.3l-2.3,10.8l2.6,23.6
	c0.1,0.7-0.2,1.3-0.7,1.7l-5.8,4.6c-0.3,0.3-0.8,0.4-1.2,0.4h-2.1c-0.4,0-0.9-0.1-1.2-0.4l-5.8-4.6c-0.5-0.4-0.8-1-0.7-1.7l2.6-23.6
	l-2.3-10.8l-1.6,0.3c-7.9,1.4-13.7,7.5-18.5,19.5l-9.1,22.4c-0.3,0.7-1,1.2-1.8,1.2c-0.2,0-0.5,0-0.7-0.1c-0.5-0.2-0.8-0.6-1-1
	c-0.2-0.5-0.2-1,0-1.5l9.1-22.4c3.7-9.2,10.4-21.6,24.9-22.2l0.1,0l0.1,0c0.1,0,0.1,0,0.2,0h13.6c0.1,0,0.2,0,0.2,0l0.1,0l0.1,0
	c14.5,0.6,21.1,12.9,24.9,22.2l9,22.5c0.2,0.5,0.2,1,0,1.5c-0.2,0.5-0.6,0.8-1,1C862,492.1,861.8,492.2,861.5,492.2z M817.5,482.5
	l4.8,3.9l4.8-3.9l-2.4-21.2h-4.9L817.5,482.5z M819.7,457.6h5.2l1.9-8.9h-8.9L819.7,457.6z M714,492.2c-0.2,0-0.5,0-0.7-0.1
	c-0.5-0.2-0.8-0.6-1-1c-0.2-0.5-0.2-1,0-1.5l9-22.1c3.8-9.4,10.6-21.9,25.7-21.9h11.9c8.1,0,14.7,3.6,19.8,10.7
	c0.1,0.1,0.5,0.7,1,1.4c1.5,2.1,2.1,2.9,2.3,3.1c0.3,0.4,0.4,0.9,0.3,1.4c-0.1,0.5-0.4,0.9-0.8,1.2c-0.3,0.2-0.7,0.3-1,0.3
	c-0.6,0-1.2-0.3-1.6-0.8c-0.2-0.3-1.1-1.5-2-2.8l-0.2-0.2c-0.5-0.7-1-1.3-1-1.4c-2.7-3.8-5.7-6.3-9.2-7.8l-1.2-0.5l-10.6,14.6
	c-0.4,0.5-0.9,0.8-1.5,0.8s-1.2-0.3-1.5-0.8l-10.6-14.6l-1.2,0.5c-6,2.4-10.6,8.2-14.7,18.1l-9,22.1
	C715.4,491.7,714.8,492.2,714,492.2z M752.8,460.4l8.1-11.1h-16.1L752.8,460.4z M729,492.2c-1.1,0-1.9-0.9-1.9-1.9
	c0-1.1,0.9-1.9,1.9-1.9h38.2c1.1,0,1.9,0.9,1.9,1.9c0,1.1-0.9,1.9-1.9,1.9H729z M838.6,466c-1.1,0-1.9-0.9-1.9-1.9v-0.4
	c0-1.1,0.9-1.9,1.9-1.9c1.1,0,1.9,0.9,1.9,1.9v0.4C840.6,465.1,839.7,466,838.6,466z M752.8,436.9c-9.1,0-16.6-7.4-16.6-16.6
	c0-7.3,4.9-13.8,11.9-15.9l0.1,0c1.1-0.3,2.2-0.5,3.4-0.6h0.1l0,0h0.1l0.1,0c0,0,0.1,0,0.1,0h0.1l0,0h0.1l0,0h0.1l0,0
	c0.1,0,0.3,0,0.4,0l0.3,0c8,0.1,14.8,5.9,16.1,13.8c0.2,0.9,0.2,1.8,0.2,2.8c0,4.4-1.7,8.6-4.9,11.7
	C761.3,435.2,757.2,436.9,752.8,436.9z M745.3,410c-3.3,2.4-5.3,6.3-5.3,10.3c0,7,5.7,12.7,12.7,12.7c5.8,0,10.9-4,12.4-9.6l0.5-2.1
	l-2.3,0c-7,0-13-4.1-15.5-10.6l-0.8-2L745.3,410z M751.7,410c2,4.4,6.2,7.3,11.1,7.5l2.7,0.1l-1.1-2.5c-2-4.4-6.2-7.3-11.1-7.5
	l-2.7-0.1L751.7,410z M822.3,436.1c-9.2,0-16.8-7.5-16.8-16.8s7.5-16.8,16.8-16.8c1.1,0,2.2,0.1,3.2,0.3c0,0,0.1,0,0.2,0
	c7.8,1.6,13.4,8.5,13.4,16.4C839.1,428.5,831.5,436.1,822.3,436.1z M815,408.6c-3.5,2.4-5.6,6.4-5.6,10.7c0,7.1,5.8,13,13,13
	s13-5.8,13-13c0-5.2-3.1-9.8-7.8-11.9l-1.2-0.5l-0.8,1c-1.4,1.8-3.1,3.2-5.1,4.3c-0.3,0.2-0.6,0.2-0.9,0.2c-0.7,0-1.3-0.4-1.7-1
	c-0.3-0.5-0.3-0.9-0.2-1.2l0.7-3.9L815,408.6z M737.1,398.5c-0.3,0-0.7-0.1-1-0.3c-0.6-0.3-0.9-1-0.9-1.6v-32.4
	c0-5.4,4.4-9.7,9.7-9.7h12.8c1.1,0,1.9,0.9,1.9,1.9c0,1.1-0.9,1.9-1.9,1.9H745c-3.3,0-5.9,2.7-5.9,5.9v29.1l7.5-4.2
	c0.3-0.2,0.6-0.2,0.9-0.2h31.2c1.1,0,1.9,0.9,1.9,1.9c0,1.1-0.9,1.9-1.9,1.9h-30.7l-9.9,5.5C737.8,398.4,737.5,398.5,737.1,398.5z
	 M822.3,391c-0.5,0-1.1-0.2-1.4-0.6l-11.6-12.7h-29.8c-5.4,0-9.7-4.4-9.7-9.7v-18.8c0-5.4,4.4-9.7,9.7-9.7h35c5.4,0,9.7,4.4,9.7,9.7
	v39.9c0,0.8-0.5,1.5-1.2,1.8C822.8,391,822.6,391,822.3,391z M779.5,343.3c-3.3,0-5.9,2.7-5.9,5.9V368c0,3.3,2.7,5.9,5.9,5.9h30.7
	c0.5,0,1,0.2,1.4,0.6l8.8,9.7v-35c0-3.3-2.7-5.9-5.9-5.9H779.5z M750.5,371.9c-1.1,0-1.9-0.9-1.9-1.9c0-1.1,0.9-1.9,1.9-1.9h6.5
	c1.1,0,1.9,0.9,1.9,1.9c0,1.1-0.9,1.9-1.9,1.9H750.5z M793.4,357.1c-1.1,0-1.9-0.9-1.9-1.9c0-1.1,0.9-1.9,1.9-1.9h14.8
	c1.1,0,1.9,0.9,1.9,1.9c0,1.1-0.9,1.9-1.9,1.9H793.4z"/>
<g id="XMLID_333_">
	<path id="XMLID_358_" d="M499.5,406.9c-1,0-1.8-0.8-1.8-1.8c0-1,0.8-1.8,1.8-1.8h0.4c1,0,1.8,0.8,1.8,1.8c0,1-0.8,1.8-1.8,1.8
		H499.5z"/>
	<path id="XMLID_357_" d="M513.7,367.8c-8.9,0-16.1-7.2-16.1-16.1v-96c0-8.9,7.2-16.1,16.1-16.1h135.1c8.9,0,16.1,7.2,16.1,16.1v96
		c0,5.7-3.1,11.1-8,13.9c-0.3,0.2-0.6,0.2-0.9,0.2c-0.7,0-1.3-0.4-1.6-0.9c-0.5-0.9-0.2-2,0.7-2.5c3.8-2.2,6.2-6.3,6.2-10.7v-96
		c0-6.8-5.6-12.4-12.4-12.4H513.7c-6.8,0-12.4,5.6-12.4,12.4v96c0,6.8,5.6,12.4,12.4,12.4h7.1c1,0,1.8,0.8,1.8,1.8
		c0,1-0.8,1.8-1.8,1.8H513.7z"/>
	<path id="XMLID_356_" d="M563.4,289.6c-1,0-1.8-0.8-1.8-1.8c0-1,0.8-1.8,1.8-1.8h0.4c1,0,1.8,0.8,1.8,1.8c0,1-0.8,1.8-1.8,1.8
		H563.4z"/>
	<path id="XMLID_355_" d="M641.8,353.6c-1,0-1.8-0.8-1.8-1.8c0-1,0.8-1.8,1.8-1.8c2.9,0,5.3-2.4,5.3-5.3v-81.8
		c0-2.9-2.4-5.3-5.3-5.3H520.9c-2.9,0-5.3,2.4-5.3,5.3v81.8c0,2.9,2.4,5.3,5.3,5.3h7.1c1,0,1.8,0.8,1.8,1.8c0,1-0.8,1.8-1.8,1.8
		h-7.1c-4.9,0-9-4-9-9v-81.8c0-4.9,4-9,9-9h120.9c4.9,0,9,4,9,9v81.8C650.7,349.6,646.7,353.6,641.8,353.6z"/>
	<path id="XMLID_350_" d="M574.4,289.6c-1,0-1.8-0.8-1.8-1.8c0-1,0.8-1.8,1.8-1.8h24.9c1,0,1.8,0.8,1.8,1.8c0,1-0.8,1.8-1.8,1.8
		H574.4z"/>
	<path id="XMLID_335_" d="M510.2,406.9c-1,0-1.8-0.8-1.8-1.8c0-1,0.8-1.8,1.8-1.8h15.9v-23.1c0-13.5,8.1-25.7,20.5-31.1l0.1,0
		c0.1,0,0.2-0.1,0.3-0.1l0.1,0c0.5-0.2,0.9-0.4,1.3-0.5l1.7-0.6l-1.5-0.9c-6.4-3.7-10.7-10.2-11.5-17.5l-0.1-0.7H528
		c-1,0-1.8-0.8-1.8-1.8v-7.1c0-8.9,7.2-16.1,16.1-16.1H560c12.8,0,23.2,10.4,23.2,23.2c0,8.2-4.5,15.9-11.6,20.1l-1.5,0.9l1.6,0.6
		c0.5,0.2,1,0.4,1.3,0.5l0,0c0,0,0,0,0.1,0c5,2.1,9.5,5.4,12.9,9.6l0.6,0.8l0.6-0.8c3.4-4.1,7.8-7.4,12.7-9.5l0.1,0
		c0.1,0,0.2-0.1,0.3-0.1l0.1,0c0.5-0.2,0.9-0.4,1.3-0.5l1.7-0.6l-1.5-0.9c-7.2-4.1-11.6-11.8-11.6-20.1c0-12.8,10.4-23.2,23.2-23.2
		c12.8,0,23.2,10.4,23.2,23.2c0,8.2-4.5,15.9-11.6,20.1l-1.5,0.9l1.7,0.6c0.4,0.1,0.8,0.3,1.3,0.5l0.1,0c0.1,0,0.2,0.1,0.3,0.1
		l0.1,0c12.5,5.4,20.5,17.6,20.5,31.1v23.1h5.3c0.5,0,1,0.2,1.3,0.5c0.3,0.3,0.5,0.8,0.5,1.3c0,1-0.8,1.8-1.8,1.8H510.2z
		 M598.5,353.9c-9.5,5.4-15.4,15.4-15.4,26.3v23.1h60.3v-23.1c0-10.9-5.9-20.9-15.4-26.3l-0.9-0.5l-0.3,1c-1.9,5.9-7.4,9.9-13.6,9.9
		c-6.2,0-11.7-4-13.6-9.9l-0.3-1L598.5,353.9z M545.2,353.9c-9.5,5.4-15.4,15.4-15.4,26.3v23.1h49.7v-23.1c0-6,1.6-12,4.7-17.2
		l0.3-0.5l-0.3-0.4c-2.5-3.4-5.7-6.1-9.4-8.2l-0.9-0.5l-0.3,1c-1.9,5.9-7.4,9.9-13.6,9.9c-6.2,0-11.7-4-13.6-9.9l-0.3-1L545.2,353.9
		z M613.3,350c-3.3,0-6.6,0.5-9.7,1.6l-0.7,0.2l0.2,0.7c1.2,4.7,5.4,7.9,10.3,7.9c4.8,0,9.1-3.3,10.3-7.9l0.2-0.7l-0.7-0.2
		C619.9,350.6,616.6,350,613.3,350z M560,350c-3.3,0-6.6,0.5-9.7,1.6l-0.7,0.2l0.2,0.7c1.2,4.7,5.4,7.9,10.3,7.9
		c4.8,0,9.1-3.3,10.3-7.9l0.2-0.7l-0.7-0.2C566.6,350.6,563.3,350,560,350z M620.3,329.2c-3,6.7-9,11.6-16.2,13.2l-2.1,0.5l1.9,1.1
		c2.9,1.6,6.1,2.5,9.4,2.5c9.6,0,17.9-7.2,19.3-16.7l0.1-0.9h-12.3L620.3,329.2z M566.9,329.2c-3,6.7-9,11.6-16.2,13.2l-2.1,0.5
		l1.9,1.1c2.9,1.6,6.1,2.5,9.4,2.5c9.6,0,17.9-7.2,19.3-16.7l0.1-0.9h-12.3L566.9,329.2z M613.3,307.4c-10.7,0-19.5,8.7-19.5,19.5
		c0,4.4,1.5,8.6,4.2,12.1l0.3,0.4l0.5-0.1c0.1,0,0.2,0,0.3,0c10.7,0,19.5-8.7,19.5-19.5c0-1,0.8-1.8,1.8-1.8c1,0,1.8,0.8,1.8,1.8
		c0,1.4-0.1,2.9-0.4,4.3l-0.2,1h11.1l-0.1-0.9C631.2,314.5,622.9,307.4,613.3,307.4z M540.7,329.6c0.5,3.4,1.9,6.6,4,9.3l0.3,0.4
		l0.5-0.1c0.1,0,0.2,0,0.3,0c10.7,0,19.5-8.7,19.5-19.5c0-1,0.8-1.8,1.8-1.8c1,0,1.8,0.8,1.8,1.8c0,1.4-0.1,2.9-0.4,4.3l-0.2,1h11.1
		l-0.1-0.9c-1.4-9.5-9.7-16.7-19.3-16.7h-1.7v5.3c0,8.9-7.2,16.1-16.1,16.1h-1.6L540.7,329.6z M542.2,307.4
		c-6.8,0-12.4,5.6-12.4,12.4v5.3h12.4c6.8,0,12.4-5.6,12.4-12.4v-5.3H542.2z"/>
	<path id="XMLID_334_" d="M551.1,275.3c-1,0-1.8-0.8-1.8-1.8c0-1,0.8-1.8,1.8-1.8h60.5c1,0,1.8,0.8,1.8,1.8c0,1-0.8,1.8-1.8,1.8
		H551.1z"/>
</g>
<line id="XMLID_328_" class="st1" x1="316.1" y1="304" x2="476.1" y2="304"/>
<g id="XMLID_494_">
	<path id="XMLID_495_" d="M22.9,193.1h-3.1v-17h10.8v2.6h-7.7v4.4h6.6v2.6h-6.6V193.1z"/>
	<path id="XMLID_497_" d="M45.9,181.2c0,1.2-0.3,2.2-1,3c-0.7,0.8-1.7,1.4-3,1.8v0.1l5.1,7h-3.7l-4.6-6.6h-2.1v6.6h-3.1v-17h5.2
		c0.9,0,1.7,0,2.4,0.1s1.4,0.2,1.9,0.4c1,0.4,1.8,0.9,2.3,1.7C45.6,179.1,45.9,180.1,45.9,181.2z M38,183.9c0.7,0,1.3,0,1.8-0.1
		c0.5-0.1,0.9-0.2,1.3-0.3c0.6-0.2,1.1-0.6,1.3-1c0.2-0.4,0.4-0.9,0.4-1.4c0-0.5-0.1-0.9-0.3-1.2c-0.2-0.4-0.5-0.6-1-0.8
		c-0.3-0.1-0.7-0.2-1.1-0.3c-0.4-0.1-1-0.1-1.7-0.1h-2.2v5.2H38z"/>
	<path id="XMLID_500_" d="M52.8,190.5h8.4v2.6H49.7v-17h11v2.6h-7.9v4.4h6.8v2.6h-6.8V190.5z"/>
	<path id="XMLID_502_" d="M73.2,188.5c0.4-1.3,0.8-2.8,1.4-4.3l2.9-8.1h4.4v17h-3.1v-8.6c0-1.3,0.1-2.7,0.2-4.4h-0.1
		c-0.1,0.5-0.3,1-0.5,1.6s-0.4,1.2-0.6,1.8l-3.5,9.6h-2l-3.5-9.6c-0.2-0.6-0.4-1.2-0.6-1.8s-0.4-1.1-0.5-1.6h-0.1
		c0.1,1.6,0.2,3,0.2,4.4v8.6h-3.1v-17h4.3l2.9,8.1C72.2,185.5,72.7,187,73.2,188.5L73.2,188.5z"/>
	<path id="XMLID_504_" d="M85.9,193.1v-17h4.5c0.4,0,0.8,0,1.2,0s0.8,0.1,1.2,0.1s0.8,0.1,1.1,0.2s0.7,0.2,1,0.3
		c0.9,0.3,1.7,0.7,2.4,1.2s1.3,1.1,1.7,1.7s0.8,1.4,1.1,2.2c0.2,0.8,0.4,1.7,0.4,2.7c0,0.9-0.1,1.8-0.3,2.6
		c-0.2,0.8-0.5,1.5-0.9,2.2s-0.9,1.2-1.6,1.7c-0.6,0.5-1.4,0.9-2.2,1.2c-0.7,0.3-1.5,0.5-2.5,0.6s-1.9,0.2-3.1,0.2H85.9z
		 M90.3,190.5c1.8,0,3.2-0.3,4.3-0.7c0.9-0.4,1.6-1.1,2.1-2s0.7-1.9,0.7-3.3c0-0.7-0.1-1.3-0.2-1.9s-0.4-1.1-0.7-1.5
		c-0.3-0.4-0.6-0.8-1-1.1s-0.9-0.6-1.4-0.8c-0.5-0.2-1-0.3-1.6-0.4s-1.3-0.1-2-0.1H89v11.8H90.3z"/>
	<path id="XMLID_507_" d="M112.2,188.2c0-0.4-0.1-0.8-0.3-1c-0.2-0.3-0.5-0.5-0.9-0.7s-0.8-0.3-1.2-0.4c-0.5-0.1-0.9-0.2-1.4-0.3
		c-0.7-0.1-1.3-0.3-1.9-0.5c-0.6-0.2-1.1-0.5-1.6-0.8c-0.5-0.4-0.8-0.8-1.1-1.3s-0.4-1.2-0.4-2c0-0.9,0.2-1.7,0.5-2.3
		c0.3-0.7,0.7-1.2,1.3-1.6s1.2-0.8,1.9-1s1.5-0.3,2.4-0.3s1.8,0.1,2.7,0.3s1.7,0.4,2.4,0.7v2.7c-0.9-0.3-1.7-0.6-2.5-0.8
		c-0.8-0.2-1.6-0.2-2.3-0.2c-1,0-1.8,0.2-2.4,0.6s-0.8,0.9-0.8,1.7c0,0.4,0.1,0.8,0.3,1.1s0.4,0.5,0.7,0.7c0.3,0.2,0.7,0.3,1.1,0.4
		s0.8,0.2,1.3,0.3c0.7,0.2,1.4,0.3,2.1,0.5c0.7,0.2,1.2,0.5,1.7,0.8s0.9,0.8,1.2,1.4c0.3,0.6,0.4,1.3,0.4,2.2c0,0.9-0.2,1.7-0.5,2.4
		s-0.8,1.2-1.4,1.7c-0.6,0.4-1.4,0.8-2.3,1s-1.9,0.3-2.9,0.3c-0.9,0-1.8-0.1-2.7-0.3c-0.9-0.2-1.6-0.4-2.2-0.8v-2.6
		c0.8,0.4,1.7,0.6,2.5,0.8c0.8,0.2,1.6,0.2,2.5,0.2c0.5,0,1,0,1.4-0.1c0.5-0.1,0.9-0.2,1.3-0.4s0.7-0.5,0.9-0.8
		C112.1,189.1,112.2,188.7,112.2,188.2z"/>
	<path id="XMLID_509_" d="M123.5,186.5c-0.3,0-0.6,0-0.8,0s-0.5,0-0.8-0.1v6.6h-3.1v-17h4.9c0.8,0,1.5,0,2.2,0.1s1.2,0.2,1.6,0.3
		c1.2,0.4,2.1,0.9,2.7,1.7c0.6,0.8,0.9,1.8,0.9,3c0,0.8-0.2,1.6-0.5,2.2c-0.3,0.7-0.8,1.2-1.5,1.7s-1.4,0.8-2.4,1.1
		S124.7,186.5,123.5,186.5z M121.9,183.8c0.2,0,0.4,0,0.7,0.1c0.3,0,0.6,0,0.9,0c0.8,0,1.5-0.1,2.1-0.2s1-0.3,1.4-0.6
		c0.3-0.2,0.6-0.5,0.7-0.9c0.2-0.3,0.2-0.7,0.2-1.1c0-0.5-0.1-0.9-0.3-1.3s-0.6-0.6-1.2-0.9c-0.3-0.1-0.7-0.2-1.1-0.2
		c-0.4,0-1-0.1-1.6-0.1h-1.8V183.8z"/>
	<path id="XMLID_512_" d="M147,181.2c0,1.2-0.3,2.2-1,3c-0.7,0.8-1.7,1.4-3,1.8v0.1l5.1,7h-3.7l-4.6-6.6h-2.1v6.6h-3.1v-17h5.2
		c0.9,0,1.7,0,2.4,0.1s1.4,0.2,1.9,0.4c1,0.4,1.8,0.9,2.3,1.7C146.7,179.1,147,180.1,147,181.2z M139.1,183.9c0.7,0,1.3,0,1.8-0.1
		c0.5-0.1,0.9-0.2,1.3-0.3c0.6-0.2,1.1-0.6,1.3-1c0.2-0.4,0.4-0.9,0.4-1.4c0-0.5-0.1-0.9-0.3-1.2c-0.2-0.4-0.5-0.6-1-0.8
		c-0.3-0.1-0.7-0.2-1.1-0.3c-0.4-0.1-1-0.1-1.7-0.1h-2.2v5.2H139.1z"/>
	<path id="XMLID_515_" d="M160.5,188.8h-6.4l-1.7,4.3h-3.3l6.7-17h2.8l6.7,17h-3.3L160.5,188.8z M157.3,180.2
		c-0.6,1.8-1.1,3.3-1.6,4.5l-0.6,1.5h4.4l-0.6-1.5C158.4,183.4,157.9,181.9,157.3,180.2L157.3,180.2z"/>
	<path id="XMLID_518_" d="M175.9,178.4c-0.8,0-1.6,0.1-2.3,0.4s-1.3,0.7-1.8,1.2s-0.9,1.2-1.2,2c-0.3,0.8-0.4,1.7-0.4,2.7
		c0,1,0.1,1.9,0.4,2.6c0.3,0.8,0.6,1.4,1.1,1.9s1.1,0.9,1.8,1.1c0.7,0.3,1.5,0.4,2.4,0.4c0.6,0,1.3-0.1,2-0.2s1.3-0.3,1.9-0.4v2.7
		c-0.6,0.2-1.2,0.3-1.9,0.4c-0.7,0.1-1.4,0.1-2.1,0.1c-1.4,0-2.7-0.2-3.8-0.6c-1.1-0.4-2-1-2.7-1.7c-0.7-0.8-1.3-1.6-1.7-2.7
		c-0.4-1-0.6-2.2-0.6-3.5c0-1.3,0.2-2.5,0.6-3.6s1-2.1,1.7-2.9s1.7-1.5,2.8-1.9s2.4-0.7,3.8-0.7c0.7,0,1.4,0,2,0.1s1.2,0.2,1.7,0.4
		v2.6c-0.7-0.2-1.3-0.4-1.9-0.4S176.4,178.4,175.9,178.4z"/>
	<path id="XMLID_520_" d="M185.9,183.1h7.9v-7h3.1v17h-3.1v-7.4h-7.9v7.4h-3.1v-17h3.1V183.1z"/>
	<path id="XMLID_522_" d="M204.1,190.5h8.4v2.6H201v-17h11v2.6h-7.9v4.4h6.8v2.6h-6.8V190.5z"/>
	<path id="XMLID_525_" d="M224.6,184c1.2,1.7,2.2,3.3,3,4.6h0.1c-0.1-2.2-0.2-3.8-0.2-4.8v-7.7h3.1v17h-3.3l-5.5-7.8
		c-1-1.4-2-2.9-3-4.7h-0.1c0.1,2.1,0.2,3.7,0.2,4.8v7.7h-3.1v-17h3.3L224.6,184z"/>
</g>
<path id="XMLID_362_" d="M112.7,140.7c-19.8,0-38.7-9.6-50.5-25.6l-0.1-0.1l-0.1-0.1c-0.1-0.1-0.2-0.2-0.3-0.4l0-0.1l-0.1-0.1
	C54.1,103.7,50,91.1,50,78c0-13.2,4-25.8,11.7-36.4l0.1-0.1l0-0.1c0.1-0.1,0.2-0.2,0.3-0.3l0.1-0.1l0.1-0.1
	c11.8-16,30.7-25.6,50.5-25.6c25.1,0,47.7,14.9,57.6,37.9c0.2,0.5,0.2,1,0,1.4c-0.2,0.5-0.5,0.8-1,1c-0.2,0.1-0.5,0.2-0.7,0.2
	c-0.8,0-1.4-0.4-1.7-1.1c-1.4-3.2-3-6.2-4.9-9.1l-0.7-1.1l-1.2,0.4c-6.9,2.2-14.3,3.9-21.9,5l-1.7,0.3l0.3,1.7
	c1.3,7.1,2.1,14.7,2.3,22.6l0,1.6h6.8c1,0,1.9,0.8,1.9,1.9c0,1-0.8,1.9-1.9,1.9h-6.8l0,1.6c-0.3,15.1-2.9,29.4-7.3,40.2
	C126.8,133.9,120.1,140.7,112.7,140.7z M112.7,107.9c-5.8,0-11.6,0.3-17.2,0.9l-1.9,0.2l0.5,1.9c4.3,16,11.4,26,18.6,26
	c7.2,0,14.4-10,18.6-26l0.5-1.9l-1.9-0.2C124.3,108.2,118.5,107.9,112.7,107.9z M88.3,109.7c-6.6,1-13.1,2.4-19.3,4.2l-2.5,0.7
	l1.7,2c7.8,9,17.9,15.3,29.3,18.3l4.6,1.2l-2.8-3.8c-2.1-2.9-4-6.5-5.7-10.6c-1.3-3.3-2.5-6.9-3.5-10.7l-0.4-1.5L88.3,109.7z
	 M53.9,81.7c0.6,10.2,4,20.2,9.6,28.7l0.7,1l1.2-0.4c6.9-2.2,14.3-3.8,21.9-5l1.7-0.3l-0.3-1.7c-1.3-7.1-2.1-14.7-2.3-22.6l0-1.6
	H53.8L53.9,81.7z M90.2,81.6c0.2,7.8,1,15.3,2.3,22.2l0.3,1.5l1.5-0.2c6-0.7,12.3-1,18.5-1c6.2,0,12.4,0.3,18.4,1l1.5,0.2l0.3-1.5
	c1.3-6.9,2.1-14.4,2.3-22.2l0-1.7H90.1L90.2,81.6z M92.4,52.2c-1.3,6.9-2.1,14.4-2.3,22.2l0,1.7h45.2l0-1.7
	c-0.2-7.8-0.9-15.2-2.3-22.2l-0.3-1.5l-1.5,0.2c-6,0.7-12.2,1-18.4,1c-6.2,0-12.4-0.3-18.4-1l-1.5-0.2L92.4,52.2z M63.5,45.6
	c-5.7,8.6-9,18.5-9.6,28.7l-0.1,1.8h32.5l0-1.6c0.2-7.9,0.9-15.5,2.3-22.6l0.3-1.7L87.3,50c-7.6-1.2-14.9-2.8-21.9-5l-1.2-0.4
	L63.5,45.6z M112.7,19.1c-7.2,0-14.4,10-18.6,26L93.6,47l1.9,0.2c5.6,0.6,11.4,0.9,17.2,0.9c5.8,0,11.6-0.3,17.2-0.9l1.9-0.2
	l-0.5-1.9C127.1,29.1,119.9,19.1,112.7,19.1z M97.6,21.1c-11.4,3-21.5,9.4-29.3,18.3l-1.7,2l2.5,0.7c6.1,1.8,12.6,3.2,19.3,4.2
	l1.5,0.2l0.4-1.5c1-3.9,2.2-7.5,3.5-10.7c1.7-4.2,3.6-7.8,5.7-10.6l2.8-3.8L97.6,21.1z M126,23.7c2.1,2.9,4,6.5,5.7,10.6
	c1.3,3.3,2.5,6.9,3.5,10.7l0.4,1.5l1.5-0.2c6.7-1,13.2-2.4,19.3-4.2l2.5-0.7l-1.7-2c-7.8-9-17.9-15.3-29.4-18.3l-4.5-1.2L126,23.7z
	 M141.4,140.4c-0.2,0-0.3,0-0.5-0.1c-0.2,0-0.3-0.1-0.4-0.2c-0.3-0.2-0.5-0.4-0.7-0.7c-0.1-0.2-0.2-0.4-0.3-0.7c0-0.2,0-0.4,0-0.7
	c0-0.1,0.1-0.3,0.1-0.4l6.8-16.8c2.9-7.3,8.2-16.9,19.9-16.9h9c11.7,0,17,9.6,19.9,16.9l6.8,16.8c0.4,0.9,0,1.9-0.8,2.4h-0.3l0,0h0
	l0,0h0l0,0l-0.1,0.1l-0.4,0.1L141.4,140.4z M166.3,107.9c-7.3,0-12.3,4.5-16.4,14.5l-5.8,14.2h53.4l-5.8-14.2
	c-4.1-10.1-9.1-14.5-16.4-14.5H166.3z M170.8,95.1c-7.7,0-13.9-6.2-13.9-13.9c0-7.7,6.2-13.9,13.9-13.9c7.7,0,13.9,6.2,13.9,13.9
	C184.7,88.9,178.5,95.1,170.8,95.1z M170.8,71.1c-5.6,0-10.1,4.5-10.1,10.1c0,5.6,4.5,10.1,10.1,10.1c5.6,0,10.1-4.5,10.1-10.1
	C181,75.6,176.4,71.1,170.8,71.1z"/>
<rect id="XMLID_361_" x="243.8" y="2" class="st27" width="72.3" height="210"/>
<rect id="XMLID_363_" x="254.4" y="378" class="st28" width="61.7" height="124"/>
<rect id="XMLID_364_" x="889.1" y="2" class="st29" width="95" height="171"/>
<g id="XMLID_365_">
	<g>
		<defs>
			<rect id="XMLID_882_" x="158.4" y="250.7" width="109.4" height="96.3"/>
		</defs>
		<clipPath id="XMLID_988_">
			<use xlink:href="#XMLID_882_"  style="overflow:visible;"/>
		</clipPath>
		<path class="st30" d="M266.1,257.9H261v-5.3c0-1-0.8-1.8-1.8-1.8h-39.4c-2.5,0-4.9,1-6.7,2.7c-1.8-1.7-4.2-2.7-6.7-2.7H167
			c-1,0-1.8,0.8-1.8,1.8v5.3h-5.1c-1,0-1.8,0.8-1.8,1.8v61.5c0,4.8,3.9,8.8,8.8,8.8h33.7v13.3h-7.6c-1,0-1.8,0.8-1.8,1.8
			c0,1,0.8,1.8,1.8,1.8h39.7c1,0,1.8-0.8,1.8-1.8c0-1-0.8-1.8-1.8-1.8h-7.6v-8c0-1-0.8-1.8-1.8-1.8c-1,0-1.8,0.8-1.8,1.8v8h-17.5
			v-13.3h54.7c4.8,0,8.8-3.9,8.8-8.8v-61.5C267.8,258.7,267,257.9,266.1,257.9L266.1,257.9z M264.3,261.4v49.8H261v-49.8H264.3z
			 M168.7,254.4h37.7c2.1,0,4.1,1.1,5.3,2.8c0.3,0.5,0.9,0.8,1.5,0.8s1.1-0.3,1.5-0.8c1.2-1.8,3.1-2.8,5.3-2.8h37.7v56.8h-88.8
			V254.4z M165.2,261.4v49.8h-3.4v-49.8H165.2z M259.1,326.4h-92c-2.9,0-5.3-2.4-5.3-5.3v-6.5h102.5v6.5
			C264.3,324.1,262,326.4,259.1,326.4L259.1,326.4z M259.1,326.4"/>
	</g>
	<path d="M213.1,307.7c1,0,1.8-0.8,1.8-1.8v-42.7c0-1-0.8-1.8-1.8-1.8c-1,0-1.8,0.8-1.8,1.8v42.7
		C211.3,306.9,212.1,307.7,213.1,307.7L213.1,307.7z M213.1,307.7"/>
	<path d="M176.5,263.7h26.9c1,0,1.8-0.8,1.8-1.8c0-1-0.8-1.8-1.8-1.8h-26.9c-1,0-1.8,0.8-1.8,1.8C174.7,263,175.5,263.7,176.5,263.7
		L176.5,263.7z M176.5,263.7"/>
	<path d="M176.5,272.1h26.9c1,0,1.8-0.8,1.8-1.8c0-1-0.8-1.8-1.8-1.8h-26.9c-1,0-1.8,0.8-1.8,1.8
		C174.7,271.3,175.5,272.1,176.5,272.1L176.5,272.1z M176.5,272.1"/>
	<path d="M176.5,280.4h13.4c1,0,1.8-0.8,1.8-1.8c0-1-0.8-1.8-1.8-1.8h-13.4c-1,0-1.8,0.8-1.8,1.8
		C174.7,279.6,175.5,280.4,176.5,280.4L176.5,280.4z M176.5,280.4"/>
	<path d="M176.5,288.7h26.9c1,0,1.8-0.8,1.8-1.8c0-1-0.8-1.8-1.8-1.8h-26.9c-1,0-1.8,0.8-1.8,1.8
		C174.7,287.9,175.5,288.7,176.5,288.7L176.5,288.7z M176.5,288.7"/>
	<path d="M176.5,297h26.9c1,0,1.8-0.8,1.8-1.8c0-1-0.8-1.8-1.8-1.8h-26.9c-1,0-1.8,0.8-1.8,1.8C174.7,296.2,175.5,297,176.5,297
		L176.5,297z M176.5,297"/>
	<path d="M176.5,305.4h13.4c1,0,1.8-0.8,1.8-1.8c0-1-0.8-1.8-1.8-1.8h-13.4c-1,0-1.8,0.8-1.8,1.8
		C174.7,304.6,175.5,305.4,176.5,305.4L176.5,305.4z M176.5,305.4"/>
	<path d="M222.9,263.7h26.9c1,0,1.8-0.8,1.8-1.8c0-1-0.8-1.8-1.8-1.8h-26.9c-1,0-1.8,0.8-1.8,1.8C221.1,263,221.9,263.7,222.9,263.7
		L222.9,263.7z M222.9,263.7"/>
	<path d="M222.9,272.1h26.9c1,0,1.8-0.8,1.8-1.8c0-1-0.8-1.8-1.8-1.8h-26.9c-1,0-1.8,0.8-1.8,1.8
		C221.1,271.3,221.9,272.1,222.9,272.1L222.9,272.1z M222.9,272.1"/>
	<path d="M222.9,280.4h13.4c1,0,1.8-0.8,1.8-1.8c0-1-0.8-1.8-1.8-1.8h-13.4c-1,0-1.8,0.8-1.8,1.8
		C221.1,279.6,221.9,280.4,222.9,280.4L222.9,280.4z M222.9,280.4"/>
	<path d="M222.9,288.7h26.9c1,0,1.8-0.8,1.8-1.8c0-1-0.8-1.8-1.8-1.8h-26.9c-1,0-1.8,0.8-1.8,1.8
		C221.1,287.9,221.9,288.7,222.9,288.7L222.9,288.7z M222.9,288.7"/>
	<path d="M222.9,297h26.9c1,0,1.8-0.8,1.8-1.8c0-1-0.8-1.8-1.8-1.8h-26.9c-1,0-1.8,0.8-1.8,1.8C221.1,296.2,221.9,297,222.9,297
		L222.9,297z M222.9,297"/>
	<path d="M222.9,305.4h13.4c1,0,1.8-0.8,1.8-1.8c0-1-0.8-1.8-1.8-1.8h-13.4c-1,0-1.8,0.8-1.8,1.8
		C221.1,304.6,221.9,305.4,222.9,305.4L222.9,305.4z M222.9,305.4"/>
</g>
<g id="XMLID_473_">
	<path id="XMLID_474_" d="M723.1,39.3v-17h3.1v7.7h0.1l6.4-7.7h3.9l-7.1,8.4l7.7,8.6h-4l-6.9-7.7h-0.1v7.7H723.1z"/>
	<path id="XMLID_476_" d="M748.4,30.2c1.2,1.7,2.2,3.3,3,4.6h0.1c-0.1-2.2-0.2-3.8-0.2-4.8v-7.7h3.1v17h-3.3l-5.5-7.8
		c-1-1.4-2-2.9-3-4.7h-0.1c0.1,2.1,0.2,3.7,0.2,4.8v7.7h-3.1v-17h3.3L748.4,30.2z"/>
	<path id="XMLID_478_" d="M774.3,30.8c0,1.3-0.2,2.5-0.6,3.6c-0.4,1.1-0.9,2-1.6,2.8c-0.7,0.8-1.6,1.4-2.6,1.8
		c-1,0.4-2.2,0.6-3.5,0.6s-2.5-0.2-3.5-0.6c-1-0.4-1.9-1-2.6-1.8c-0.7-0.8-1.2-1.7-1.6-2.8c-0.4-1.1-0.6-2.3-0.6-3.6
		s0.2-2.5,0.6-3.6c0.4-1.1,0.9-2,1.6-2.8c0.7-0.8,1.6-1.4,2.6-1.8c1-0.4,2.2-0.6,3.5-0.6s2.5,0.2,3.5,0.6c1,0.4,1.9,1,2.6,1.8
		c0.7,0.8,1.2,1.7,1.6,2.8C774.1,28.4,774.3,29.5,774.3,30.8z M771,30.8c0-1-0.1-1.9-0.4-2.7s-0.6-1.4-1.1-1.9s-1-0.9-1.6-1.2
		s-1.3-0.4-2-0.4s-1.4,0.1-2,0.4s-1.2,0.6-1.6,1.2s-0.8,1.2-1.1,1.9s-0.4,1.7-0.4,2.7s0.1,1.9,0.4,2.7s0.6,1.4,1.1,1.9
		s1,0.9,1.6,1.2s1.3,0.4,2,0.4s1.4-0.1,2-0.4s1.2-0.6,1.6-1.2s0.8-1.2,1.1-1.9S771,31.9,771,30.8z"/>
	<path id="XMLID_481_" d="M787.3,26.8c-0.3,1.6-0.7,3.2-1.1,4.9l-1.9,7.6h-3.1l-5.4-17h3.3l2,6.8c0.6,2.1,1.1,4,1.5,5.8h0.1
		c0.4-1.8,0.8-3.7,1.3-5.7l1.8-6.9h3.2l1.8,6.9c0.5,1.9,0.9,3.8,1.3,5.7h0.1c0.5-2,1-4,1.5-5.8l2-6.8h3.3l-5.4,17h-3.1l-1.9-7.6
		C788.1,30,787.7,28.4,787.3,26.8L787.3,26.8z"/>
	<path id="XMLID_483_" d="M804.3,22.3v14.4h7.9v2.6h-11.1v-17H804.3z"/>
	<path id="XMLID_485_" d="M818.3,36.7h8.4v2.6h-11.5v-17h11v2.6h-7.9v4.4h6.8v2.6h-6.8V36.7z"/>
	<path id="XMLID_487_" d="M830,39.3v-17h4.5c0.4,0,0.8,0,1.2,0c0.4,0,0.8,0.1,1.2,0.1s0.8,0.1,1.1,0.2s0.7,0.2,1,0.3
		c0.9,0.3,1.7,0.7,2.4,1.2s1.3,1.1,1.7,1.7c0.5,0.7,0.8,1.4,1.1,2.2c0.2,0.8,0.4,1.7,0.4,2.7c0,0.9-0.1,1.8-0.3,2.6
		s-0.5,1.5-0.9,2.2s-0.9,1.2-1.6,1.7c-0.6,0.5-1.4,0.9-2.2,1.2c-0.7,0.3-1.5,0.5-2.5,0.6s-1.9,0.2-3.1,0.2H830z M834.4,36.7
		c1.8,0,3.2-0.2,4.3-0.7c0.9-0.4,1.6-1.1,2.1-2s0.7-1.9,0.7-3.3c0-0.7-0.1-1.3-0.2-1.9s-0.4-1.1-0.7-1.5s-0.6-0.8-1-1.1
		c-0.4-0.3-0.9-0.6-1.4-0.8c-0.5-0.2-1-0.3-1.6-0.4s-1.3-0.1-2-0.1h-1.4v11.8H834.4z"/>
	<path id="XMLID_490_" d="M858.4,32.8h-3.8v-2.6h6.9v8.6c-0.3,0.1-0.6,0.2-1,0.3c-0.4,0.1-0.8,0.2-1.3,0.3c-0.5,0.1-1,0.1-1.5,0.2
		s-1,0.1-1.5,0.1c-1.5,0-2.9-0.2-4-0.6c-1.1-0.4-2.1-1-2.8-1.7c-0.8-0.7-1.3-1.6-1.7-2.7c-0.4-1-0.6-2.2-0.6-3.4
		c0-0.9,0.1-1.7,0.3-2.5c0.2-0.8,0.5-1.5,0.9-2.2c0.4-0.7,0.9-1.3,1.4-1.8s1.2-1,1.9-1.4c0.7-0.4,1.5-0.7,2.3-0.9
		c0.8-0.2,1.7-0.3,2.7-0.3c0.9,0,1.7,0.1,2.4,0.2s1.4,0.3,1.9,0.5v2.6c-0.7-0.2-1.3-0.4-2-0.5c-0.7-0.1-1.4-0.2-2-0.2
		c-0.9,0-1.8,0.1-2.6,0.4s-1.5,0.7-2.1,1.2c-0.6,0.5-1.1,1.2-1.4,2s-0.5,1.7-0.5,2.7c0,2,0.5,3.5,1.6,4.5s2.5,1.5,4.4,1.5
		c0.4,0,0.7,0,1.1-0.1s0.7-0.1,1-0.1V32.8z"/>
	<path id="XMLID_492_" d="M868.5,36.7h8.4v2.6h-11.5v-17h11v2.6h-7.9v4.4h6.8v2.6h-6.8V36.7z"/>
</g>
<line id="XMLID_360_" class="st1" x1="316.3" y1="212" x2="316.1" y2="2"/>
<line id="XMLID_401_" class="st1" x1="710.1" y1="140" x2="528.1" y2="140"/>
<rect id="XMLID_403_" x="889.1" y="428.6" class="st31" width="160" height="72.9"/>
<line id="XMLID_422_" class="st1" x1="1049.1" y1="319" x2="1049.1" y2="429"/>
<line id="XMLID_440_" class="st1" x1="555.1" y1="123" x2="584.1" y2="123"/>
<line id="XMLID_277_" class="st1" x1="655.1" y1="63" x2="684.1" y2="63"/>
<line id="XMLID_426_" class="st1" x1="557.1" y1="121" x2="557.1" y2="140"/>
<line id="XMLID_427_" class="st1" x1="657.1" y1="61" x2="657.1" y2="80"/>
<line id="XMLID_428_" class="st1" x1="582.1" y1="106" x2="582.1" y2="125"/>
<line id="XMLID_429_" class="st1" x1="607.1" y1="91" x2="607.1" y2="110"/>
<line id="XMLID_430_" class="st1" x1="632.1" y1="76" x2="632.1" y2="95"/>
<line id="XMLID_431_" class="st1" x1="682.1" y1="46" x2="682.1" y2="65"/>
<line id="XMLID_432_" class="st1" x1="580.1" y1="108" x2="609.1" y2="108"/>
<line id="XMLID_433_" class="st1" x1="605.1" y1="93" x2="634.1" y2="93"/>
<line id="XMLID_434_" class="st1" x1="630.1" y1="78" x2="659.1" y2="78"/>
<line id="XMLID_435_" class="st1" x1="680.1" y1="48" x2="711.1" y2="48"/>
<g id="XMLID_414_">
	<g id="XMLID_417_">
		<g id="XMLID_419_">
			<g id="XMLID_437_">
				<path id="XMLID_438_" d="M586,62.6c-5.4,0-9.7-4.2-9.7-9.7s4.2-9.7,9.7-9.7c5.4,0,9.7,4.2,9.7,9.7S591.4,62.6,586,62.6z
					 M586,47.2c-3.1,0-5.8,2.7-5.8,5.8c0,3.1,2.7,5.8,5.8,5.8c3.1,0,5.8-2.7,5.8-5.8C591.8,49.9,589,47.2,586,47.2z"/>
			</g>
			<g id="XMLID_421_">
				<path id="XMLID_423_" d="M588.7,85.8h-5c-2.3,0-4.6-1.9-4.6-4.6v-3.9c-1.5-0.4-3.1-1.2-4.6-1.9c-0.4,0-0.8,0-0.8,0l-2.7,2.7
					c-1.5,1.5-4.6,1.5-6.6,0l-3.9-3.9c-1.9-1.9-1.9-4.6,0-6.6l2.7-2.7c0.4-0.4,0-0.8,0-0.8c-0.8-1.2-1.2-2.7-1.5-3.9
					c0-0.4-0.4-0.4-0.8-0.4h-3.5c-2.3,0-4.6-1.9-4.6-4.6v-5c0-2.3,1.9-4.6,4.6-4.6h3.5c0.4,0,0.4-0.4,0.8-0.4
					c0.4-1.5,1.2-2.7,1.5-3.9c0-0.4,0-0.4,0-0.8l-2.7-2.7c-1.9-1.9-1.9-4.6,0-6.6l3.9-3.9c1.5-1.5,4.6-1.5,6.6,0l2.7,2.7
					c0.4,0.4,0.4,0.4,0.8,0c1.2-0.8,2.7-1.2,3.9-1.5c0.4,0,0.4-0.4,0.4-0.8v-3.5c0-2.3,1.9-4.6,4.6-4.6h5c2.3,0,4.6,1.9,4.6,4.6v3.5
					c0,0.4,0.4,0.4,0.4,0.8c1.2,0.4,2.7,1.2,3.9,1.5c0.4,0,0.8,0,0.8,0l2.7-2.7c1.5-1.5,4.6-1.5,6.6,0l3.9,3.9
					c1.9,1.9,1.9,4.6,0,6.6l-2.7,2.7c-0.4,0.4,0,0.8,0,0.8c0.8,1.2,1.2,2.7,1.5,3.9c0,0.4,0.4,0.4,0.8,0.4h3.5
					c2.3,0,4.6,1.9,4.6,4.6v5c0,2.3-1.9,4.6-4.6,4.6h-3.5c-0.4,0-0.4,0.4-0.8,0.4c-0.4,1.5-1.2,2.7-1.5,3.9c0,0.4,0,0.4,0,0.8
					l2.7,2.7c1.9,1.9,1.9,4.6,0,6.6l-3.9,3.9c-1.5,1.5-4.6,1.5-6.6,0l-2.7-2.7c-0.4-0.4-0.4-0.4-0.8,0c-1.2,0.8-2.7,1.2-3.9,1.5
					c-0.4,0-0.4,0.4-0.4,0.8v3.5C592.9,83.8,591,85.8,588.7,85.8z M574,71.5c0.8,0,1.5,0,2.3,0.4c1.5,0.8,3.5,1.5,5,1.9
					c0.8,0.4,1.5,1.2,1.5,1.9v5.4c0,0.4,0.4,0.8,0.8,0.8h5c0.4,0,0.8-0.4,0.8-0.8v-3.5c0-1.9,1.2-3.9,3.1-4.2
					c1.2-0.4,2.3-0.8,3.5-1.5c1.9-0.8,3.9-0.8,5.4,0.8l2.7,2.7c0.4,0.4,0.8,0.4,0.8,0l3.9-3.9c0.4-0.4,0.4-0.8,0-0.8L606,68
					c-1.5-1.5-1.5-3.5-0.8-5.4c0.4-1.2,1.2-2.3,1.5-3.5c0.8-1.9,2.3-3.1,4.2-3.1h3.5c0.4,0,0.8-0.4,0.8-0.8v-5
					c0-0.4-0.4-0.8-0.8-0.8h-3.5c-1.9,0-3.9-1.2-4.2-3.1c-0.4-1.2-0.8-2.3-1.5-3.5c-0.8-1.9-0.8-3.9,0.8-5.4l2.7-2.7
					c0.4-0.4,0.4-0.8,0-0.8l-3.9-3.9c-0.4-0.4-0.8-0.4-0.8,0l-2.7,2.7c-1.5,1.2-3.5,1.5-5.4,0.8c-1.2-0.4-2.3-1.2-3.5-1.5
					c-1.9-0.8-3.1-2.3-3.1-4.2v-3.5c0-0.4-0.4-0.8-0.8-0.8h-5c-0.4,0-0.8,0.4-0.8,0.8v3.5c0,1.9-1.2,3.9-3.1,4.2
					c-1.2,0.4-2.3,0.8-3.5,1.5c-1.9,0.8-3.9,0.8-5.4-0.8l-2.7-2.7c-0.4-0.4-0.8-0.4-0.8,0l-3.9,3.9c-0.4,0.4-0.4,0.8,0,0.8l2.7,2.7
					c1.5,1.5,1.5,3.5,0.8,5.4c-0.4,1.2-1.2,2.3-1.5,3.5c-0.8,1.9-2.3,3.1-4.2,3.1h-3.5c-0.4,0-0.8,0.4-0.8,0.8v5
					c0,0.4,0.4,0.8,0.8,0.8h3.5c1.9,0,3.9,1.2,4.2,3.1c0.4,1.2,0.8,2.3,1.5,3.5c0.8,1.9,0.8,3.9-0.8,5.4l-2.7,2.7
					c-0.4,0.4-0.4,0.8,0,0.8l3.9,3.9c0.4,0.4,0.8,0.4,0.8,0l2.7-2.7C571.7,71.9,572.8,71.5,574,71.5z"/>
			</g>
		</g>
	</g>
</g>
<g id="XMLID_458_">
	<path id="XMLID_459_" d="M581.7,171.1c-0.8,0-1.6,0.1-2.3,0.4c-0.7,0.3-1.3,0.7-1.8,1.2c-0.5,0.5-0.9,1.2-1.2,2s-0.4,1.7-0.4,2.7
		c0,1,0.1,1.9,0.4,2.6s0.6,1.4,1.1,1.9s1.1,0.9,1.8,1.1c0.7,0.3,1.5,0.4,2.4,0.4c0.6,0,1.3-0.1,2-0.2s1.3-0.2,1.9-0.4v2.7
		c-0.6,0.2-1.2,0.3-1.9,0.4s-1.4,0.1-2.1,0.1c-1.4,0-2.7-0.2-3.8-0.6s-2-1-2.7-1.7c-0.7-0.7-1.3-1.6-1.7-2.7c-0.4-1-0.6-2.2-0.6-3.5
		c0-1.3,0.2-2.5,0.6-3.6c0.4-1.1,1-2.1,1.7-2.9c0.7-0.8,1.7-1.5,2.8-1.9c1.1-0.5,2.4-0.7,3.8-0.7c0.7,0,1.4,0,2,0.1s1.2,0.2,1.7,0.4
		v2.6c-0.7-0.2-1.3-0.4-1.9-0.4S582.3,171.1,581.7,171.1z"/>
	<path id="XMLID_461_" d="M604.5,177.3c0,1.3-0.2,2.5-0.6,3.6c-0.4,1.1-0.9,2-1.6,2.8c-0.7,0.8-1.6,1.4-2.6,1.8
		c-1,0.4-2.2,0.6-3.5,0.6s-2.5-0.2-3.5-0.6c-1-0.4-1.9-1-2.6-1.8c-0.7-0.8-1.2-1.7-1.6-2.8c-0.4-1.1-0.6-2.3-0.6-3.6
		s0.2-2.5,0.6-3.6c0.4-1.1,0.9-2,1.6-2.8c0.7-0.8,1.6-1.4,2.6-1.8c1-0.4,2.2-0.6,3.5-0.6s2.5,0.2,3.5,0.6c1,0.4,1.9,1,2.6,1.8
		c0.7,0.8,1.2,1.7,1.6,2.8C604.3,174.8,604.5,176,604.5,177.3z M601.2,177.3c0-1-0.1-1.9-0.4-2.7s-0.6-1.4-1.1-1.9s-1-0.9-1.6-1.2
		s-1.3-0.4-2-0.4s-1.4,0.1-2,0.4s-1.2,0.6-1.6,1.2s-0.8,1.2-1.1,1.9s-0.4,1.7-0.4,2.7s0.1,1.9,0.4,2.7s0.6,1.4,1.1,1.9
		s1,0.9,1.6,1.2s1.3,0.4,2,0.4s1.4-0.1,2-0.4s1.2-0.6,1.6-1.2s0.8-1.2,1.1-1.9S601.2,178.3,601.2,177.3z"/>
	<path id="XMLID_464_" d="M614.8,186.1c-0.9,0-1.7-0.1-2.4-0.3s-1.3-0.4-1.9-0.7s-1-0.7-1.4-1.2s-0.7-1-0.9-1.6
		c-0.2-0.5-0.3-1-0.4-1.6c-0.1-0.6-0.1-1.2-0.1-1.9v-10h3.1v9.7c0,1.2,0.1,2.1,0.4,2.8c0.3,0.8,0.8,1.3,1.4,1.6s1.3,0.5,2.2,0.5
		s1.6-0.2,2.2-0.5s1.1-0.9,1.4-1.6c0.3-0.7,0.4-1.6,0.4-2.8v-9.7h3.1v10c0,0.7,0,1.4-0.1,1.9c-0.1,0.6-0.2,1.1-0.4,1.6
		c-0.2,0.6-0.5,1.1-0.9,1.6c-0.4,0.5-0.9,0.9-1.4,1.2c-0.6,0.3-1.2,0.6-1.9,0.7S615.7,186.1,614.8,186.1z"/>
	<path id="XMLID_466_" d="M638.5,173.9c0,1.2-0.3,2.2-1,3c-0.7,0.8-1.7,1.4-3,1.8v0.1l5.1,7h-3.7l-4.6-6.6h-2.1v6.6H626v-17h5.2
		c0.9,0,1.7,0,2.4,0.1s1.4,0.2,1.9,0.4c1,0.4,1.8,0.9,2.3,1.7S638.5,172.8,638.5,173.9z M630.6,176.6c0.7,0,1.3,0,1.8-0.1
		c0.5-0.1,0.9-0.2,1.3-0.3c0.6-0.2,1.1-0.6,1.3-1c0.2-0.4,0.4-0.9,0.4-1.4c0-0.5-0.1-0.9-0.3-1.2c-0.2-0.4-0.5-0.6-1-0.8
		c-0.3-0.1-0.7-0.2-1.1-0.3s-1-0.1-1.7-0.1h-2.2v5.2H630.6z"/>
	<path id="XMLID_469_" d="M650.6,180.9c0-0.4-0.1-0.8-0.3-1s-0.5-0.5-0.9-0.7s-0.8-0.3-1.2-0.4c-0.5-0.1-0.9-0.2-1.4-0.3
		c-0.7-0.1-1.3-0.3-1.9-0.5s-1.1-0.5-1.6-0.8s-0.8-0.8-1.1-1.3s-0.4-1.2-0.4-2c0-0.9,0.2-1.7,0.5-2.3s0.7-1.2,1.3-1.7
		c0.5-0.4,1.2-0.8,1.9-1c0.7-0.2,1.5-0.3,2.4-0.3s1.8,0.1,2.7,0.3s1.7,0.4,2.4,0.7v2.7c-0.9-0.3-1.7-0.6-2.5-0.8
		c-0.8-0.2-1.6-0.2-2.3-0.2c-1,0-1.8,0.2-2.4,0.6c-0.6,0.4-0.8,0.9-0.8,1.7c0,0.4,0.1,0.8,0.3,1.1c0.2,0.3,0.4,0.5,0.7,0.7
		s0.7,0.3,1.1,0.4s0.8,0.2,1.3,0.3c0.7,0.2,1.4,0.3,2.1,0.5c0.7,0.2,1.2,0.5,1.7,0.8s0.9,0.8,1.2,1.4s0.4,1.3,0.4,2.2
		c0,0.9-0.2,1.7-0.5,2.4s-0.8,1.2-1.4,1.7c-0.6,0.4-1.4,0.8-2.3,1s-1.9,0.3-2.9,0.3c-0.9,0-1.8-0.1-2.7-0.3
		c-0.9-0.2-1.6-0.4-2.2-0.8v-2.6c0.8,0.4,1.7,0.6,2.5,0.8s1.6,0.2,2.5,0.2c0.5,0,1,0,1.4-0.1s0.9-0.2,1.3-0.4
		c0.4-0.2,0.7-0.5,0.9-0.8S650.6,181.4,650.6,180.9z"/>
	<path id="XMLID_471_" d="M660.4,183.2h8.4v2.6h-11.5v-17h11v2.6h-7.9v4.4h6.8v2.6h-6.8V183.2z"/>
</g>
<line id="XMLID_273_" class="st1" x1="711.1" y1="57" x2="889.1" y2="57"/>
<line id="XMLID_281_" class="st1" x1="0.1" y1="153" x2="244.1" y2="153"/>
<line id="XMLID_293_" class="st1" x1="889.1" y1="2" x2="889.1" y2="503"/>
<g id="XMLID_454_">
	<path id="XMLID_457_" d="M1006.9,413.1h-75.6c-1.1,0-2-0.9-2-2c0-1.1,0.9-2,2-2h75.6c1.1,0,2,0.9,2,2
		C1008.9,412.2,1008,413.1,1006.9,413.1L1006.9,413.1z M958.6,404.1c-1.1,0-2-0.9-2-2v-33.9c0,0,0,0,0-0.1c0,0,0,0,0-0.1
		c0-1.1,0.9-2,2-2h40.1v-18h-9.4c-1.1,0-2-0.9-2-2c0-1.1,0.9-2,2-2h11.4c1.1,0,2,0.9,2,2v21.9c0,1.1-0.9,2-2,2h-40.1v32
		C960.5,403.3,959.7,404.1,958.6,404.1L958.6,404.1z M937.5,404.1c-1.1,0-2-0.9-2-2v-65.3c0-1.1,0.9-2,2-2h42.1c1.1,0,2,0.9,2,2
		v21.9c0,1.1-0.9,2-2,2h-40.1v41.4C939.5,403.3,938.6,404.1,937.5,404.1L937.5,404.1z M939.5,356.8h38.2v-18h-38.2V356.8z
		 M958.6,353.2c-2.9,0-5.3-2.4-5.3-5.3c0-2.9,2.4-5.3,5.3-5.3c2.9,0,5.3,2.4,5.3,5.3C963.9,350.8,961.5,353.2,958.6,353.2
		L958.6,353.2z M958.6,346.5c-0.8,0-1.4,0.6-1.4,1.4c0,0.8,0.6,1.4,1.4,1.4c0.8,0,1.4-0.6,1.4-1.4
		C960,347.1,959.3,346.5,958.6,346.5L958.6,346.5z M958.6,346.5"/>
</g>
<g id="XMLID_424_">
	<path d="M1157.8,376.9c-0.1-0.1-0.3-0.3-0.4-0.3c-4.7-3.8-10.1-6.7-15.9-8.4c-0.1,0-0.2-0.1-0.3-0.1c-4.1-1.2-8.5-1.9-13-1.9
		s-8.9,0.6-13,1.9c-0.1,0-0.2,0.1-0.3,0.1c-6.3,1.9-12,5.1-16.9,9.3c-0.2,0.1-0.3,0.2-0.4,0.4c-3,2.6-5.6,5.6-7.8,8.9
		c-0.1,0.1-0.2,0.3-0.3,0.4c-4.9,7.4-7.7,16.2-7.7,25.7c0,8.4,2.3,16.4,6.2,23.2c0.1,0.2,0.1,0.3,0.3,0.4
		c5.7,9.7,14.9,17.1,25.8,20.6c0.1,0,0.2,0.1,0.3,0.1c4.4,1.4,9.1,2.1,13.9,2.1c6.7,0,13.1-1.4,18.9-4c0.1,0,0.3-0.1,0.4-0.2
		c5.6-2.5,10.6-6.2,14.7-10.6c0.1-0.1,0.3-0.3,0.4-0.4c4.5-4.9,7.9-10.7,10-17.2c0-0.1,0.1-0.2,0.1-0.3c1.4-4.4,2.1-9,2.1-13.8
		C1174.6,398.3,1168.1,385.4,1157.8,376.9L1157.8,376.9z M1138.8,370.9c-1.3,4.7-5.7,8.1-10.7,8.1s-9.3-3.4-10.7-8.1
		c3.4-0.9,7-1.3,10.7-1.3S1135.4,370,1138.8,370.9L1138.8,370.9z M1099.4,380.5h10.5c1.9,0,3.5,1.6,3.5,3.5c0,1.5-0.9,2.8-2.3,3.3
		c-0.7,0.2-1.1,0.9-1.1,1.6v17.4c-4.8,0.1-9.6,0.1-10.4,0c-0.5-0.1-1,0-1.4,0.3c-0.4,0.3-0.7,0.8-0.7,1.3v3.3c0,1.4-1.1,2.5-2.5,2.5
		s-2.5-1.1-2.5-2.5v-23C1094.5,385.4,1096.8,382.8,1099.4,380.5L1099.4,380.5z M1089.2,394.2v17.1c0,2.7,1.8,4.9,4.2,5.6v4.4
		c-2.6,1.5-4.6,4.1-5.4,7.1c-1.9-4.9-3-10.3-3-15.8C1085,406.1,1086.5,399.8,1089.2,394.2L1089.2,394.2z M1091.1,434.7v-3.5
		c0-4.4,3.6-8,8-8c4.4,0,8,3.6,8,8v1.2c0,0.9,0.8,1.7,1.7,1.7h4.4c2.7,0,4.9,2.2,4.9,4.9c0,2.3-1.6,4.3-3.9,4.8
		c-0.8,0.2-1.4,0.9-1.4,1.7v7.5C1103.7,449.5,1096,443,1091.1,434.7L1091.1,434.7z M1116.2,454.1v-7.4c3.1-1.2,5.2-4.3,5.2-7.7
		c0-4.6-3.7-8.3-8.3-8.3h-2.7c-0.2-6.1-5.3-11-11.4-11c-0.8,0-1.6,0.1-2.3,0.2v-3.1c2.4-0.7,4.2-3,4.2-5.6v-1.5c1.9,0,4.9,0,9-0.1
		v0.5c0,0.9,0.8,1.7,1.7,1.7c0.9,0,1.7-0.8,1.7-1.7V390c2.1-1.2,3.4-3.5,3.4-6c0-3.8-3.1-6.9-6.9-6.9h-6.1c3.2-2.2,6.7-4,10.4-5.2
		c1.8,6.1,7.4,10.5,13.9,10.5s12.2-4.4,13.9-10.5c4.7,1.6,9,4,12.8,7l0.1,5.5h-7.4c-0.9,0-1.7,0.8-1.7,1.7c0,0.9,0.8,1.7,1.7,1.7
		h2.8v3h-5.4c-0.1,0-0.2,0-0.3,0c-3,0.5-5.3,3.3-5.3,6.3v3.2h-11c-0.9,0-1.7,0.8-1.7,1.7v4.9c0,4.4,3.6,8,8,8c3.2,0,6.1-1.9,7.3-4.8
		h13.3c1.6,2.7,4.3,4.5,7.3,5v3.2h-28.8c-3.9,0-7.1,3.2-7.1,7.1c0,3.9,3.2,7.1,7.1,7.1h4.3v10.6c0,3.9,1.7,7.5,4.7,10
		c-4.6,1.7-9.5,2.6-14.7,2.6C1124,455.8,1120,455.2,1116.2,454.1L1116.2,454.1z M1162.7,438.3v-10.5h5.7
		C1167,431.6,1165.1,435.1,1162.7,438.3L1162.7,438.3z M1169.6,424.4h-8.5c-0.9,0-1.7,0.8-1.7,1.7v16.2c-3.6,3.8-8,7-12.8,9.3
		c-3.1-1.8-5-4.9-5-8.5v-12.3c0-0.9-0.8-1.7-1.7-1.7h-6c-2.1,0-3.7-1.7-3.7-3.7c0-2.1,1.7-3.7,3.7-3.7h30.5c0.9,0,1.7-0.8,1.7-1.7
		v-6.4c0-0.9-0.8-1.7-1.7-1.7c-2.8,0-5.3-1.6-6.4-4.2c-0.3-0.6-0.9-1-1.6-1H1141c-1.3,0-1.7,0.8-1.8,1.3l0,0c-0.5,2-2.4,3.5-4.5,3.5
		c-2.6,0-4.6-2.1-4.6-4.6v-3.2h11c0.9,0,1.7-0.8,1.7-1.7v-4.9c0-1.3,1.1-2.6,2.4-2.9h7c0.9,0,1.7-0.8,1.7-1.7v-4.7h2.8
		c0.5,0,0.9-0.2,1.2-0.5c0.3-0.3,0.5-0.8,0.5-1.2l0-4.2c8,7.8,13,18.7,13,30.8C1171.2,416.8,1170.6,420.7,1169.6,424.4L1169.6,424.4
		z M1169.6,424.4"/>
	<path d="M1135.5,396.7c0.9,0,1.7-0.8,1.7-1.7v-1.8c0-0.9-0.8-1.7-1.7-1.7c-0.9,0-1.7,0.8-1.7,1.7v1.8
		C1133.8,395.9,1134.6,396.7,1135.5,396.7L1135.5,396.7z M1135.5,396.7"/>
	<path d="M1179.7,414.4c-0.9-0.1-1.7,0.7-1.8,1.6c-1.7,26.1-23.6,46.6-49.8,46.6c-10.1,0-19.8-3-28.1-8.7c-0.4-0.3-1-0.4-1.5-0.2
		l-17.1,5.7l5.7-17.1c0.2-0.5,0.1-1.1-0.2-1.5c-5.7-8.3-8.7-18-8.7-28.1c0-27.5,22.4-49.9,49.9-49.9c26.2,0,48.1,20.5,49.8,46.6
		c0.1,0.9,0.9,1.7,1.8,1.6c0.9-0.1,1.6-0.9,1.6-1.8c-0.9-13.5-6.8-26-16.7-35.3c-9.9-9.3-22.9-14.5-36.5-14.5
		c-14.2,0-27.6,5.5-37.7,15.6c-10.1,10.1-15.6,23.5-15.6,37.7c0,10.5,3,20.6,8.8,29.3l-6.5,19.5c-0.2,0.6,0,1.3,0.4,1.7
		c0.5,0.5,1.1,0.6,1.7,0.4l19.5-6.5c8.7,5.8,18.8,8.8,29.3,8.8c13.6,0,26.6-5.1,36.5-14.5c9.9-9.3,15.8-21.8,16.7-35.3
		C1181.4,415.2,1180.7,414.4,1179.7,414.4L1179.7,414.4z M1179.7,414.4"/>
</g>
<g id="XMLID_425_">
	<path d="M218.1,455.1l0.1,0.4c0.2,0.7,0.9,1.2,1.6,1.2c0.2,0,0.3,0,0.5-0.1c0.9-0.3,1.4-1.2,1.1-2.1l-0.1-0.4
		c-0.3-0.9-1.2-1.4-2.1-1.1C218.3,453.2,217.8,454.2,218.1,455.1L218.1,455.1z M218.1,455.1"/>
	<path d="M147.2,491.9h-0.2c-0.9,0-1.7,0.8-1.7,1.7c0,0.9,0.8,1.7,1.7,1.7h0.2c0.9,0,1.7-0.8,1.7-1.7S148.1,491.9,147.2,491.9
		L147.2,491.9z M147.2,491.9"/>
	<path d="M217.6,491.9H154c-0.9,0-1.7,0.8-1.7,1.7c0,0.9,0.8,1.7,1.7,1.7h63.6c0.9,0,1.7-0.8,1.7-1.7S218.5,491.9,217.6,491.9
		L217.6,491.9z M217.6,491.9"/>
	<path d="M138.3,491.9h-0.2c-0.9,0-1.7,0.8-1.7,1.7c0,0.9,0.8,1.7,1.7,1.7h0.2c0.9,0,1.7-0.8,1.7-1.7S139.3,491.9,138.3,491.9
		L138.3,491.9z M138.3,491.9"/>
	<path d="M160.6,453c-0.9-0.3-1.9,0.2-2.1,1.1l-0.1,0.4c-0.3,0.9,0.2,1.9,1.1,2.1c0.2,0.1,0.3,0.1,0.5,0.1c0.7,0,1.4-0.5,1.6-1.2
		l0.1-0.4C162,454.2,161.5,453.2,160.6,453L160.6,453z M160.6,453"/>
	<path d="M191.6,411.9c0-0.9-0.8-1.7-1.7-1.7c-0.9,0-1.7,0.8-1.7,1.7v29.5c0,0.9,0.8,1.7,1.7,1.7c0.9,0,1.7-0.8,1.7-1.7V411.9z
		 M191.6,411.9"/>
	<path d="M224.4,491.9h-0.2c-0.9,0-1.7,0.8-1.7,1.7c0,0.9,0.8,1.7,1.7,1.7h0.2c0.9,0,1.7-0.8,1.7-1.7S225.3,491.9,224.4,491.9
		L224.4,491.9z M224.4,491.9"/>
	<path d="M189.9,446.5c-0.9,0-1.7,0.8-1.7,1.7v0.2c0,0.9,0.8,1.7,1.7,1.7c0.9,0,1.7-0.8,1.7-1.7v-0.2
		C191.6,447.3,190.8,446.5,189.9,446.5L189.9,446.5z M189.9,446.5"/>
	<path d="M235.2,474v-5.3c0-0.8-0.5-1.4-1.2-1.6l-28-8c-5.2-1.5-10.7-0.5-15,2.8c-2.2,1.7-3.9,3.8-5.1,6.2c-1.2-2.4-2.9-4.5-5.1-6.2
		c-4.3-3.3-9.8-4.3-15-2.8l-19.5,5.6v-60.3c3.3-0.7,6-3.3,6.6-6.6h10.7c-0.2,0.9-0.3,1.9-0.3,2.8c0,2.2,1.8,4,4,4h6.8l-12.8,40.9
		c-0.3,0.9,0.2,1.9,1.1,2.1c0.2,0.1,0.3,0.1,0.5,0.1c0.7,0,1.4-0.5,1.6-1.2l13.1-42h24.8l13.1,42c0.2,0.7,0.9,1.2,1.6,1.2
		c0.2,0,0.3,0,0.5-0.1c0.9-0.3,1.4-1.2,1.1-2.1l-12.8-40.9h6.8c2.2,0,4-1.8,4-4c0-7.2-5.9-13.1-13.1-13.1h-27.3
		c-4.9,0-9.2,2.8-11.5,6.8h-12c-0.8-3.9-4.2-6.8-8.3-6.8c-4.7,0-8.5,3.8-8.5,8.5c0,4.1,2.9,7.6,6.8,8.3v61.2l-5.2,1.5
		c-0.7,0.2-1.2,0.9-1.2,1.6v5.3c-2.6,0.7-4.5,3.2-4.5,6c0,3.4,2.8,6.2,6.2,6.2h95.4c3.4,0,6.2-2.8,6.2-6.2
		C239.7,477.1,237.8,474.7,235.2,474L235.2,474z M176.3,390.8h27.3c5.3,0,9.7,4.3,9.7,9.7c0,0.3-0.3,0.6-0.6,0.6h-45.4
		c-0.3,0-0.6-0.3-0.6-0.6C166.6,395.2,171,390.8,176.3,390.8L176.3,390.8z M139.4,396c0-2.8,2.3-5.1,5.1-5.1c2.8,0,5.1,2.3,5.1,5.1
		c0,2.8-2.3,5.1-5.1,5.1C141.7,401.1,139.4,398.8,139.4,396L139.4,396z M139.8,469.9l26.8-7.7c4.2-1.2,8.6-0.4,12,2.2
		c3,2.3,4.9,5.6,5.4,9.2h-44.2V469.9z M184.1,482.8h-46c-1.6,0-2.8-1.3-2.8-2.8c0-1.6,1.3-2.8,2.8-2.8h46V482.8z M193,464.5
		c3.5-2.6,7.9-3.4,12-2.2l26.8,7.7v3.8h-44.2C188,470.1,189.9,466.8,193,464.5L193,464.5z M233.5,482.8h-46v-5.7h46
		c1.6,0,2.8,1.3,2.8,2.8C236.3,481.6,235.1,482.8,233.5,482.8L233.5,482.8z M233.5,482.8"/>
</g>
<g id="XMLID_412_">
	<path d="M846.8,119c1.1,0,1.9-0.9,1.9-1.9v-13.4c0-5.2-4.3-9.4-9.6-9.4h-77c-5.3,0-9.5,4.1-9.5,9.4v85.2c0,5.3,4.3,9.7,9.5,9.7
		h18.7v13.2c0,0.7,0.3,1.3,0.9,1.6c0.6,0.3,1.3,0.4,1.9,0.1l9.3-4.7l9.3,4.7c0.3,0.1,0.6,0.2,0.9,0.2c0.3,0,0.7-0.1,1-0.3
		c0.6-0.3,0.9-1,0.9-1.6v-13.2l34.2-0.1c5.3,0,9.6-4.3,9.6-9.6v-13.4c0-1.1-0.9-1.9-1.9-1.9h-13.4V119H846.8z M844.9,103.7v11.5
		h-11.4v-11.3c0-3.1,2.5-5.7,5.7-5.7C842.3,98.1,844.9,100.7,844.9,103.7L844.9,103.7z M802.2,180.9c-0.3,0.1-0.5,0.3-0.7,0.6
		c-2.4,2-5.4,3.1-8.5,3.1c-3.3,0-6.5-1.2-8.9-3.4c-2.8-2.5-4.4-6.1-4.4-9.9c0-7.4,6-13.4,13.4-13.4c7.4,0,13.4,6,13.4,13.4
		C806.3,174.9,804.8,178.4,802.2,180.9L802.2,180.9z M801.2,208.7l-7.4-3.7c-0.5-0.3-1.2-0.3-1.7,0l-7.4,3.7v-22.5
		c2.5,1.4,5.4,2.2,8.4,2.2c2.9,0,5.7-0.7,8.2-2.1V208.7z M805,183.5c3.3-3.2,5.2-7.6,5.2-12.3c0-9.5-7.7-17.2-17.2-17.2
		c-9.5,0-17.2,7.7-17.2,17.2c0,4.5,1.8,8.9,5,12.1v11.5h-18.7c-3.1,0-5.7-2.6-5.7-5.8v-85.2c0-3.1,2.5-5.6,5.7-5.6h69.4
		c-1.2,1.6-1.9,3.6-1.9,5.7v85.1c0,2.2,0.7,4.2,1.9,5.8l-26.6,0V183.5z M844.9,177.5v11.5c0,3.1-2.6,5.8-5.8,5.8
		c-3.1,0-5.7-2.6-5.7-5.8v-11.5H844.9z M844.9,177.5"/>
	<path d="M793,161.7c-5.3,0-9.5,4.3-9.5,9.5c0,5.3,4.3,9.5,9.5,9.5c5.3,0,9.5-4.3,9.5-9.5C802.5,166,798.2,161.7,793,161.7
		L793,161.7z M793,176.9c-3.2,0-5.7-2.6-5.7-5.7c0-3.2,2.6-5.7,5.7-5.7c3.2,0,5.7,2.6,5.7,5.7C798.7,174.4,796.1,176.9,793,176.9
		L793,176.9z M793,176.9"/>
	<path d="M818.5,133h-50.9c-1.1,0-1.9,0.9-1.9,1.9c0,1.1,0.9,1.9,1.9,1.9h50.9c1.1,0,1.9-0.9,1.9-1.9
		C820.4,133.8,819.5,133,818.5,133L818.5,133z M818.5,133"/>
	<path d="M810.8,140.6h-35.6c-1.1,0-1.9,0.9-1.9,1.9c0,1.1,0.9,1.9,1.9,1.9h35.6c1.1,0,1.9-0.9,1.9-1.9
		C812.7,141.5,811.9,140.6,810.8,140.6L810.8,140.6z M810.8,140.6"/>
	<path d="M818.5,125.4h-7.6c-1.1,0-1.9,0.9-1.9,1.9c0,1.1,0.9,1.9,1.9,1.9h7.6c1.1,0,1.9-0.9,1.9-1.9
		C820.4,126.2,819.5,125.4,818.5,125.4L818.5,125.4z M818.5,125.4"/>
	<path d="M767.6,129.2h35.6c1.1,0,1.9-0.9,1.9-1.9c0-1.1-0.9-1.9-1.9-1.9h-35.6c-1.1,0-1.9,0.9-1.9,1.9
		C765.7,128.3,766.5,129.2,767.6,129.2L767.6,129.2z M767.6,129.2"/>
	<path d="M774,118.6c0.3,0.3,0.8,0.4,1.2,0.4c0.6,0,1.1-0.3,1.5-0.7l4.4-5.7l4.4,5.7c0.4,0.5,0.9,0.7,1.5,0.7s1.1-0.3,1.5-0.7
		l4.4-5.7l4.4,5.7c0.4,0.5,0.9,0.7,1.5,0.7c0.6,0,1.1-0.3,1.5-0.7l4.4-5.7l4.4,5.7c0.6,0.8,1.8,1,2.7,0.3c0.8-0.6,1-1.8,0.3-2.7
		l-5.9-7.6c-0.4-0.5-0.9-0.7-1.5-0.7c-0.6,0-1.1,0.3-1.5,0.7l-4.4,5.7l-4.4-5.7c-0.4-0.5-0.9-0.7-1.5-0.7c-0.6,0-1.1,0.3-1.5,0.7
		l-4.4,5.7l-4.4-5.7c-0.4-0.5-0.9-0.7-1.5-0.7c-0.6,0-1.1,0.3-1.5,0.7l-5.9,7.6C773,116.8,773.2,118,774,118.6L774,118.6z
		 M774,118.6"/>
</g>
<g id="XMLID_367_">
	<path d="M1062.9,103.6h-30.4c-1.1,0-1.9,0.9-1.9,1.9v25c0,1.1,0.9,1.9,1.9,1.9h30.4c1.1,0,1.9-0.9,1.9-1.9v-25
		C1064.9,104.5,1064,103.6,1062.9,103.6L1062.9,103.6z M1061,128.7h-26.5v-12h7v6.3c0,1.1,0.9,1.9,1.9,1.9h8.7
		c1.1,0,1.9-0.9,1.9-1.9v-6.3h7V128.7z M1045.3,121v-4.3h4.9v4.3H1045.3z M1061,112.8h-26.5v-5.4h26.5V112.8z M1061,112.8"/>
	<path d="M1103.8,103.6h-30.4c-1.1,0-1.9,0.9-1.9,1.9v25c0,1.1,0.9,1.9,1.9,1.9h30.4c1.1,0,1.9-0.9,1.9-1.9v-25
		C1105.7,104.5,1104.9,103.6,1103.8,103.6L1103.8,103.6z M1075.4,107.5h26.5v5.4h-26.5V107.5z M1091.1,116.7v4.3h-4.9v-4.3H1091.1z
		 M1101.9,128.7h-26.5v-12h7v6.3c0,1.1,0.9,1.9,1.9,1.9h8.7c1.1,0,1.9-0.9,1.9-1.9v-6.3h7V128.7z M1101.9,128.7"/>
	<path d="M1115.7,87.8h-2.2V54.2c0-1.1-0.9-1.9-1.9-1.9h-14.1c-0.7-1.1-1.5-2.2-2.3-3.2c-6.5-8-16.2-12.6-26.5-12.8c0,0-0.1,0-0.1,0
		c-0.1,0-0.3,0-0.4,0c-0.1,0-0.3,0-0.4,0c0,0,0,0-0.1,0c-10.3,0.2-19.9,4.8-26.5,12.8c-0.8,1-1.6,2.1-2.3,3.2h-14.1
		c-1.1,0-1.9,0.9-1.9,1.9v33.6h-2.2c-1.1,0-1.9,0.9-1.9,1.9c0,1.1,0.9,1.9,1.9,1.9h2.2v40.7c0,5.4,4.4,9.8,9.8,9.8h71
		c5.4,0,9.8-4.4,9.8-9.8V91.6h2.2c1.1,0,1.9-0.9,1.9-1.9C1117.6,88.7,1116.8,87.8,1115.7,87.8L1115.7,87.8z M1093.3,52.9
		c0.5,0.7,1.1,1.5,1.5,2.3c2.6,4.3,4.1,9.2,4.4,14.2h-10.1c-0.2-4.7-0.9-9.3-2.1-13.5C1089.3,55.1,1091.4,54,1093.3,52.9
		L1093.3,52.9z M1099.2,73.2c-0.2,3.1-0.8,6.1-1.9,9h-9.2c0.6-2.9,0.9-5.9,1-9H1099.2z M1090.8,49.9c-1.5,0.9-3.2,1.7-5,2.4
		c-1.5-3.9-3.4-7.2-5.6-9.8C1084.2,44.2,1087.8,46.7,1090.8,49.9L1090.8,49.9z M1070.2,40.3c4.7,1.1,9.1,6,11.9,13.2
		c-3.7,1.1-7.8,1.7-11.9,1.8V40.3z M1070.2,59.2c4.6-0.2,9.1-0.9,13.2-2c1.1,3.8,1.7,8,1.9,12.2h-15V59.2z M1070.2,73.2h15
		c-0.1,3.1-0.5,6.1-1.1,9h-14V73.2z M1066.4,40.3v15.1c-4.2-0.1-8.4-0.8-12.2-1.9C1057.1,46.2,1061.6,41.3,1066.4,40.3L1066.4,40.3z
		 M1051.1,69.4c0.1-4.3,0.8-8.4,1.9-12.2c4.2,1.2,8.7,1.9,13.4,2.1v10.2H1051.1z M1066.4,73.2v9h-14.2c-0.6-2.9-1-5.9-1.1-9H1066.4z
		 M1056.2,42.5c-2.2,2.6-4.1,5.9-5.6,9.8c-1.8-0.7-3.5-1.5-5-2.4C1048.6,46.7,1052.2,44.2,1056.2,42.5L1056.2,42.5z M1041.6,55.2
		c0.5-0.8,1-1.5,1.5-2.3c1.9,1.2,4,2.2,6.2,3.1c-1.2,4.2-1.9,8.8-2.1,13.5h-10.1C1037.5,64.4,1039,59.5,1041.6,55.2L1041.6,55.2z
		 M1047.3,73.2c0.1,3.1,0.4,6.1,1,9h-9.2c-1.1-2.9-1.7-5.9-1.9-9H1047.3z M1026.7,56.1h10.1c-2.3,4.7-3.5,9.9-3.5,15.2
		c0,3.7,0.6,7.4,1.7,10.9h-8.3V56.1z M1103.7,138.4h-71c-3.3,0-6-2.7-6-6V86h83v46.4h0C1109.7,135.7,1107,138.4,1103.7,138.4
		L1103.7,138.4z M1109.7,82.2h-8.3c1.1-3.5,1.7-7.1,1.7-10.9c0-5.3-1.2-10.5-3.5-15.2h10.1V82.2z M1109.7,82.2"/>
</g>
<line id="XMLID_278_" class="st1" x1="1151.1" y1="2" x2="1151.1" y2="173"/>
</svg>
